# Created by Kenney (www.kenney.nl)

mtllib barrel.mtl

g barrel

v 0.1782713 0.40016 0.0738424
v 0.1980792 0.320128 0.082047
v 0.0738424 0.40016 0.1782713
v 0.0820471 0.320128 0.1980792
v -0.1980792 0.320128 -0.0820471
v -0.1782713 0.40016 -0.0738424
v -0.1980792 0.320128 0.082047
v -0.1782713 0.40016 0.0738424
v -0.1156381 0.0240096 0.0478989
v -0.1284868 0 0.053221
v -0.0478989 0.0240096 0.1156381
v -0.053221 0 0.1284868
v 0.1980792 0.320128 -0.0820471
v 0.1782713 0.40016 -0.0738424
v -0.2178871 0.1340448 0.0902518
v -0.2178871 0.2661152 0.0902518
v -0.0902518 0.1340448 0.2178871
v -0.0902518 0.2661152 0.2178871
v -0.1980792 0.080032 -0.0820471
v -0.1980792 0.080032 0.082047
v -0.180072 0 -0.0745883
v -0.180072 0 0.0745883
v -0.0478989 0.3761504 0.1156381
v 0.0478989 0.3761504 0.1156381
v -0.053221 0.40016 0.1284868
v 0.053221 0.40016 0.1284868
v -0.0745883 0 0.180072
v -0.082047 0.080032 0.1980792
v -0.053221 0 -0.1284868
v -0.1284868 0 -0.053221
v -0.0478989 0.0240096 -0.1156382
v -0.1156381 0.0240096 -0.0478989
v -0.0902518 0.1340448 -0.2178871
v -0.0902518 0.2661152 -0.2178871
v -0.2178871 0.1340448 -0.0902518
v -0.2178871 0.2661152 -0.0902518
v -0.1156381 0.3761504 0.0478989
v -0.1284868 0.40016 0.053221
v -0.0745883 0 -0.180072
v 0.0745883 0 -0.180072
v -0.082047 0.080032 -0.1980792
v 0.0820471 0.080032 -0.1980792
v 0.1980792 0.080032 -0.0820471
v 0.180072 0 -0.0745883
v -0.0738424 0.40016 0.1782713
v -0.082047 0.320128 0.1980792
v 0.0745883 0 0.180072
v 0.0820471 0.080032 0.1980792
v 0.180072 0 0.0745883
v 0.1980792 0.080032 0.082047
v 0.0902518 0.2661152 -0.2178871
v 0.0902518 0.1340448 -0.2178871
v 0.2178871 0.2661152 -0.0902518
v 0.2178871 0.1340448 -0.0902518
v 0.0902518 0.1340448 0.2178871
v 0.0902518 0.2661152 0.2178871
v 0.053221 0 -0.1284868
v 0.0478989 0.0240096 -0.1156382
v 0.053221 0 0.1284868
v 0.1284868 0 0.053221
v 0.0478989 0.0240096 0.1156381
v 0.1156382 0.0240096 0.0478989
v 0.1284868 0 -0.053221
v 0.1156382 0.0240096 -0.0478989
v 0.1156382 0.3761504 -0.0478989
v 0.0478989 0.3761504 -0.1156382
v 0.1284868 0.40016 -0.053221
v 0.053221 0.40016 -0.1284868
v -0.082047 0.320128 -0.1980792
v -0.0738424 0.40016 -0.1782713
v 0.0820471 0.320128 -0.1980792
v 0.0738424 0.40016 -0.1782713
v -0.0478989 0.3761504 -0.1156382
v -0.053221 0.40016 -0.1284868
v 0.2178871 0.1340448 0.0902518
v 0.2178871 0.2661152 0.0902518
v 0.1156382 0.3761504 0.0478989
v 0.1284868 0.40016 0.053221
v -0.1284868 0.40016 -0.053221
v -0.1156381 0.3761504 -0.0478989

vn 0.6863964 0.2402503 0.6863961
vn 0.6752775 0.2966497 0.6752772
vn -0.9549864 0.2966495 0
vn -0.9707109 0.2402507 0
vn 0.799448 -0.5012262 -0.3311423
vn 0.799448 -0.5012261 -0.3311422
vn 0.3311423 -0.5012262 -0.799448
vn 0.3311422 -0.5012261 -0.799448
vn 0.9549864 0.2966495 0
vn 0.9707109 0.2402507 0
vn -0.6972266 -0.1665836 0.6972266
vn -0.6972266 0.1665836 0.6972266
vn -0.9579145 -0.2870534 0
vn -0.9756098 -0.2195122 0
vn 0.3311423 0.5012262 -0.799448
vn -0.3311423 0.5012257 -0.7994483
vn 0.3311422 0.5012261 -0.799448
vn -0.3311422 0.5012257 -0.7994483
vn -0.6898605 -0.2195112 0.6898605
vn -0.6773479 -0.2870536 0.6773479
vn 0.3311429 -0.5012242 0.799449
vn 0.7994483 -0.5012257 0.3311422
vn 0.3311424 -0.5012242 0.7994491
vn 0.7994483 -0.5012257 0.3311423
vn -0.6972266 -0.1665833 -0.6972267
vn -0.6972266 0.1665833 -0.6972267
vn -0.6972266 -0.1665832 -0.6972267
vn -0.6972266 0.1665832 -0.6972267
vn 0.799448 0.5012262 -0.3311423
vn 0.799448 0.5012261 -0.3311422
vn 0 -0.2195122 -0.9756098
vn 0 -0.2870534 -0.9579145
vn -0.9860275 -0.166583 0
vn -0.9860275 0.166583 0
vn -0.9860275 -0.1665829 0
vn -0.9860275 0.1665829 0
vn 0.677348 -0.2870533 -0.677348
vn 0.6898603 -0.219512 -0.6898603
vn -0.6863964 0.2402499 0.6863964
vn -0.6752773 0.2966497 0.6752773
vn 0 0.2966495 0.9549864
vn 0 0.2402507 0.9707109
vn 0 -0.2195122 0.9756098
vn 0 -0.2870534 0.9579145
vn 0.6898605 -0.2195116 0.6898602
vn 0.677348 -0.2870534 0.6773477
vn 0.6972266 0.166583 -0.6972266
vn 0.6972266 -0.166583 -0.6972266
vn -0.6898602 -0.2195116 -0.6898605
vn -0.6773477 -0.2870534 -0.677348
vn 0.9579145 -0.2870534 0
vn 0.9756098 -0.2195122 0
vn 0 -0.166583 0.9860275
vn 0 -0.1665829 0.9860275
vn 0 0.166583 0.9860275
vn 0 0.1665829 0.9860275
vn -0.331143 -0.5012237 0.7994493
vn -0.3311425 -0.5012237 0.7994496
vn -0.3311422 -0.5012257 -0.7994483
vn -0.799449 -0.5012242 -0.3311429
vn -0.3311423 -0.5012257 -0.7994483
vn -0.7994491 -0.5012242 -0.3311424
vn 0 -0.1665829 -0.9860275
vn 0 -0.166583 -0.9860275
vn 0 0.1665829 -0.9860275
vn 0 0.166583 -0.9860275
vn -0.7994493 -0.5012237 0.331143
vn -0.7994496 -0.5012237 0.3311425
vn -0.7994496 0.5012237 0.3311425
vn -0.3311425 0.5012237 0.7994496
vn -0.7994493 0.5012237 0.331143
vn -0.331143 0.5012237 0.7994493
vn -0.6752772 0.2966497 -0.6752775
vn -0.6863961 0.2402503 -0.6863964
vn 0.6752774 0.2966495 -0.6752774
vn 0.6863962 0.2402507 -0.6863962
vn 0 0.2966495 -0.9549864
vn 0 0.2402507 -0.9707109
vn 0.3311424 0.5012242 0.7994491
vn 0.3311429 0.5012242 0.799449
vn 0.6972267 -0.1665833 0.6972266
vn 0.6972267 -0.1665832 0.6972266
vn 0.6972267 0.1665833 0.6972266
vn 0.6972267 0.1665832 0.6972266
vn -0.7994491 0.5012242 -0.3311424
vn -0.799449 0.5012242 -0.3311429
vn 0.9860275 0.166583 0
vn 0.9860275 -0.166583 0
vn 0.9860275 0.1665829 0
vn 0.9860275 -0.1665829 0
vn 0.7994483 0.5012257 0.3311422
vn 0.7994483 0.5012257 0.3311423
vn 0 -1 0
vn 0 1 0
vn -0.6863964 -0.2402503 -0.6863961
vn -0.6752775 -0.2966497 -0.6752772
vn 0.9549864 -0.2966495 0
vn 0.9707109 -0.2402507 0
vn -0.3311423 0.5012262 0.799448
vn -0.799448 0.5012261 0.3311422
vn -0.799448 0.5012262 0.3311423
vn -0.3311422 0.5012261 0.799448
vn -0.9707109 -0.2402507 0
vn -0.9549864 -0.2966495 0
vn 0.6972266 0.1665836 -0.6972266
vn 0.6972266 -0.1665836 -0.6972266
vn 0.9756098 0.2195122 0
vn 0.9579145 0.2870534 0
vn -0.3311422 -0.5012261 0.799448
vn 0.3311423 -0.5012257 0.7994483
vn -0.3311423 -0.5012262 0.799448
vn 0.3311422 -0.5012257 0.7994483
vn 0.6773479 0.2870536 -0.6773479
vn 0.6898605 0.2195112 -0.6898605
vn -0.3311424 0.5012242 -0.7994491
vn -0.7994483 0.5012257 -0.3311422
vn -0.3311429 0.5012242 -0.799449
vn -0.7994483 0.5012257 -0.3311423
vn 0.6972266 0.1665832 0.6972267
vn 0.6972266 -0.1665833 0.6972267
vn 0.6972266 0.1665833 0.6972267
vn 0.6972266 -0.1665832 0.6972267
vn -0.799448 -0.5012261 0.3311422
vn -0.799448 -0.5012262 0.3311423
vn 0 0.2870534 0.9579145
vn 0 0.2195122 0.9756098
vn -0.677348 0.2870533 0.677348
vn -0.6898603 0.219512 0.6898603
vn 0.6752773 -0.2966497 -0.6752773
vn 0.6863964 -0.2402499 -0.6863964
vn 0 -0.2402507 -0.9707109
vn 0 -0.2966495 -0.9549864
vn 0 0.2870534 -0.9579145
vn 0 0.2195122 -0.9756098
vn -0.677348 0.2870534 -0.6773477
vn -0.6898605 0.2195116 -0.6898602
vn -0.6972266 -0.166583 0.6972266
vn -0.6972266 0.166583 0.6972266
vn 0.6773477 0.2870534 0.677348
vn 0.6898602 0.2195116 0.6898605
vn -0.9579145 0.2870534 0
vn -0.9756098 0.2195122 0
vn 0.3311425 0.5012237 -0.7994496
vn 0.331143 0.5012237 -0.7994493
vn 0.3311423 0.5012257 0.7994483
vn 0.799449 0.5012242 0.3311429
vn 0.3311422 0.5012257 0.7994483
vn 0.7994491 0.5012242 0.3311424
vn 0.7994493 0.5012237 -0.331143
vn 0.7994496 0.5012237 -0.3311425
vn 0.7994493 -0.5012237 -0.331143
vn 0.3311425 -0.5012237 -0.7994496
vn 0.7994496 -0.5012237 -0.3311425
vn 0.331143 -0.5012237 -0.7994493
vn 0.6863961 -0.2402503 0.6863964
vn 0.6752772 -0.2966497 0.6752775
vn -0.6863962 -0.2402507 0.6863962
vn -0.6752774 -0.2966495 0.6752774
vn 0 -0.2402507 0.9707109
vn 0 -0.2966495 0.9549864
vn -0.3311424 -0.5012242 -0.7994491
vn -0.3311429 -0.5012242 -0.799449
vn -0.6972267 -0.1665833 -0.6972266
vn -0.6972267 0.1665832 -0.6972266
vn -0.6972267 0.1665833 -0.6972266
vn -0.6972267 -0.1665832 -0.6972266
vn 0.7994491 -0.5012242 0.3311424
vn 0.799449 -0.5012242 0.3311429
vn -0.7994483 -0.5012257 -0.3311423
vn -0.7994483 -0.5012257 -0.3311422

vt 2.907179 13.60669
vt 3.230201 10.36076
vt -2.907182 13.60669
vt -3.230202 10.36075
vt -3.230201 10.36075
vt -2.907181 13.60669
vt 3.230197 10.36075
vt 2.907181 13.60669
vt 1.885781 -1.314684
vt 2.095313 -2.386787
vt -1.885781 -1.314684
vt -2.095313 -2.386787
vt 3.230201 10.36075
vt -3.230197 10.36075
vt -3.55322 5.277354
vt -3.55322 10.47698
vt 3.55322 5.277354
vt 3.55322 10.47698
vt -3.230201 4.785858
vt 3.230197 4.785858
vt -2.936547 1.556221
vt 2.936547 1.556221
vt 1.885783 15.20508
vt -1.885783 15.20508
vt 2.095315 16.27719
vt -2.095315 16.27719
vt 2.936545 1.556213
vt -2.936545 1.556213
vt 3.230203 4.785851
vt -3.230203 4.785851
vt 2.095315 -2.386782
vt -2.095312 -2.386783
vt 1.885786 -1.31468
vt -1.88578 -1.31468
vt 1.885781 15.20508
vt -1.885781 15.20508
vt 2.095313 16.27719
vt -2.095313 16.27719
vt -3.553221 5.277354
vt -3.553221 10.47698
vt 3.553221 5.277354
vt 3.553221 10.47698
vt 3.2302 4.785857
vt 2.936545 1.556219
vt -3.2302 4.785857
vt -2.936545 1.556219
vt -2.907181 13.6067
vt 2.907181 13.6067
vt -3.230203 10.36076
vt 3.230203 10.36076
vt 3.230201 4.785858
vt -3.230197 4.785858
vt 2.936543 1.556216
vt -2.936547 1.556216
vt 3.230201 4.785853
vt -3.230202 4.785854
vt 2.936547 1.556216
vt -2.936543 1.556216
vt 3.230202 4.785854
vt -3.230201 4.785853
vt 2.095315 -2.386773
vt -2.095315 -2.386773
vt 1.885783 -1.314672
vt -1.885783 -1.314672
vt 2.095312 -2.386783
vt -2.095315 -2.386782
vt 1.88578 -1.31468
vt -1.885786 -1.31468
vt 2.095315 -2.386788
vt -2.095315 -2.386788
vt 1.885783 -1.314685
vt -1.885783 -1.314685
vt -2.095313 -2.386777
vt -1.885784 -1.314676
vt 2.095313 -2.386777
vt 1.885784 -1.314676
vt 1.885784 15.20509
vt -1.885784 15.20509
vt 2.095313 16.27719
vt -2.095313 16.27719
vt 3.230202 10.36075
vt -3.230201 10.36076
vt 2.907182 13.60669
vt -2.907179 13.60669
vt 3.2302 10.36075
vt -3.2302 10.36075
vt 2.907181 13.60669
vt -2.907181 13.60669
vt 1.885783 15.20509
vt -1.885783 15.20509
vt 2.095315 16.27719
vt -2.095315 16.27719
vt 1.88578 15.20509
vt -1.885786 15.20509
vt 2.095312 16.27719
vt -2.095315 16.27719
vt 2.095315 16.27719
vt 1.885786 15.20509
vt -2.095312 16.27719
vt -1.88578 15.20509
vt 7.089449 -2.936547
vt 5.058536 2.095315
vt 7.089449 2.936547
vt 2.936547 7.089449
vt 5.058536 -2.095315
vt 2.095315 5.058536
vt 2.936547 -7.089449
vt 2.095315 -5.058536
vt -2.936547 7.089449
vt -2.095315 5.058536
vt -5.058536 2.095315
vt -7.089449 2.936547
vt -2.936547 -7.089449
vt -2.095315 -5.058536
vt -5.058536 -2.095315
vt -7.089449 -2.936547
vt 2.907181 -7.018555
vt -2.907181 -7.018555
vt 7.018555 -2.907181
vt -7.018555 -2.907181
vt -7.018555 2.907181
vt -2.907181 7.018555
vt 7.018555 2.907181
vt 2.907181 7.018555
vt 1.885783 4.552681
vt 4.552685 -1.885783
vt 4.552685 1.885783
vt 1.885783 -4.552685
vt -1.885783 4.552681
vt -1.885783 -4.552685
vt -4.552681 1.885783
vt -4.552681 -1.885783
vt 3.553221 7.908206
vt -3.230201 5.643233
vt 3.230197 5.643233
vt -3.553221 7.908206
vt 3.230201 5.643233
vt -3.230197 5.643233
vt 3.230203 5.643239
vt -3.55322 7.908213
vt -3.230203 5.643239
vt 3.55322 7.908213
vt -3.55322 7.908206
vt 3.2302 5.643233
vt 3.55322 7.908206
vt -3.2302 5.643233
vt 3.230197 9.147851
vt -3.553221 6.882878
vt 3.553221 6.882878
vt -3.230201 9.147851
vt 3.230201 9.147851
vt -3.230197 9.147851
vt -3.230202 9.147844
vt 3.553218 6.882872
vt 3.230201 9.147845
vt -3.553222 6.882872
vt 3.2302 9.147851
vt -3.55322 6.882878
vt 3.55322 6.882878
vt -3.2302 9.147851
vt 3.230202 9.147844
vt -3.553218 6.882872
vt 3.553222 6.882872
vt -3.230201 9.147845
vt 3.553218 7.90821
vt -3.230202 5.643237
vt 3.230201 5.643236
vt -3.553222 7.908209
vt -4.552685 1.885783
vt -4.552685 -1.885783
vt 4.552681 -1.885783
vt 4.552681 1.885783
vt 3.553222 7.908209
vt -3.230201 5.643236
vt 3.230202 5.643237
vt -3.553218 7.90821
vt -3.55322 6.882865
vt 3.230203 9.147839
vt -3.230203 9.147839
vt 3.55322 6.882865

usemtl wood

f 3/3/1 2/2/2 1/1/1
f 2/2/2 3/3/1 4/4/2
f 7/7/3 6/6/4 5/5/3
f 6/6/4 7/7/3 8/8/4
f 11/11/7 10/10/6 9/9/5
f 10/10/6 11/11/7 12/12/8
f 14/8/10 2/14/9 13/13/9
f 2/14/9 14/8/10 1/6/10
f 17/17/11 16/16/12 15/15/11
f 16/16/12 17/17/11 18/18/12
f 21/21/14 20/20/13 19/19/13
f 20/20/13 21/21/14 22/22/14
f 25/25/17 24/24/16 23/23/15
f 24/24/16 25/25/17 26/26/18
f 28/29/20 22/28/19 27/27/19
f 22/28/19 28/29/20 20/30/20
f 31/33/23 30/32/22 29/31/21
f 30/32/22 31/33/23 32/34/24
f 35/17/27 34/16/26 33/15/25
f 34/16/26 35/17/27 36/18/28
f 38/37/30 23/36/15 37/35/29
f 23/36/15 38/37/30 25/38/17
f 41/20/32 40/21/31 39/22/31
f 40/21/31 41/20/32 42/19/32
f 15/41/35 36/40/34 35/39/33
f 36/40/34 15/41/35 16/42/36
f 43/45/37 40/44/38 42/43/37
f 40/44/38 43/45/37 44/46/38
f 7/49/40 45/48/39 8/47/39
f 45/48/39 7/49/40 46/50/40
f 3/8/42 46/14/41 4/13/41
f 46/14/41 3/8/42 45/6/42
f 48/51/44 27/21/43 47/22/43
f 27/21/43 48/51/44 28/52/44
f 50/55/46 47/54/45 49/53/45
f 47/54/45 50/55/46 48/56/46
f 53/16/47 52/17/48 51/18/47
f 52/17/48 53/16/47 54/15/48
f 19/59/50 39/58/49 21/57/49
f 39/58/49 19/59/50 41/60/50
f 50/52/51 44/22/52 43/51/51
f 44/22/52 50/52/51 49/21/52
f 56/42/55 17/39/54 55/41/53
f 17/39/54 56/42/55 18/40/56
f 58/63/58 29/62/21 57/61/57
f 29/62/21 58/63/58 31/64/23
f 61/67/61 60/66/60 59/65/59
f 60/66/60 61/67/61 62/68/62
f 11/71/7 59/70/59 12/69/8
f 59/70/59 11/71/7 61/72/61
f 34/42/65 52/39/64 33/41/63
f 52/39/64 34/42/65 51/40/66
f 63/75/67 58/74/58 57/73/57
f 58/74/58 63/75/67 64/76/68
f 67/79/71 66/78/70 65/77/69
f 66/78/70 67/79/71 68/80/72
f 6/83/74 69/82/73 5/81/73
f 69/82/73 6/83/74 70/84/74
f 72/87/76 13/86/75 71/85/75
f 13/86/75 72/87/76 14/88/76
f 70/8/78 71/5/77 69/7/77
f 71/5/77 70/8/78 72/6/78
f 68/91/72 73/90/79 66/89/70
f 73/90/79 68/91/72 74/92/80
f 76/18/83 55/15/82 75/17/81
f 55/15/82 76/18/83 56/16/84
f 26/95/18 77/94/85 24/93/16
f 77/94/85 26/95/18 78/96/86
f 65/90/69 78/91/86 67/92/71
f 78/91/86 65/90/69 77/89/85
f 32/71/24 10/70/6 30/69/22
f 10/70/6 32/71/24 9/72/5
f 60/61/60 64/64/68 63/62/67
f 64/64/68 60/61/60 62/63/62
f 76/40/89 54/41/88 53/42/87
f 54/41/88 76/40/89 75/39/90
f 38/26/30 80/23/92 79/25/91
f 80/23/92 38/26/30 37/24/29
f 79/99/91 73/98/79 74/97/80
f 73/98/79 79/99/91 80/100/92
f 49/103/93 60/102/93 44/101/93
f 60/102/93 49/103/93 47/104/93
f 63/105/93 44/101/93 60/102/93
f 60/102/93 47/104/93 59/106/93
f 44/101/93 63/105/93 40/107/93
f 40/107/93 63/105/93 57/108/93
f 59/106/93 47/104/93 27/109/93
f 59/106/93 27/109/93 12/110/93
f 12/110/93 27/109/93 10/111/93
f 10/111/93 27/109/93 22/112/93
f 40/107/93 57/108/93 39/113/93
f 39/113/93 57/108/93 29/114/93
f 10/111/93 22/112/93 30/115/93
f 39/113/93 29/114/93 30/115/93
f 21/116/93 30/115/93 22/112/93
f 39/113/93 30/115/93 21/116/93
f 68/114/94 70/117/94 74/108/94
f 74/108/94 70/117/94 79/105/94
f 68/114/94 72/118/94 70/117/94
f 79/105/94 70/117/94 6/119/94
f 67/115/94 72/118/94 68/114/94
f 67/115/94 14/120/94 72/118/94
f 14/120/94 67/115/94 1/121/94
f 78/111/94 1/121/94 67/115/94
f 1/121/94 78/111/94 3/122/94
f 3/122/94 78/111/94 26/110/94
f 79/105/94 6/119/94 38/102/94
f 8/123/94 38/102/94 6/119/94
f 3/122/94 26/110/94 45/124/94
f 45/124/94 38/102/94 8/123/94
f 45/124/94 26/110/94 25/106/94
f 45/124/94 25/106/94 38/102/94

usemtl rock

f 1/1/95 2/2/96 3/3/95
f 4/4/96 3/3/95 2/2/96
f 5/5/97 6/6/98 7/7/97
f 8/8/98 7/7/97 6/6/98
f 9/9/101 10/10/100 11/11/99
f 12/12/102 11/11/99 10/10/100
f 13/13/104 2/14/104 14/8/103
f 1/6/103 14/8/103 2/14/104
f 62/127/94 64/126/94 61/125/94
f 58/128/94 61/125/94 64/126/94
f 11/129/94 61/125/94 58/128/94
f 31/130/94 11/129/94 58/128/94
f 9/131/94 11/129/94 31/130/94
f 32/132/94 9/131/94 31/130/94
f 15/15/105 16/16/106 17/17/105
f 18/18/106 17/17/105 16/16/106
f 19/19/108 20/20/108 21/21/107
f 22/22/107 21/21/107 20/20/108
f 23/23/111 24/24/110 25/25/109
f 26/26/112 25/25/109 24/24/110
f 27/27/114 22/28/114 28/29/113
f 20/30/113 28/29/113 22/28/114
f 29/31/117 30/32/116 31/33/115
f 32/34/118 31/33/115 30/32/116
f 33/15/121 34/16/120 35/17/119
f 36/18/122 35/17/119 34/16/120
f 37/35/124 23/36/111 38/37/123
f 25/38/109 38/37/123 23/36/111
f 39/22/126 40/21/126 41/20/125
f 42/19/125 41/20/125 40/21/126
f 35/39/87 36/40/88 15/41/89
f 16/42/90 15/41/89 36/40/88
f 42/43/127 40/44/128 43/45/127
f 44/46/128 43/45/127 40/44/128
f 8/47/130 45/48/130 7/49/129
f 46/50/129 7/49/129 45/48/130
f 4/13/132 46/14/132 3/8/131
f 45/6/131 3/8/131 46/14/132
f 47/22/134 27/21/134 48/51/133
f 28/52/133 48/51/133 27/21/134
f 49/53/136 47/54/136 50/55/135
f 48/56/135 50/55/135 47/54/136
f 51/18/137 52/17/138 53/16/137
f 54/15/138 53/16/137 52/17/138
f 21/57/140 39/58/140 19/59/139
f 41/60/139 19/59/139 39/58/140
f 43/51/141 44/22/142 50/52/141
f 49/21/142 50/52/141 44/22/142
f 55/41/66 17/39/65 56/42/64
f 18/40/63 56/42/64 17/39/65
f 57/61/144 29/62/117 58/63/143
f 31/64/115 58/63/143 29/62/117
f 59/65/147 60/66/146 61/67/145
f 62/68/148 61/67/145 60/66/146
f 12/69/102 59/70/147 11/71/99
f 61/72/145 11/71/99 59/70/147
f 33/41/56 52/39/55 34/42/54
f 51/40/53 34/42/54 52/39/55
f 57/73/144 58/74/143 63/75/149
f 64/76/150 63/75/149 58/74/143
f 65/77/153 66/78/152 67/79/151
f 68/80/154 67/79/151 66/78/152
f 5/81/156 69/82/156 6/83/155
f 70/84/155 6/83/155 69/82/156
f 71/85/158 13/86/158 72/87/157
f 14/88/157 72/87/157 13/86/158
f 69/7/160 71/5/160 70/8/159
f 72/6/159 70/8/159 71/5/160
f 41/135/125 42/134/125 33/133/56
f 52/136/55 33/133/56 42/134/125
f 54/133/34 43/137/141 75/136/36
f 50/138/141 75/136/36 43/137/141
f 66/89/152 73/90/161 68/91/154
f 74/92/162 68/91/154 73/90/161
f 20/141/113 15/140/105 28/139/113
f 17/142/105 28/139/113 15/140/105
f 52/145/138 42/144/127 54/143/138
f 43/146/127 54/143/138 42/144/127
f 34/149/54 51/148/53 69/147/160
f 71/150/160 69/147/160 51/148/53
f 56/149/64 18/148/63 4/151/132
f 46/152/132 4/151/132 18/148/63
f 48/137/133 28/138/133 55/133/66
f 17/136/65 55/133/66 28/138/133
f 35/136/87 15/133/89 19/134/108
f 20/135/108 19/134/108 15/133/89
f 75/17/165 55/15/164 76/18/163
f 56/16/166 76/18/163 55/15/164
f 2/155/96 76/154/163 4/153/96
f 56/156/166 4/153/96 76/154/163
f 24/93/110 77/94/167 26/95/112
f 78/96/168 26/95/112 77/94/167
f 67/92/151 78/91/168 65/90/153
f 77/89/167 65/90/153 78/91/168
f 51/159/137 53/158/137 71/157/158
f 13/160/158 71/157/158 53/158/137
f 36/163/122 34/162/120 5/161/156
f 69/164/156 5/161/156 34/162/120
f 50/167/135 48/166/135 75/165/165
f 55/168/164 75/165/165 48/166/135
f 65/170/93 77/169/93 66/130/93
f 24/129/93 66/130/93 77/169/93
f 73/128/93 66/130/93 24/129/93
f 23/125/93 73/128/93 24/129/93
f 80/171/93 73/128/93 23/125/93
f 37/172/93 80/171/93 23/125/93
f 36/148/88 5/150/97 16/149/90
f 7/147/97 16/149/90 5/150/97
f 19/175/139 41/174/139 35/173/119
f 33/176/121 35/173/119 41/174/139
f 30/69/116 10/70/100 32/71/118
f 9/72/101 32/71/118 10/70/100
f 7/179/129 46/178/129 16/177/106
f 18/180/106 16/177/106 46/178/129
f 63/62/149 64/64/150 60/61/146
f 62/63/148 60/61/146 64/64/150
f 53/42/33 54/41/34 76/40/35
f 75/39/36 76/40/35 54/41/34
f 53/149/33 76/148/35 13/151/104
f 2/152/104 13/151/104 76/148/35
f 79/25/170 80/23/169 38/26/123
f 37/24/124 38/26/123 80/23/169
f 74/97/162 73/98/161 79/99/170
f 80/100/169 79/99/170 73/98/161
f 44/101/94 60/102/94 49/103/94
f 47/104/94 49/103/94 60/102/94
f 60/102/94 44/101/94 63/105/94
f 59/106/94 47/104/94 60/102/94
f 40/107/94 63/105/94 44/101/94
f 57/108/94 63/105/94 40/107/94
f 27/109/94 47/104/94 59/106/94
f 12/110/94 27/109/94 59/106/94
f 10/111/94 27/109/94 12/110/94
f 22/112/94 27/109/94 10/111/94
f 39/113/94 57/108/94 40/107/94
f 29/114/94 57/108/94 39/113/94
f 30/115/94 22/112/94 10/111/94
f 30/115/94 29/114/94 39/113/94
f 22/112/94 30/115/94 21/116/94
f 21/116/94 30/115/94 39/113/94
f 1/121/93 67/115/93 14/120/93
f 72/118/93 14/120/93 67/115/93
f 67/115/93 1/121/93 78/111/93
f 68/114/93 72/118/93 67/115/93
f 3/122/93 78/111/93 1/121/93
f 26/110/93 78/111/93 3/122/93
f 70/117/93 72/118/93 68/114/93
f 74/108/93 70/117/93 68/114/93
f 79/105/93 70/117/93 74/108/93
f 6/119/93 70/117/93 79/105/93
f 45/124/93 26/110/93 3/122/93
f 25/106/93 26/110/93 45/124/93
f 38/102/93 6/119/93 79/105/93
f 38/102/93 25/106/93 45/124/93
f 6/119/93 38/102/93 8/123/93
f 8/123/93 38/102/93 45/124/93

usemtl woodDark

f 61/125/93 64/126/93 62/127/93
f 64/126/93 61/125/93 58/128/93
f 58/128/93 61/125/93 11/129/93
f 58/128/93 11/129/93 31/130/93
f 31/130/93 11/129/93 9/131/93
f 31/130/93 9/131/93 32/132/93
f 66/130/94 77/169/94 65/170/94
f 77/169/94 66/130/94 24/129/94
f 24/129/94 66/130/94 73/128/94
f 24/129/94 73/128/94 23/125/94
f 23/125/94 73/128/94 80/171/94
f 23/125/94 80/171/94 37/172/94

usemtl metal

f 33/133/63 42/134/32 41/135/32
f 42/134/32 33/133/63 52/136/64
f 75/136/90 43/137/51 54/133/88
f 43/137/51 75/136/90 50/138/51
f 28/139/20 15/140/11 20/141/20
f 15/140/11 28/139/20 17/142/11
f 54/143/48 42/144/37 52/145/48
f 42/144/37 54/143/48 43/146/37
f 69/147/77 51/148/66 34/149/65
f 51/148/66 69/147/77 71/150/77
f 4/151/41 18/148/56 56/149/55
f 18/148/56 4/151/41 46/152/41
f 55/133/53 28/138/44 48/137/44
f 28/138/44 55/133/53 17/136/54
f 19/134/13 15/133/35 35/136/33
f 15/133/35 19/134/13 20/135/13
f 4/153/2 76/154/83 2/155/2
f 76/154/83 4/153/2 56/156/84
f 71/157/75 53/158/47 51/159/47
f 53/158/47 71/157/75 13/160/75
f 5/161/73 34/162/26 36/163/28
f 34/162/26 5/161/73 69/164/73
f 75/165/81 48/166/46 50/167/46
f 48/166/46 75/165/81 55/168/82
f 16/149/36 5/150/3 36/148/34
f 5/150/3 16/149/36 7/147/3
f 35/173/27 41/174/50 19/175/50
f 41/174/50 35/173/27 33/176/25
f 16/177/12 46/178/40 7/179/40
f 46/178/40 16/177/12 18/180/12
f 13/151/9 76/148/89 53/149/87
f 76/148/89 13/151/9 2/152/9

