# Created by Kenney (www.kenney.nl)

mtllib blockMovingBlue.mtl

g blockMovingBlue

v 0.4 1.295116E-26 0.5
v -0.4 1.295116E-26 0.5
v 0.4 0.1207859 0.5
v -0.4 0.1207859 0.5
v -0.4 1.295116E-26 -0.5
v 0.4 1.295116E-26 -0.5
v -0.4 0.1207859 -0.5
v 0.4 0.1207859 -0.5
v 0.5 0.1207859 -0.4
v 0.5 1.295116E-26 -0.4
v 0.5 0.1207859 0.4
v 0.5 1.295116E-26 0.4
v -0.5 1.295116E-26 -0.4
v -0.5 0.1207859 -0.4
v -0.5 1.295116E-26 0.4
v -0.5 0.1207859 0.4
v 0.4 0.3792141 0.5
v -0.4 0.3792141 0.5
v 0.4 0.5 0.5
v -0.4 0.5 0.5
v 0.5 0.5 -0.4
v 0.5 0.3792141 -0.4
v 0.5 0.5 0.4
v 0.5 0.3792141 0.4
v -0.4 0.3792141 -0.5
v 0.4 0.3792141 -0.5
v -0.4 0.5 -0.5
v 0.4 0.5 -0.5
v -0.5 0.3792141 -0.4
v -0.5 0.5 -0.4
v -0.5 0.3792141 0.4
v -0.5 0.5 0.4
v 0.4683013 2.255973E-17 0.4683013
v 0.4683013 0 -0.4683013
v -0.4683013 0 0.4683013
v -0.4683013 0 -0.4683013
v 0.45 0.1207859 -0.3934174
v 0.45 0.1207859 0.3934174
v 0.3934174 0.3792141 0.45
v -0.1436884 0.3792141 0.45
v 0.3934174 0.4292141 0.45
v -0.1436884 0.4292141 0.45
v 0.45 0.4292141 -0.3934174
v 0.45 0.3792141 -0.3934174
v 0.45 0.4292141 0.3934174
v 0.45 0.3792141 0.3934174
v -0.3934174 0.3792141 -0.45
v 0.3934174 0.3792141 -0.45
v -0.3934174 0.4292141 -0.45
v 0.3934174 0.4292141 -0.45
v -0.45 0.3792141 -0.3934174
v -0.45 0.4292141 -0.3934174
v -0.45 0.3792141 0.3934174
v -0.45 0.4292141 0.3934174
v -0.2436884 0.3792141 0.45
v -0.3934174 0.3792141 0.45
v -0.2436884 0.4292141 0.45
v -0.3934174 0.4292141 0.45
v -0.3934174 0.1707859 0.45
v -0.4 0.1707859 0.5
v -0.4329459 0.1707859 0.4329459
v -0.4683013 0.1707859 0.4683013
v -0.45 0.1707859 0.3934174
v -0.5 0.1707859 0.4
v -0.3934174 0.1207859 0.45
v -0.45 0.1207859 0.3934174
v -0.3934174 0.3292141 0.45
v -0.4329459 0.3292141 0.4329459
v -0.4 0.3292141 0.5
v -0.4683013 0.3292141 0.4683013
v -0.45 0.3292141 0.3934174
v -0.5 0.3292141 0.4
v 0.3934174 0.1207859 0.45
v 0.5 0.3292141 0.4
v 0.45 0.3292141 0.3934174
v 0.4683013 0.3292141 0.4683013
v 0.4329459 0.3292141 0.4329459
v 0.4 0.3292141 0.5
v 0.3934174 0.3292141 0.45
v 0.5 0.1707859 0.4
v 0.4683013 0.1707859 0.4683013
v 0.45 0.1707859 0.3934174
v 0.4329459 0.1707859 0.4329459
v 0.4 0.1707859 0.5
v 0.3934174 0.1707859 0.45
v -0.45 0.1207859 -0.3934174
v 0.3934174 0.1207859 -0.45
v -0.3934174 0.1207859 -0.45
v 0.5 0.1707859 -0.4
v 0.45 0.1707859 -0.3934174
v 0.4683013 0.1707859 -0.4683013
v 0.4329459 0.1707859 -0.4329459
v 0.4 0.1707859 -0.5
v 0.3934174 0.1707859 -0.45
v -0.3934174 0.1707859 -0.45
v -0.4329459 0.1707859 -0.4329459
v -0.4 0.1707859 -0.5
v -0.4683013 0.1707859 -0.4683013
v -0.45 0.1707859 -0.3934174
v -0.5 0.1707859 -0.4
v -0.3934174 0.3292141 -0.45
v -0.4 0.3292141 -0.5
v -0.4329459 0.3292141 -0.4329459
v -0.4683013 0.3292141 -0.4683013
v -0.45 0.3292141 -0.3934174
v -0.5 0.3292141 -0.4
v 0.5 0.3292141 -0.4
v 0.4683013 0.3292141 -0.4683013
v 0.45 0.3292141 -0.3934174
v 0.4329459 0.3292141 -0.4329459
v 0.4 0.3292141 -0.5
v 0.3934174 0.3292141 -0.45
v 0.4683013 0.5 0.4683013
v -0.4683013 0.5 0.4683013
v -0.4683013 0.5 -0.4683013
v -0.4 0.5 0.3868347
v -0.3868347 0.5 0.4
v -0.4 0.5 -0.3868347
v 0.3868347 0.5 0.4
v -0.3868347 0.5 -0.4
v 0.3868347 0.5 -0.4
v 0.4 0.5 0.3868347
v 0.4 0.5 -0.3868347
v 0.4683013 0.5 -0.4683013
v 0.4417737 0.4292141 0.4241181
v 0.4417737 0.4292141 -0.4241181
v 0.4241181 0.4292141 0.4417737
v 0.4241181 0.4292141 -0.4417737
v -0.4241181 0.4292141 0.4417737
v -0.4241181 0.4292141 -0.4417737
v -0.4417737 0.4292141 0.4241181
v -0.4417737 0.4292141 -0.4241181

vn 0 0 1
vn 0 0 -1
vn 1 0 0
vn -1 0 0
vn 0 -1 0
vn 0 1 0
vn 0.9914449 0 0.1305262
vn -0.1305262 0 -0.9914449
vn 0.1305262 0 -0.9914449
vn -0.9914449 0 0.1305262
vn -0.9914449 0 -0.1305262
vn 0.1305262 0 0.9914449
vn -0.1305262 0 0.9914449
vn 0.9914449 0 -0.1305262
vn 0.7071068 0 0.7071068
vn 0.4209739 0 0.9070728
vn 0.9070728 0 0.4209739
vn -0.9070728 0 0.4209739
vn -0.7071068 0 0.7071068
vn -0.4209739 0 0.9070728
vn -0.7071068 0 -0.7071068
vn -0.4209739 0 -0.9070728
vn -0.9070728 0 -0.4209739
vn 0.7071068 0 -0.7071068
vn 0.9070728 0 -0.4209739
vn 0.4209739 0 -0.9070728
vn -0.9181897 0 0.3961407
vn -0.3961407 0 0.9181897
vn 0.3961407 0 0.9181897
vn 0.9181897 0 0.3961407
vn 0.9181897 0 -0.3961407
vn 0.3961407 0 -0.9181897
vn -0.3961407 0 -0.9181897
vn -0.9181897 0 -0.3961407

vt 15.74803 5.098881E-25
vt -15.74803 5.098881E-25
vt 15.74803 4.75535
vt -15.74803 4.75535
vt 15.74803 14.92969
vt -15.74803 14.92969
vt 15.74803 19.68504
vt -15.74803 19.68504
vt 19.68504 15.74803
vt 19.68504 -15.74803
vt 18.43706 18.43706
vt 18.43706 -18.43706
vt 15.74803 -19.68504
vt -15.74803 -19.68504
vt -18.43706 18.43706
vt -18.43706 -18.43706
vt -19.68504 15.74803
vt -19.68504 -15.74803
vt -17.71654 -15.48887
vt -17.71654 15.48887
vt 15.48887 14.92969
vt -5.657025 14.92969
vt 15.48887 16.89819
vt -5.657025 16.89819
vt -15.48887 16.89819
vt -15.48887 14.92969
vt -9.594033 14.92969
vt -9.594033 16.89819
vt 15.48887 17.71654
vt 17.04511 17.04511
vt 17.71654 15.48887
vt -19.58667 6.723854
vt -19.58667 4.75535
vt -21.57216 6.723854
vt -21.57216 4.75535
vt 21.57216 4.75535
vt 19.58667 4.75535
vt 21.57216 6.723854
vt 19.58667 6.723854
vt -15.48887 17.71654
vt -17.04511 17.04511
vt -19.58667 14.92969
vt -19.58667 12.96119
vt -21.57216 14.92969
vt -21.57216 12.96119
vt 21.57216 12.96119
vt 19.58667 12.96119
vt 21.57216 14.92969
vt 19.58667 14.92969
vt -5.657025 17.71654
vt -9.594033 17.71654
vt 17.71654 -15.48887
vt 15.48887 -17.71654
vt -15.48887 -17.71654
vt -17.04511 -17.04511
vt 17.04511 -17.04511
vt 8.962232 12.96119
vt 5.997722 12.96119
vt 8.962232 19.68504
vt 5.997722 14.92969
vt 5.997722 19.68504
vt -5.997722 19.68504
vt -5.997722 14.92969
vt -8.962232 19.68504
vt -5.997722 12.96119
vt -8.962232 12.96119
vt 15.74803 15.22971
vt 15.22971 15.74803
vt 15.74803 -15.22971
vt -15.22971 15.74803
vt 15.22971 -15.74803
vt -15.22971 -15.74803
vt -15.74803 15.22971
vt -15.74803 -15.22971
vt 5.997722 1.466564E-16
vt 5.997722 4.75535
vt 8.962232 1.034835E-15
vt 8.962232 6.723854
vt 5.997722 6.723854
vt -5.997722 6.723854
vt -5.997722 4.75535
vt -8.962232 6.723854
vt -5.997722 9.777094E-17
vt -8.962232 9.859493E-16
vt 8.962232 -9.777094E-17
vt 5.997722 -9.777094E-17
vt -8.962232 -9.777094E-17
vt -5.997722 -9.777094E-17
vt 8.962232 4.888547E-17
vt 5.997722 4.888547E-17
vt -8.962232 -1.466564E-16
vt -5.997722 -1.466564E-16
vt 5.997722 5.098881E-25
vt 8.962232 0
vt -8.962232 1.955419E-16
vt -5.997722 1.955419E-16
vt -15.48887 12.96119
vt 15.48887 12.96119
vt -15.48887 6.723854
vt 15.48887 6.723854
vt -15.48887 4.75535
vt 15.48887 4.75535
vt 17.39267 16.69756
vt 17.39267 -16.69756
vt 16.69756 17.39267
vt 16.69756 -17.39267
vt -16.69756 17.39267
vt -16.69756 -17.39267
vt -17.39267 16.69756
vt -17.39267 -16.69756
vt 7.203484 6.723854
vt 7.203484 12.96119
vt 8.898386 6.723854
vt 8.898386 12.96119
vt -7.203484 6.723854
vt -8.898386 6.723854
vt -7.203484 12.96119
vt -8.898386 12.96119

usemtl gold

f 3/3/1 2/2/1 1/1/1
f 2/2/1 3/3/1 4/4/1
f 7/3/2 6/2/2 5/1/2
f 6/2/2 7/3/2 8/4/2
f 11/4/3 10/1/3 9/3/3
f 10/1/3 11/4/3 12/2/3
f 15/1/4 14/4/4 13/2/4
f 14/4/4 15/1/4 16/3/4
f 19/7/1 18/6/1 17/5/1
f 18/6/1 19/7/1 20/8/1
f 23/8/3 22/5/3 21/7/3
f 22/5/3 23/8/3 24/6/3
f 27/7/2 26/6/2 25/5/2
f 26/6/2 27/7/2 28/8/2
f 31/5/4 30/8/4 29/6/4
f 30/8/4 31/5/4 32/7/4
f 33/11/5 10/10/5 12/9/5
f 10/10/5 33/11/5 34/12/5
f 34/12/5 33/11/5 1/7/5
f 34/12/5 1/7/5 6/13/5
f 6/13/5 1/7/5 2/8/5
f 6/13/5 2/8/5 5/14/5
f 5/14/5 2/8/5 35/15/5
f 5/14/5 35/15/5 36/16/5
f 36/16/5 35/15/5 15/17/5
f 36/16/5 15/17/5 13/18/5
f 37/19/6 11/17/6 9/18/6
f 11/17/6 37/19/6 38/20/6
f 41/23/1 40/22/1 39/21/1
f 40/22/1 41/23/1 42/24/1
f 45/25/3 44/21/3 43/23/3
f 44/21/3 45/25/3 46/26/3
f 49/23/2 48/26/2 47/21/2
f 48/26/2 49/23/2 50/25/2
f 53/21/4 52/25/4 51/26/4
f 52/25/4 53/21/4 54/23/4
f 57/28/1 56/26/1 55/27/1
f 56/26/1 57/28/1 58/25/1
f 61/30/6 60/7/6 59/29/6
f 60/7/6 61/30/6 62/11/6
f 62/11/6 61/30/6 63/31/6
f 62/11/6 63/31/6 64/9/6
f 60/34/7 65/33/7 59/32/7
f 65/33/7 60/34/7 4/35/7
f 64/38/8 66/37/8 16/36/8
f 66/37/8 64/38/8 63/39/8
f 69/8/5 68/41/5 67/40/5
f 68/41/5 69/8/5 70/15/5
f 68/41/5 70/15/5 71/20/5
f 71/20/5 70/15/5 72/17/5
f 18/44/7 67/43/7 56/42/7
f 67/43/7 18/44/7 69/45/7
f 31/48/8 71/47/8 72/46/8
f 71/47/8 31/48/8 53/49/8
f 73/40/6 4/7/6 3/8/6
f 4/7/6 73/40/6 65/29/6
f 18/8/5 39/29/5 17/7/5
f 39/29/5 18/8/5 40/50/5
f 40/50/5 18/8/5 55/51/5
f 55/51/5 18/8/5 56/40/5
f 46/31/5 22/10/5 24/9/5
f 22/10/5 46/31/5 44/52/5
f 76/11/5 75/31/5 74/9/5
f 75/31/5 76/11/5 77/30/5
f 77/30/5 76/11/5 78/7/5
f 77/30/5 78/7/5 79/29/5
f 75/43/9 24/44/9 74/45/9
f 24/44/9 75/43/9 46/42/9
f 78/46/10 39/49/10 79/47/10
f 39/49/10 78/46/10 17/48/10
f 82/20/6 81/15/6 80/17/6
f 81/15/6 82/20/6 83/41/6
f 81/15/6 83/41/6 84/8/6
f 84/8/6 83/41/6 85/40/6
f 82/32/9 11/35/9 38/33/9
f 11/35/9 82/32/9 80/34/9
f 3/36/10 85/39/10 73/37/10
f 85/39/10 3/36/10 84/38/10
f 14/10/6 66/31/6 86/52/6
f 66/31/6 14/10/6 16/9/6
f 31/17/5 51/19/5 53/20/5
f 51/19/5 31/17/5 29/18/5
f 48/53/5 25/14/5 26/13/5
f 25/14/5 48/53/5 47/54/5
f 7/13/6 87/54/6 8/14/6
f 87/54/6 7/13/6 88/53/6
f 91/16/6 90/19/6 89/18/6
f 90/19/6 91/16/6 92/55/6
f 92/55/6 91/16/6 93/14/6
f 92/55/6 93/14/6 94/54/6
f 87/33/11 93/34/11 8/35/11
f 93/34/11 87/33/11 94/32/11
f 89/38/12 37/37/12 9/36/12
f 37/37/12 89/38/12 90/39/12
f 97/13/6 96/56/6 95/53/6
f 96/56/6 97/13/6 98/12/6
f 96/56/6 98/12/6 99/52/6
f 99/52/6 98/12/6 100/10/6
f 99/32/13 14/35/13 86/33/13
f 14/35/13 99/32/13 100/34/13
f 95/39/14 7/36/14 97/38/14
f 7/36/14 95/39/14 88/37/14
f 103/55/5 102/14/5 101/54/5
f 102/14/5 103/55/5 104/16/5
f 104/16/5 103/55/5 105/19/5
f 104/16/5 105/19/5 106/18/5
f 105/43/13 29/44/13 106/45/13
f 29/44/13 105/43/13 51/42/13
f 47/49/14 102/46/14 25/48/14
f 102/46/14 47/49/14 101/47/14
f 109/52/5 108/12/5 107/10/5
f 108/12/5 109/52/5 110/56/5
f 108/12/5 110/56/5 111/13/5
f 111/13/5 110/56/5 112/53/5
f 22/48/12 109/47/12 107/46/12
f 109/47/12 22/48/12 44/49/12
f 112/43/11 26/44/11 111/45/11
f 26/44/11 112/43/11 48/42/11
f 113/59/15 78/58/16 76/57/15
f 78/58/16 113/59/15 17/60/16
f 17/60/16 113/59/15 19/61/16
f 113/64/15 24/63/17 23/62/17
f 24/63/17 113/64/15 74/65/17
f 74/65/17 113/64/15 76/66/15
f 70/57/19 31/60/18 72/58/18
f 31/60/18 70/57/19 32/61/18
f 32/61/18 70/57/19 114/59/19
f 18/63/20 70/66/19 69/65/20
f 70/66/19 18/63/20 114/64/19
f 114/64/19 18/63/20 20/62/20
f 115/59/21 102/58/22 104/57/21
f 102/58/22 115/59/21 25/60/22
f 25/60/22 115/59/21 27/61/22
f 106/65/23 115/64/21 104/66/21
f 115/64/21 106/65/23 30/62/23
f 30/62/23 106/65/23 29/63/23
f 114/11/6 30/10/6 32/9/6
f 114/11/6 115/12/6 30/10/6
f 20/7/6 115/12/6 114/11/6
f 116/67/6 115/12/6 20/7/6
f 20/7/6 117/68/6 116/67/6
f 118/69/6 115/12/6 116/67/6
f 20/7/6 119/70/6 117/68/6
f 118/69/6 27/13/6 115/12/6
f 120/71/6 27/13/6 118/69/6
f 121/72/6 27/13/6 120/71/6
f 19/8/6 119/70/6 20/7/6
f 121/72/6 28/14/6 27/13/6
f 19/8/6 122/73/6 119/70/6
f 19/8/6 123/74/6 122/73/6
f 28/14/6 121/72/6 123/74/6
f 19/8/6 28/14/6 123/74/6
f 113/15/6 28/14/6 19/8/6
f 113/15/6 124/16/6 28/14/6
f 23/17/6 124/16/6 113/15/6
f 124/16/6 23/17/6 21/18/6
f 21/61/25 108/57/24 124/59/24
f 108/57/24 21/61/25 107/58/25
f 107/58/25 21/61/25 22/60/25
f 26/63/26 108/66/24 111/65/26
f 108/66/24 26/63/26 124/64/24
f 124/64/24 26/63/26 28/62/26
f 33/77/15 3/76/16 1/75/16
f 3/76/16 33/77/15 81/78/15
f 3/76/16 81/78/15 84/79/16
f 81/82/15 11/81/17 80/80/17
f 11/81/17 81/82/15 12/83/17
f 12/83/17 81/82/15 33/84/15
f 89/79/25 34/85/24 91/78/24
f 34/85/24 89/79/25 10/86/25
f 10/86/25 89/79/25 9/76/25
f 6/88/26 91/82/24 34/87/24
f 91/82/24 6/88/26 8/81/26
f 91/82/24 8/81/26 93/80/26
f 98/78/21 5/90/22 36/89/21
f 5/90/22 98/78/21 7/76/22
f 7/76/22 98/78/21 97/79/22
f 13/92/23 98/82/21 36/91/21
f 98/82/21 13/92/23 100/80/23
f 100/80/23 13/92/23 14/81/23
f 35/94/19 16/76/18 15/93/18
f 16/76/18 35/94/19 64/79/18
f 64/79/18 35/94/19 62/78/19
f 2/96/20 62/82/19 35/95/19
f 62/82/19 2/96/20 4/81/20
f 62/82/19 4/81/20 60/80/20

usemtl blue

f 1/1/2 2/2/2 3/3/2
f 4/4/2 3/3/2 2/2/2
f 5/1/1 6/2/1 7/3/1
f 8/4/1 7/3/1 6/2/1
f 9/3/4 10/1/4 11/4/4
f 12/2/4 11/4/4 10/1/4
f 13/2/3 14/4/3 15/1/3
f 16/3/3 15/1/3 14/4/3
f 17/5/2 18/6/2 19/7/2
f 20/8/2 19/7/2 18/6/2
f 21/7/4 22/5/4 23/8/4
f 24/6/4 23/8/4 22/5/4
f 25/5/1 26/6/1 27/7/1
f 28/8/1 27/7/1 26/6/1
f 29/6/3 30/8/3 31/5/3
f 32/7/3 31/5/3 30/8/3
f 12/9/6 10/10/6 33/11/6
f 34/12/6 33/11/6 10/10/6
f 1/7/6 33/11/6 34/12/6
f 6/13/6 1/7/6 34/12/6
f 2/8/6 1/7/6 6/13/6
f 5/14/6 2/8/6 6/13/6
f 35/15/6 2/8/6 5/14/6
f 36/16/6 35/15/6 5/14/6
f 15/17/6 35/15/6 36/16/6
f 13/18/6 15/17/6 36/16/6
f 9/18/5 11/17/5 37/19/5
f 38/20/5 37/19/5 11/17/5
f 55/27/1 42/24/1 57/28/1
f 42/24/1 55/27/1 40/22/1
f 56/26/1 40/22/1 55/27/1
f 56/26/1 39/21/1 40/22/1
f 67/97/1 39/21/1 56/26/1
f 67/97/1 79/98/1 39/21/1
f 59/99/1 79/98/1 67/97/1
f 59/99/1 85/100/1 79/98/1
f 65/101/1 85/100/1 59/99/1
f 85/100/1 65/101/1 73/102/1
f 46/26/3 109/98/3 44/21/3
f 109/98/3 46/26/3 90/100/3
f 90/100/3 46/26/3 37/102/3
f 37/102/3 46/26/3 38/101/3
f 38/101/3 46/26/3 75/97/3
f 38/101/3 75/97/3 82/99/3
f 82/99/4 75/97/4 38/101/4
f 75/97/4 46/26/4 38/101/4
f 38/101/4 46/26/4 37/102/4
f 37/102/4 46/26/4 90/100/4
f 90/100/4 46/26/4 109/98/4
f 44/21/4 109/98/4 46/26/4
f 46/26/4 45/25/4 44/21/4
f 43/23/4 44/21/4 45/25/4
f 95/100/2 87/101/2 88/102/2
f 87/101/2 95/100/2 94/99/2
f 94/99/2 95/100/2 101/98/2
f 94/99/2 101/98/2 112/97/2
f 112/97/2 101/98/2 47/21/2
f 112/97/2 47/21/2 48/26/2
f 88/102/1 87/101/1 95/100/1
f 94/99/1 95/100/1 87/101/1
f 101/98/1 95/100/1 94/99/1
f 112/97/1 101/98/1 94/99/1
f 47/21/1 101/98/1 112/97/1
f 48/26/1 47/21/1 112/97/1
f 47/21/1 48/26/1 49/23/1
f 50/25/1 49/23/1 48/26/1
f 66/102/4 99/99/4 86/101/4
f 99/99/4 66/102/4 105/97/4
f 105/97/4 66/102/4 51/26/4
f 51/26/4 66/102/4 53/21/4
f 53/21/4 66/102/4 63/100/4
f 53/21/4 63/100/4 71/98/4
f 86/101/3 99/99/3 66/102/3
f 105/97/3 66/102/3 99/99/3
f 51/26/3 66/102/3 105/97/3
f 53/21/3 66/102/3 51/26/3
f 51/26/3 52/25/3 53/21/3
f 54/23/3 53/21/3 52/25/3
f 63/100/3 66/102/3 53/21/3
f 71/98/3 63/100/3 53/21/3
f 125/103/5 43/52/5 45/31/5
f 43/52/5 125/103/5 126/104/5
f 126/104/5 125/103/5 127/105/5
f 126/104/5 127/105/5 128/106/5
f 128/106/5 127/105/5 41/29/5
f 128/106/5 41/29/5 50/53/5
f 50/53/5 41/29/5 49/54/5
f 49/54/5 41/29/5 42/50/5
f 49/54/5 42/50/5 57/51/5
f 49/54/5 57/51/5 58/40/5
f 49/54/5 58/40/5 129/107/5
f 49/54/5 129/107/5 130/108/5
f 130/108/5 129/107/5 131/109/5
f 130/108/5 131/109/5 132/110/5
f 132/110/5 131/109/5 54/20/5
f 132/110/5 54/20/5 52/19/5
f 45/31/6 43/52/6 125/103/6
f 126/104/6 125/103/6 43/52/6
f 127/105/6 125/103/6 126/104/6
f 128/106/6 127/105/6 126/104/6
f 41/29/6 127/105/6 128/106/6
f 50/53/6 41/29/6 128/106/6
f 49/54/6 41/29/6 50/53/6
f 42/50/6 41/29/6 49/54/6
f 57/51/6 42/50/6 49/54/6
f 58/40/6 57/51/6 49/54/6
f 129/107/6 58/40/6 49/54/6
f 130/108/6 129/107/6 49/54/6
f 131/109/6 129/107/6 130/108/6
f 132/110/6 131/109/6 130/108/6
f 54/20/6 131/109/6 132/110/6
f 52/19/6 54/20/6 132/110/6
f 58/25/2 57/28/2 56/26/2
f 55/27/2 56/26/2 57/28/2
f 57/28/2 42/24/2 55/27/2
f 40/22/2 55/27/2 42/24/2
f 55/27/2 40/22/2 56/26/2
f 42/24/2 41/23/2 40/22/2
f 39/21/2 40/22/2 41/23/2
f 40/22/2 39/21/2 56/26/2
f 56/26/2 39/21/2 67/97/2
f 39/21/2 79/98/2 67/97/2
f 67/97/2 79/98/2 59/99/2
f 79/98/2 85/100/2 59/99/2
f 59/99/2 85/100/2 65/101/2
f 73/102/2 65/101/2 85/100/2
f 59/29/5 60/7/5 61/30/5
f 62/11/5 61/30/5 60/7/5
f 63/31/5 61/30/5 62/11/5
f 64/9/5 63/31/5 62/11/5
f 59/32/11 65/33/11 60/34/11
f 4/35/11 60/34/11 65/33/11
f 16/36/12 66/37/12 64/38/12
f 63/39/12 64/38/12 66/37/12
f 67/40/6 68/41/6 69/8/6
f 70/15/6 69/8/6 68/41/6
f 71/20/6 70/15/6 68/41/6
f 72/17/6 70/15/6 71/20/6
f 56/42/11 67/43/11 18/44/11
f 69/45/11 18/44/11 67/43/11
f 72/46/12 71/47/12 31/48/12
f 53/49/12 31/48/12 71/47/12
f 3/8/5 4/7/5 73/40/5
f 65/29/5 73/40/5 4/7/5
f 17/7/6 39/29/6 18/8/6
f 40/50/6 18/8/6 39/29/6
f 55/51/6 18/8/6 40/50/6
f 56/40/6 18/8/6 55/51/6
f 24/9/6 22/10/6 46/31/6
f 44/52/6 46/31/6 22/10/6
f 74/9/6 75/31/6 76/11/6
f 77/30/6 76/11/6 75/31/6
f 78/7/6 76/11/6 77/30/6
f 79/29/6 78/7/6 77/30/6
f 74/45/13 24/44/13 75/43/13
f 46/42/13 75/43/13 24/44/13
f 79/47/14 39/49/14 78/46/14
f 17/48/14 78/46/14 39/49/14
f 80/17/5 81/15/5 82/20/5
f 83/41/5 82/20/5 81/15/5
f 84/8/5 83/41/5 81/15/5
f 85/40/5 83/41/5 84/8/5
f 38/33/13 11/35/13 82/32/13
f 80/34/13 82/32/13 11/35/13
f 73/37/14 85/39/14 3/36/14
f 84/38/14 3/36/14 85/39/14
f 86/52/5 66/31/5 14/10/5
f 16/9/5 14/10/5 66/31/5
f 53/20/6 51/19/6 31/17/6
f 29/18/6 31/17/6 51/19/6
f 26/13/6 25/14/6 48/53/6
f 47/54/6 48/53/6 25/14/6
f 8/14/5 87/54/5 7/13/5
f 88/53/5 7/13/5 87/54/5
f 89/18/5 90/19/5 91/16/5
f 92/55/5 91/16/5 90/19/5
f 93/14/5 91/16/5 92/55/5
f 94/54/5 93/14/5 92/55/5
f 8/35/7 93/34/7 87/33/7
f 94/32/7 87/33/7 93/34/7
f 9/36/8 37/37/8 89/38/8
f 90/39/8 89/38/8 37/37/8
f 95/53/5 96/56/5 97/13/5
f 98/12/5 97/13/5 96/56/5
f 99/52/5 98/12/5 96/56/5
f 100/10/5 98/12/5 99/52/5
f 86/33/9 14/35/9 99/32/9
f 100/34/9 99/32/9 14/35/9
f 97/38/10 7/36/10 95/39/10
f 88/37/10 95/39/10 7/36/10
f 101/54/6 102/14/6 103/55/6
f 104/16/6 103/55/6 102/14/6
f 105/19/6 103/55/6 104/16/6
f 106/18/6 105/19/6 104/16/6
f 106/45/9 29/44/9 105/43/9
f 51/42/9 105/43/9 29/44/9
f 25/48/10 102/46/10 47/49/10
f 101/47/10 47/49/10 102/46/10
f 107/10/6 108/12/6 109/52/6
f 110/56/6 109/52/6 108/12/6
f 111/13/6 110/56/6 108/12/6
f 112/53/6 110/56/6 111/13/6
f 107/46/8 109/47/8 22/48/8
f 44/49/8 22/48/8 109/47/8
f 111/45/7 26/44/7 112/43/7
f 48/42/7 112/43/7 26/44/7
f 76/57/21 78/58/22 113/59/21
f 17/60/22 113/59/21 78/58/22
f 19/61/22 113/59/21 17/60/22
f 23/62/23 24/63/23 113/64/21
f 74/65/23 113/64/21 24/63/23
f 76/66/21 113/64/21 74/65/23
f 72/58/25 31/60/25 70/57/24
f 32/61/25 70/57/24 31/60/25
f 114/59/24 70/57/24 32/61/25
f 69/65/26 70/66/24 18/63/26
f 114/64/24 18/63/26 70/66/24
f 20/62/26 18/63/26 114/64/24
f 104/57/15 102/58/16 115/59/15
f 25/60/16 115/59/15 102/58/16
f 27/61/16 115/59/15 25/60/16
f 104/66/15 115/64/15 106/65/17
f 30/62/17 106/65/17 115/64/15
f 29/63/17 106/65/17 30/62/17
f 32/9/5 30/10/5 114/11/5
f 30/10/5 115/12/5 114/11/5
f 114/11/5 115/12/5 20/7/5
f 20/7/5 115/12/5 116/67/5
f 116/67/5 115/12/5 118/69/5
f 115/12/5 27/13/5 118/69/5
f 116/67/5 117/68/5 20/7/5
f 116/67/5 118/69/5 117/68/5
f 118/69/5 27/13/5 120/71/5
f 118/69/5 120/71/5 117/68/5
f 117/68/5 119/70/5 20/7/5
f 117/68/5 120/71/5 119/70/5
f 20/7/5 119/70/5 19/8/5
f 120/71/5 27/13/5 121/72/5
f 120/71/5 121/72/5 119/70/5
f 27/13/5 28/14/5 121/72/5
f 119/70/5 121/72/5 122/73/5
f 119/70/5 122/73/5 19/8/5
f 123/74/5 122/73/5 121/72/5
f 122/73/5 123/74/5 19/8/5
f 123/74/5 121/72/5 28/14/5
f 123/74/5 28/14/5 19/8/5
f 19/8/5 28/14/5 113/15/5
f 28/14/5 124/16/5 113/15/5
f 113/15/5 124/16/5 23/17/5
f 21/18/5 23/17/5 124/16/5
f 124/59/19 108/57/19 21/61/18
f 107/58/18 21/61/18 108/57/19
f 22/60/18 21/61/18 107/58/18
f 111/65/20 108/66/19 26/63/20
f 124/64/19 26/63/20 108/66/19
f 28/62/20 26/63/20 124/64/19
f 121/72/6 122/73/6 123/74/6
f 122/73/6 121/72/6 119/70/6
f 119/70/6 121/72/6 120/71/6
f 119/70/6 120/71/6 117/68/6
f 117/68/6 120/71/6 118/69/6
f 117/68/6 118/69/6 116/67/6
f 1/75/22 3/76/22 33/77/21
f 81/78/21 33/77/21 3/76/22
f 84/79/22 81/78/21 3/76/22
f 80/80/23 11/81/23 81/82/21
f 12/83/23 81/82/21 11/81/23
f 33/84/21 81/82/21 12/83/23
f 91/78/19 34/85/19 89/79/18
f 10/86/18 89/79/18 34/85/19
f 9/76/18 89/79/18 10/86/18
f 34/87/19 91/82/19 6/88/20
f 8/81/20 6/88/20 91/82/19
f 93/80/20 8/81/20 91/82/19
f 36/89/15 5/90/16 98/78/15
f 7/76/16 98/78/15 5/90/16
f 97/79/16 98/78/15 7/76/16
f 36/91/15 98/82/15 13/92/17
f 100/80/17 13/92/17 98/82/15
f 14/81/17 13/92/17 100/80/17
f 15/93/25 16/76/25 35/94/24
f 64/79/25 35/94/24 16/76/25
f 62/78/24 35/94/24 64/79/25
f 35/95/24 62/82/24 2/96/26
f 4/81/26 2/96/26 62/82/24
f 60/80/26 4/81/26 62/82/24
f 61/113/19 71/112/27 63/111/27
f 71/112/27 61/113/19 68/114/19
f 67/117/28 61/116/19 59/115/28
f 61/116/19 67/117/28 68/118/19
f 77/114/15 85/111/29 83/113/15
f 85/111/29 77/114/15 79/112/29
f 77/118/15 82/115/30 75/117/30
f 82/115/30 77/118/15 83/116/15
f 109/112/31 92/113/24 110/114/24
f 92/113/24 109/112/31 90/111/31
f 112/117/32 92/116/24 94/115/32
f 92/116/24 112/117/32 110/118/24
f 103/114/21 95/111/33 96/113/21
f 95/111/33 103/114/21 101/112/33
f 99/115/34 103/118/21 96/116/21
f 103/118/21 99/115/34 105/117/34

