# Created by Kenney (www.kenney.nl)

mtllib blockSnowSlopeHalf.mtl

g blockSnowSlopeHalf

v 0.5 0.3414931 -0.591514
v 0.591514 0.3414931 -0.5
v 0.5 0.5 -0.5
v -0.591514 -0.1585069 0.5
v -0.5 0 0.5
v -0.5 -0.1585069 0.591514
v -0.591514 0.3414931 -0.5
v -0.5 0.3414931 -0.591514
v -0.5 0.5 -0.5
v 0.591514 -0.1585069 0.5
v 0.5 -0.1585069 0.591514
v 0.5 0 0.5
v 0.5990837 0.3083862 -0.4600084
v 0.6053223 0.2771304 -0.4191079
v 0.6102027 0.247861 -0.3774755
v 0.6137039 0.2207047 -0.3352914
v 0.6158107 0.1957791 -0.2927382
v 0.616514 0.1731918 -0.25
v 0.6158107 0.1530409 -0.2072618
v 0.6137039 0.1354133 -0.1647086
v 0.6102027 0.1203855 -0.1225245
v 0.6053223 0.1080225 -0.0808921
v 0.5839443 0.0846084 0.0399916
v 0.591514 0.09149311 2.555566E-13
v 0.5990837 0.09837781 -0.0399916
v 0.5777057 0.07496367 0.0808921
v 0.5728253 0.06260066 0.1225245
v 0.5693241 0.04757287 0.1647086
v 0.5672172 0.02994535 0.2072618
v 0.566514 0.009794374 0.25
v 0.5672172 -0.01279284 0.2927382
v 0.5693241 -0.03771853 0.3352913
v 0.5728253 -0.06487483 0.3774755
v 0.5777057 -0.0941442 0.4191079
v 0.5839443 -0.1254 0.4600083
v 0.25 -0.2018082 0.616514
v 0.2072618 -0.20059 0.615811
v 0.2927382 -0.20059 0.615811
v 0.3352914 -0.196941 0.613704
v 0.1647086 -0.196941 0.613704
v 0.3774755 -0.1908767 0.610203
v 0.1225245 -0.1908767 0.610203
v 0.4191079 -0.1824235 0.605322
v 0.0808921 -0.1824235 0.605322
v 0.4600084 -0.171618 0.599084
v 0.0399916 -0.171618 0.599084
v -0.0399916 -0.1453958 0.583944
v -0.0808921 -0.1345903 0.577706
v -0.1225245 -0.1261371 0.572825
v -0.1647086 -0.1200728 0.569324
v -0.2072618 -0.1164237 0.567217
v -0.25 -0.1152056 0.566514
v -0.2927382 -0.1164237 0.567217
v -0.3352913 -0.1200728 0.569324
v -0.3774755 -0.1261371 0.572825
v -0.4191079 -0.1345903 0.577706
v -0.4600083 -0.1453958 0.583944
v -0.25 0.2981918 -0.616514
v -0.2072618 0.29941 -0.6158107
v -0.2927382 0.29941 -0.6158107
v -0.3352913 0.303059 -0.6137039
v -0.1647086 0.303059 -0.6137039
v -0.3774755 0.3091233 -0.6102027
v -0.1225245 0.3091233 -0.6102027
v -0.4191079 0.3175765 -0.6053223
v -0.0808921 0.3175765 -0.6053223
v -0.4600083 0.328382 -0.5990837
v -0.0399916 0.328382 -0.5990837
v 0.0399916 0.3546042 -0.5839443
v 0.0808921 0.3654097 -0.5777057
v 0.1225245 0.3738629 -0.5728253
v 0.1647086 0.3799272 -0.5693241
v 0.2072618 0.3835762 -0.5672172
v 0.25 0.3847944 -0.566514
v 0.2927382 0.3835762 -0.5672172
v 0.3352914 0.3799272 -0.5693241
v 0.3774755 0.3738629 -0.5728253
v 0.4191079 0.3654097 -0.5777057
v 0.4600084 0.3546042 -0.5839443
v -0.583944 0.3346084 -0.4600084
v -0.577706 0.3249637 -0.4191079
v -0.572825 0.3126007 -0.3774755
v -0.569324 0.2975729 -0.3352914
v -0.567217 0.2799453 -0.2927382
v -0.566514 0.2597944 -0.25
v -0.567217 0.2372071 -0.2072618
v -0.569324 0.2122815 -0.1647086
v -0.572825 0.1851252 -0.1225245
v -0.577706 0.1558558 -0.0808921
v -0.583944 0.1246 -0.0399916
v -0.599084 0.0583862 0.0399916
v -0.605322 0.02713041 0.0808921
v -0.610203 -0.002138963 0.1225245
v -0.613704 -0.02929526 0.1647086
v -0.615811 -0.05422096 0.2072618
v -0.616514 -0.07680816 0.25
v -0.615811 -0.09695914 0.2927382
v -0.613704 -0.1145867 0.3352913
v -0.610203 -0.1296144 0.3774755
v -0.605322 -0.1419775 0.4191079
v -0.599084 -0.1516222 0.4600083
v 0.5 0 -0.5
v -0.5 0 -0.5

vn 0.6546537 0.3779645 -0.6546537
vn -0.6546537 -0.3779645 0.6546537
vn -0.6546537 0.3779645 0.6546537
vn 0.6546537 -0.3779645 -0.6546537
vn -0.6546537 0.3779645 -0.6546535
vn 0.6546537 -0.3779645 0.6546535
vn 0.6546536 0.3779645 0.6546537
vn -0.6546536 -0.3779645 -0.6546537
vn 0.8401681 0.4850713 0.2425356
vn -0.8401681 -0.4850713 -0.2425356
vn 0 0.5000005 0.8660251
vn 0 -0.5000005 -0.8660251
vn 0 0.5 -0.8660254
vn 0 -0.5 0.8660254
vn 0 0.8944272 0.4472136
vn -0.8401678 0.4850717 0.2425357
vn 0.8401678 -0.4850717 -0.2425357
vn 1 0 0
vn -1 0 0
vn 0 0 -1
vn 0 -1 0

vt 2.547645 0.962274
vt -2.547645 0.962274
vt -3.450609E-10 7.702708
vt -2.547644 -17.26253
vt 7.075229E-12 -10.5221
vt 2.547644 -17.26253
vt 2.547643 0.9622746
vt -2.547647 0.9622746
vt -1.52081E-06 7.702709
vt 2.547646 -17.26253
vt -2.547643 -17.26253
vt 1.313682E-06 -10.5221
vt 25.37169 3.55214
vt 23.94164 2.06162
vt 24.37242 10.68834
vt -13.45313 -11.82236
vt 22.46268 0.6544399
vt 20.9412 -0.6633085
vt 19.38379 -1.885923
vt 17.7972 -3.00811
vt 16.18828 -4.025022
vt 14.56401 -4.932244
vt 12.93141 -5.725862
vt 11.29754 -6.402435
vt 9.66948 -6.959035
vt 4.863555 -8.013171
vt 6.458915 -7.703212
vt 8.054276 -7.393253
vt 3.248351 -8.447391
vt 1.620291 -9.00399
vt -0.01357609 -9.680562
vt -1.646179 -10.47418
vt -3.270454 -11.3814
vt -4.879371 -12.39831
vt -6.465961 -13.5205
vt -8.02337 -14.74312
vt -9.544847 -16.06087
vt -11.02381 -17.46804
vt -12.45386 -18.95856
vt 9.842525 -19.01686
vt 8.159918 -18.96149
vt 11.52513 -18.96149
vt 13.20045 -18.7956
vt 6.484595 -18.7956
vt 14.86125 -18.51991
vt 4.823804 -18.51991
vt 16.50031 -18.13561
vt 3.184733 -18.13561
vt 18.11057 -17.6444
vt 1.574477 -17.6444
vt 19.68504 -17.04835
vt -1.574468 -16.45231
vt 19.68504 -9.842527
vt -3.184724 -15.9611
vt -4.823795 -15.5768
vt -6.484586 -15.30112
vt -8.159909 -15.13522
vt -9.842515 -15.07985
vt -19.68504 -9.842531
vt -11.52512 -15.13522
vt -13.20044 -15.30112
vt -14.86124 -15.5768
vt -16.50031 -15.9611
vt -18.11056 -16.45231
vt -19.68504 -17.04836
vt 9.84252 -1.969107
vt 8.159913 -1.913727
vt 11.52513 -1.913727
vt 13.20045 -1.747841
vt 6.484591 -1.747841
vt 14.86124 -1.472154
vt 4.823799 -1.472154
vt 16.50031 -1.087867
vt 3.184728 -1.087867
vt 18.11056 -0.5966414
vt 1.574473 -0.5966414
vt 19.68504 -0.0006021941
vt -1.574472 0.5954369
vt 19.68504 7.205225
vt -3.184728 1.086662
vt -4.823799 1.47095
vt -6.484591 1.746637
vt -8.159913 1.912524
vt -9.84252 1.967903
vt -19.68504 7.205225
vt -11.52513 1.912524
vt -13.20045 1.746637
vt -14.86124 1.47095
vt -16.50031 1.086662
vt -18.11057 0.5954369
vt -19.68504 -0.0006023126
vt 19.68504 26.41025
vt 19.68504 -17.60683
vt -19.68504 26.41025
vt -19.68504 -17.60683
vt -25.37169 3.55213
vt -24.37242 10.68833
vt -23.77633 3.242177
vt -22.16113 2.807948
vt -20.53307 2.251358
vt -18.8992 1.574781
vt 13.45312 -11.82237
vt -17.2666 0.7811665
vt -15.64232 -0.1260615
vt -14.0334 -1.142968
vt -12.44681 -2.265158
vt -10.88941 -3.487769
vt -9.367934 -4.805529
vt -7.888965 -6.212698
vt -5.028875 -9.193748
vt -3.549906 -10.60092
vt -2.028435 -11.91868
vt -0.4710263 -13.14129
vt 1.115565 -14.26348
vt 2.724484 -15.28038
vt 4.348756 -16.18761
vt 5.981358 -16.98123
vt 7.615226 -17.6578
vt 9.243292 -18.21439
vt 10.85849 -18.64862
vt 12.45385 -18.95858
vt 19.68504 19.68504
vt 19.68504 0
vt -19.68504 0
vt -19.68504 19.68504
vt 19.68504 -19.68504
vt -19.68504 -19.68504

usemtl snow

f 3/3/1 2/2/1 1/1/1
f 1/1/2 2/2/2 3/3/2
f 6/6/3 5/5/3 4/4/3
f 4/4/4 5/5/4 6/6/4
f 9/9/5 8/8/5 7/7/5
f 7/7/6 8/8/6 9/9/6
f 12/12/7 11/11/7 10/10/7
f 10/10/8 11/11/8 12/12/8
f 3/15/9 13/14/9 2/13/9
f 13/14/9 3/15/9 12/16/9
f 13/14/9 12/16/9 14/17/9
f 14/17/9 12/16/9 15/18/9
f 15/18/9 12/16/9 16/19/9
f 16/19/9 12/16/9 17/20/9
f 17/20/9 12/16/9 18/21/9
f 18/21/9 12/16/9 19/22/9
f 19/22/9 12/16/9 20/23/9
f 20/23/9 12/16/9 21/24/9
f 21/24/9 12/16/9 22/25/9
f 22/25/9 12/16/9 23/26/9
f 22/25/9 23/26/9 24/27/9
f 22/25/9 24/27/9 25/28/9
f 23/26/9 12/16/9 26/29/9
f 26/29/9 12/16/9 27/30/9
f 27/30/9 12/16/9 28/31/9
f 28/31/9 12/16/9 29/32/9
f 29/32/9 12/16/9 30/33/9
f 30/33/9 12/16/9 31/34/9
f 31/34/9 12/16/9 32/35/9
f 32/35/9 12/16/9 33/36/9
f 33/36/9 12/16/9 34/37/9
f 34/37/9 12/16/9 35/38/9
f 35/38/9 12/16/9 10/39/9
f 2/13/10 13/14/10 3/15/10
f 12/16/10 3/15/10 13/14/10
f 14/17/10 12/16/10 13/14/10
f 15/18/10 12/16/10 14/17/10
f 16/19/10 12/16/10 15/18/10
f 17/20/10 12/16/10 16/19/10
f 18/21/10 12/16/10 17/20/10
f 19/22/10 12/16/10 18/21/10
f 20/23/10 12/16/10 19/22/10
f 21/24/10 12/16/10 20/23/10
f 22/25/10 12/16/10 21/24/10
f 23/26/10 12/16/10 22/25/10
f 24/27/10 23/26/10 22/25/10
f 25/28/10 24/27/10 22/25/10
f 26/29/10 12/16/10 23/26/10
f 27/30/10 12/16/10 26/29/10
f 28/31/10 12/16/10 27/30/10
f 29/32/10 12/16/10 28/31/10
f 30/33/10 12/16/10 29/32/10
f 31/34/10 12/16/10 30/33/10
f 32/35/10 12/16/10 31/34/10
f 33/36/10 12/16/10 32/35/10
f 34/37/10 12/16/10 33/36/10
f 35/38/10 12/16/10 34/37/10
f 10/39/10 12/16/10 35/38/10
f 38/42/11 37/41/11 36/40/11
f 37/41/11 38/42/11 39/43/11
f 37/41/11 39/43/11 40/44/11
f 40/44/11 39/43/11 41/45/11
f 40/44/11 41/45/11 42/46/11
f 42/46/11 41/45/11 43/47/11
f 42/46/11 43/47/11 44/48/11
f 44/48/11 43/47/11 45/49/11
f 44/48/11 45/49/11 46/50/11
f 46/50/11 45/49/11 11/51/11
f 46/50/11 11/51/11 47/52/11
f 47/52/11 11/51/11 12/53/11
f 47/52/11 12/53/11 48/54/11
f 48/54/11 12/53/11 49/55/11
f 49/55/11 12/53/11 50/56/11
f 50/56/11 12/53/11 51/57/11
f 51/57/11 12/53/11 52/58/11
f 5/59/11 52/58/11 12/53/11
f 5/59/11 53/60/11 52/58/11
f 5/59/11 54/61/11 53/60/11
f 5/59/11 55/62/11 54/61/11
f 5/59/11 56/63/11 55/62/11
f 5/59/11 57/64/11 56/63/11
f 57/64/11 5/59/11 6/65/11
f 36/40/12 37/41/12 38/42/12
f 39/43/12 38/42/12 37/41/12
f 40/44/12 39/43/12 37/41/12
f 41/45/12 39/43/12 40/44/12
f 42/46/12 41/45/12 40/44/12
f 43/47/12 41/45/12 42/46/12
f 44/48/12 43/47/12 42/46/12
f 45/49/12 43/47/12 44/48/12
f 46/50/12 45/49/12 44/48/12
f 11/51/12 45/49/12 46/50/12
f 47/52/12 11/51/12 46/50/12
f 12/53/12 11/51/12 47/52/12
f 48/54/12 12/53/12 47/52/12
f 49/55/12 12/53/12 48/54/12
f 50/56/12 12/53/12 49/55/12
f 51/57/12 12/53/12 50/56/12
f 52/58/12 12/53/12 51/57/12
f 12/53/12 52/58/12 5/59/12
f 52/58/12 53/60/12 5/59/12
f 53/60/12 54/61/12 5/59/12
f 54/61/12 55/62/12 5/59/12
f 55/62/12 56/63/12 5/59/12
f 56/63/12 57/64/12 5/59/12
f 6/65/12 5/59/12 57/64/12
f 60/68/13 59/67/13 58/66/13
f 59/67/13 60/68/13 61/69/13
f 59/67/13 61/69/13 62/70/13
f 62/70/13 61/69/13 63/71/13
f 62/70/13 63/71/13 64/72/13
f 64/72/13 63/71/13 65/73/13
f 64/72/13 65/73/13 66/74/13
f 66/74/13 65/73/13 67/75/13
f 66/74/13 67/75/13 68/76/13
f 68/76/13 67/75/13 8/77/13
f 68/76/13 8/77/13 69/78/13
f 69/78/13 8/77/13 9/79/13
f 69/78/13 9/79/13 70/80/13
f 70/80/13 9/79/13 71/81/13
f 71/81/13 9/79/13 72/82/13
f 72/82/13 9/79/13 73/83/13
f 73/83/13 9/79/13 74/84/13
f 3/85/13 74/84/13 9/79/13
f 3/85/13 75/86/13 74/84/13
f 3/85/13 76/87/13 75/86/13
f 3/85/13 77/88/13 76/87/13
f 3/85/13 78/89/13 77/88/13
f 3/85/13 79/90/13 78/89/13
f 79/90/13 3/85/13 1/91/13
f 58/66/14 59/67/14 60/68/14
f 61/69/14 60/68/14 59/67/14
f 62/70/14 61/69/14 59/67/14
f 63/71/14 61/69/14 62/70/14
f 64/72/14 63/71/14 62/70/14
f 65/73/14 63/71/14 64/72/14
f 66/74/14 65/73/14 64/72/14
f 67/75/14 65/73/14 66/74/14
f 68/76/14 67/75/14 66/74/14
f 8/77/14 67/75/14 68/76/14
f 69/78/14 8/77/14 68/76/14
f 9/79/14 8/77/14 69/78/14
f 70/80/14 9/79/14 69/78/14
f 71/81/14 9/79/14 70/80/14
f 72/82/14 9/79/14 71/81/14
f 73/83/14 9/79/14 72/82/14
f 74/84/14 9/79/14 73/83/14
f 9/79/14 74/84/14 3/85/14
f 74/84/14 75/86/14 3/85/14
f 75/86/14 76/87/14 3/85/14
f 76/87/14 77/88/14 3/85/14
f 77/88/14 78/89/14 3/85/14
f 78/89/14 79/90/14 3/85/14
f 1/91/14 3/85/14 79/90/14
f 9/94/15 12/93/15 3/92/15
f 12/93/15 9/94/15 5/95/15
f 80/98/16 9/97/16 7/96/16
f 9/97/16 80/98/16 81/99/16
f 9/97/16 81/99/16 82/100/16
f 9/97/16 82/100/16 83/101/16
f 9/97/16 83/101/16 5/102/16
f 5/102/16 83/101/16 84/103/16
f 5/102/16 84/103/16 85/104/16
f 5/102/16 85/104/16 86/105/16
f 5/102/16 86/105/16 87/106/16
f 5/102/16 87/106/16 88/107/16
f 5/102/16 88/107/16 89/108/16
f 5/102/16 89/108/16 90/109/16
f 5/102/16 90/109/16 91/110/16
f 5/102/16 91/110/16 92/111/16
f 5/102/16 92/111/16 93/112/16
f 5/102/16 93/112/16 94/113/16
f 5/102/16 94/113/16 95/114/16
f 5/102/16 95/114/16 96/115/16
f 5/102/16 96/115/16 97/116/16
f 5/102/16 97/116/16 98/117/16
f 5/102/16 98/117/16 99/118/16
f 5/102/16 99/118/16 100/119/16
f 5/102/16 100/119/16 101/120/16
f 5/102/16 101/120/16 4/121/16
f 7/96/17 9/97/17 80/98/17
f 81/99/17 80/98/17 9/97/17
f 82/100/17 81/99/17 9/97/17
f 83/101/17 82/100/17 9/97/17
f 5/102/17 83/101/17 9/97/17
f 84/103/17 83/101/17 5/102/17
f 85/104/17 84/103/17 5/102/17
f 86/105/17 85/104/17 5/102/17
f 87/106/17 86/105/17 5/102/17
f 88/107/17 87/106/17 5/102/17
f 89/108/17 88/107/17 5/102/17
f 90/109/17 89/108/17 5/102/17
f 91/110/17 90/109/17 5/102/17
f 92/111/17 91/110/17 5/102/17
f 93/112/17 92/111/17 5/102/17
f 94/113/17 93/112/17 5/102/17
f 95/114/17 94/113/17 5/102/17
f 96/115/17 95/114/17 5/102/17
f 97/116/17 96/115/17 5/102/17
f 98/117/17 97/116/17 5/102/17
f 99/118/17 98/117/17 5/102/17
f 100/119/17 99/118/17 5/102/17
f 101/120/17 100/119/17 5/102/17
f 4/121/17 101/120/17 5/102/17

usemtl dirt

f 12/124/18 102/123/18 3/122/18
f 5/123/19 9/125/19 103/124/19
f 9/122/20 102/124/20 103/123/20
f 102/124/20 9/122/20 3/125/20
f 5/125/21 102/126/21 12/122/21
f 102/126/21 5/125/21 103/127/21

