# Created by Kenney (www.kenney.nl)

mtllib blockSnowRoundedLarge.mtl

g blockSnowRoundedLarge

v 0.9 1 0.9
v 0.925 0.9866025 0.9433012
v 0.9 0.9866025 0.9499999
v -0.9 1 0.9
v -0.9 0.9866025 0.9499999
v -0.925 0.9866025 0.9433012
v 0.9499999 0.9866025 0.9
v 0.9433012 0.9866025 0.925
v 0.9 0.9866025 -0.9499999
v 0.925 0.9866025 -0.9433012
v 0.9 1 -0.9
v 0.9433012 0.9866025 -0.925
v 0.9499999 0.9866025 -0.9
v -0.925 0.9866025 -0.9433012
v -0.9 1 -0.9
v -0.9433012 0.9866025 -0.925
v -0.9433012 0.9866025 0.925
v -0.9499999 0.9866025 0.9
v -0.9 0.9866025 -0.9499999
v -0.9499999 0.9866025 -0.9
v 0.9 0.7 1
v -0.9 0.7 1
v 0.9 0.9 1
v -0.9 0.9 1
v 1 0.9 -0.9
v 1 0.7 -0.9
v 1 0.9 0.9
v 1 0.7 0.9
v -0.9 0.7 -1
v 0.9 0.7 -1
v -0.9 0.9 -1
v 0.9 0.9 -1
v -1 0.7 -0.9
v -1 0.9 -0.9
v -1 0.7 0.9
v -1 0.9 0.9
v 0.9 0.9499999 0.9866025
v -0.9 0.9499999 0.9866025
v 0.9866025 0.9499999 -0.9
v 0.9866025 0.9499999 0.9
v -0.9499999 0.7 0.9866025
v -0.9866025 0.7 0.9499999
v -0.9499999 0.9 0.9866025
v -0.9866025 0.9 0.9499999
v 0.9 0.9499999 -0.9866025
v -0.9 0.9499999 -0.9866025
v -0.9866025 0.9499999 -0.9
v -0.9866025 0.9499999 0.9
v 0.9866025 0.9 0.9499999
v 0.9866025 0.7 0.9499999
v 0.9866025 0.9 -0.9499999
v 0.9866025 0.7 -0.9499999
v -0.9499999 0.7 -0.9866025
v -0.9499999 0.9 -0.9866025
v -0.9866025 0.7 -0.9499999
v -0.9866025 0.9 -0.9499999
v 0.9499999 0.7 -0.9866025
v 0.9499999 0.9 -0.9866025
v 0.9499999 0.7 0.9866025
v 0.9499999 0.9 0.9866025
v 0.9433012 0.9499999 -0.975
v 0.975 0.9499999 0.9433012
v 0.9433012 0.9499999 0.975
v 0.975 0.9499999 -0.9433012
v -0.9433012 0.9499999 0.975
v -0.975 0.9499999 0.9433012
v -0.9433012 0.9499999 -0.975
v -0.975 0.9499999 -0.9433012
v 0.9 0.01339746 0.9499999
v 0.925 0.01339746 0.9433012
v 0.9 0 0.9
v 0.9433012 0.01339746 0.925
v -0.925 0.01339746 0.9433012
v -0.9 0 0.9
v -0.9433012 0.01339746 0.925
v 0.9499999 0.01339746 0.9
v -0.9499999 0.01339746 0.9
v -0.9 0 -0.9
v -0.9433012 0.01339746 -0.925
v -0.9499999 0.01339746 -0.9
v -0.9 0.01339746 0.9499999
v -0.9 0.01339746 -0.9499999
v -0.925 0.01339746 -0.9433012
v 0.9433012 0.01339746 -0.925
v 0.925 0.01339746 -0.9433012
v 0.9 0 -0.9
v 0.9499999 0.01339746 -0.9
v 0.9 0.01339746 -0.9499999
v -0.9 0.1 -1
v 0.9 0.1 -1
v 1 0.1 -0.9
v 1 0.1 0.9
v 0.9 0.1 1
v -0.9 0.1 1
v -1 0.1 -0.9
v -1 0.1 0.9
v -0.9866025 0.05 0.9
v -0.9866025 0.05 -0.9
v 0.9 0.05 -0.9866025
v -0.9 0.05 -0.9866025
v 0.9 0.05 0.9866025
v -0.9 0.05 0.9866025
v 0.9866025 0.05 -0.9
v 0.9866025 0.05 0.9
v 0.9499999 0.1 -0.9866025
v 0.9866025 0.1 -0.9499999
v -0.9499999 0.1 -0.9866025
v -0.9866025 0.1 -0.9499999
v 0.9499999 0.1 0.9866025
v 0.9866025 0.1 0.9499999
v -0.9499999 0.1 0.9866025
v -0.9866025 0.1 0.9499999
v 0.975 0.05 0.9433012
v 0.9433012 0.05 0.975
v -0.9433012 0.05 0.975
v -0.975 0.05 0.9433012
v -0.975 0.05 -0.9433012
v -0.9433012 0.05 -0.975
v 0.975 0.05 -0.9433012
v 0.9433012 0.05 -0.975

vn 0.1453179 0.9786549 0.1453179
vn 0.2654499 0.8474345 0.4597727
vn 0.06981172 0.8549294 0.5140254
vn -0.08519387 0.9722424 0.2179146
vn -0.06981172 0.8549294 0.5140254
vn -0.2654499 0.8474345 0.4597727
vn 0.5140254 0.8549294 0.06981172
vn 0.4597727 0.8474345 0.2654499
vn 0.1408363 0.8389881 -0.5256083
vn 0.2654499 0.8474345 -0.4597727
vn 0.2179146 0.9722424 -0.08519387
vn 0.4597727 0.8474345 -0.2654499
vn 0.5140254 0.8549294 -0.06981172
vn -0.2654499 0.8474345 -0.4597727
vn -0.1731918 0.9695407 -0.1731918
vn -0.4597727 0.8474345 -0.2654499
vn -0.4597727 0.8474345 0.2654499
vn -0.5256083 0.8389881 0.1408363
vn -0.1408363 0.8389881 -0.5256083
vn -0.5256083 0.8389881 -0.1408363
vn 0 0 1
vn 1 0 0
vn 0 0 -1
vn -1 0 0
vn 0 1 0
vn 0.1129214 0.4883322 0.865321
vn -0.1129214 0.4883322 0.865321
vn 0.865321 0.4883322 -0.1129214
vn 0.865321 0.4883322 0.1129214
vn 0.9585266 0.2568364 -0.1235385
vn 0.9585266 0.2568364 0.1235385
vn 0.1235385 0.2568364 0.9585266
vn -0.1235385 0.2568364 0.9585266
vn -0.5 0 0.8660254
vn -0.8660254 0 0.5
vn 0 0.5 -0.8660254
vn 0 0.8660254 -0.5
vn -0.9659258 0.258819 0
vn -0.8660254 0.5 0
vn 0 0.258819 -0.9659258
vn -0.5 0.8660254 0
vn -0.258819 0 0.9659258
vn 0 0.9659258 -0.258819
vn -0.258819 0.9659258 0
vn -0.9659258 0 0.258819
vn 0.9659258 0 0.258819
vn 0.8660254 0 0.5
vn 0.8660254 0 -0.5
vn 0.9659258 0 -0.258819
vn -0.5 0 -0.8660254
vn -0.8660254 0 -0.5
vn -0.258819 0 -0.9659258
vn -0.9659258 0 -0.258819
vn 0.258819 0 -0.9659258
vn 0.5 0 -0.8660254
vn 0.5 0 0.8660254
vn 0.258819 0 0.9659258
vn 0.2505628 0.2505628 -0.9351131
vn 0.4829629 0.258819 -0.8365163
vn 0.2285087 0.4695798 -0.8528062
vn 0.4379916 0.4823416 -0.7586237
vn 0.8365163 0.258819 0.4829629
vn 0.4829629 0.258819 0.8365163
vn 0.7586237 0.4823416 0.4379916
vn 0.4379916 0.4823416 0.7586237
vn 0.7586237 0.4823416 -0.4379916
vn 0.8365163 0.258819 -0.4829629
vn -0.4379916 0.4823416 0.7586237
vn -0.7586237 0.4823416 0.4379916
vn -0.8528062 0.4695798 0.2285087
vn -0.4829629 0.258819 0.8365163
vn -0.4829629 0.258819 -0.8365163
vn -0.2505628 0.2505628 -0.9351131
vn -0.4379916 0.4823416 -0.7586237
vn -0.2285087 0.4695798 -0.8528062
vn -0.9351131 0.2505628 0.2505628
vn -0.8365163 0.258819 0.4829629
vn -0.8365163 0.258819 -0.4829629
vn -0.7586237 0.4823416 -0.4379916
vn -0.8528062 0.4695798 -0.2285087
vn -0.9351131 0.2505628 -0.2505628
vn 0.06981172 -0.8549294 0.5140254
vn 0.2654499 -0.8474345 0.4597727
vn 0.1453179 -0.9786549 0.1453179
vn 0.4597727 -0.8474345 0.2654499
vn -0.2654499 -0.8474345 0.4597727
vn -0.1453179 -0.9786549 0.1453179
vn -0.4597727 -0.8474345 0.2654499
vn 0.5140254 -0.8549294 0.06981172
vn -0.5140254 -0.8549294 0.06981172
vn -0.1453179 -0.9786549 -0.1453179
vn -0.4597727 -0.8474345 -0.2654499
vn -0.5140254 -0.8549294 -0.06981172
vn -0.06981172 -0.8549294 0.5140254
vn -0.06981172 -0.8549294 -0.5140254
vn -0.2654499 -0.8474345 -0.4597727
vn 0.4597727 -0.8474345 -0.2654499
vn 0.2654499 -0.8474345 -0.4597727
vn 0.1453179 -0.9786549 -0.1453179
vn 0.5140254 -0.8549294 -0.06981172
vn 0.06981172 -0.8549294 -0.5140254
vn 0 -1 0
vn -0.865321 -0.4883322 0.1129214
vn -0.865321 -0.4883322 -0.1129214
vn -0.9702645 -0.1711532 -0.1711532
vn -0.9585266 -0.2568364 0.1235385
vn 0.1129214 -0.4883322 -0.865321
vn -0.1129214 -0.4883322 -0.865321
vn 0.1129214 -0.4883322 0.865321
vn -0.1129214 -0.4883322 0.865321
vn 0.1235385 -0.2568364 0.9585266
vn -0.1235385 -0.2568364 0.9585266
vn -0.1235385 -0.2568364 -0.9585266
vn 0.1711532 -0.1711532 -0.9702645
vn 0.865321 -0.4883322 -0.1129214
vn 0.865321 -0.4883322 0.1129214
vn 0.9702645 -0.1711532 -0.1711532
vn 0.9585266 -0.2568364 0.1235385
vn 0.4958982 -0.1278264 -0.858921
vn 0.858921 -0.1278264 -0.4958982
vn -0.858921 -0.1278264 -0.4958982
vn 0.7586237 -0.4823416 0.4379916
vn 0.4379916 -0.4823416 0.7586237
vn 0.4829629 -0.258819 0.8365163
vn 0.8365163 -0.258819 0.4829629
vn -0.4379916 -0.4823416 0.7586237
vn -0.7586237 -0.4823416 0.4379916
vn -0.4829629 -0.258819 0.8365163
vn -0.8365163 -0.258819 0.4829629
vn -0.7586237 -0.4823416 -0.4379916
vn -0.4829629 -0.258819 -0.8365163
vn -0.4379916 -0.4823416 -0.7586237
vn 0.7586237 -0.4823416 -0.4379916
vn 0.4379916 -0.4823416 -0.7586237

vt 25.05496 -31.29343
vt 25.56445 -33.26666
vt 24.54548 -33.26666
vt -25.05496 -31.29343
vt -24.54548 -33.26666
vt -25.56445 -33.26666
vt 0.5094863 -39.73582
vt -0.5094863 -39.73582
vt 1.46283E-12 -37.76259
vt -4.769518E-13 -37.76259
vt -1.466383E-12 -37.76259
vt 4.760636E-13 -37.76259
vt 35.43307 27.55906
vt -35.43307 27.55906
vt 35.43307 35.43307
vt -35.43307 35.43307
vt -35.43307 -35.43307
vt 35.43307 -35.43307
vt 35.43307 -1.018973
vt -35.43307 -1.018973
vt 35.43307 1.018973
vt -35.43307 1.018973
vt 35.43307 -26.07394
vt -35.43307 -26.07394
vt 35.43307 -24.03599
vt -35.43307 -24.03599
vt 35.43307 26.07394
vt 35.43307 24.03599
vt -35.43307 26.07394
vt -35.43307 24.03599
vt 1.018973 27.55906
vt -1.018973 27.55906
vt 1.018973 35.43307
vt -1.018973 35.43307
vt -24.03599 27.55906
vt -26.07394 27.55906
vt -24.03599 35.43307
vt -26.07394 35.43307
vt 24.03599 27.55906
vt 24.03599 35.43307
vt 26.07394 27.55906
vt 26.07394 35.43307
vt -24.03599 22.47637
vt -26.07394 22.47637
vt -24.17251 24.50974
vt -25.93742 24.50974
vt 1.018973 20.79423
vt -1.018973 20.79423
vt 0.8824562 22.8276
vt -0.8824562 22.8276
vt 26.07394 22.47637
vt 24.03599 22.47637
vt 25.93742 24.50974
vt 24.17251 24.50974
vt 0.8824562 -10.20051
vt -0.8824562 -10.20051
vt 0.5094863 -8.196981
vt -0.5094863 -8.196981
vt 25.93742 -5.536355
vt 24.17251 -5.536355
vt 25.56445 -3.532829
vt 24.54548 -3.532829
vt -24.54548 -3.532829
vt -24.17251 -5.536355
vt -25.56445 -3.532829
vt -25.93742 -5.536355
vt 24.54548 43.79057
vt 25.56445 43.79057
vt 25.05496 41.81733
vt -0.5094863 50.25973
vt 0.5094863 50.25973
vt -4.618528E-13 48.2865
vt 4.616307E-13 48.2865
vt -25.56445 43.79057
vt -24.54548 43.79057
vt -25.05496 41.81733
vt 1.45306E-12 48.2865
vt -1.435518E-12 48.2865
vt 35.43307 3.937008
vt -35.43307 3.937008
vt -35.43307 36.26366
vt 35.43307 36.26366
vt -35.43307 34.22572
vt 35.43307 34.22572
vt 35.43307 26.81988
vt -35.43307 26.81988
vt 35.43307 28.85782
vt -35.43307 28.85782
vt -35.43307 11.95464
vt -35.43307 13.99258
vt 35.43307 11.95464
vt 35.43307 13.99258
vt -24.03599 3.937008
vt -26.07394 3.937008
vt 1.018973 3.937008
vt -1.018973 3.937008
vt 26.07394 3.937008
vt 24.03599 3.937008
vt 0.8824562 38.51762
vt 0.5094863 36.51409
vt -0.8824562 38.51762
vt -0.5094863 36.51409
vt 25.93742 13.60445
vt 24.17251 13.60445
vt 26.07394 15.63782
vt 24.03599 15.63782
vt 0.8824562 15.28659
vt -0.8824562 15.28659
vt 1.018973 17.31996
vt -1.018973 17.31996
vt -24.03599 15.63782
vt -24.17251 13.60445
vt -26.07394 15.63782
vt -25.93742 13.60445
vt -24.54548 31.84994
vt -25.56445 31.84994
vt -24.17251 33.85347
vt -25.93742 33.85347
vt 25.56445 31.84994
vt 24.54548 31.84994
vt 25.93742 33.85347
vt 24.17251 33.85347

usemtl snow

f 3/3/3 2/2/2 1/1/1
f 6/6/6 5/5/5 4/4/4
f 1/4/1 8/6/8 7/5/7
f 11/4/11 10/6/10 9/5/9
f 11/9/11 12/8/12 10/7/10
f 1/10/1 2/8/2 8/7/8
f 11/1/11 13/3/13 12/2/12
f 16/7/16 15/11/15 14/8/14
f 18/3/18 17/2/17 4/1/4
f 14/2/14 15/1/15 19/3/19
f 20/5/20 15/4/15 16/6/16
f 17/8/17 6/7/6 4/12/4
f 23/15/21 22/14/21 21/13/21
f 22/14/21 23/15/21 24/16/21
f 27/16/22 26/13/22 25/15/22
f 26/13/22 27/16/22 28/14/22
f 31/15/23 30/14/23 29/13/23
f 30/14/23 31/15/23 32/16/23
f 35/13/24 34/16/24 33/14/24
f 34/16/24 35/13/24 36/15/24
f 15/18/25 1/16/25 11/17/25
f 1/16/25 15/18/25 4/15/25
f 3/21/3 38/20/27 37/19/26
f 38/20/27 3/21/3 5/22/5
f 11/25/11 7/24/7 13/23/13
f 7/24/7 11/25/11 1/26/1
f 7/22/7 39/19/28 13/21/13
f 39/19/28 7/22/7 40/20/29
f 40/29/29 25/28/30 39/27/28
f 25/28/30 40/29/29 27/30/31
f 4/26/4 3/23/3 1/25/1
f 3/23/3 4/26/4 5/24/5
f 37/27/26 24/30/33 23/28/32
f 24/30/33 37/27/26 38/29/27
f 43/33/34 42/32/35 41/31/34
f 42/32/35 43/33/34 44/34/35
f 46/19/36 9/22/37 45/20/36
f 9/22/37 46/19/36 19/21/37
f 36/28/38 47/29/39 34/30/38
f 47/29/39 36/28/38 48/27/39
f 46/27/36 32/30/40 31/28/40
f 32/30/40 46/27/36 45/29/36
f 48/19/39 20/22/41 47/20/39
f 20/22/41 48/19/39 18/21/41
f 24/37/42 41/36/34 22/35/42
f 41/36/34 24/37/42 43/38/34
f 19/23/37 11/26/43 9/24/37
f 11/26/43 19/23/37 15/25/43
f 20/24/41 4/25/44 15/26/44
f 4/25/44 20/24/41 18/23/41
f 42/41/35 36/40/45 35/39/45
f 36/40/45 42/41/35 44/42/35
f 49/38/47 28/35/46 27/37/46
f 28/35/46 49/38/47 50/36/47
f 25/40/49 52/41/48 51/42/48
f 52/41/48 25/40/49 26/39/49
f 55/31/51 54/34/50 53/32/50
f 54/34/50 55/31/51 56/33/51
f 54/42/50 29/39/52 53/41/50
f 29/39/52 54/42/50 31/40/52
f 33/35/53 56/38/51 55/36/51
f 56/38/51 33/35/53 34/37/53
f 32/37/54 57/36/55 30/35/54
f 57/36/55 32/37/54 58/38/55
f 49/33/47 59/32/56 50/31/47
f 59/32/56 49/33/47 60/34/56
f 51/34/48 57/31/55 58/33/55
f 57/31/55 51/34/48 52/32/48
f 60/42/56 21/39/57 59/41/56
f 21/39/57 60/42/56 23/40/57
f 45/45/60 58/44/59 32/43/58
f 58/44/59 45/45/60 61/46/61
f 62/49/64 60/48/63 49/47/62
f 60/48/63 62/49/64 63/50/65
f 63/53/65 23/52/32 60/51/63
f 23/52/32 63/53/65 37/54/26
f 8/57/8 63/56/65 62/55/64
f 63/56/65 8/57/8 2/58/2
f 12/61/12 39/60/28 64/59/66
f 39/60/28 12/61/12 13/62/13
f 8/65/8 40/64/29 7/63/7
f 40/64/29 8/65/8 62/66/64
f 61/49/61 51/48/67 58/47/59
f 51/48/67 61/49/61 64/50/66
f 9/63/9 61/66/61 45/64/60
f 61/66/61 9/63/9 10/65/10
f 64/53/66 25/52/30 51/51/67
f 25/52/30 64/53/66 39/54/28
f 61/55/61 12/58/12 64/56/66
f 12/58/12 61/55/61 10/57/10
f 5/63/5 65/66/68 38/64/27
f 65/66/68 5/63/5 6/65/6
f 2/61/2 37/60/26 63/59/65
f 37/60/26 2/61/2 3/62/3
f 62/46/64 27/43/31 40/45/29
f 27/43/31 62/46/64 49/44/62
f 18/62/18 66/59/69 17/61/17
f 66/59/69 18/62/18 48/60/70
f 38/45/27 43/44/71 24/43/33
f 43/44/71 38/45/27 65/46/68
f 67/53/74 31/52/73 54/51/72
f 31/52/73 67/53/74 46/54/75
f 44/51/77 48/54/70 36/52/76
f 48/54/70 44/51/77 66/53/69
f 56/47/78 67/50/74 54/48/72
f 67/50/74 56/47/78 68/49/79
f 67/56/74 16/57/16 14/58/14
f 16/57/16 67/56/74 68/55/79
f 14/61/14 46/60/75 67/59/74
f 46/60/75 14/61/14 19/62/19
f 47/64/80 16/65/16 68/66/79
f 16/65/16 47/64/80 20/63/20
f 65/49/68 44/48/77 43/47/71
f 44/48/77 65/49/68 66/50/69
f 34/43/81 68/46/79 56/44/78
f 68/46/79 34/43/81 47/45/80
f 17/58/17 65/55/68 6/57/6
f 65/55/68 17/58/17 66/56/69

usemtl dirt

f 71/69/84 70/68/83 69/67/82
f 71/72/84 72/71/85 70/70/83
f 75/70/88 74/73/87 73/71/86
f 71/76/84 76/75/89 72/74/85
f 77/67/90 74/69/87 75/68/88
f 80/75/93 79/74/92 78/76/91
f 73/74/86 74/76/87 81/75/94
f 83/68/96 82/67/95 78/69/91
f 86/77/99 85/71/98 84/70/97
f 86/69/99 84/68/97 87/67/100
f 88/75/101 85/74/98 86/76/99
f 79/71/92 83/70/96 78/78/91
f 74/16/102 86/18/102 71/15/102
f 86/18/102 74/16/102 78/17/102
f 29/13/23 90/80/23 89/79/23
f 90/80/23 29/13/23 30/14/23
f 28/14/22 91/79/22 26/13/22
f 91/79/22 28/14/22 92/80/22
f 21/13/21 94/80/21 93/79/21
f 94/80/21 21/13/21 22/14/21
f 96/79/24 33/14/24 95/80/24
f 33/14/24 96/79/24 35/13/24
f 71/83/84 87/82/100 76/81/89
f 87/82/100 71/83/84 86/84/99
f 97/87/103 80/86/93 77/85/90
f 80/86/93 97/87/103 98/88/104
f 97/91/103 95/90/105 98/89/104
f 95/90/105 97/91/103 96/92/106
f 78/84/91 88/81/101 86/83/99
f 88/81/101 78/84/91 82/82/95
f 82/85/95 99/88/107 88/86/101
f 99/88/107 82/85/95 100/87/108
f 93/92/111 102/89/110 101/91/109
f 102/89/110 93/92/111 94/90/112
f 89/92/113 99/89/107 100/91/108
f 99/89/107 89/92/113 90/90/114
f 81/81/94 71/84/84 69/82/82
f 71/84/84 81/81/94 74/83/87
f 77/82/90 78/83/91 74/84/87
f 78/83/91 77/82/90 80/81/93
f 101/87/109 81/86/94 69/85/82
f 81/86/94 101/87/109 102/88/110
f 104/88/116 87/85/100 103/87/115
f 87/85/100 104/88/116 76/86/89
f 92/90/118 103/91/115 91/92/117
f 103/91/115 92/90/118 104/89/116
f 30/35/54 105/94/119 90/93/114
f 105/94/119 30/35/54 57/36/55
f 52/32/48 105/95/119 57/31/55
f 105/95/119 52/32/48 106/96/120
f 26/39/49 106/97/120 52/41/48
f 106/97/120 26/39/49 91/98/117
f 108/95/121 53/32/50 107/96/50
f 53/32/50 108/95/121 55/31/51
f 95/93/105 55/36/51 108/94/121
f 55/36/51 95/93/105 33/35/53
f 53/41/50 89/98/52 107/97/50
f 89/98/52 53/41/50 29/39/52
f 59/41/56 93/98/57 109/97/56
f 93/98/57 59/41/56 21/39/57
f 50/31/47 109/96/56 110/95/47
f 109/96/56 50/31/47 59/32/56
f 50/36/47 92/93/46 28/35/46
f 92/93/46 50/36/47 110/94/47
f 22/35/42 111/94/34 94/93/42
f 111/94/34 22/35/42 41/36/34
f 112/97/35 35/39/45 96/98/45
f 35/39/45 112/97/35 42/41/35
f 114/101/123 72/100/85 113/99/122
f 72/100/85 114/101/123 70/102/83
f 109/105/124 101/104/109 114/103/123
f 101/104/109 109/105/124 93/106/111
f 110/109/125 114/108/123 113/107/122
f 114/108/123 110/109/125 109/110/124
f 110/113/125 104/112/116 92/111/118
f 104/112/116 110/113/125 113/114/122
f 102/117/110 73/116/86 81/115/94
f 73/116/86 102/117/110 115/118/126
f 115/99/126 75/102/88 73/100/86
f 75/102/88 115/99/126 116/101/127
f 116/121/127 77/120/90 75/119/88
f 77/120/90 116/121/127 97/122/103
f 114/121/123 69/120/82 70/119/83
f 69/120/82 114/121/123 101/122/109
f 113/118/122 76/115/89 104/117/116
f 76/115/89 113/118/122 72/116/85
f 41/31/34 112/96/35 111/95/34
f 112/96/35 41/31/34 42/32/35
f 94/111/112 115/114/126 102/112/110
f 115/114/126 94/111/112 111/113/128
f 111/109/128 116/108/127 115/107/126
f 116/108/127 111/109/128 112/110/129
f 116/103/127 96/106/106 97/104/103
f 96/106/106 116/103/127 112/105/129
f 117/114/130 95/111/105 108/113/121
f 95/111/105 117/114/130 98/112/104
f 118/108/132 108/109/121 107/110/131
f 108/109/121 118/108/132 117/107/130
f 79/116/92 98/117/104 117/118/130
f 98/117/104 79/116/92 80/115/93
f 107/105/131 100/104/108 118/103/132
f 100/104/108 107/105/131 89/106/113
f 79/100/92 118/101/132 83/102/96
f 118/101/132 79/100/92 117/99/130
f 84/102/97 120/99/134 119/101/133
f 120/99/134 84/102/97 85/100/98
f 99/117/107 85/116/98 88/115/101
f 85/116/98 99/117/107 120/118/134
f 118/121/132 82/120/95 83/119/96
f 82/120/95 118/121/132 100/122/108
f 103/122/115 84/119/97 119/121/133
f 84/119/97 103/122/115 87/120/100
f 91/106/117 119/103/133 106/105/120
f 119/103/133 91/106/117 103/104/115
f 90/111/114 120/114/134 99/112/107
f 120/114/134 90/111/114 105/113/119
f 106/110/120 120/107/134 105/109/119
f 120/107/134 106/110/120 119/108/133

