# Created by Kenney (www.kenney.nl)

mtllib blockDirtRamp.mtl

g blockDirtRamp

v 0.5 1 -0.5
v 0.5 0 -0.5
v 0.5 0 0.5
v -0.5 0 -0.5
v -0.5 1 -0.5
v -0.5 0 0.5

vn 1 0 0
vn -1 0 0
vn 0 -1 0
vn 0 0 -1
vn 0 0.7071068 0.7071068

vt 19.68504 39.37008
vt 19.68504 -4.604317E-12
vt -19.68504 -4.604317E-12
vt -19.68504 0
vt -19.68504 39.37008
vt 19.68504 0
vt 19.68504 19.68504
vt 19.68504 -19.68504
vt -19.68504 19.68504
vt -19.68504 -19.68504
vt 19.68504 4.973799E-12
vt -19.68504 4.973799E-12
vt 19.68504 -13.91943
vt -19.68504 -13.91943
vt 19.68504 41.75827
vt -19.68504 41.75827

usemtl dirt

f 3/3/1 2/2/1 1/1/1
f 6/6/2 5/5/2 4/4/2
f 6/9/3 2/8/3 3/7/3
f 2/8/3 6/9/3 4/10/3
f 5/1/4 2/12/4 4/11/4
f 2/12/4 5/1/4 1/5/4
f 1/15/5 6/14/5 3/13/5
f 6/14/5 1/15/5 5/16/5

