# Created by Kenney (www.kenney.nl)

mtllib blockCornerLarge.mtl

g blockCornerLarge

v 0.5 0.8414931 -0.591514
v 0.591514 0.8414931 -0.5
v 0.5 1 -0.5
v 0.5 1 0.5
v -0.5 1 -0.5
v -0.5 0.8414931 -0.591514
v -0.56471 0.8414931 -0.4352898
v 0.591514 0.8414931 0.5
v 0.4352898 0.8414931 0.56471
v -0.4166666 0.7695886 -0.633028
v -0.3333333 0.8414931 -0.591514
v -0.1666667 0.8414931 -0.591514
v -0.25 0.7695886 -0.633028
v 0 0.8414931 -0.591514
v -0.0833333 0.7695886 -0.633028
v 0.1666667 0.8414931 -0.591514
v 0.0833333 0.7695886 -0.633028
v 0.3333333 0.8414931 -0.591514
v 0.25 0.7695886 -0.633028
v 0.4166667 0.7695886 -0.633028
v 0.633028 0.7695886 -0.4166667
v 0.591514 0.8414931 -0.3333333
v 0.591514 0.8414931 -0.1666667
v 0.633028 0.7695886 -0.25
v 0.591514 0.8414931 2.548347E-13
v 0.633028 0.7695886 -0.0833333
v 0.591514 0.8414931 0.1666667
v 0.633028 0.7695886 0.0833333
v 0.633028 0.7695886 0.25
v 0.591514 0.8414931 0.3333333
v 0.633028 0.7695886 0.4166666
v 0.343435 0.7695886 0.531565
v 0.3102898 0.8414931 0.4397101
v 0.1852898 0.8414931 0.3147101
v 0.218435 0.7695886 0.406565
v 0.0602898 0.8414931 0.1897101
v 0.093435 0.7695886 0.281565
v -0.0647101 0.8414931 0.0647101
v -0.031565 0.7695886 0.156565
v -0.1897101 0.8414931 -0.0602898
v -0.156565 0.7695886 0.031565
v -0.3147101 0.8414931 -0.1852898
v -0.281565 0.7695886 -0.093435
v -0.4397101 0.8414931 -0.3102898
v -0.406565 0.7695886 -0.218435
v -0.531565 0.7695886 -0.343435
v 0.5 0 0.5
v 0.5 0 -0.5
v -0.5 0 -0.5

vn 0.6546537 0.3779645 -0.6546537
vn -0.6546537 -0.3779645 0.6546537
vn 0 1 0
vn -0.9021235 0.2157389 -0.3736708
vn 0.9021235 -0.2157389 0.3736708
vn 0.3736708 0.2157389 0.9021235
vn -0.3736708 -0.2157389 -0.9021235
vn 0 0.4999999 -0.8660254
vn 0 -0.4999999 0.8660254
vn 0.8660254 0.4999999 0
vn -0.8660254 -0.4999999 0
vn -0.6123725 0.5 0.6123725
vn 0.6123725 -0.5 -0.6123725
vn 0 -1 0
vn 1 0 0
vn 0 0 -1
vn -0.7071068 0 0.7071068

vt 2.547645 19.18708
vt -2.547645 19.18708
vt -4.93241E-11 25.92751
vt -19.68504 -19.68504
vt -19.68504 19.68504
vt 19.68504 -19.68504
vt -13.98215 26.50328
vt -10.65349 32.89421
vt -7.324837 26.50328
vt 13.98215 26.50328
vt 7.324837 26.50328
vt 10.65349 32.89421
vt 16.4042 13.77833
vt 13.12336 17.04715
vt 19.68504 17.04715
vt 19.68504 24.25297
vt 6.561681 17.04715
vt 9.84252 13.77833
vt -3.336409E-12 17.04715
vt 3.280838 13.77833
vt -6.561681 17.04715
vt -3.280838 13.77833
vt -13.12336 17.04715
vt -9.84252 13.77833
vt -19.68504 17.04715
vt -19.68504 24.25297
vt -16.4042 13.77833
vt 16.4042 13.77833
vt -1.312981E-11 17.04715
vt -16.4042 13.77833
vt 24.35899 23.62084
vt 20.87914 26.88966
vt 27.83884 26.88967
vt 27.83885 34.09549
vt 13.91942 26.88966
vt 17.39928 23.62084
vt 6.95971 26.88966
vt 10.43957 23.62084
vt 7.034373E-12 26.88966
vt 3.479856 23.62084
vt -6.95971 26.88966
vt -3.479856 23.62084
vt -13.91942 26.88966
vt -10.43957 23.62084
vt -20.87914 26.88966
vt -17.39928 23.62084
vt -27.83884 26.88967
vt -27.83885 34.09549
vt -24.35899 23.62084
vt 19.68504 19.68504
vt 19.68504 39.37008
vt 19.68504 -4.604317E-12
vt -19.68504 39.37008
vt -19.68504 -4.604317E-12
vt 19.68504 4.973799E-12
vt -19.68504 4.973799E-12
vt 27.83885 1.830157E-27
vt -27.83885 1.82858E-27
vt 27.83885 39.37008
vt -27.83885 39.37008

usemtl grass

f 3/3/1 2/2/1 1/1/1
f 1/1/2 2/2/2 3/3/2
f 5/6/3 4/5/3 3/4/3
f 7/9/4 5/8/4 6/7/4
f 6/7/5 5/8/5 7/9/5
f 4/12/6 9/11/6 8/10/6
f 8/10/7 9/11/7 4/12/7
f 6/15/8 11/14/8 10/13/8
f 11/14/8 6/15/8 5/16/8
f 11/14/8 5/16/8 12/17/8
f 12/17/8 13/18/8 11/14/8
f 12/17/8 5/16/8 14/19/8
f 14/19/8 15/20/8 12/17/8
f 14/19/8 5/16/8 16/21/8
f 16/21/8 17/22/8 14/19/8
f 16/21/8 5/16/8 18/23/8
f 18/23/8 19/24/8 16/21/8
f 18/23/8 5/16/8 1/25/8
f 1/25/8 5/16/8 3/26/8
f 1/25/8 20/27/8 18/23/8
f 10/13/9 11/14/9 6/15/9
f 5/16/9 6/15/9 11/14/9
f 12/17/9 5/16/9 11/14/9
f 11/14/9 13/18/9 12/17/9
f 14/19/9 5/16/9 12/17/9
f 12/17/9 15/20/9 14/19/9
f 16/21/9 5/16/9 14/19/9
f 14/19/9 17/22/9 16/21/9
f 18/23/9 5/16/9 16/21/9
f 16/21/9 19/24/9 18/23/9
f 1/25/9 5/16/9 18/23/9
f 18/23/9 20/27/9 1/25/9
f 3/26/9 5/16/9 1/25/9
f 3/16/10 21/28/10 2/15/10
f 21/28/10 3/16/10 22/14/10
f 22/14/10 3/16/10 4/26/10
f 22/14/10 4/26/10 23/17/10
f 22/14/10 23/17/10 24/18/10
f 23/17/10 4/26/10 25/29/10
f 23/17/10 25/29/10 26/20/10
f 25/29/10 4/26/10 27/21/10
f 25/29/10 27/21/10 28/22/10
f 27/21/10 4/26/10 29/24/10
f 29/24/10 4/26/10 30/23/10
f 30/23/10 4/26/10 31/30/10
f 31/30/10 4/26/10 8/25/10
f 2/15/11 21/28/11 3/16/11
f 22/14/11 3/16/11 21/28/11
f 4/26/11 3/16/11 22/14/11
f 23/17/11 4/26/11 22/14/11
f 24/18/11 23/17/11 22/14/11
f 25/29/11 4/26/11 23/17/11
f 26/20/11 25/29/11 23/17/11
f 27/21/11 4/26/11 25/29/11
f 28/22/11 27/21/11 25/29/11
f 29/24/11 4/26/11 27/21/11
f 30/23/11 4/26/11 29/24/11
f 31/30/11 4/26/11 30/23/11
f 8/25/11 4/26/11 31/30/11
f 9/33/12 33/32/12 32/31/12
f 33/32/12 9/33/12 4/34/12
f 33/32/12 4/34/12 34/35/12
f 34/35/12 35/36/12 33/32/12
f 34/35/12 4/34/12 36/37/12
f 36/37/12 37/38/12 34/35/12
f 36/37/12 4/34/12 38/39/12
f 38/39/12 39/40/12 36/37/12
f 38/39/12 4/34/12 40/41/12
f 40/41/12 41/42/12 38/39/12
f 40/41/12 4/34/12 42/43/12
f 42/43/12 43/44/12 40/41/12
f 42/43/12 4/34/12 44/45/12
f 44/45/12 45/46/12 42/43/12
f 44/45/12 4/34/12 7/47/12
f 7/47/12 4/34/12 5/48/12
f 7/47/12 46/49/12 44/45/12
f 32/31/13 33/32/13 9/33/13
f 4/34/13 9/33/13 33/32/13
f 34/35/13 4/34/13 33/32/13
f 33/32/13 35/36/13 34/35/13
f 36/37/13 4/34/13 34/35/13
f 34/35/13 37/38/13 36/37/13
f 38/39/13 4/34/13 36/37/13
f 36/37/13 39/40/13 38/39/13
f 40/41/13 4/34/13 38/39/13
f 38/39/13 41/42/13 40/41/13
f 42/43/13 4/34/13 40/41/13
f 40/41/13 43/44/13 42/43/13
f 44/45/13 4/34/13 42/43/13
f 42/43/13 45/46/13 44/45/13
f 7/47/13 4/34/13 44/45/13
f 44/45/13 46/49/13 7/47/13
f 5/48/13 4/34/13 7/47/13

usemtl dirt

f 49/4/14 48/6/14 47/50/14
f 4/53/15 48/52/15 3/51/15
f 48/52/15 4/53/15 47/54/15
f 5/51/16 48/56/16 49/55/16
f 48/56/16 5/51/16 3/53/16
f 4/59/17 49/58/17 47/57/17
f 49/58/17 4/59/17 5/60/17

