# Created by Kenney (www.kenney.nl)

mtllib blockSnowRounded.mtl

g blockSnowRounded

v -0.4 0.9866025 -0.45
v -0.4 1 -0.4
v -0.425 0.9866025 -0.4433013
v -0.4433013 0.9866025 -0.425
v -0.4 1 0.4
v -0.425 0.9866025 0.4433013
v -0.4433013 0.9866025 0.425
v 0.4433013 0.9866025 0.425
v 0.425 0.9866025 0.4433013
v 0.4 1 0.4
v 0.4 0.9866025 0.45
v -0.45 0.9866025 0.4
v -0.4 0.9866025 0.45
v 0.45 0.9866025 0.4
v -0.45 0.9866025 -0.4
v 0.4 0.9866025 -0.45
v 0.425 0.9866025 -0.4433013
v 0.4 1 -0.4
v 0.4433013 0.9866025 -0.425
v 0.45 0.9866025 -0.4
v -0.475 0.9499999 0.4433013
v -0.4433013 0.9499999 0.475
v -0.4866025 0.9 0.45
v -0.45 0.9 0.4866025
v 0.475 0.9499999 0.4433013
v 0.4433013 0.9499999 0.475
v 0.4866025 0.9499999 0.4
v 0.5 0.9 0.4
v 0.4866025 0.9 0.45
v -0.4866025 0.9499999 0.4
v 0.45 0.9 0.4866025
v 0.4 0.9 0.5
v 0.4 0.9499999 0.4866025
v -0.5 0.9 0.4
v -0.4 0.9 0.5
v -0.4 0.9499999 0.4866025
v -0.4433013 0.9499999 -0.475
v -0.4 0.9499999 -0.4866025
v -0.475 0.9499999 -0.4433013
v -0.4866025 0.9499999 -0.4
v 0.4866025 0.9499999 -0.4
v 0.475 0.9499999 -0.4433013
v 0.4433013 0.9499999 -0.475
v -0.4866025 0.9 -0.45
v -0.5 0.9 -0.4
v 0.4866025 0.9 -0.45
v 0.5 0.9 -0.4
v 0.45 0.9 -0.4866025
v 0.4 0.9499999 -0.4866025
v -0.45 0.9 -0.4866025
v -0.4 0.9 -0.5
v 0.4 0.9 -0.5
v -0.5 0.7 -0.4
v -0.5 0.7 0.4
v 0.4 0.7 0.5
v -0.4 0.7 0.5
v 0.5 0.7 -0.4
v 0.5 0.7 0.4
v -0.4 0.7 -0.5
v 0.4 0.7 -0.5
v -0.4866025 0.7 0.45
v -0.45 0.7 0.4866025
v 0.45 0.7 0.4866025
v 0.4866025 0.7 0.45
v -0.4866025 0.7 -0.45
v -0.45 0.7 -0.4866025
v 0.45 0.7 -0.4866025
v 0.4866025 0.7 -0.45
v 0.4433013 0.01339746 -0.425
v 0.425 0.01339746 -0.4433013
v 0.4 0 -0.4
v 0.45 0.01339746 -0.4
v 0.4 0.01339746 -0.45
v 0.425 0.01339746 0.4433013
v 0.4433013 0.01339746 0.425
v 0.4 0 0.4
v -0.4 0.01339746 0.45
v -0.4 0 0.4
v -0.425 0.01339746 0.4433013
v 0.4 0.01339746 0.45
v 0.45 0.01339746 0.4
v -0.4433013 0.01339746 0.425
v -0.45 0.01339746 0.4
v -0.4 0 -0.4
v -0.4433013 0.01339746 -0.425
v -0.45 0.01339746 -0.4
v -0.425 0.01339746 -0.4433013
v -0.4 0.01339746 -0.45
v 0.4433013 0.05 -0.475
v 0.475 0.05 -0.4433013
v 0.45 0.1 -0.4866025
v 0.4866025 0.1 -0.45
v 0.5 0.1 -0.4
v 0.4866025 0.05 -0.4
v -0.45 0.1 -0.4866025
v -0.4866025 0.1 -0.45
v -0.4433013 0.05 -0.475
v -0.475 0.05 -0.4433013
v 0.4 0.05 -0.4866025
v 0.4 0.1 -0.5
v -0.4 0.05 -0.4866025
v -0.4 0.1 -0.5
v -0.5 0.1 -0.4
v -0.4866025 0.05 -0.4
v 0.4 0.1 0.5
v -0.4 0.1 0.5
v -0.5 0.1 0.4
v 0.5 0.1 0.4
v 0.4 0.05 0.4866025
v -0.4 0.05 0.4866025
v 0.4866025 0.05 0.4
v -0.4866025 0.05 0.4
v -0.45 0.1 0.4866025
v 0.45 0.1 0.4866025
v 0.4866025 0.1 0.45
v -0.4866025 0.1 0.45
v 0.475 0.05 0.4433013
v 0.4433013 0.05 0.475
v -0.4433013 0.05 0.475
v -0.475 0.05 0.4433013

vn -0.1408363 0.8389881 -0.5256083
vn -0.1731918 0.9695407 -0.1731918
vn -0.2654499 0.8474345 -0.4597727
vn -0.4597727 0.8474345 -0.2654499
vn -0.1731918 0.9695407 0.1731918
vn -0.2654499 0.8474345 0.4597727
vn -0.4597727 0.8474345 0.2654499
vn 0.4597727 0.8474345 0.2654499
vn 0.2654499 0.8474345 0.4597727
vn 0.1731918 0.9695407 0.1731918
vn 0.1408363 0.8389881 0.5256083
vn -0.5256083 0.8389881 0.1408363
vn -0.1408363 0.8389881 0.5256083
vn 0.5256083 0.8389881 0.1408363
vn -0.5256083 0.8389881 -0.1408363
vn 0.1408363 0.8389881 -0.5256083
vn 0.2654499 0.8474345 -0.4597727
vn 0.1731918 0.9695407 -0.1731918
vn 0.4597727 0.8474345 -0.2654499
vn 0.5256083 0.8389881 -0.1408363
vn -0.7586237 0.4823416 0.4379916
vn -0.4379916 0.4823416 0.7586237
vn -0.8365163 0.258819 0.4829629
vn -0.4829629 0.258819 0.8365163
vn 0.7586237 0.4823416 0.4379916
vn 0.4379916 0.4823416 0.7586237
vn 0.8528062 0.4695798 0.2285087
vn 0.9351131 0.2505628 0.2505628
vn 0.8365163 0.258819 0.4829629
vn -0.8528062 0.4695798 0.2285087
vn 0.4829629 0.258819 0.8365163
vn 0.2505628 0.2505628 0.9351131
vn 0.2285087 0.4695798 0.8528062
vn -0.9351131 0.2505628 0.2505628
vn -0.2505628 0.2505628 0.9351131
vn -0.2285087 0.4695798 0.8528062
vn -0.4379916 0.4823416 -0.7586237
vn -0.2285087 0.4695798 -0.8528062
vn -0.7586237 0.4823416 -0.4379916
vn -0.8528062 0.4695798 -0.2285087
vn 0.8528062 0.4695798 -0.2285087
vn 0.7586237 0.4823416 -0.4379916
vn 0.4379916 0.4823416 -0.7586237
vn -0.8365163 0.258819 -0.4829629
vn -0.9351131 0.2505628 -0.2505628
vn 0.8365163 0.258819 -0.4829629
vn 0.9351131 0.2505628 -0.2505628
vn 0.4829629 0.258819 -0.8365163
vn 0.2285087 0.4695798 -0.8528062
vn -0.4829629 0.258819 -0.8365163
vn -0.2505628 0.2505628 -0.9351131
vn 0.2505628 0.2505628 -0.9351131
vn -1 0 0
vn 0 1 0
vn 0 0 1
vn 1 0 0
vn 0 0 -1
vn 0 0.5 0.8660254
vn 0 0.8660254 0.5
vn -0.9659258 0 0.258819
vn -0.8660254 0 0.5
vn 0 0.258819 0.9659258
vn -0.258819 0 0.9659258
vn -0.5 0 0.8660254
vn 0.5 0 0.8660254
vn 0.258819 0 0.9659258
vn 0.8660254 0 0.5
vn 0.9659258 0 0.258819
vn 0 0.9659258 0.258819
vn 0 0.5 -0.8660254
vn 0 0.8660254 -0.5
vn -0.8660254 0.5 0
vn -0.5 0.8660254 0
vn -0.9659258 0.258819 0
vn 0.5 0.8660254 0
vn 0.8660254 0.5 0
vn -0.8660254 0 -0.5
vn -0.5 0 -0.8660254
vn 0.5 0 -0.8660254
vn 0.8660254 0 -0.5
vn 0 0.9659258 -0.258819
vn 0.9659258 0 -0.258819
vn 0.9659258 0.258819 0
vn 0.258819 0.9659258 0
vn -0.258819 0.9659258 0
vn -0.258819 0 -0.9659258
vn -0.9659258 0 -0.258819
vn 0.258819 0 -0.9659258
vn 0 0.258819 -0.9659258
vn 0.4597727 -0.8474345 -0.2654499
vn 0.2654499 -0.8474345 -0.4597727
vn 0.1731918 -0.9695407 -0.1731918
vn 0.5140254 -0.8549294 -0.06981172
vn 0.1408363 -0.8389881 -0.5256083
vn 0.2654499 -0.8474345 0.4597727
vn 0.4597727 -0.8474345 0.2654499
vn 0.1731918 -0.9695407 0.1731918
vn -0.06981172 -0.8549294 0.5140254
vn -0.1453179 -0.9786549 0.1453179
vn -0.2654499 -0.8474345 0.4597727
vn 0.1408363 -0.8389881 0.5256083
vn 0.5140254 -0.8549294 0.06981172
vn -0.4597727 -0.8474345 0.2654499
vn -0.5140254 -0.8549294 0.06981172
vn -0.2179146 -0.9722424 -0.08519387
vn -0.4597727 -0.8474345 -0.2654499
vn -0.5140254 -0.8549294 -0.06981172
vn -0.2654499 -0.8474345 -0.4597727
vn -0.1408363 -0.8389881 -0.5256083
vn 0.4379916 -0.4823416 -0.7586237
vn 0.7586237 -0.4823416 -0.4379916
vn 0.4958982 -0.1278264 -0.858921
vn 0.858921 -0.1278264 -0.4958982
vn 0.9702645 -0.1711532 -0.1711532
vn 0.865321 -0.4883322 -0.1129214
vn -0.4829629 -0.258819 -0.8365163
vn -0.8365163 -0.258819 -0.4829629
vn -0.4379916 -0.4823416 -0.7586237
vn -0.7586237 -0.4823416 -0.4379916
vn 0.2285087 -0.4695798 -0.8528062
vn 0.2505628 -0.2505628 -0.9351131
vn -0.2285087 -0.4695798 -0.8528062
vn -0.2505628 -0.2505628 -0.9351131
vn -0.9351131 -0.2505628 -0.2505628
vn -0.865321 -0.4883322 -0.1129214
vn 0 -0.8660254 0.5
vn 0 -0.9659258 0.258819
vn 0 -0.5 0.8660254
vn -0.1129214 -0.4883322 0.865321
vn 0 -0.258819 0.9659258
vn 0.258819 -0.9659258 0
vn 0 -0.5 -0.8660254
vn 0 -0.258819 -0.9659258
vn 0 -0.8660254 -0.5
vn 0.9702645 -0.1711532 0.1711532
vn 0.865321 -0.4883322 0.1129214
vn -0.865321 -0.4883322 0.1129214
vn -0.9659258 -0.258819 0
vn 0 -0.9659258 -0.258819
vn 0.4958982 -0.1278264 0.858921
vn 0.2568364 -0.1235385 0.9585266
vn 0.858921 -0.1278264 0.4958982
vn 0.7586237 -0.4823416 0.4379916
vn 0.4379916 -0.4823416 0.7586237
vn 0.2285087 -0.4695798 0.8528062
vn -0.4379916 -0.4823416 0.7586237
vn -0.7586237 -0.4823416 0.4379916
vn -0.2505628 -0.2505628 0.9351131
vn -0.4829629 -0.258819 0.8365163
vn -0.8365163 -0.258819 0.4829629
vn -0.9351131 -0.2505628 0.2505628
vn 0 -1 0

vt 10.62605 -10.03481
vt 11.13554 -8.061578
vt 11.64503 -10.03481
vt -0.5094863 -12.90999
vt -1.767475E-13 -10.93676
vt 0.5094863 -12.90999
vt 1.652012E-13 -10.93676
vt -1.696421E-13 -10.93676
vt -11.13554 -8.061578
vt -10.62605 -10.03481
vt -11.64503 -10.03481
vt -0.8824562 29.80298
vt 0.8824562 29.80298
vt -1.018973 27.76961
vt 1.018973 27.76961
vt 0.8824562 9.140439
vt -0.8824562 9.140439
vt 0.5094863 11.14396
vt -0.5094863 11.14396
vt -10.25308 30.5506
vt -10.11657 28.51723
vt -12.018 30.5506
vt -12.15451 28.51723
vt -10.25308 11.2134
vt -12.018 11.2134
vt -10.62605 13.21692
vt -11.64503 13.21692
vt 10.25308 11.2134
vt 10.62605 13.21692
vt 12.018 11.2134
vt 11.64503 13.21692
vt 12.15451 28.51723
vt 10.11657 28.51723
vt 12.018 30.5506
vt 10.25308 30.5506
vt -15.74803 27.55906
vt -15.74803 35.43307
vt 15.74803 27.55906
vt 15.74803 35.43307
vt -15.74803 -15.74803
vt -15.74803 15.74803
vt 15.74803 -15.74803
vt 15.74803 15.74803
vt 15.74803 12.90045
vt -15.74803 12.90045
vt 15.74803 14.9384
vt -15.74803 14.9384
vt 10.11657 27.55906
vt 10.11657 35.43307
vt 12.15451 27.55906
vt 12.15451 35.43307
vt 15.74803 29.13086
vt -15.74803 29.13086
vt 15.74803 31.1688
vt -15.74803 31.1688
vt -10.11657 27.55906
vt -12.15451 27.55906
vt -10.11657 35.43307
vt -12.15451 35.43307
vt 1.018973 27.55906
vt -1.018973 27.55906
vt 1.018973 35.43307
vt -1.018973 35.43307
vt 15.74803 -5.021704
vt 15.74803 -7.059649
vt -15.74803 -5.021704
vt -15.74803 -7.059649
vt -0.5094863 23.4339
vt 0.5094863 23.4339
vt 1.688649E-13 21.46067
vt 10.62605 20.55871
vt 11.64503 20.55871
vt 11.13554 18.58548
vt -11.13554 18.58548
vt -11.64503 20.55871
vt -10.62605 20.55871
vt -1.652012E-13 21.46067
vt 1.652012E-13 21.46067
vt -1.508793E-13 21.46067
vt 0.8824562 8.31121
vt -0.8824562 8.31121
vt 1.018973 10.34458
vt -1.018973 10.34458
vt 12.15451 9.596958
vt 12.018 7.563591
vt 10.11657 9.596958
vt 10.25308 7.563591
vt -0.8824562 19.17667
vt 0.8824562 19.17667
vt -0.5094863 17.17315
vt 0.5094863 17.17315
vt 10.25308 17.10371
vt 12.018 17.10371
vt 10.62605 15.10019
vt 11.64503 15.10019
vt -10.25308 7.563591
vt -12.018 7.563591
vt -10.11657 9.596958
vt -12.15451 9.596958
vt -10.62605 15.10019
vt -11.64503 15.10019
vt -10.25308 17.10371
vt -12.018 17.10371
vt 15.74803 3.937008
vt -15.74803 3.937008
vt 15.74803 17.24938
vt 15.74803 15.21143
vt -15.74803 17.24938
vt -15.74803 15.21143
vt 15.74803 6.859776
vt -15.74803 6.859776
vt 15.74803 8.89772
vt -15.74803 8.89772
vt -12.15451 3.937008
vt -10.11657 3.937008
vt 12.15451 3.937008
vt 10.11657 3.937008
vt 1.018973 3.937008
vt -1.018973 3.937008

usemtl snow

f 3/3/3 2/2/2 1/1/1
f 4/6/4 2/5/2 3/4/3
f 7/4/7 6/6/6 5/7/5
f 10/8/10 9/4/9 8/6/8
f 11/1/11 9/3/9 10/2/10
f 12/1/12 7/3/7 5/2/5
f 6/11/6 13/10/13 5/9/5
f 10/9/10 8/11/8 14/10/14
f 15/10/15 2/9/2 4/11/4
f 18/9/18 17/11/17 16/10/16
f 18/7/18 19/4/19 17/6/17
f 18/2/18 20/1/20 19/3/19
f 23/14/23 22/13/22 21/12/21
f 22/13/22 23/14/23 24/15/24
f 8/18/8 26/17/26 25/16/25
f 26/17/26 8/18/8 9/19/9
f 25/22/25 28/21/28 27/20/27
f 28/21/28 25/22/25 29/23/29
f 14/26/14 25/25/25 27/24/27
f 25/25/25 14/26/14 8/27/8
f 21/30/21 12/29/12 30/28/30
f 12/29/12 21/30/21 7/31/7
f 26/34/26 32/33/32 31/32/31
f 32/33/32 26/34/26 33/35/33
f 25/13/25 31/14/31 29/15/29
f 31/14/31 25/13/25 26/12/26
f 23/32/23 30/35/30 34/33/34
f 30/35/30 23/32/23 21/34/21
f 7/19/7 22/16/22 6/18/6
f 22/16/22 7/19/7 21/17/21
f 36/20/36 24/23/24 35/21/35
f 24/23/24 36/20/36 22/22/22
f 3/31/3 38/28/38 37/30/37
f 38/28/38 3/31/3 1/29/1
f 9/31/9 33/28/33 26/30/26
f 33/28/33 9/31/9 11/29/11
f 13/26/13 22/25/22 36/24/36
f 22/25/22 13/26/13 6/27/6
f 40/24/40 4/27/4 39/25/39
f 4/27/4 40/24/40 15/26/15
f 42/30/42 20/29/20 41/28/41
f 20/29/20 42/30/42 19/31/19
f 43/16/43 19/19/19 42/17/42
f 19/19/19 43/16/43 17/18/17
f 45/21/45 39/22/39 44/23/44
f 39/22/39 45/21/45 40/20/40
f 42/34/42 47/33/47 46/32/46
f 47/33/47 42/34/42 41/35/41
f 43/13/43 46/14/46 48/15/48
f 46/14/46 43/13/43 42/12/42
f 16/26/16 43/25/43 49/24/49
f 43/25/43 16/26/16 17/27/17
f 37/34/37 51/33/51 50/32/50
f 51/33/51 37/34/37 38/35/38
f 39/13/39 50/14/50 44/15/44
f 50/14/50 39/13/39 37/12/37
f 49/20/49 48/23/48 52/21/52
f 48/23/48 49/20/49 43/22/43
f 37/17/37 4/18/4 3/19/3
f 4/18/4 37/17/37 39/16/39
f 54/38/53 45/37/53 53/36/53
f 45/37/53 54/38/53 34/39/53
f 2/42/54 10/41/54 18/40/54
f 10/41/54 2/42/54 5/43/54
f 32/39/55 56/36/55 55/38/55
f 56/36/55 32/39/55 35/37/55
f 28/37/56 57/38/56 47/39/56
f 57/38/56 28/37/56 58/36/56
f 51/39/57 60/36/57 59/38/57
f 60/36/57 51/39/57 52/37/57
f 11/46/59 36/45/58 33/44/58
f 36/45/58 11/46/59 13/47/59
f 61/50/61 34/49/60 54/48/60
f 34/49/60 61/50/61 23/51/61
f 33/54/58 35/53/62 32/52/62
f 35/53/62 33/54/58 36/55/58
f 35/58/63 62/57/64 56/56/63
f 62/57/64 35/58/63 24/59/64
f 31/51/65 55/48/66 63/50/65
f 55/48/66 31/51/65 32/49/66
f 29/62/67 63/61/65 64/60/67
f 63/61/65 29/62/67 31/63/65
f 62/60/64 23/63/61 61/61/61
f 23/63/61 62/60/64 24/62/64
f 29/59/67 58/56/68 28/58/68
f 58/56/68 29/59/67 64/57/67
f 5/66/69 11/65/59 10/64/69
f 11/65/59 5/66/69 13/67/59
f 1/46/71 49/45/70 38/44/70
f 49/45/70 1/46/71 16/47/71
f 30/44/72 15/47/73 40/45/72
f 15/47/73 30/44/72 12/46/73
f 34/52/74 40/55/72 45/53/74
f 40/55/72 34/52/74 30/54/72
f 14/47/75 41/44/76 20/46/75
f 41/44/76 14/47/75 27/45/76
f 44/62/77 66/61/78 65/60/77
f 66/61/78 44/62/77 50/63/78
f 48/62/79 68/61/80 67/60/79
f 68/61/80 48/62/79 46/63/80
f 1/65/71 18/66/81 16/67/71
f 18/66/81 1/65/71 2/64/81
f 47/49/82 68/50/80 46/51/80
f 68/50/80 47/49/82 57/48/82
f 27/55/76 47/52/83 41/54/76
f 47/52/83 27/55/76 28/53/83
f 18/64/84 14/67/75 20/65/75
f 14/67/75 18/64/84 10/66/84
f 15/67/73 5/64/85 2/66/85
f 5/64/85 15/67/73 12/65/73
f 50/51/78 59/48/86 66/50/78
f 59/48/86 50/51/78 51/49/86
f 53/56/87 44/59/77 65/57/77
f 44/59/77 53/56/87 45/58/87
f 52/58/88 67/57/79 60/56/88
f 67/57/79 52/58/88 48/59/79
f 38/54/70 52/53/89 51/52/89
f 52/53/89 38/54/70 49/55/70

usemtl dirt

f 71/70/92 70/69/91 69/68/90
f 71/73/92 69/72/90 72/71/93
f 73/76/94 70/75/91 71/74/92
f 76/77/97 75/69/96 74/68/95
f 79/75/100 78/74/99 77/76/98
f 76/73/97 74/72/95 80/71/101
f 76/74/97 81/76/102 75/75/96
f 83/71/104 78/73/99 82/72/103
f 82/68/103 78/78/99 79/69/100
f 86/76/107 85/75/106 84/74/105
f 85/69/106 87/68/108 84/79/105
f 87/72/108 88/71/109 84/73/105
f 91/82/112 90/81/111 89/80/110
f 90/81/111 91/82/112 92/83/113
f 93/86/114 90/85/111 92/84/113
f 90/85/111 93/86/114 94/87/115
f 69/90/90 89/89/110 90/88/111
f 89/89/110 69/90/90 70/91/91
f 97/81/118 96/82/117 95/83/116
f 96/82/117 97/81/118 98/80/119
f 72/94/93 90/93/111 94/92/115
f 90/93/111 72/94/93 69/95/90
f 100/98/121 89/97/110 99/96/120
f 89/97/110 100/98/121 91/99/112
f 95/84/116 101/87/122 97/85/118
f 101/87/122 95/84/116 102/86/123
f 99/102/120 70/101/91 73/100/94
f 70/101/91 99/102/120 89/103/110
f 98/97/119 103/98/124 96/99/117
f 103/98/124 98/97/119 104/96/125
f 55/38/55 106/105/55 105/104/55
f 106/105/55 55/38/55 56/36/55
f 107/104/53 53/36/53 103/105/53
f 53/36/53 107/104/53 54/38/53
f 58/36/56 93/104/56 57/38/56
f 93/104/56 58/36/56 108/105/56
f 77/108/98 76/107/127 80/106/126
f 76/107/127 77/108/98 78/109/99
f 59/38/57 100/105/57 102/104/57
f 100/105/57 59/38/57 60/36/57
f 109/46/128 77/45/98 80/44/126
f 77/45/98 109/46/128 110/47/129
f 105/112/130 110/111/129 109/110/128
f 110/111/129 105/112/130 106/113/130
f 76/109/131 72/106/93 81/108/102
f 72/106/93 76/109/131 71/107/131
f 102/112/133 99/111/132 101/110/132
f 99/111/132 102/112/133 100/113/133
f 83/106/104 84/109/105 78/107/99
f 84/109/105 83/106/104 86/108/107
f 101/46/132 73/45/134 88/44/134
f 73/45/134 101/46/132 99/47/132
f 108/113/135 94/110/115 93/112/114
f 94/110/115 108/113/135 111/111/136
f 81/45/102 94/46/115 111/47/136
f 94/46/115 81/45/102 72/44/93
f 83/44/104 104/47/125 86/45/107
f 104/47/125 83/44/104 112/46/137
f 112/110/137 103/113/138 104/111/125
f 103/113/138 112/110/137 107/112/138
f 84/107/139 73/108/134 71/109/139
f 73/108/134 84/107/139 88/106/134
f 103/115/87 65/57/77 96/114/77
f 65/57/77 103/115/87 53/56/87
f 56/56/63 113/114/64 106/115/63
f 113/114/64 56/56/63 62/57/64
f 66/50/78 102/117/86 95/116/78
f 102/117/86 66/50/78 59/48/86
f 63/50/65 105/117/141 114/116/140
f 105/117/141 63/50/65 55/48/66
f 64/57/67 108/115/135 58/56/68
f 108/115/135 64/57/67 115/114/142
f 67/60/79 92/119/113 91/118/112
f 92/119/113 67/60/79 68/61/80
f 62/60/64 116/119/61 113/118/64
f 116/119/61 62/60/64 61/61/61
f 65/60/77 95/119/78 96/118/77
f 95/119/78 65/60/77 66/61/78
f 116/116/61 54/48/60 107/117/60
f 54/48/60 116/116/61 61/50/61
f 64/60/67 114/119/140 115/118/142
f 114/119/140 64/60/67 63/61/65
f 60/56/88 91/114/112 100/115/88
f 91/114/112 60/56/88 67/57/79
f 57/48/82 92/116/113 68/50/80
f 92/116/113 57/48/82 93/117/114
f 118/88/144 75/91/96 117/89/143
f 75/91/96 118/88/144 74/90/95
f 118/93/144 80/94/101 74/95/95
f 80/94/101 118/93/144 109/92/145
f 117/103/143 81/100/102 111/102/136
f 81/100/102 117/103/143 75/101/96
f 115/82/142 118/81/144 117/80/143
f 118/81/144 115/82/142 114/83/140
f 115/99/142 111/96/136 108/98/135
f 111/96/136 115/99/142 117/97/143
f 114/84/140 109/87/145 118/85/144
f 109/87/145 114/84/140 105/86/141
f 110/102/129 79/101/100 77/100/98
f 79/101/100 110/102/129 119/103/146
f 119/89/146 82/90/103 79/91/100
f 82/90/103 119/89/146 120/88/147
f 82/95/103 112/92/137 83/94/104
f 112/92/137 82/95/103 120/93/147
f 106/98/148 119/97/146 110/96/129
f 119/97/146 106/98/148 113/99/149
f 113/82/149 120/81/147 119/80/146
f 120/81/147 113/82/149 116/83/150
f 120/85/147 107/86/151 112/87/137
f 107/86/151 120/85/147 116/84/150
f 85/101/106 104/102/125 98/103/119
f 104/102/125 85/101/106 86/100/107
f 85/91/106 97/88/118 87/90/108
f 97/88/118 85/91/106 98/89/119
f 97/93/118 88/94/109 87/95/108
f 88/94/109 97/93/118 101/92/122
f 78/41/152 71/42/152 76/43/152
f 71/42/152 78/41/152 84/40/152

