# Created by Kenney (www.kenney.nl)

mtllib blockHexagon.mtl

g blockHexagon

v -0.591514 0.8414931 0.2886751
v -0.5 1 0.2886751
v -0.545757 0.8414931 0.3679286
v -0.045757 0.8414931 -0.6566037
v 0.045757 0.8414931 -0.6566037
v 9.817995E-14 1 -0.5773503
v 0.5 1 0.2886751
v 0.591514 0.8414931 0.2886751
v 0.545757 0.8414931 0.3679286
v 0.5 1 -0.2886751
v 0.545757 0.8414931 -0.3679286
v 0.591514 0.8414931 -0.2886751
v -0.591514 0.8414931 -0.2886751
v -0.545757 0.8414931 -0.3679286
v -0.5 1 -0.2886751
v 0.045757 0.8414931 0.656604
v -0.045757 0.8414931 0.656604
v 9.817995E-14 1 0.57735
v 0.129014 0.7695886 -0.6564715
v 0.170757 0.8414931 -0.5844349
v 0.295757 0.8414931 -0.5122662
v 0.254014 0.7695886 -0.5843027
v 0.420757 0.8414931 -0.4400974
v 0.379014 0.7695886 -0.512134
v 0.504014 0.7695886 -0.4399652
v -0.129014 0.7695886 0.656471
v -0.170757 0.8414931 0.584435
v -0.295757 0.8414931 0.512266
v -0.254014 0.7695886 0.584303
v -0.4207569 0.8414931 0.4400973
v -0.379014 0.7695886 0.512134
v -0.504014 0.7695886 0.4399652
v 0.504014 0.7695886 0.4399652
v 0.420757 0.8414931 0.4400973
v 0.295757 0.8414931 0.512266
v 0.379014 0.7695886 0.512134
v 0.170757 0.8414931 0.584435
v 0.254014 0.7695886 0.584303
v 0.129014 0.7695886 0.656471
v -0.504014 0.7695886 -0.4399652
v -0.4207569 0.8414931 -0.4400974
v -0.295757 0.8414931 -0.5122662
v -0.379014 0.7695886 -0.512134
v -0.170757 0.8414931 -0.5844349
v -0.254014 0.7695886 -0.5843027
v -0.129014 0.7695886 -0.6564715
v -0.633028 0.7695886 -0.2165064
v -0.591514 0.8414931 -0.1443376
v -0.591514 0.8414931 2.530299E-13
v -0.633028 0.7695886 -0.0721688
v -0.633028 0.7695886 0.0721688
v -0.591514 0.8414931 0.1443375
v -0.633028 0.7695886 0.2165064
v 0.591514 0.8414931 -0.1443376
v 0.633028 0.7695886 -0.2165064
v 0.591514 0.8414931 2.530299E-13
v 0.633028 0.7695886 -0.0721688
v 0.633028 0.7695886 0.0721688
v 0.591514 0.8414931 0.1443375
v 0.633028 0.7695886 0.2165064
v 0.5 0 0.2886751
v 0.1339742 8.014827E-32 0.5
v 9.817995E-14 0 0.57735
v -0.5 0 -0.2886751
v -0.5 0 0.2886751
v 0.5 0 -0.2886751
v 9.817995E-14 0 -0.5773503
v 0.1339746 8.014827E-32 -0.5
v -0.1339742 8.014827E-32 0.5
v -0.1339746 8.014827E-32 -0.5

vn -0.7745968 0.4472136 0.4472134
vn 0.7745968 -0.4472136 -0.4472134
vn 0 0.4472135 -0.8944273
vn 0 -0.4472135 0.8944273
vn 0.7745967 0.4472136 0.4472135
vn -0.7745967 -0.4472136 -0.4472135
vn 0.7745967 0.4472136 -0.4472135
vn -0.7745967 -0.4472136 0.4472135
vn -0.7745968 0.4472136 -0.4472134
vn 0.7745968 -0.4472136 0.4472134
vn 0 0.4472161 0.8944259
vn 0 -0.4472161 -0.8944259
vn 0.4330127 0.5 -0.7500001
vn -0.4330127 -0.5 0.7500001
vn 0 1 0
vn -0.4330126 0.5000002 0.7499999
vn 0.4330126 -0.5000002 -0.7499999
vn 0.4330125 0.5000003 0.75
vn -0.4330125 -0.5000003 -0.75
vn -0.4330127 0.5 -0.7500001
vn 0.4330127 -0.5 0.7500001
vn -0.8660254 0.5 0
vn 0.8660254 -0.5 0
vn 0.8660254 0.5 0
vn -0.8660254 -0.5 0
vn 0.4999998 0 0.8660256
vn -1 0 0
vn 1 0 0
vn 0.5000001 0 -0.8660254
vn -0.4999998 0 0.8660256
vn -0.5000001 0 -0.8660254
vn 0 -1 0

vt -1.801451 18.07134
vt 5.178791E-06 25.04836
vt 1.801464 18.07134
vt 1.801457 18.07135
vt -1.801457 18.07135
vt -3.86613E-12 25.04836
vt -3.027748E-06 25.04836
vt 1.801453 18.07134
vt -1.801462 18.07134
vt 3.027731E-06 25.04836
vt 1.801462 18.07134
vt -1.801453 18.07134
vt 1.801451 18.07134
vt -1.801464 18.07134
vt -5.178773E-06 25.04836
vt 1.801457 18.07124
vt -1.801457 18.07124
vt 3.865352E-12 25.04826
vt 8.523871 13.77832
vt 5.682581 17.04714
vt 11.36516 17.04714
vt 11.36516 24.25297
vt -1.747736E-07 17.04714
vt 2.84129 13.77832
vt -5.682581 17.04714
vt -2.841291 13.77832
vt -11.36516 17.04714
vt -11.36516 24.25297
vt -8.523872 13.77832
vt -19.68504 -11.36516
vt -19.68504 11.36516
vt -3.865352E-12 -22.73033
vt -3.865352E-12 22.73031
vt 19.68504 -11.36516
vt 19.68504 11.36516
vt 8.523859 13.77832
vt 5.68258 17.04713
vt 11.36517 17.04713
vt 11.36516 24.25296
vt -5.798542E-06 17.04713
vt 2.841293 13.77831
vt -5.682582 17.04713
vt -2.841292 13.77831
vt -11.36517 17.04713
vt -11.36517 24.25296
vt -8.523874 13.77831
vt 8.523874 13.77831
vt 5.682586 17.04713
vt 11.36517 17.04713
vt 11.36517 24.25296
vt 6.165078E-06 17.04713
vt 2.841293 13.77831
vt -5.68258 17.04713
vt -2.841293 13.77831
vt -11.36516 17.04713
vt -11.36516 24.25296
vt -8.523859 13.77832
vt 5.682578 17.04714
vt 11.36516 17.04714
vt -1.917631E-07 17.04714
vt -5.682581 17.04714
vt -2.841291 13.77832
vt -11.36516 17.04714
vt -11.36516 24.25297
vt -8.523872 13.77832
vt -11.36516 17.04714
vt -11.36516 24.25297
vt -8.523874 13.77832
vt -5.682583 17.04714
vt 11.36516 24.25297
vt 9.918059E-12 17.04714
vt -2.841291 13.77832
vt 2.841291 13.77832
vt 5.682579 17.04714
vt 8.523874 13.77832
vt 11.36516 17.04714
vt 5.682583 17.04714
vt -9.891589E-12 17.04714
vt -5.682579 17.04714
vt 11.36517 4.153301E-16
vt -5.274596 4.153301E-16
vt 11.36517 39.37008
vt -11.36515 39.37008
vt -11.36515 4.153301E-16
vt -11.36516 0
vt -11.36516 39.37008
vt 11.36516 0
vt 11.36516 39.37008
vt 11.36516 4.983963E-16
vt 5.274592 4.983963E-16
vt 11.36516 39.37008
vt -11.36516 39.37008
vt -11.36516 4.983963E-16
vt 11.36515 -9.137263E-16
vt 5.274596 -9.137263E-16
vt 11.36515 39.37008
vt -11.36517 39.37008
vt -11.36517 -9.137263E-16
vt 11.36516 -8.306604E-16
vt -5.274592 -8.306604E-16
vt 11.36516 39.37008
vt -11.36516 39.37008
vt -11.36516 -8.306604E-16
vt 5.274576 19.68504
vt 5.27459 -19.68504
vt 3.865352E-12 -22.73033
vt 3.865352E-12 22.73031
vt -5.274576 19.68504
vt -5.27459 -19.68504

usemtl grass

f 3/3/1 2/2/1 1/1/1
f 1/1/2 2/2/2 3/3/2
f 6/6/3 5/5/3 4/4/3
f 4/4/4 5/5/4 6/6/4
f 9/9/5 8/8/5 7/7/5
f 7/7/6 8/8/6 9/9/6
f 12/12/7 11/11/7 10/10/7
f 10/10/8 11/11/8 12/12/8
f 15/15/9 14/14/9 13/13/9
f 13/13/10 14/14/10 15/15/10
f 18/18/11 17/17/11 16/16/11
f 16/16/12 17/17/12 18/18/12
f 5/21/13 20/20/13 19/19/13
f 20/20/13 5/21/13 6/22/13
f 20/20/13 6/22/13 21/23/13
f 21/23/13 22/24/13 20/20/13
f 21/23/13 6/22/13 23/25/13
f 23/25/13 24/26/13 21/23/13
f 23/25/13 6/22/13 11/27/13
f 11/27/13 6/22/13 10/28/13
f 11/27/13 25/29/13 23/25/13
f 19/19/14 20/20/14 5/21/14
f 6/22/14 5/21/14 20/20/14
f 21/23/14 6/22/14 20/20/14
f 20/20/14 22/24/14 21/23/14
f 23/25/14 6/22/14 21/23/14
f 21/23/14 24/26/14 23/25/14
f 11/27/14 6/22/14 23/25/14
f 23/25/14 25/29/14 11/27/14
f 10/28/14 6/22/14 11/27/14
f 6/32/15 7/31/15 10/30/15
f 7/31/15 6/32/15 18/33/15
f 18/33/15 6/32/15 15/34/15
f 18/33/15 15/34/15 2/35/15
f 17/38/16 27/37/16 26/36/16
f 27/37/16 17/38/16 18/39/16
f 27/37/16 18/39/16 28/40/16
f 28/40/16 29/41/16 27/37/16
f 28/40/16 18/39/16 30/42/16
f 30/42/16 31/43/16 28/40/16
f 30/42/16 18/39/16 3/44/16
f 3/44/16 18/39/16 2/45/16
f 3/44/16 32/46/16 30/42/16
f 26/36/17 27/37/17 17/38/17
f 18/39/17 17/38/17 27/37/17
f 28/40/17 18/39/17 27/37/17
f 27/37/17 29/41/17 28/40/17
f 30/42/17 18/39/17 28/40/17
f 28/40/17 31/43/17 30/42/17
f 3/44/17 18/39/17 30/42/17
f 30/42/17 32/46/17 3/44/17
f 2/45/17 18/39/17 3/44/17
f 9/49/18 34/48/18 33/47/18
f 34/48/18 9/49/18 7/50/18
f 34/48/18 7/50/18 35/51/18
f 35/51/18 36/52/18 34/48/18
f 35/51/18 7/50/18 37/53/18
f 37/53/18 38/54/18 35/51/18
f 37/53/18 7/50/18 16/55/18
f 16/55/18 7/50/18 18/56/18
f 16/55/18 39/57/18 37/53/18
f 33/47/19 34/48/19 9/49/19
f 7/50/19 9/49/19 34/48/19
f 35/51/19 7/50/19 34/48/19
f 34/48/19 36/52/19 35/51/19
f 37/53/19 7/50/19 35/51/19
f 35/51/19 38/54/19 37/53/19
f 16/55/19 7/50/19 37/53/19
f 37/53/19 39/57/19 16/55/19
f 18/56/19 7/50/19 16/55/19
f 14/59/20 41/58/20 40/19/20
f 41/58/20 14/59/20 15/22/20
f 41/58/20 15/22/20 42/60/20
f 42/60/20 43/24/20 41/58/20
f 42/60/20 15/22/20 44/61/20
f 44/61/20 45/62/20 42/60/20
f 44/61/20 15/22/20 4/63/20
f 4/63/20 15/22/20 6/64/20
f 4/63/20 46/65/20 44/61/20
f 40/19/21 41/58/21 14/59/21
f 15/22/21 14/59/21 41/58/21
f 42/60/21 15/22/21 41/58/21
f 41/58/21 43/24/21 42/60/21
f 44/61/21 15/22/21 42/60/21
f 42/60/21 45/62/21 44/61/21
f 4/63/21 15/22/21 44/61/21
f 44/61/21 46/65/21 4/63/21
f 6/64/21 15/22/21 4/63/21
f 47/68/22 15/67/22 13/66/22
f 15/67/22 47/68/22 48/69/22
f 15/67/22 48/69/22 2/70/22
f 2/70/22 48/69/22 49/71/22
f 49/71/22 48/69/22 50/72/22
f 2/70/22 49/71/22 51/73/22
f 2/70/22 51/73/22 52/74/22
f 2/70/22 52/74/22 53/75/22
f 2/70/22 53/75/22 1/76/22
f 13/66/23 15/67/23 47/68/23
f 48/69/23 47/68/23 15/67/23
f 2/70/23 48/69/23 15/67/23
f 49/71/23 48/69/23 2/70/23
f 50/72/23 48/69/23 49/71/23
f 51/73/23 49/71/23 2/70/23
f 52/74/23 51/73/23 2/70/23
f 53/75/23 52/74/23 2/70/23
f 1/76/23 53/75/23 2/70/23
f 7/67/24 12/76/24 10/70/24
f 12/76/24 7/67/24 54/77/24
f 12/76/24 54/77/24 55/75/24
f 54/77/24 7/67/24 56/78/24
f 54/77/24 56/78/24 57/73/24
f 56/78/24 7/67/24 58/72/24
f 58/72/24 7/67/24 59/79/24
f 59/79/24 7/67/24 60/68/24
f 60/68/24 7/67/24 8/66/24
f 10/70/25 12/76/25 7/67/25
f 54/77/25 7/67/25 12/76/25
f 55/75/25 54/77/25 12/76/25
f 56/78/25 7/67/25 54/77/25
f 57/73/25 56/78/25 54/77/25
f 58/72/25 7/67/25 56/78/25
f 59/79/25 7/67/25 58/72/25
f 60/68/25 7/67/25 59/79/25
f 8/66/25 7/67/25 60/68/25

usemtl dirt

f 7/82/26 62/81/26 61/80/26
f 18/83/26 62/81/26 7/82/26
f 62/81/26 18/83/26 63/84/26
f 65/87/27 15/86/27 64/85/27
f 15/86/27 65/87/27 2/88/27
f 7/86/28 66/87/28 10/88/28
f 66/87/28 7/86/28 61/85/28
f 6/91/29 68/90/29 67/89/29
f 10/92/29 68/90/29 6/91/29
f 68/90/29 10/92/29 66/93/29
f 18/96/30 69/95/30 63/94/30
f 2/97/30 69/95/30 18/96/30
f 69/95/30 2/97/30 65/98/30
f 15/101/31 70/100/31 64/99/31
f 6/102/31 70/100/31 15/101/31
f 70/100/31 6/102/31 67/103/31
f 62/104/32 66/34/32 61/35/32
f 66/34/32 62/104/32 68/105/32
f 68/105/32 62/104/32 67/106/32
f 67/106/32 62/104/32 63/107/32
f 67/106/32 63/107/32 69/108/32
f 67/106/32 69/108/32 70/109/32
f 70/109/32 69/108/32 65/31/32
f 70/109/32 65/31/32 64/30/32

