# Created by Kenney (www.kenney.nl)

mtllib blockSnowHexagon.mtl

g blockSnowHexagon

v 0.5 1 0.2886751
v 0.591514 0.8414931 0.2886751
v 0.545757 0.8414931 0.3679286
v -0.591514 0.8414931 -0.2886751
v -0.545757 0.8414931 -0.3679286
v -0.5 1 -0.2886751
v -0.591514 0.8414931 0.2886751
v -0.5 1 0.2886751
v -0.545757 0.8414931 0.3679286
v 0.045757 0.8414931 0.656604
v -0.045757 0.8414931 0.656604
v 9.817995E-14 1 0.57735
v 0.5 1 -0.2886751
v 0.545757 0.8414931 -0.3679286
v 0.591514 0.8414931 -0.2886751
v -0.045757 0.8414931 -0.6566037
v 0.045757 0.8414931 -0.6566037
v 9.817995E-14 1 -0.5773503
v 0.433257 0.7981918 0.4617479
v 0.4115362 0.79941 0.4734764
v 0.4542744 0.79941 0.4488015
v 0.4744976 0.803059 0.4346929
v 0.3892063 0.803059 0.4839358
v 0.4938391 0.8091233 0.4194833
v 0.3663636 0.8091233 0.4930812
v 0.5122151 0.8175765 0.4032385
v 0.3431072 0.8175765 0.500873
v 0.529546 0.828382 0.3860288
v 0.3195377 0.828382 0.507277
v 0.2719764 0.8546042 0.517255
v 0.2484068 0.8654098 0.523659
v 0.2251504 0.8738629 0.531451
v 0.2023078 0.8799272 0.540596
v 0.1799777 0.8835763 0.551056
v 0.158257 0.8847944 0.562784
v 0.1372396 0.8835763 0.575731
v 0.1170163 0.8799272 0.589839
v 0.0976749 0.8738629 0.605049
v 0.0792989 0.8654098 0.621294
v 0.061968 0.8546042 0.638504
v 0.5990837 0.828382 -0.265586
v 0.6053223 0.8175765 -0.2419721
v 0.6102027 0.8091233 -0.2179356
v 0.6137039 0.803059 -0.1935806
v 0.6158107 0.79941 -0.1690125
v 0.616514 0.7981918 -0.1443376
v 0.6158107 0.79941 -0.1196627
v 0.6137039 0.803059 -0.0950946
v 0.6102027 0.8091233 -0.0707396
v 0.6053223 0.8175765 -0.0467031
v 0.5839443 0.8546042 0.0230891
v 0.5990837 0.828382 -0.0230892
v 0.591514 0.8414931 2.541128E-13
v 0.5777057 0.8654098 0.0467031
v 0.5728253 0.8738629 0.0707396
v 0.5693241 0.8799272 0.09509449
v 0.5672172 0.8835763 0.1196626
v 0.566514 0.8847944 0.1443375
v 0.5672172 0.8835763 0.1690124
v 0.5693241 0.8799272 0.1935806
v 0.5728253 0.8738629 0.2179356
v 0.5777057 0.8654098 0.241972
v 0.5839443 0.8546042 0.265586
v 0.183257 0.7981918 -0.6060856
v 0.2042744 0.79941 -0.5931391
v 0.1615363 0.79941 -0.617814
v 0.1392063 0.803059 -0.6282735
v 0.2244976 0.803059 -0.5790305
v 0.1163636 0.8091233 -0.6374189
v 0.2438391 0.8091233 -0.5638208
v 0.09310719 0.8175765 -0.6452105
v 0.2622151 0.8175765 -0.547576
v 0.0695377 0.828382 -0.6516147
v 0.279546 0.828382 -0.5303662
v 0.311968 0.8546042 -0.494166
v 0.3292989 0.8654098 -0.4769563
v 0.3476749 0.8738629 -0.4607114
v 0.3670163 0.8799272 -0.4455018
v 0.3872396 0.8835763 -0.4313932
v 0.408257 0.8847944 -0.4184467
v 0.4299777 0.8835763 -0.4067183
v 0.4523078 0.8799272 -0.3962588
v 0.4751504 0.8738629 -0.3871135
v 0.4984068 0.8654098 -0.3793218
v 0.5219763 0.8546042 -0.3729176
v -0.433257 0.7981918 -0.461748
v -0.4115363 0.79941 -0.4734764
v -0.4542744 0.79941 -0.4488015
v -0.4744977 0.803059 -0.4346929
v -0.3892063 0.803059 -0.4839359
v -0.4938391 0.8091233 -0.4194832
v -0.3663636 0.8091233 -0.4930813
v -0.512215 0.8175765 -0.4032384
v -0.3431072 0.8175765 -0.5008729
v -0.529546 0.828382 -0.3860287
v -0.3195376 0.828382 -0.5072771
v -0.2719763 0.8546042 -0.5172552
v -0.2484068 0.8654098 -0.5236593
v -0.2251504 0.8738629 -0.531451
v -0.2023078 0.8799272 -0.5405964
v -0.1799777 0.8835763 -0.5510559
v -0.158257 0.8847944 -0.5627843
v -0.1372395 0.8835763 -0.5757308
v -0.1170164 0.8799272 -0.5898394
v -0.0976749 0.8738629 -0.605049
v -0.0792989 0.8654098 -0.6212939
v -0.061968 0.8546042 -0.6385036
v -0.583944 0.8546042 -0.265586
v -0.577706 0.8654098 -0.2419721
v -0.572825 0.8738629 -0.2179356
v -0.569324 0.8799272 -0.1935806
v -0.567217 0.8835763 -0.1690125
v -0.566514 0.8847944 -0.1443376
v -0.567217 0.8835763 -0.1196627
v -0.569324 0.8799272 -0.0950946
v -0.572825 0.8738629 -0.0707396
v -0.577706 0.8654098 -0.0467031
v -0.583944 0.8546042 -0.0230892
v -0.599084 0.828382 0.0230891
v -0.605322 0.8175765 0.0467031
v -0.610203 0.8091233 0.0707396
v -0.613704 0.803059 0.09509449
v -0.615811 0.79941 0.1196626
v -0.616514 0.7981918 0.1443375
v -0.615811 0.79941 0.1690124
v -0.613704 0.803059 0.1935806
v -0.610203 0.8091233 0.2179356
v -0.605322 0.8175765 0.241972
v -0.599084 0.828382 0.265586
v -0.183257 0.7981918 0.606086
v -0.2042744 0.79941 0.593139
v -0.1615363 0.79941 0.617814
v -0.1392063 0.803059 0.628273
v -0.2244977 0.803059 0.57903
v -0.1163636 0.8091233 0.637419
v -0.2438391 0.8091233 0.563821
v -0.09310719 0.8175765 0.645211
v -0.262215 0.8175765 0.547576
v -0.06953759 0.828382 0.651615
v -0.279546 0.828382 0.5303659
v -0.311968 0.8546042 0.4941661
v -0.3292989 0.8654098 0.4769562
v -0.3476749 0.8738629 0.4607115
v -0.3670164 0.8799272 0.4455019
v -0.3872395 0.8835763 0.4313932
v -0.4082569 0.8847944 0.4184467
v -0.4299777 0.8835763 0.4067183
v -0.4523078 0.8799272 0.3962588
v -0.4751503 0.8738629 0.3871135
v -0.4984068 0.8654098 0.3793218
v -0.521976 0.8546042 0.3729177
v 0.5 0 -0.2886751
v 0.5 0 0.2886751
v -0.5 0 -0.2886751
v -0.5 0 0.2886751
v 9.817995E-14 0 0.57735
v -0.1339742 8.014827E-32 0.5
v -0.1339746 8.014827E-32 -0.5
v 9.817995E-14 0 -0.5773503
v 0.1339742 8.014827E-32 0.5
v 0.1339746 8.014827E-32 -0.5

vn 0.7745967 0.4472136 0.4472135
vn -0.7745967 -0.4472136 -0.4472135
vn -0.7745968 0.4472136 -0.4472134
vn 0.7745968 -0.4472136 0.4472134
vn -0.7745968 0.4472136 0.4472134
vn 0.7745968 -0.4472136 -0.4472134
vn 0 0.4472161 0.8944259
vn 0 -0.4472161 -0.8944259
vn 0.7745967 0.4472136 -0.4472135
vn -0.7745967 -0.4472136 0.4472135
vn 0 0.4472135 -0.8944273
vn 0 -0.4472135 0.8944273
vn 0.4330126 0.5000006 0.7499996
vn -0.4330126 -0.5000006 -0.7499996
vn 0.8660254 0.5 0
vn -0.8660254 -0.5 0
vn 0 1 0
vn 0.4330127 0.5000001 -0.75
vn -0.4330127 -0.5000001 0.75
vn -0.4330127 0.5000001 -0.75
vn 0.4330127 -0.5000001 0.75
vn -0.8660251 0.5000005 -2.789331E-07
vn 0.8660251 -0.5000005 2.789331E-07
vn -0.4330127 0.5000004 0.7499998
vn 0.4330127 -0.5000004 -0.7499998
vn 1 0 0
vn -1 0 0
vn -0.4999998 0 0.8660256
vn -0.5000001 0 -0.8660254
vn 0 -1 0
vn 0.5000001 0 -0.8660254
vn 0.4999998 0 0.8660256

vt -3.027748E-06 25.04836
vt 1.801453 18.07134
vt -1.801462 18.07134
vt 1.801451 18.07134
vt -1.801464 18.07134
vt -5.178773E-06 25.04836
vt -1.801451 18.07134
vt 5.178791E-06 25.04836
vt 1.801464 18.07134
vt 1.801457 18.07124
vt -1.801457 18.07124
vt 3.865352E-12 25.04826
vt 3.027731E-06 25.04836
vt 1.801462 18.07134
vt -1.801453 18.07134
vt 1.801457 18.07135
vt -1.801457 18.07135
vt -3.86613E-12 25.04836
vt 5.682581 15.07861
vt 4.711126 15.13399
vt 6.654031 15.13399
vt 7.62128 15.29988
vt 3.743881 15.29988
vt 8.580137 15.57556
vt 2.78502 15.57556
vt 9.526455 15.95985
vt 1.8387 15.95985
vt 10.45614 16.45107
vt 0.9090235 16.45108
vt 11.36516 17.04712
vt -0.9090195 17.64316
vt 11.36516 24.25294
vt -1.838699 18.13439
vt -2.785024 18.51867
vt -3.743873 18.79436
vt -4.711134 18.96024
vt -5.682578 19.01563
vt -11.36516 24.25295
vt -6.654039 18.96024
vt -7.621279 18.79436
vt -8.580143 18.51867
vt -9.526464 18.13438
vt -10.45615 17.64315
vt -11.36517 17.04711
vt 11.36516 24.25297
vt 11.36516 17.04714
vt -11.36516 24.25297
vt 10.45614 16.4511
vt 9.52646 15.95988
vt 8.580141 15.57559
vt 7.621283 15.2999
vt 6.654035 15.13402
vt 5.682582 15.07864
vt 4.711129 15.13402
vt 3.743881 15.2999
vt 2.785023 15.57559
vt 1.838704 15.95988
vt -0.9090202 17.64318
vt 0.909023 16.4511
vt -5.481322E-07 17.04714
vt -1.838705 18.13441
vt -2.785024 18.5187
vt -3.743878 18.79438
vt -4.711126 18.96027
vt -5.682579 19.01565
vt -6.654032 18.96027
vt -7.621284 18.79438
vt -8.580142 18.5187
vt -9.526457 18.13441
vt -10.45614 17.64318
vt -11.36516 17.04714
vt -19.68504 -11.36516
vt -19.68504 11.36516
vt -3.865352E-12 -22.73033
vt -3.865352E-12 22.73031
vt 19.68504 -11.36516
vt 19.68504 11.36516
vt 5.682582 15.07863
vt 4.711131 15.13401
vt 6.654034 15.13401
vt 7.621282 15.2999
vt 3.743882 15.2999
vt 8.580143 15.57559
vt 2.785022 15.57559
vt 9.526459 15.95987
vt 1.838704 15.95987
vt 10.45614 16.4511
vt 0.9090242 16.4511
vt 11.36516 17.04714
vt -0.9090236 17.64318
vt 11.36516 24.25297
vt -1.838703 18.13441
vt -2.785022 18.51869
vt -3.743879 18.79438
vt -4.71113 18.96027
vt -5.682581 19.01564
vt -11.36516 24.25297
vt -6.654034 18.96027
vt -7.621283 18.79438
vt -8.58014 18.51869
vt -9.526459 18.13441
vt -10.45614 17.64318
vt -11.36516 17.04714
vt 5.68258 15.07863
vt 4.711128 15.13401
vt 6.654031 15.13401
vt 7.621283 15.2999
vt 3.74388 15.2999
vt 8.580139 15.57559
vt 2.78502 15.57559
vt 9.526454 15.95988
vt 1.838703 15.95987
vt 10.45614 16.4511
vt 0.9090191 16.4511
vt 11.36516 17.04714
vt -0.9090254 17.64318
vt 11.36516 24.25297
vt -1.838706 18.13441
vt -2.785023 18.51869
vt -3.74388 18.79438
vt -4.711131 18.96027
vt -5.682583 19.01564
vt -11.36516 24.25297
vt -6.654037 18.96027
vt -7.621282 18.79438
vt -8.580141 18.51869
vt -9.526462 18.13441
vt -10.45614 17.64318
vt -11.36516 17.04714
vt -11.36515 17.04712
vt -11.36516 24.25295
vt -10.45613 17.64317
vt -9.526453 18.13438
vt -8.580134 18.51868
vt -7.621276 18.79436
vt 11.36517 24.25295
vt -6.654028 18.96025
vt -5.682576 19.01563
vt -4.711123 18.96025
vt -3.743875 18.79436
vt -2.785016 18.51868
vt -1.838697 18.13438
vt -0.9090162 17.64317
vt 0.9090273 16.45108
vt 1.838712 15.95986
vt 2.785031 15.57556
vt 3.743886 15.29988
vt 4.711134 15.13399
vt 5.682587 15.07862
vt 6.654039 15.13399
vt 7.621291 15.29988
vt 8.58015 15.57557
vt 9.526464 15.95986
vt 10.45615 16.45108
vt 11.36517 17.04712
vt 5.682593 15.07862
vt 4.711133 15.134
vt 6.654037 15.134
vt 7.621275 15.2999
vt 3.743873 15.2999
vt 8.580148 15.57557
vt 2.785029 15.57557
vt 9.526472 15.95986
vt 1.83871 15.95986
vt 10.45615 16.45108
vt 0.9090216 16.45109
vt 11.36517 17.04712
vt -0.9090189 17.64317
vt 11.36516 24.25296
vt -1.838702 18.1344
vt -2.785018 18.51868
vt -3.743878 18.79436
vt -4.711124 18.96026
vt -5.682575 19.01563
vt -11.36516 24.25295
vt -6.654031 18.96026
vt -7.621282 18.79437
vt -8.580133 18.51868
vt -9.526456 18.1344
vt -10.45612 17.64317
vt -11.36516 17.04713
vt 11.36516 39.37008
vt 11.36516 0
vt -11.36516 39.37008
vt -11.36516 0
vt 11.36515 8.472734E-15
vt 5.274596 8.472734E-15
vt 11.36515 39.37008
vt -11.36517 39.37008
vt -11.36517 8.472734E-15
vt 11.36516 -4.651698E-15
vt -5.274592 -4.651698E-15
vt 11.36516 39.37008
vt -11.36516 39.37008
vt -11.36516 -4.651698E-15
vt 5.274576 19.68504
vt 5.27459 -19.68504
vt 3.865352E-12 -22.73033
vt 3.865352E-12 22.73031
vt -5.274576 19.68504
vt -5.27459 -19.68504
vt 11.36516 9.137264E-16
vt 5.274592 9.137264E-16
vt 11.36516 39.37008
vt -11.36516 39.37008
vt -11.36516 9.137264E-16
vt 11.36517 7.974338E-15
vt -5.274596 7.974338E-15
vt 11.36517 39.37008
vt -11.36515 39.37008
vt -11.36515 7.974338E-15

usemtl snow

f 3/3/1 2/2/1 1/1/1
f 1/1/2 2/2/2 3/3/2
f 6/6/3 5/5/3 4/4/3
f 4/4/4 5/5/4 6/6/4
f 9/9/5 8/8/5 7/7/5
f 7/7/6 8/8/6 9/9/6
f 12/12/7 11/11/7 10/10/7
f 10/10/8 11/11/8 12/12/8
f 15/15/9 14/14/9 13/13/9
f 13/13/10 14/14/10 15/15/10
f 18/18/11 17/17/11 16/16/11
f 16/16/12 17/17/12 18/18/12
f 21/21/13 20/20/13 19/19/13
f 20/20/13 21/21/13 22/22/13
f 20/20/13 22/22/13 23/23/13
f 23/23/13 22/22/13 24/24/13
f 23/23/13 24/24/13 25/25/13
f 25/25/13 24/24/13 26/26/13
f 25/25/13 26/26/13 27/27/13
f 27/27/13 26/26/13 28/28/13
f 27/27/13 28/28/13 29/29/13
f 29/29/13 28/28/13 3/30/13
f 29/29/13 3/30/13 30/31/13
f 30/31/13 3/30/13 1/32/13
f 30/31/13 1/32/13 31/33/13
f 31/33/13 1/32/13 32/34/13
f 32/34/13 1/32/13 33/35/13
f 33/35/13 1/32/13 34/36/13
f 34/36/13 1/32/13 35/37/13
f 12/38/13 35/37/13 1/32/13
f 12/38/13 36/39/13 35/37/13
f 12/38/13 37/40/13 36/39/13
f 12/38/13 38/41/13 37/40/13
f 12/38/13 39/42/13 38/41/13
f 12/38/13 40/43/13 39/42/13
f 40/43/13 12/38/13 10/44/13
f 19/19/14 20/20/14 21/21/14
f 22/22/14 21/21/14 20/20/14
f 23/23/14 22/22/14 20/20/14
f 24/24/14 22/22/14 23/23/14
f 25/25/14 24/24/14 23/23/14
f 26/26/14 24/24/14 25/25/14
f 27/27/14 26/26/14 25/25/14
f 28/28/14 26/26/14 27/27/14
f 29/29/14 28/28/14 27/27/14
f 3/30/14 28/28/14 29/29/14
f 30/31/14 3/30/14 29/29/14
f 1/32/14 3/30/14 30/31/14
f 31/33/14 1/32/14 30/31/14
f 32/34/14 1/32/14 31/33/14
f 33/35/14 1/32/14 32/34/14
f 34/36/14 1/32/14 33/35/14
f 35/37/14 1/32/14 34/36/14
f 1/32/14 35/37/14 12/38/14
f 35/37/14 36/39/14 12/38/14
f 36/39/14 37/40/14 12/38/14
f 37/40/14 38/41/14 12/38/14
f 38/41/14 39/42/14 12/38/14
f 39/42/14 40/43/14 12/38/14
f 10/44/14 12/38/14 40/43/14
f 1/47/15 15/46/15 13/45/15
f 15/46/15 1/47/15 41/48/15
f 41/48/15 1/47/15 42/49/15
f 42/49/15 1/47/15 43/50/15
f 43/50/15 1/47/15 44/51/15
f 44/51/15 1/47/15 45/52/15
f 45/52/15 1/47/15 46/53/15
f 46/53/15 1/47/15 47/54/15
f 47/54/15 1/47/15 48/55/15
f 48/55/15 1/47/15 49/56/15
f 49/56/15 1/47/15 50/57/15
f 50/57/15 1/47/15 51/58/15
f 50/57/15 51/58/15 52/59/15
f 52/59/15 51/58/15 53/60/15
f 51/58/15 1/47/15 54/61/15
f 54/61/15 1/47/15 55/62/15
f 55/62/15 1/47/15 56/63/15
f 56/63/15 1/47/15 57/64/15
f 57/64/15 1/47/15 58/65/15
f 58/65/15 1/47/15 59/66/15
f 59/66/15 1/47/15 60/67/15
f 60/67/15 1/47/15 61/68/15
f 61/68/15 1/47/15 62/69/15
f 62/69/15 1/47/15 63/70/15
f 63/70/15 1/47/15 2/71/15
f 13/45/16 15/46/16 1/47/16
f 41/48/16 1/47/16 15/46/16
f 42/49/16 1/47/16 41/48/16
f 43/50/16 1/47/16 42/49/16
f 44/51/16 1/47/16 43/50/16
f 45/52/16 1/47/16 44/51/16
f 46/53/16 1/47/16 45/52/16
f 47/54/16 1/47/16 46/53/16
f 48/55/16 1/47/16 47/54/16
f 49/56/16 1/47/16 48/55/16
f 50/57/16 1/47/16 49/56/16
f 51/58/16 1/47/16 50/57/16
f 52/59/16 51/58/16 50/57/16
f 53/60/16 51/58/16 52/59/16
f 54/61/16 1/47/16 51/58/16
f 55/62/16 1/47/16 54/61/16
f 56/63/16 1/47/16 55/62/16
f 57/64/16 1/47/16 56/63/16
f 58/65/16 1/47/16 57/64/16
f 59/66/16 1/47/16 58/65/16
f 60/67/16 1/47/16 59/66/16
f 61/68/16 1/47/16 60/67/16
f 62/69/16 1/47/16 61/68/16
f 63/70/16 1/47/16 62/69/16
f 2/71/16 1/47/16 63/70/16
f 18/74/17 1/73/17 13/72/17
f 1/73/17 18/74/17 12/75/17
f 12/75/17 18/74/17 6/76/17
f 12/75/17 6/76/17 8/77/17
f 66/80/18 65/79/18 64/78/18
f 65/79/18 66/80/18 67/81/18
f 65/79/18 67/81/18 68/82/18
f 68/82/18 67/81/18 69/83/18
f 68/82/18 69/83/18 70/84/18
f 70/84/18 69/83/18 71/85/18
f 70/84/18 71/85/18 72/86/18
f 72/86/18 71/85/18 73/87/18
f 72/86/18 73/87/18 74/88/18
f 74/88/18 73/87/18 17/89/18
f 74/88/18 17/89/18 75/90/18
f 75/90/18 17/89/18 18/91/18
f 75/90/18 18/91/18 76/92/18
f 76/92/18 18/91/18 77/93/18
f 77/93/18 18/91/18 78/94/18
f 78/94/18 18/91/18 79/95/18
f 79/95/18 18/91/18 80/96/18
f 13/97/18 80/96/18 18/91/18
f 13/97/18 81/98/18 80/96/18
f 13/97/18 82/99/18 81/98/18
f 13/97/18 83/100/18 82/99/18
f 13/97/18 84/101/18 83/100/18
f 13/97/18 85/102/18 84/101/18
f 85/102/18 13/97/18 14/103/18
f 64/78/19 65/79/19 66/80/19
f 67/81/19 66/80/19 65/79/19
f 68/82/19 67/81/19 65/79/19
f 69/83/19 67/81/19 68/82/19
f 70/84/19 69/83/19 68/82/19
f 71/85/19 69/83/19 70/84/19
f 72/86/19 71/85/19 70/84/19
f 73/87/19 71/85/19 72/86/19
f 74/88/19 73/87/19 72/86/19
f 17/89/19 73/87/19 74/88/19
f 75/90/19 17/89/19 74/88/19
f 18/91/19 17/89/19 75/90/19
f 76/92/19 18/91/19 75/90/19
f 77/93/19 18/91/19 76/92/19
f 78/94/19 18/91/19 77/93/19
f 79/95/19 18/91/19 78/94/19
f 80/96/19 18/91/19 79/95/19
f 18/91/19 80/96/19 13/97/19
f 80/96/19 81/98/19 13/97/19
f 81/98/19 82/99/19 13/97/19
f 82/99/19 83/100/19 13/97/19
f 83/100/19 84/101/19 13/97/19
f 84/101/19 85/102/19 13/97/19
f 14/103/19 13/97/19 85/102/19
f 88/106/20 87/105/20 86/104/20
f 87/105/20 88/106/20 89/107/20
f 87/105/20 89/107/20 90/108/20
f 90/108/20 89/107/20 91/109/20
f 90/108/20 91/109/20 92/110/20
f 92/110/20 91/109/20 93/111/20
f 92/110/20 93/111/20 94/112/20
f 94/112/20 93/111/20 95/113/20
f 94/112/20 95/113/20 96/114/20
f 96/114/20 95/113/20 5/115/20
f 96/114/20 5/115/20 97/116/20
f 97/116/20 5/115/20 6/117/20
f 97/116/20 6/117/20 98/118/20
f 98/118/20 6/117/20 99/119/20
f 99/119/20 6/117/20 100/120/20
f 100/120/20 6/117/20 101/121/20
f 101/121/20 6/117/20 102/122/20
f 18/123/20 102/122/20 6/117/20
f 18/123/20 103/124/20 102/122/20
f 18/123/20 104/125/20 103/124/20
f 18/123/20 105/126/20 104/125/20
f 18/123/20 106/127/20 105/126/20
f 18/123/20 107/128/20 106/127/20
f 107/128/20 18/123/20 16/129/20
f 86/104/21 87/105/21 88/106/21
f 89/107/21 88/106/21 87/105/21
f 90/108/21 89/107/21 87/105/21
f 91/109/21 89/107/21 90/108/21
f 92/110/21 91/109/21 90/108/21
f 93/111/21 91/109/21 92/110/21
f 94/112/21 93/111/21 92/110/21
f 95/113/21 93/111/21 94/112/21
f 96/114/21 95/113/21 94/112/21
f 5/115/21 95/113/21 96/114/21
f 97/116/21 5/115/21 96/114/21
f 6/117/21 5/115/21 97/116/21
f 98/118/21 6/117/21 97/116/21
f 99/119/21 6/117/21 98/118/21
f 100/120/21 6/117/21 99/119/21
f 101/121/21 6/117/21 100/120/21
f 102/122/21 6/117/21 101/121/21
f 6/117/21 102/122/21 18/123/21
f 102/122/21 103/124/21 18/123/21
f 103/124/21 104/125/21 18/123/21
f 104/125/21 105/126/21 18/123/21
f 105/126/21 106/127/21 18/123/21
f 106/127/21 107/128/21 18/123/21
f 16/129/21 18/123/21 107/128/21
f 108/132/22 6/131/22 4/130/22
f 6/131/22 108/132/22 109/133/22
f 6/131/22 109/133/22 110/134/22
f 6/131/22 110/134/22 111/135/22
f 6/131/22 111/135/22 8/136/22
f 8/136/22 111/135/22 112/137/22
f 8/136/22 112/137/22 113/138/22
f 8/136/22 113/138/22 114/139/22
f 8/136/22 114/139/22 115/140/22
f 8/136/22 115/140/22 116/141/22
f 8/136/22 116/141/22 117/142/22
f 8/136/22 117/142/22 118/143/22
f 8/136/22 118/143/22 119/144/22
f 8/136/22 119/144/22 120/145/22
f 8/136/22 120/145/22 121/146/22
f 8/136/22 121/146/22 122/147/22
f 8/136/22 122/147/22 123/148/22
f 8/136/22 123/148/22 124/149/22
f 8/136/22 124/149/22 125/150/22
f 8/136/22 125/150/22 126/151/22
f 8/136/22 126/151/22 127/152/22
f 8/136/22 127/152/22 128/153/22
f 8/136/22 128/153/22 129/154/22
f 8/136/22 129/154/22 7/155/22
f 4/130/23 6/131/23 108/132/23
f 109/133/23 108/132/23 6/131/23
f 110/134/23 109/133/23 6/131/23
f 111/135/23 110/134/23 6/131/23
f 8/136/23 111/135/23 6/131/23
f 112/137/23 111/135/23 8/136/23
f 113/138/23 112/137/23 8/136/23
f 114/139/23 113/138/23 8/136/23
f 115/140/23 114/139/23 8/136/23
f 116/141/23 115/140/23 8/136/23
f 117/142/23 116/141/23 8/136/23
f 118/143/23 117/142/23 8/136/23
f 119/144/23 118/143/23 8/136/23
f 120/145/23 119/144/23 8/136/23
f 121/146/23 120/145/23 8/136/23
f 122/147/23 121/146/23 8/136/23
f 123/148/23 122/147/23 8/136/23
f 124/149/23 123/148/23 8/136/23
f 125/150/23 124/149/23 8/136/23
f 126/151/23 125/150/23 8/136/23
f 127/152/23 126/151/23 8/136/23
f 128/153/23 127/152/23 8/136/23
f 129/154/23 128/153/23 8/136/23
f 7/155/23 129/154/23 8/136/23
f 132/158/24 131/157/24 130/156/24
f 131/157/24 132/158/24 133/159/24
f 131/157/24 133/159/24 134/160/24
f 134/160/24 133/159/24 135/161/24
f 134/160/24 135/161/24 136/162/24
f 136/162/24 135/161/24 137/163/24
f 136/162/24 137/163/24 138/164/24
f 138/164/24 137/163/24 139/165/24
f 138/164/24 139/165/24 140/166/24
f 140/166/24 139/165/24 11/167/24
f 140/166/24 11/167/24 141/168/24
f 141/168/24 11/167/24 12/169/24
f 141/168/24 12/169/24 142/170/24
f 142/170/24 12/169/24 143/171/24
f 143/171/24 12/169/24 144/172/24
f 144/172/24 12/169/24 145/173/24
f 145/173/24 12/169/24 146/174/24
f 8/175/24 146/174/24 12/169/24
f 8/175/24 147/176/24 146/174/24
f 8/175/24 148/177/24 147/176/24
f 8/175/24 149/178/24 148/177/24
f 8/175/24 150/179/24 149/178/24
f 8/175/24 151/180/24 150/179/24
f 151/180/24 8/175/24 9/181/24
f 130/156/25 131/157/25 132/158/25
f 133/159/25 132/158/25 131/157/25
f 134/160/25 133/159/25 131/157/25
f 135/161/25 133/159/25 134/160/25
f 136/162/25 135/161/25 134/160/25
f 137/163/25 135/161/25 136/162/25
f 138/164/25 137/163/25 136/162/25
f 139/165/25 137/163/25 138/164/25
f 140/166/25 139/165/25 138/164/25
f 11/167/25 139/165/25 140/166/25
f 141/168/25 11/167/25 140/166/25
f 12/169/25 11/167/25 141/168/25
f 142/170/25 12/169/25 141/168/25
f 143/171/25 12/169/25 142/170/25
f 144/172/25 12/169/25 143/171/25
f 145/173/25 12/169/25 144/172/25
f 146/174/25 12/169/25 145/173/25
f 12/169/25 146/174/25 8/175/25
f 146/174/25 147/176/25 8/175/25
f 147/176/25 148/177/25 8/175/25
f 148/177/25 149/178/25 8/175/25
f 149/178/25 150/179/25 8/175/25
f 150/179/25 151/180/25 8/175/25
f 9/181/25 8/175/25 151/180/25

usemtl dirt

f 1/184/26 152/183/26 13/182/26
f 152/183/26 1/184/26 153/185/26
f 155/183/27 6/184/27 154/185/27
f 6/184/27 155/183/27 8/182/27
f 12/188/28 157/187/28 156/186/28
f 8/189/28 157/187/28 12/188/28
f 157/187/28 8/189/28 155/190/28
f 6/193/29 158/192/29 154/191/29
f 18/194/29 158/192/29 6/193/29
f 158/192/29 18/194/29 159/195/29
f 160/196/30 152/76/30 153/77/30
f 152/76/30 160/196/30 161/197/30
f 161/197/30 160/196/30 159/198/30
f 159/198/30 160/196/30 156/199/30
f 159/198/30 156/199/30 157/200/30
f 159/198/30 157/200/30 158/201/30
f 158/201/30 157/200/30 155/73/30
f 158/201/30 155/73/30 154/72/30
f 18/204/31 161/203/31 159/202/31
f 13/205/31 161/203/31 18/204/31
f 161/203/31 13/205/31 152/206/31
f 1/209/32 160/208/32 153/207/32
f 12/210/32 160/208/32 1/209/32
f 160/208/32 12/210/32 156/211/32

