# Created by Kenney (www.kenney.nl)

mtllib blockCliffCorner.mtl

g blockCliffCorner

v 0.5 0.25 -2.570005E-13
v 0.5 0 -0.5
v -4.750177E-13 0.25 -0.5
v 0.5 1 -0.5
v 0.5 1 0.5
v -0.5 1 -0.5
v 0.591514 0.8414931 0.5
v 0.4352898 0.8414931 0.56471
v -0.5 0.8414931 -0.591514
v -0.56471 0.8414931 -0.4352898
v 0.5 0.8414931 -0.591514
v 0.591514 0.8414931 -0.5
v 0.633028 0.7695886 -0.4166667
v 0.591514 0.8414931 -0.3333333
v 0.591514 0.8414931 -0.1666667
v 0.633028 0.7695886 -0.25
v 0.591514 0.8414931 -2.570005E-13
v 0.633028 0.7695886 -0.0833333
v 0.591514 0.8414931 0.1666667
v 0.633028 0.7695886 0.0833333
v 0.633028 0.7695886 0.25
v 0.591514 0.8414931 0.3333333
v 0.633028 0.7695886 0.4166666
v -0.4166666 0.7695886 -0.633028
v -0.3333333 0.8414931 -0.591514
v -0.1666667 0.8414931 -0.591514
v -0.25 0.7695886 -0.633028
v -4.750177E-13 0.8414931 -0.591514
v -0.0833333 0.7695886 -0.633028
v 0.1666667 0.8414931 -0.591514
v 0.0833333 0.7695886 -0.633028
v 0.3333333 0.8414931 -0.591514
v 0.25 0.7695886 -0.633028
v 0.4166667 0.7695886 -0.633028
v 0.343435 0.7695886 0.531565
v 0.3102898 0.8414931 0.4397101
v 0.1852898 0.8414931 0.3147101
v 0.218435 0.7695886 0.406565
v 0.0602898 0.8414931 0.1897101
v 0.093435 0.7695886 0.281565
v -0.0647101 0.8414931 0.0647101
v -0.031565 0.7695886 0.156565
v -0.1897101 0.8414931 -0.0602898
v -0.156565 0.7695886 0.031565
v -0.3147101 0.8414931 -0.1852898
v -0.281565 0.7695886 -0.093435
v -0.4397101 0.8414931 -0.3102898
v -0.406565 0.7695886 -0.218435
v -0.531565 0.7695886 -0.343435

vn -0.4082483 -0.8164966 0.4082483
vn 1 0 0
vn -0.6396021 -0.4264015 0.6396021
vn 0 0 -1
vn 0.3736708 0.2157389 0.9021235
vn -0.3736708 -0.2157389 -0.9021235
vn -0.9021235 0.2157389 -0.3736708
vn 0.9021235 -0.2157389 0.3736708
vn 0 1 0
vn 0.6546537 0.3779645 -0.6546537
vn -0.6546537 -0.3779645 0.6546537
vn 0.8660254 0.4999999 0
vn -0.8660254 -0.4999999 0
vn 0 0.4999999 -0.8660254
vn 0 -0.4999999 0.8660254
vn -0.6123725 0.5 0.6123725
vn 0.6123725 -0.5 -0.6123725

vt 13.91943 -5.682581
vt -6.147971E-12 -22.73033
vt -13.91943 -5.682581
vt 19.68504 39.37008
vt 19.68504 -3.296918E-12
vt -19.68504 39.37008
vt 3.410605E-13 9.84252
vt 13.91943 2.967631
vt -13.91943 2.967631
vt 27.83885 35.61158
vt -27.83885 35.61158
vt -19.68504 4.282204E-13
vt 2.046932E-11 9.84252
vt 13.98215 26.50328
vt 7.324837 26.50328
vt 10.65349 32.89421
vt -13.98215 26.50328
vt -10.65349 32.89421
vt -7.324835 26.50328
vt -19.68504 -19.68504
vt -19.68504 19.68504
vt 19.68504 -19.68504
vt 2.547644 19.18708
vt -2.547645 19.18708
vt -4.148E-07 25.92751
vt 19.68504 17.04715
vt 16.4042 13.77833
vt 19.68504 24.25297
vt 13.12336 17.04715
vt -19.68504 24.25297
vt 6.561681 17.04715
vt 9.84252 13.77833
vt 7.65758E-12 17.04715
vt 3.280838 13.77833
vt -6.561681 17.04715
vt -3.280838 13.77833
vt -9.84252 13.77833
vt -13.12336 17.04715
vt -16.4042 13.77833
vt -19.68504 17.04715
vt 16.4042 13.77833
vt 13.12336 17.04715
vt 6.561681 17.04715
vt -2.64033E-07 17.04715
vt 3.280838 13.77833
vt -3.280839 13.77833
vt -16.4042 13.77833
vt 24.35899 23.62084
vt 20.87914 26.88966
vt 27.83884 26.88967
vt 27.83885 34.09549
vt 13.91942 26.88966
vt 17.39928 23.62084
vt 6.95971 26.88966
vt 10.43957 23.62084
vt -2.049694E-11 26.88966
vt 3.479856 23.62084
vt -6.95971 26.88966
vt -3.479856 23.62084
vt -13.91942 26.88966
vt -10.43957 23.62084
vt -20.87914 26.88966
vt -17.39928 23.62084
vt -27.83884 26.88967
vt -27.83885 34.09549
vt -24.35899 23.62084

usemtl dirt

f 3/3/1 2/2/1 1/1/1
f 5/6/2 2/5/2 4/4/2
f 2/5/2 5/6/2 1/7/2
f 5/10/3 3/9/3 1/8/3
f 3/9/3 5/10/3 6/11/3
f 3/13/4 4/6/4 2/12/4
f 4/6/4 3/13/4 6/4/4

usemtl grass

f 5/16/5 8/15/5 7/14/5
f 7/14/6 8/15/6 5/16/6
f 10/19/7 6/18/7 9/17/7
f 9/17/8 6/18/8 10/19/8
f 6/22/9 5/21/9 4/20/9
f 4/25/10 12/24/10 11/23/10
f 11/23/11 12/24/11 4/25/11
f 4/28/12 13/27/12 12/26/12
f 13/27/12 4/28/12 14/29/12
f 14/29/12 4/28/12 5/30/12
f 14/29/12 5/30/12 15/31/12
f 14/29/12 15/31/12 16/32/12
f 15/31/12 5/30/12 17/33/12
f 15/31/12 17/33/12 18/34/12
f 17/33/12 5/30/12 19/35/12
f 17/33/12 19/35/12 20/36/12
f 19/35/12 5/30/12 21/37/12
f 21/37/12 5/30/12 22/38/12
f 22/38/12 5/30/12 23/39/12
f 23/39/12 5/30/12 7/40/12
f 12/26/13 13/27/13 4/28/13
f 14/29/13 4/28/13 13/27/13
f 5/30/13 4/28/13 14/29/13
f 15/31/13 5/30/13 14/29/13
f 16/32/13 15/31/13 14/29/13
f 17/33/13 5/30/13 15/31/13
f 18/34/13 17/33/13 15/31/13
f 19/35/13 5/30/13 17/33/13
f 20/36/13 19/35/13 17/33/13
f 21/37/13 5/30/13 19/35/13
f 22/38/13 5/30/13 21/37/13
f 23/39/13 5/30/13 22/38/13
f 7/40/13 5/30/13 23/39/13
f 9/26/14 25/42/14 24/41/14
f 25/42/14 9/26/14 6/28/14
f 25/42/14 6/28/14 26/43/14
f 26/43/14 27/32/14 25/42/14
f 26/43/14 6/28/14 28/44/14
f 28/44/14 29/45/14 26/43/14
f 28/44/14 6/28/14 30/35/14
f 30/35/14 31/46/14 28/44/14
f 30/35/14 6/28/14 32/38/14
f 32/38/14 33/37/14 30/35/14
f 32/38/14 6/28/14 11/40/14
f 11/40/14 6/28/14 4/30/14
f 11/40/14 34/47/14 32/38/14
f 24/41/15 25/42/15 9/26/15
f 6/28/15 9/26/15 25/42/15
f 26/43/15 6/28/15 25/42/15
f 25/42/15 27/32/15 26/43/15
f 28/44/15 6/28/15 26/43/15
f 26/43/15 29/45/15 28/44/15
f 30/35/15 6/28/15 28/44/15
f 28/44/15 31/46/15 30/35/15
f 32/38/15 6/28/15 30/35/15
f 30/35/15 33/37/15 32/38/15
f 11/40/15 6/28/15 32/38/15
f 32/38/15 34/47/15 11/40/15
f 4/30/15 6/28/15 11/40/15
f 8/50/16 36/49/16 35/48/16
f 36/49/16 8/50/16 5/51/16
f 36/49/16 5/51/16 37/52/16
f 37/52/16 38/53/16 36/49/16
f 37/52/16 5/51/16 39/54/16
f 39/54/16 40/55/16 37/52/16
f 39/54/16 5/51/16 41/56/16
f 41/56/16 42/57/16 39/54/16
f 41/56/16 5/51/16 43/58/16
f 43/58/16 44/59/16 41/56/16
f 43/58/16 5/51/16 45/60/16
f 45/60/16 46/61/16 43/58/16
f 45/60/16 5/51/16 47/62/16
f 47/62/16 48/63/16 45/60/16
f 47/62/16 5/51/16 10/64/16
f 10/64/16 5/51/16 6/65/16
f 10/64/16 49/66/16 47/62/16
f 35/48/17 36/49/17 8/50/17
f 5/51/17 8/50/17 36/49/17
f 37/52/17 5/51/17 36/49/17
f 36/49/17 38/53/17 37/52/17
f 39/54/17 5/51/17 37/52/17
f 37/52/17 40/55/17 39/54/17
f 41/56/17 5/51/17 39/54/17
f 39/54/17 42/57/17 41/56/17
f 43/58/17 5/51/17 41/56/17
f 41/56/17 44/59/17 43/58/17
f 45/60/17 5/51/17 43/58/17
f 43/58/17 46/61/17 45/60/17
f 47/62/17 5/51/17 45/60/17
f 45/60/17 48/63/17 47/62/17
f 10/64/17 5/51/17 47/62/17
f 47/62/17 49/66/17 10/64/17
f 6/65/17 5/51/17 10/64/17

