# Created by Kenney (www.kenney.nl)

mtllib blockSnowCornerLarge.mtl

g blockSnowCornerLarge

v 0.5 1 -0.5
v 0.5 1 0.5
v -0.5 1 -0.5
v 0.5 0.8414931 -0.591514
v 0.591514 0.8414931 -0.5
v 0.591514 0.8414931 0.5
v 0.4352898 0.8414931 0.56471
v -0.5 0.8414931 -0.591514
v -0.56471 0.8414931 -0.4352898
v -0.25 0.7981918 -0.616514
v -0.2072618 0.79941 -0.6158107
v -0.2927382 0.79941 -0.6158107
v -0.3352913 0.803059 -0.6137039
v -0.1647086 0.803059 -0.6137039
v -0.3774755 0.8091233 -0.6102027
v -0.1225245 0.8091233 -0.6102027
v -0.4191079 0.8175765 -0.6053223
v -0.0808921 0.8175765 -0.6053223
v -0.4600083 0.828382 -0.5990837
v -0.0399916 0.828382 -0.5990837
v 0.0399916 0.8546042 -0.5839443
v 0.0808921 0.8654098 -0.5777057
v 0.1225245 0.8738629 -0.5728253
v 0.1647086 0.8799272 -0.5693241
v 0.2072618 0.8835763 -0.5672172
v 0.25 0.8847944 -0.566514
v 0.2927382 0.8835763 -0.5672172
v 0.3352914 0.8799272 -0.5693241
v 0.3774755 0.8738629 -0.5728253
v 0.4191079 0.8654098 -0.5777057
v 0.4600084 0.8546042 -0.5839443
v 0.5990837 0.828382 -0.4600084
v 0.6053223 0.8175765 -0.4191079
v 0.6102027 0.8091233 -0.3774755
v 0.6137039 0.803059 -0.3352914
v 0.6158107 0.79941 -0.2927382
v 0.616514 0.7981918 -0.25
v 0.6158107 0.79941 -0.2072618
v 0.6137039 0.803059 -0.1647086
v 0.6102027 0.8091233 -0.1225245
v 0.6053223 0.8175765 -0.0808921
v 0.5839443 0.8546042 0.0399916
v 0.591514 0.8414931 2.555566E-13
v 0.5990837 0.828382 -0.0399916
v 0.5777057 0.8654098 0.0808921
v 0.5728253 0.8738629 0.1225245
v 0.5693241 0.8799272 0.1647086
v 0.5672172 0.8835763 0.2072618
v 0.566514 0.8847944 0.25
v 0.5672172 0.8835763 0.2927382
v 0.5693241 0.8799272 0.3352913
v 0.5728253 0.8738629 0.3774755
v 0.5777057 0.8654098 0.4191079
v 0.5839443 0.8546042 0.4600083
v 0.1676122 0.7981918 0.3323879
v 0.1253713 0.79941 0.2891524
v 0.2108476 0.79941 0.3746287
v 0.2548906 0.803059 0.4156922
v 0.0843078 0.803059 0.2451094
v 0.2995504 0.8091233 0.4554006
v 0.0445994 0.8091233 0.2004496
v 0.3446338 0.8175765 0.493582
v 0.006418 0.8175765 0.1553662
v 0.3899456 0.828382 0.530071
v -0.0300711 0.828382 0.1100544
v -0.0993492 0.8546042 0.019366
v -0.1358384 0.8654098 -0.0259459
v -0.1740198 0.8738629 -0.0710293
v -0.2137281 0.8799272 -0.1156891
v -0.2547916 0.8835763 -0.159732
v -0.2970325 0.8847944 -0.2029675
v -0.340268 0.8835763 -0.2452084
v -0.384311 0.8799272 -0.2862719
v -0.4289707 0.8738629 -0.3259802
v -0.4740541 0.8654098 -0.3641616
v -0.519366 0.8546042 -0.4006508
v 0.5 -9.023893E-17 0.5
v 0.5 -9.023893E-17 -0.5
v -0.5 -9.023893E-17 -0.5

vn 0 1 0
vn 0.6546537 0.3779645 -0.6546537
vn -0.6546537 -0.3779645 0.6546537
vn 0.3736708 0.2157389 0.9021235
vn -0.3736708 -0.2157389 -0.9021235
vn -0.9021235 0.2157389 -0.3736708
vn 0.9021235 -0.2157389 0.3736708
vn 0 0.5 -0.8660254
vn 0 -0.5 0.8660254
vn 0.8660254 0.5 0
vn -0.8660254 -0.5 0
vn -0.6123724 0.5 0.6123725
vn 0.6123724 -0.5 -0.6123725
vn 0 -1 0
vn 1 0 0
vn 0 0 -1
vn -0.7071068 0 0.7071068

vt -19.68504 -19.68504
vt -19.68504 19.68504
vt 19.68504 -19.68504
vt 2.547645 19.18708
vt -2.547645 19.18708
vt -3.176019E-10 25.92751
vt 13.98215 26.50328
vt 7.324837 26.50328
vt 10.65349 32.89421
vt -13.98215 26.50328
vt -10.65349 32.89421
vt -7.324837 26.50328
vt 9.84252 15.07864
vt 8.159913 15.13402
vt 11.52513 15.13402
vt 13.20044 15.2999
vt 6.48459 15.2999
vt 14.86124 15.57559
vt 4.823799 15.57559
vt 16.50031 15.95988
vt 3.184728 15.95988
vt 18.11056 16.4511
vt 1.574472 16.4511
vt 19.68504 17.04714
vt -1.574473 17.64318
vt 19.68504 24.25297
vt -3.184729 18.13441
vt -4.8238 18.5187
vt -6.484591 18.79438
vt -8.159914 18.96027
vt -9.84252 19.01565
vt -19.68504 24.25297
vt -11.52513 18.96027
vt -13.20045 18.79438
vt -14.86124 18.5187
vt -16.50031 18.13441
vt -18.11057 17.64318
vt -19.68504 17.04714
vt 18.11057 16.4511
vt 16.50031 15.95988
vt 13.20045 15.2999
vt -1.574473 17.64318
vt -3.164719E-07 17.04714
vt -13.20045 18.79438
vt -18.11056 17.64318
vt 13.91943 24.92116
vt 11.53986 24.97654
vt 16.29899 24.97654
vt 18.66825 25.14242
vt 9.170596 25.14242
vt 21.01697 25.41811
vt 6.821882 25.41811
vt 23.33496 25.8024
vt 4.503886 25.8024
vt 25.6122 26.29362
vt 2.226643 26.29362
vt 27.83884 26.88966
vt -2.22664 27.4857
vt 27.83885 34.09549
vt -4.503889 27.97693
vt -6.821885 28.36121
vt -9.170596 28.6369
vt -11.53986 28.80279
vt -13.91943 28.85817
vt -27.83885 34.09549
vt -16.29899 28.80279
vt -18.66826 28.6369
vt -21.01696 28.36121
vt -23.33496 27.97693
vt -25.61221 27.4857
vt -27.83884 26.88966
vt 19.68504 19.68504
vt 19.68504 39.37008
vt 19.68504 -4.60787E-12
vt -19.68504 39.37008
vt -19.68504 -4.60787E-12
vt 19.68504 4.970246E-12
vt -19.68504 4.970246E-12
vt 27.83885 -3.552714E-15
vt -27.83885 -3.552714E-15
vt 27.83885 39.37008
vt -27.83885 39.37008

usemtl snow

f 3/3/1 2/2/1 1/1/1
f 1/6/2 5/5/2 4/4/2
f 4/4/3 5/5/3 1/6/3
f 2/9/4 7/8/4 6/7/4
f 6/7/5 7/8/5 2/9/5
f 9/12/6 3/11/6 8/10/6
f 8/10/7 3/11/7 9/12/7
f 12/15/8 11/14/8 10/13/8
f 11/14/8 12/15/8 13/16/8
f 11/14/8 13/16/8 14/17/8
f 14/17/8 13/16/8 15/18/8
f 14/17/8 15/18/8 16/19/8
f 16/19/8 15/18/8 17/20/8
f 16/19/8 17/20/8 18/21/8
f 18/21/8 17/20/8 19/22/8
f 18/21/8 19/22/8 20/23/8
f 20/23/8 19/22/8 8/24/8
f 20/23/8 8/24/8 21/25/8
f 21/25/8 8/24/8 3/26/8
f 21/25/8 3/26/8 22/27/8
f 22/27/8 3/26/8 23/28/8
f 23/28/8 3/26/8 24/29/8
f 24/29/8 3/26/8 25/30/8
f 25/30/8 3/26/8 26/31/8
f 1/32/8 26/31/8 3/26/8
f 1/32/8 27/33/8 26/31/8
f 1/32/8 28/34/8 27/33/8
f 1/32/8 29/35/8 28/34/8
f 1/32/8 30/36/8 29/35/8
f 1/32/8 31/37/8 30/36/8
f 31/37/8 1/32/8 4/38/8
f 10/13/9 11/14/9 12/15/9
f 13/16/9 12/15/9 11/14/9
f 14/17/9 13/16/9 11/14/9
f 15/18/9 13/16/9 14/17/9
f 16/19/9 15/18/9 14/17/9
f 17/20/9 15/18/9 16/19/9
f 18/21/9 17/20/9 16/19/9
f 19/22/9 17/20/9 18/21/9
f 20/23/9 19/22/9 18/21/9
f 8/24/9 19/22/9 20/23/9
f 21/25/9 8/24/9 20/23/9
f 3/26/9 8/24/9 21/25/9
f 22/27/9 3/26/9 21/25/9
f 23/28/9 3/26/9 22/27/9
f 24/29/9 3/26/9 23/28/9
f 25/30/9 3/26/9 24/29/9
f 26/31/9 3/26/9 25/30/9
f 3/26/9 26/31/9 1/32/9
f 26/31/9 27/33/9 1/32/9
f 27/33/9 28/34/9 1/32/9
f 28/34/9 29/35/9 1/32/9
f 29/35/9 30/36/9 1/32/9
f 30/36/9 31/37/9 1/32/9
f 4/38/9 1/32/9 31/37/9
f 1/26/10 32/39/10 5/24/10
f 32/39/10 1/26/10 2/32/10
f 32/39/10 2/32/10 33/40/10
f 33/40/10 2/32/10 34/18/10
f 34/18/10 2/32/10 35/41/10
f 35/41/10 2/32/10 36/15/10
f 36/15/10 2/32/10 37/13/10
f 37/13/10 2/32/10 38/14/10
f 38/14/10 2/32/10 39/17/10
f 39/17/10 2/32/10 40/19/10
f 40/19/10 2/32/10 41/21/10
f 41/21/10 2/32/10 42/42/10
f 41/21/10 42/42/10 43/43/10
f 41/21/10 43/43/10 44/23/10
f 42/42/10 2/32/10 45/27/10
f 45/27/10 2/32/10 46/28/10
f 46/28/10 2/32/10 47/29/10
f 47/29/10 2/32/10 48/30/10
f 48/30/10 2/32/10 49/31/10
f 49/31/10 2/32/10 50/33/10
f 50/33/10 2/32/10 51/44/10
f 51/44/10 2/32/10 52/35/10
f 52/35/10 2/32/10 53/36/10
f 53/36/10 2/32/10 54/45/10
f 54/45/10 2/32/10 6/38/10
f 5/24/11 32/39/11 1/26/11
f 2/32/11 1/26/11 32/39/11
f 33/40/11 2/32/11 32/39/11
f 34/18/11 2/32/11 33/40/11
f 35/41/11 2/32/11 34/18/11
f 36/15/11 2/32/11 35/41/11
f 37/13/11 2/32/11 36/15/11
f 38/14/11 2/32/11 37/13/11
f 39/17/11 2/32/11 38/14/11
f 40/19/11 2/32/11 39/17/11
f 41/21/11 2/32/11 40/19/11
f 42/42/11 2/32/11 41/21/11
f 43/43/11 42/42/11 41/21/11
f 44/23/11 43/43/11 41/21/11
f 45/27/11 2/32/11 42/42/11
f 46/28/11 2/32/11 45/27/11
f 47/29/11 2/32/11 46/28/11
f 48/30/11 2/32/11 47/29/11
f 49/31/11 2/32/11 48/30/11
f 50/33/11 2/32/11 49/31/11
f 51/44/11 2/32/11 50/33/11
f 52/35/11 2/32/11 51/44/11
f 53/36/11 2/32/11 52/35/11
f 54/45/11 2/32/11 53/36/11
f 6/38/11 2/32/11 54/45/11
f 57/48/12 56/47/12 55/46/12
f 56/47/12 57/48/12 58/49/12
f 56/47/12 58/49/12 59/50/12
f 59/50/12 58/49/12 60/51/12
f 59/50/12 60/51/12 61/52/12
f 61/52/12 60/51/12 62/53/12
f 61/52/12 62/53/12 63/54/12
f 63/54/12 62/53/12 64/55/12
f 63/54/12 64/55/12 65/56/12
f 65/56/12 64/55/12 7/57/12
f 65/56/12 7/57/12 66/58/12
f 66/58/12 7/57/12 2/59/12
f 66/58/12 2/59/12 67/60/12
f 67/60/12 2/59/12 68/61/12
f 68/61/12 2/59/12 69/62/12
f 69/62/12 2/59/12 70/63/12
f 70/63/12 2/59/12 71/64/12
f 3/65/12 71/64/12 2/59/12
f 3/65/12 72/66/12 71/64/12
f 3/65/12 73/67/12 72/66/12
f 3/65/12 74/68/12 73/67/12
f 3/65/12 75/69/12 74/68/12
f 3/65/12 76/70/12 75/69/12
f 76/70/12 3/65/12 9/71/12
f 55/46/13 56/47/13 57/48/13
f 58/49/13 57/48/13 56/47/13
f 59/50/13 58/49/13 56/47/13
f 60/51/13 58/49/13 59/50/13
f 61/52/13 60/51/13 59/50/13
f 62/53/13 60/51/13 61/52/13
f 63/54/13 62/53/13 61/52/13
f 64/55/13 62/53/13 63/54/13
f 65/56/13 64/55/13 63/54/13
f 7/57/13 64/55/13 65/56/13
f 66/58/13 7/57/13 65/56/13
f 2/59/13 7/57/13 66/58/13
f 67/60/13 2/59/13 66/58/13
f 68/61/13 2/59/13 67/60/13
f 69/62/13 2/59/13 68/61/13
f 70/63/13 2/59/13 69/62/13
f 71/64/13 2/59/13 70/63/13
f 2/59/13 71/64/13 3/65/13
f 71/64/13 72/66/13 3/65/13
f 72/66/13 73/67/13 3/65/13
f 73/67/13 74/68/13 3/65/13
f 74/68/13 75/69/13 3/65/13
f 75/69/13 76/70/13 3/65/13
f 9/71/13 3/65/13 76/70/13

usemtl dirt

f 79/1/14 78/3/14 77/72/14
f 2/75/15 78/74/15 1/73/15
f 78/74/15 2/75/15 77/76/15
f 3/73/16 78/78/16 79/77/16
f 78/78/16 3/73/16 1/75/16
f 2/81/17 79/80/17 77/79/17
f 79/80/17 2/81/17 3/82/17

