# Created by Kenney (www.kenney.nl)

mtllib blockSnowHexagonLow.mtl

g blockSnowHexagonLow

v 0.0366056 0.3030137 0.525283
v -0.0366056 0.3030137 0.525283
v 1.010676E-13 0.4298192 0.4618802
v 0.4 0.4298192 -0.2309401
v 0.4366056 0.3030137 -0.2943429
v 0.4732112 0.3030137 -0.2309401
v -0.4732112 0.3030137 -0.2309401
v -0.4366056 0.3030137 -0.2943429
v -0.4 0.4298192 -0.2309401
v -0.4732112 0.3030137 0.2309401
v -0.4 0.4298192 0.2309401
v -0.4366056 0.3030137 0.2943429
v -0.0366056 0.3030137 -0.525283
v 0.0366056 0.3030137 -0.525283
v 1.010676E-13 0.4298192 -0.4618802
v 0.4 0.4298192 0.2309401
v 0.4732112 0.3030137 0.2309401
v 0.4366056 0.3030137 0.2943429
v -0.1466056 0.2683727 0.4848685
v -0.1634196 0.2693472 0.4745113
v -0.129229 0.2693472 0.4942511
v -0.111365 0.2722664 0.502619
v -0.1795982 0.2722664 0.4632244
v -0.0930909 0.2771178 0.509935
v -0.1950713 0.2771178 0.4510567
v -0.0744858 0.2838804 0.516168
v -0.2097721 0.2838804 0.4380608
v -0.0556301 0.2925248 0.521292
v -0.2236368 0.2925248 0.424293
v -0.2495744 0.3135026 0.3953328
v -0.2634391 0.322147 0.381565
v -0.2781399 0.3289095 0.3685691
v -0.2936131 0.3337609 0.3564015
v -0.3097916 0.3366802 0.3451146
v -0.3266056 0.3376547 0.3347574
v -0.3439822 0.3366802 0.3253747
v -0.3618462 0.3337609 0.3170071
v -0.3801203 0.3289095 0.3096908
v -0.3987255 0.322147 0.3034574
v -0.4175811 0.3135026 0.2983341
v 0.3466056 0.2683727 0.3693984
v 0.329229 0.2693472 0.3787811
v 0.3634196 0.2693472 0.3590412
v 0.3795981 0.2722664 0.3477544
v 0.311365 0.2722664 0.3871487
v 0.3950713 0.2771178 0.3355866
v 0.2930909 0.2771178 0.394465
v 0.4097721 0.2838804 0.3225908
v 0.2744858 0.2838804 0.4006983
v 0.4236368 0.2925248 0.3088229
v 0.2556301 0.2925248 0.4058217
v 0.2175811 0.3135026 0.4138041
v 0.1987254 0.322147 0.4189276
v 0.1801203 0.3289095 0.4251608
v 0.1618462 0.3337609 0.4324771
v 0.1439822 0.3366802 0.4408447
v 0.1266056 0.3376547 0.4502274
v 0.1097917 0.3366802 0.4605846
v 0.0936131 0.3337609 0.4718715
v 0.0781399 0.3289095 0.4840392
v 0.0634392 0.322147 0.4970351
v 0.0495743 0.3135026 0.510803
v 0.1466056 0.2683727 -0.4848685
v 0.1634195 0.2693472 -0.4745112
v 0.129229 0.2693472 -0.4942512
v 0.111365 0.2722664 -0.5026188
v 0.1795981 0.2722664 -0.4632244
v 0.0930909 0.2771178 -0.509935
v 0.1950713 0.2771178 -0.4510567
v 0.0744858 0.2838804 -0.5161684
v 0.2097721 0.2838804 -0.4380608
v 0.0556301 0.2925248 -0.5212917
v 0.2236368 0.2925248 -0.424293
v 0.2495744 0.3135026 -0.3953328
v 0.2634391 0.322147 -0.381565
v 0.2781399 0.3289095 -0.3685692
v 0.2936131 0.3337609 -0.3564015
v 0.3097916 0.3366802 -0.3451146
v 0.3266056 0.3376547 -0.3347574
v 0.3439822 0.3366802 -0.3253747
v 0.3618462 0.3337609 -0.3170071
v 0.3801203 0.3289095 -0.3096908
v 0.3987254 0.322147 -0.3034575
v 0.4175811 0.3135026 -0.2983341
v -0.3466056 0.2683727 -0.3693984
v -0.329229 0.2693472 -0.3787811
v -0.3634196 0.2693472 -0.3590412
v -0.3795981 0.2722664 -0.3477543
v -0.311365 0.2722664 -0.3871487
v -0.3950712 0.2771178 -0.3355866
v -0.2930909 0.2771178 -0.394465
v -0.4097721 0.2838804 -0.3225908
v -0.2744858 0.2838804 -0.4006983
v -0.4236369 0.2925248 -0.308823
v -0.2556301 0.2925248 -0.4058217
v -0.217581 0.3135026 -0.4138041
v -0.1987254 0.322147 -0.4189275
v -0.1801203 0.3289095 -0.4251608
v -0.1618462 0.3337609 -0.4324771
v -0.1439822 0.3366802 -0.4408447
v -0.1266056 0.3376547 -0.4502275
v -0.1097916 0.3366802 -0.4605846
v -0.0936131 0.3337609 -0.4718715
v -0.0781399 0.3289095 -0.4840392
v -0.0634391 0.322147 -0.4970351
v -0.0495743 0.3135026 -0.5108029
v -0.4671554 0.3135026 -0.2124688
v -0.4621646 0.322147 -0.1935776
v -0.4582602 0.3289095 -0.1743485
v -0.4554592 0.3337609 -0.1548645
v -0.4537739 0.3366802 -0.13521
v -0.4532112 0.3376547 -0.1154701
v -0.4537739 0.3366802 -0.0957301
v -0.4554592 0.3337609 -0.0760756
v -0.4582602 0.3289095 -0.0565917
v -0.4621646 0.322147 -0.0373625
v -0.4671554 0.3135026 -0.0184714
v -0.4792669 0.2925248 0.0184714
v -0.4842578 0.2838804 0.0373625
v -0.4881622 0.2771178 0.0565916
v -0.4909632 0.2722664 0.0760756
v -0.4926486 0.2693472 0.0957301
v -0.4932112 0.2683727 0.1154701
v -0.4926486 0.2693472 0.13521
v -0.4909632 0.2722664 0.1548645
v -0.4881622 0.2771178 0.1743485
v -0.4842578 0.2838804 0.1935776
v -0.4792669 0.2925248 0.2124687
v 0.479267 0.2925248 -0.2124688
v 0.4842578 0.2838804 -0.1935776
v 0.4881622 0.2771178 -0.1743485
v 0.4909632 0.2722664 -0.1548645
v 0.4926486 0.2693472 -0.13521
v 0.4932112 0.2683727 -0.1154701
v 0.4926486 0.2693472 -0.0957301
v 0.4909632 0.2722664 -0.0760756
v 0.4881622 0.2771178 -0.0565917
v 0.4842578 0.2838804 -0.0373625
v 0.4671555 0.3135026 0.0184714
v 0.4732112 0.3030137 2.562786E-13
v 0.479267 0.2925248 -0.0184714
v 0.4621646 0.322147 0.0373625
v 0.4582602 0.3289095 0.0565916
v 0.4554593 0.3337609 0.0760756
v 0.4537739 0.3366802 0.0957301
v 0.4532112 0.3376547 0.1154701
v 0.4537739 0.3366802 0.13521
v 0.4554593 0.3337609 0.1548645
v 0.4582602 0.3289095 0.1743485
v 0.4621646 0.322147 0.1935776
v 0.4671555 0.3135026 0.2124687
v -0.1339742 5.634566E-18 0.5
v -0.5 5.639933E-18 0.2886751
v 1.010676E-13 5.639933E-18 0.57735
v 0.1339742 5.634566E-18 0.5
v 0.5 5.639933E-18 0.2886751
v -0.5 5.639933E-18 -0.2886751
v -0.1339746 5.634566E-18 -0.5
v 1.010676E-13 5.639933E-18 -0.5773503
v 0.1339746 5.634566E-18 -0.5
v 0.5 5.639933E-18 -0.2886751

vn 0 0.4472139 0.8944271
vn 0 -0.4472139 -0.8944271
vn 0.7745968 0.4472137 -0.4472134
vn -0.7745968 -0.4472137 0.4472134
vn -0.7745968 0.4472137 -0.4472134
vn 0.7745968 -0.4472137 0.4472134
vn -0.7745968 0.4472137 0.4472134
vn 0.7745968 -0.4472137 -0.4472134
vn 0 0.4472137 -0.8944271
vn 0 -0.4472137 0.8944271
vn 0.7745968 0.4472137 0.4472134
vn -0.7745968 -0.4472137 -0.4472134
vn 0 1 0
vn -0.4330126 0.5000002 0.7499999
vn 0.4330126 -0.5000002 -0.7499999
vn 0.4330127 0.5000001 0.7499999
vn -0.4330127 -0.5000001 -0.7499999
vn 0.4330127 0.5000001 -0.75
vn -0.4330127 -0.5000001 0.75
vn -0.4330127 0.5000001 -0.7500001
vn 0.4330127 -0.5000001 0.7500001
vn -0.8660253 0.5000001 0
vn 0.8660253 -0.5000001 0
vn 0.8660254 0.5000001 0
vn -0.8660254 -0.5000001 0
vn -0.4869934 0.2266036 0.8434977
vn 0.4869934 0.2266036 0.8434977
vn -0.973987 0.2266039 0
vn -0.4869935 0.2266038 -0.8434974
vn 0.4869935 0.2266038 -0.8434974
vn 0 -1 0
vn 0.973987 0.2266039 0

vt 1.441165 1.421646
vt -1.441165 1.421646
vt 3.979039E-12 7.003255
vt 4.824923E-06 7.00326
vt 1.441172 1.421651
vt -1.44116 1.421651
vt 1.44116 1.421651
vt -1.441172 1.421651
vt -4.824927E-06 7.00326
vt 4.824944E-06 7.00326
vt 1.441165 1.421651
vt -1.441165 1.421651
vt -3.979039E-12 7.00326
vt -4.824941E-06 7.00326
vt -15.74803 -9.09213
vt -15.74803 9.09213
vt -3.979039E-12 -18.18426
vt -3.979039E-12 18.18426
vt 15.74803 -9.09213
vt 15.74803 9.09213
vt 4.546065 -0.5585887
vt 3.768902 -0.5142879
vt 5.323226 -0.5142853
vt 6.09703 -0.3815809
vt 2.995102 -0.3815784
vt 6.86411 -0.1610281
vt 2.228017 -0.1610299
vt 7.621157 0.1464085
vt 1.470961 0.1464021
vt 8.364918 0.5393785
vt 0.7272179 0.5393835
vt 9.09213 1.016214
vt -0.7272199 1.493047
vt 9.09213 6.780876
vt -1.470963 1.886028
vt -2.228019 2.193457
vt -2.995105 2.414002
vt -3.768902 2.546716
vt -4.546065 2.591017
vt -9.092131 6.780876
vt -5.323228 2.546715
vt -6.097026 2.414002
vt -6.864112 2.193455
vt -7.621171 1.886027
vt -8.364914 1.493047
vt -9.09213 1.016214
vt 4.546064 -0.558587
vt 3.768902 -0.5142852
vt 5.323228 -0.5142862
vt 6.097023 -0.3815773
vt 2.995104 -0.3815756
vt 6.864113 -0.1610282
vt 2.228018 -0.161028
vt 7.621165 0.1464025
vt 1.470965 0.1464036
vt 8.364913 0.5393849
vt 0.7272164 0.5393838
vt 9.092129 1.016215
vt -0.7272167 1.493048
vt 9.09213 6.780877
vt -1.470967 1.886027
vt -2.228018 2.193457
vt -2.995104 2.414004
vt -3.768902 2.546717
vt -4.546065 2.591019
vt -9.092131 6.780877
vt -5.323225 2.546717
vt -6.097025 2.414004
vt -6.864113 2.193457
vt -7.621166 1.886027
vt -8.364918 1.493046
vt -9.092132 1.016215
vt 4.546064 -0.5585852
vt 3.768904 -0.5142832
vt 5.323227 -0.5142837
vt 6.097025 -0.3815743
vt 2.995104 -0.3815739
vt 6.864111 -0.1610266
vt 2.228016 -0.1610265
vt 7.621164 0.1464047
vt 1.470961 0.1464048
vt 8.364912 0.5393856
vt 0.7272182 0.5393859
vt 9.09213 1.016217
vt -0.7272202 1.49305
vt 9.09213 6.780878
vt -1.470964 1.886031
vt -2.228017 2.193458
vt -2.995105 2.414005
vt -3.768902 2.546719
vt -4.546066 2.59102
vt -9.092131 6.780879
vt -5.323228 2.546718
vt -6.097026 2.414005
vt -6.864112 2.193458
vt -7.621165 1.88603
vt -8.364913 1.49305
vt -9.092131 1.016217
vt 4.546066 -0.5585835
vt 3.768903 -0.5142817
vt 5.323229 -0.5142826
vt 6.097026 -0.3815721
vt 2.995105 -0.3815722
vt 6.864111 -0.1610237
vt 2.228019 -0.1610246
vt 7.621168 0.1464057
vt 1.470966 0.1464062
vt 8.364915 0.5393861
vt 0.7272179 0.5393871
vt 9.092131 1.016219
vt -0.7272196 1.493052
vt 9.092131 6.78088
vt -1.470964 1.886032
vt -2.228017 2.193459
vt -2.995103 2.414007
vt -3.768902 2.54672
vt -4.546064 2.591022
vt -9.09213 6.780879
vt -5.323228 2.546721
vt -6.097024 2.414007
vt -6.864112 2.19346
vt -7.621167 1.886032
vt -8.364914 1.493051
vt -9.09213 1.016219
vt -9.09213 1.016217
vt -9.09213 6.780877
vt -8.364913 1.493049
vt -7.621165 1.886029
vt -6.864114 2.193458
vt -6.097027 2.414006
vt 9.092131 6.780878
vt -5.323228 2.546716
vt -4.546067 2.591019
vt -3.768901 2.546716
vt -2.995102 2.414006
vt -2.228019 2.193458
vt -1.470964 1.886029
vt -0.7272201 1.493049
vt 0.7272209 0.5393857
vt 1.470965 0.1464047
vt 2.228016 -0.1610277
vt 2.995103 -0.3815764
vt 3.768902 -0.5142851
vt 4.546067 -0.5585859
vt 5.323229 -0.5142851
vt 6.097028 -0.3815764
vt 6.864115 -0.1610277
vt 7.621166 0.1464047
vt 8.36491 0.5393859
vt 9.092131 1.016217
vt 9.09213 6.780879
vt 9.09213 1.016218
vt -9.09213 6.780879
vt 8.364913 0.5393857
vt 7.621165 0.1464054
vt 6.864114 -0.1610262
vt 6.097027 -0.3815741
vt 5.323228 -0.5142836
vt 4.546067 -0.5585849
vt 3.768902 -0.5142836
vt 2.995102 -0.3815741
vt 2.22802 -0.1610262
vt 1.470965 0.1464054
vt -0.7272205 1.49305
vt -3.499693E-08 1.016218
vt 0.7272204 0.5393857
vt -1.470965 1.88603
vt -2.228016 2.193458
vt -2.995102 2.414006
vt -3.768902 2.546719
vt -4.546067 2.59102
vt -5.323228 2.546719
vt -6.097028 2.414006
vt -6.864114 2.193458
vt -7.621165 1.88603
vt -8.364909 1.49305
vt -9.09213 1.016218
vt 5.274598 -4.4607
vt -11.36517 -4.4607
vt 11.36515 -4.4607
vt -5.274598 -4.4607
vt -11.36515 -4.4607
vt 11.36517 -4.4607
vt 9.092126 12.91326
vt -9.092134 12.91326
vt 9.092134 12.91326
vt -9.092126 12.91326
vt -11.36516 -4.460706
vt -9.09213 12.91326
vt 11.36516 -4.460706
vt 9.09213 12.91326
vt -5.274591 -4.460706
vt -11.36516 -4.460706
vt 11.36516 -4.460706
vt -9.092131 12.91326
vt 5.274591 -4.460706
vt -11.36516 -4.460706
vt 11.36516 -4.460706
vt 9.092131 12.91326
vt 19.68504 11.36516
vt 19.68504 -11.36516
vt 5.274576 19.68504
vt 5.27459 -19.68504
vt 3.979039E-12 -22.73033
vt 3.979039E-12 22.73031
vt -5.274576 19.68504
vt -5.27459 -19.68504
vt -19.68504 11.36516
vt -19.68504 -11.36516

usemtl snow

f 3/3/1 2/2/1 1/1/1
f 1/1/2 2/2/2 3/3/2
f 6/6/3 5/5/3 4/4/3
f 4/4/4 5/5/4 6/6/4
f 9/9/5 8/8/5 7/7/5
f 7/7/6 8/8/6 9/9/6
f 12/5/7 11/10/7 10/6/7
f 10/6/8 11/10/8 12/5/8
f 15/13/9 14/12/9 13/11/9
f 13/11/10 14/12/10 15/13/10
f 18/8/11 17/7/11 16/14/11
f 16/14/12 17/7/12 18/8/12
f 15/17/13 16/16/13 4/15/13
f 16/16/13 15/17/13 3/18/13
f 3/18/13 15/17/13 9/19/13
f 3/18/13 9/19/13 11/20/13
f 21/23/14 20/22/14 19/21/14
f 20/22/14 21/23/14 22/24/14
f 20/22/14 22/24/14 23/25/14
f 23/25/14 22/24/14 24/26/14
f 23/25/14 24/26/14 25/27/14
f 25/27/14 24/26/14 26/28/14
f 25/27/14 26/28/14 27/29/14
f 27/29/14 26/28/14 28/30/14
f 27/29/14 28/30/14 29/31/14
f 29/31/14 28/30/14 2/32/14
f 29/31/14 2/32/14 30/33/14
f 30/33/14 2/32/14 3/34/14
f 30/33/14 3/34/14 31/35/14
f 31/35/14 3/34/14 32/36/14
f 32/36/14 3/34/14 33/37/14
f 33/37/14 3/34/14 34/38/14
f 34/38/14 3/34/14 35/39/14
f 11/40/14 35/39/14 3/34/14
f 11/40/14 36/41/14 35/39/14
f 11/40/14 37/42/14 36/41/14
f 11/40/14 38/43/14 37/42/14
f 11/40/14 39/44/14 38/43/14
f 11/40/14 40/45/14 39/44/14
f 40/45/14 11/40/14 12/46/14
f 19/21/15 20/22/15 21/23/15
f 22/24/15 21/23/15 20/22/15
f 23/25/15 22/24/15 20/22/15
f 24/26/15 22/24/15 23/25/15
f 25/27/15 24/26/15 23/25/15
f 26/28/15 24/26/15 25/27/15
f 27/29/15 26/28/15 25/27/15
f 28/30/15 26/28/15 27/29/15
f 29/31/15 28/30/15 27/29/15
f 2/32/15 28/30/15 29/31/15
f 30/33/15 2/32/15 29/31/15
f 3/34/15 2/32/15 30/33/15
f 31/35/15 3/34/15 30/33/15
f 32/36/15 3/34/15 31/35/15
f 33/37/15 3/34/15 32/36/15
f 34/38/15 3/34/15 33/37/15
f 35/39/15 3/34/15 34/38/15
f 3/34/15 35/39/15 11/40/15
f 35/39/15 36/41/15 11/40/15
f 36/41/15 37/42/15 11/40/15
f 37/42/15 38/43/15 11/40/15
f 38/43/15 39/44/15 11/40/15
f 39/44/15 40/45/15 11/40/15
f 12/46/15 11/40/15 40/45/15
f 43/49/16 42/48/16 41/47/16
f 42/48/16 43/49/16 44/50/16
f 42/48/16 44/50/16 45/51/16
f 45/51/16 44/50/16 46/52/16
f 45/51/16 46/52/16 47/53/16
f 47/53/16 46/52/16 48/54/16
f 47/53/16 48/54/16 49/55/16
f 49/55/16 48/54/16 50/56/16
f 49/55/16 50/56/16 51/57/16
f 51/57/16 50/56/16 18/58/16
f 51/57/16 18/58/16 52/59/16
f 52/59/16 18/58/16 16/60/16
f 52/59/16 16/60/16 53/61/16
f 53/61/16 16/60/16 54/62/16
f 54/62/16 16/60/16 55/63/16
f 55/63/16 16/60/16 56/64/16
f 56/64/16 16/60/16 57/65/16
f 3/66/16 57/65/16 16/60/16
f 3/66/16 58/67/16 57/65/16
f 3/66/16 59/68/16 58/67/16
f 3/66/16 60/69/16 59/68/16
f 3/66/16 61/70/16 60/69/16
f 3/66/16 62/71/16 61/70/16
f 62/71/16 3/66/16 1/72/16
f 41/47/17 42/48/17 43/49/17
f 44/50/17 43/49/17 42/48/17
f 45/51/17 44/50/17 42/48/17
f 46/52/17 44/50/17 45/51/17
f 47/53/17 46/52/17 45/51/17
f 48/54/17 46/52/17 47/53/17
f 49/55/17 48/54/17 47/53/17
f 50/56/17 48/54/17 49/55/17
f 51/57/17 50/56/17 49/55/17
f 18/58/17 50/56/17 51/57/17
f 52/59/17 18/58/17 51/57/17
f 16/60/17 18/58/17 52/59/17
f 53/61/17 16/60/17 52/59/17
f 54/62/17 16/60/17 53/61/17
f 55/63/17 16/60/17 54/62/17
f 56/64/17 16/60/17 55/63/17
f 57/65/17 16/60/17 56/64/17
f 16/60/17 57/65/17 3/66/17
f 57/65/17 58/67/17 3/66/17
f 58/67/17 59/68/17 3/66/17
f 59/68/17 60/69/17 3/66/17
f 60/69/17 61/70/17 3/66/17
f 61/70/17 62/71/17 3/66/17
f 1/72/17 3/66/17 62/71/17
f 65/75/18 64/74/18 63/73/18
f 64/74/18 65/75/18 66/76/18
f 64/74/18 66/76/18 67/77/18
f 67/77/18 66/76/18 68/78/18
f 67/77/18 68/78/18 69/79/18
f 69/79/18 68/78/18 70/80/18
f 69/79/18 70/80/18 71/81/18
f 71/81/18 70/80/18 72/82/18
f 71/81/18 72/82/18 73/83/18
f 73/83/18 72/82/18 14/84/18
f 73/83/18 14/84/18 74/85/18
f 74/85/18 14/84/18 15/86/18
f 74/85/18 15/86/18 75/87/18
f 75/87/18 15/86/18 76/88/18
f 76/88/18 15/86/18 77/89/18
f 77/89/18 15/86/18 78/90/18
f 78/90/18 15/86/18 79/91/18
f 4/92/18 79/91/18 15/86/18
f 4/92/18 80/93/18 79/91/18
f 4/92/18 81/94/18 80/93/18
f 4/92/18 82/95/18 81/94/18
f 4/92/18 83/96/18 82/95/18
f 4/92/18 84/97/18 83/96/18
f 84/97/18 4/92/18 5/98/18
f 63/73/19 64/74/19 65/75/19
f 66/76/19 65/75/19 64/74/19
f 67/77/19 66/76/19 64/74/19
f 68/78/19 66/76/19 67/77/19
f 69/79/19 68/78/19 67/77/19
f 70/80/19 68/78/19 69/79/19
f 71/81/19 70/80/19 69/79/19
f 72/82/19 70/80/19 71/81/19
f 73/83/19 72/82/19 71/81/19
f 14/84/19 72/82/19 73/83/19
f 74/85/19 14/84/19 73/83/19
f 15/86/19 14/84/19 74/85/19
f 75/87/19 15/86/19 74/85/19
f 76/88/19 15/86/19 75/87/19
f 77/89/19 15/86/19 76/88/19
f 78/90/19 15/86/19 77/89/19
f 79/91/19 15/86/19 78/90/19
f 15/86/19 79/91/19 4/92/19
f 79/91/19 80/93/19 4/92/19
f 80/93/19 81/94/19 4/92/19
f 81/94/19 82/95/19 4/92/19
f 82/95/19 83/96/19 4/92/19
f 83/96/19 84/97/19 4/92/19
f 5/98/19 4/92/19 84/97/19
f 87/101/20 86/100/20 85/99/20
f 86/100/20 87/101/20 88/102/20
f 86/100/20 88/102/20 89/103/20
f 89/103/20 88/102/20 90/104/20
f 89/103/20 90/104/20 91/105/20
f 91/105/20 90/104/20 92/106/20
f 91/105/20 92/106/20 93/107/20
f 93/107/20 92/106/20 94/108/20
f 93/107/20 94/108/20 95/109/20
f 95/109/20 94/108/20 8/110/20
f 95/109/20 8/110/20 96/111/20
f 96/111/20 8/110/20 9/112/20
f 96/111/20 9/112/20 97/113/20
f 97/113/20 9/112/20 98/114/20
f 98/114/20 9/112/20 99/115/20
f 99/115/20 9/112/20 100/116/20
f 100/116/20 9/112/20 101/117/20
f 15/118/20 101/117/20 9/112/20
f 15/118/20 102/119/20 101/117/20
f 15/118/20 103/120/20 102/119/20
f 15/118/20 104/121/20 103/120/20
f 15/118/20 105/122/20 104/121/20
f 15/118/20 106/123/20 105/122/20
f 106/123/20 15/118/20 13/124/20
f 85/99/21 86/100/21 87/101/21
f 88/102/21 87/101/21 86/100/21
f 89/103/21 88/102/21 86/100/21
f 90/104/21 88/102/21 89/103/21
f 91/105/21 90/104/21 89/103/21
f 92/106/21 90/104/21 91/105/21
f 93/107/21 92/106/21 91/105/21
f 94/108/21 92/106/21 93/107/21
f 95/109/21 94/108/21 93/107/21
f 8/110/21 94/108/21 95/109/21
f 96/111/21 8/110/21 95/109/21
f 9/112/21 8/110/21 96/111/21
f 97/113/21 9/112/21 96/111/21
f 98/114/21 9/112/21 97/113/21
f 99/115/21 9/112/21 98/114/21
f 100/116/21 9/112/21 99/115/21
f 101/117/21 9/112/21 100/116/21
f 9/112/21 101/117/21 15/118/21
f 101/117/21 102/119/21 15/118/21
f 102/119/21 103/120/21 15/118/21
f 103/120/21 104/121/21 15/118/21
f 104/121/21 105/122/21 15/118/21
f 105/122/21 106/123/21 15/118/21
f 13/124/21 15/118/21 106/123/21
f 107/127/22 9/126/22 7/125/22
f 9/126/22 107/127/22 108/128/22
f 9/126/22 108/128/22 109/129/22
f 9/126/22 109/129/22 110/130/22
f 9/126/22 110/130/22 11/131/22
f 11/131/22 110/130/22 111/132/22
f 11/131/22 111/132/22 112/133/22
f 11/131/22 112/133/22 113/134/22
f 11/131/22 113/134/22 114/135/22
f 11/131/22 114/135/22 115/136/22
f 11/131/22 115/136/22 116/137/22
f 11/131/22 116/137/22 117/138/22
f 11/131/22 117/138/22 118/139/22
f 11/131/22 118/139/22 119/140/22
f 11/131/22 119/140/22 120/141/22
f 11/131/22 120/141/22 121/142/22
f 11/131/22 121/142/22 122/143/22
f 11/131/22 122/143/22 123/144/22
f 11/131/22 123/144/22 124/145/22
f 11/131/22 124/145/22 125/146/22
f 11/131/22 125/146/22 126/147/22
f 11/131/22 126/147/22 127/148/22
f 11/131/22 127/148/22 128/149/22
f 11/131/22 128/149/22 10/150/22
f 7/125/23 9/126/23 107/127/23
f 108/128/23 107/127/23 9/126/23
f 109/129/23 108/128/23 9/126/23
f 110/130/23 109/129/23 9/126/23
f 11/131/23 110/130/23 9/126/23
f 111/132/23 110/130/23 11/131/23
f 112/133/23 111/132/23 11/131/23
f 113/134/23 112/133/23 11/131/23
f 114/135/23 113/134/23 11/131/23
f 115/136/23 114/135/23 11/131/23
f 116/137/23 115/136/23 11/131/23
f 117/138/23 116/137/23 11/131/23
f 118/139/23 117/138/23 11/131/23
f 119/140/23 118/139/23 11/131/23
f 120/141/23 119/140/23 11/131/23
f 121/142/23 120/141/23 11/131/23
f 122/143/23 121/142/23 11/131/23
f 123/144/23 122/143/23 11/131/23
f 124/145/23 123/144/23 11/131/23
f 125/146/23 124/145/23 11/131/23
f 126/147/23 125/146/23 11/131/23
f 127/148/23 126/147/23 11/131/23
f 128/149/23 127/148/23 11/131/23
f 10/150/23 128/149/23 11/131/23
f 16/153/24 6/152/24 4/151/24
f 6/152/24 16/153/24 129/154/24
f 129/154/24 16/153/24 130/155/24
f 130/155/24 16/153/24 131/156/24
f 131/156/24 16/153/24 132/157/24
f 132/157/24 16/153/24 133/158/24
f 133/158/24 16/153/24 134/159/24
f 134/159/24 16/153/24 135/160/24
f 135/160/24 16/153/24 136/161/24
f 136/161/24 16/153/24 137/162/24
f 137/162/24 16/153/24 138/163/24
f 138/163/24 16/153/24 139/164/24
f 138/163/24 139/164/24 140/165/24
f 138/163/24 140/165/24 141/166/24
f 139/164/24 16/153/24 142/167/24
f 142/167/24 16/153/24 143/168/24
f 143/168/24 16/153/24 144/169/24
f 144/169/24 16/153/24 145/170/24
f 145/170/24 16/153/24 146/171/24
f 146/171/24 16/153/24 147/172/24
f 147/172/24 16/153/24 148/173/24
f 148/173/24 16/153/24 149/174/24
f 149/174/24 16/153/24 150/175/24
f 150/175/24 16/153/24 151/176/24
f 151/176/24 16/153/24 17/177/24
f 4/151/25 6/152/25 16/153/25
f 129/154/25 16/153/25 6/152/25
f 130/155/25 16/153/25 129/154/25
f 131/156/25 16/153/25 130/155/25
f 132/157/25 16/153/25 131/156/25
f 133/158/25 16/153/25 132/157/25
f 134/159/25 16/153/25 133/158/25
f 135/160/25 16/153/25 134/159/25
f 136/161/25 16/153/25 135/160/25
f 137/162/25 16/153/25 136/161/25
f 138/163/25 16/153/25 137/162/25
f 139/164/25 16/153/25 138/163/25
f 140/165/25 139/164/25 138/163/25
f 141/166/25 140/165/25 138/163/25
f 142/167/25 16/153/25 139/164/25
f 143/168/25 16/153/25 142/167/25
f 144/169/25 16/153/25 143/168/25
f 145/170/25 16/153/25 144/169/25
f 146/171/25 16/153/25 145/170/25
f 147/172/25 16/153/25 146/171/25
f 148/173/25 16/153/25 147/172/25
f 149/174/25 16/153/25 148/173/25
f 150/175/25 16/153/25 149/174/25
f 151/176/25 16/153/25 150/175/25
f 17/177/25 16/153/25 151/176/25

usemtl dirt

f 154/180/26 153/179/26 152/178/26
f 156/183/27 154/182/27 155/181/27
f 153/179/26 154/180/26 3/184/26
f 153/179/26 3/184/26 11/185/26
f 154/182/27 156/183/27 16/186/27
f 154/182/27 16/186/27 3/187/27
f 153/190/28 9/189/28 157/188/28
f 9/189/28 153/190/28 11/191/28
f 157/194/29 159/193/29 158/192/29
f 159/193/29 157/194/29 9/191/29
f 159/193/29 9/191/29 15/195/29
f 159/198/30 161/197/30 160/196/30
f 161/197/30 159/198/30 15/199/30
f 161/197/30 15/199/30 4/189/30
f 155/202/31 161/201/31 156/200/31
f 161/201/31 155/202/31 160/203/31
f 160/203/31 155/202/31 159/204/31
f 159/204/31 155/202/31 154/205/31
f 159/204/31 154/205/31 152/206/31
f 159/204/31 152/206/31 158/207/31
f 158/207/31 152/206/31 153/208/31
f 158/207/31 153/208/31 157/209/31
f 4/191/32 156/188/32 161/190/32
f 156/188/32 4/191/32 16/189/32

