# Created by Kenney (www.kenney.nl)

mtllib blockSnowRoundedLowLong.mtl

g blockSnowRoundedLowLong

v 0.9433012 0.01339746 -0.425
v 0.925 0.01339746 -0.4433013
v 0.9 0 -0.4
v 0.9499999 0.01339746 -0.4
v 0.925 0.01339746 0.4433013
v 0.9433012 0.01339746 0.425
v 0.9 0 0.4
v 0.9499999 0.01339746 0.4
v 0.9 0.01339746 0.45
v 0.9 0.01339746 -0.45
v -0.9 0.01339746 0.45
v -0.9 0 0.4
v -0.925 0.01339746 0.4433013
v -0.9433012 0.01339746 0.425
v -0.9499999 0.01339746 0.4
v -0.9 0 -0.4
v -0.9 0.01339746 -0.45
v -0.925 0.01339746 -0.4433013
v -0.9433012 0.01339746 -0.425
v -0.9499999 0.01339746 -0.4
v 0.9866025 0.05 -0.4
v 0.9866025 0.05 0.4
v 1 0.1 -0.4
v 1 0.1 0.4
v 0.9866025 0.4 -0.45
v 0.9866025 0.1 -0.45
v 1 0.4 -0.4
v 0.9499999 0.4 -0.4866025
v 0.9499999 0.1 -0.4866025
v 0.9 0.1 -0.5
v 0.9 0.4 -0.5
v 0.9 0.05 0.4866025
v -0.9 0.05 0.4866025
v 0.9 0.1 0.5
v -0.9 0.1 0.5
v -0.9866025 0.1 0.45
v -0.9866025 0.4 0.45
v -0.9499999 0.1 0.4866025
v -0.9499999 0.4 0.4866025
v -1 0.1 0.4
v -1 0.4 0.4
v 0.9499999 0.1 0.4866025
v 0.9499999 0.4 0.4866025
v 0.9 0.4 0.5
v 1 0.4 0.4
v 0.9866025 0.4 0.45
v 0.9866025 0.1 0.45
v -0.9 0.4 0.5
v 0.9 0.05 -0.4866025
v -0.9 0.05 -0.4866025
v -0.9 0.1 -0.5
v 0.975 0.05 -0.4433013
v 0.9433012 0.05 -0.475
v -0.9866025 0.1 -0.45
v -0.9866025 0.4 -0.45
v -1 0.1 -0.4
v -1 0.4 -0.4
v -0.9499999 0.1 -0.4866025
v -0.9499999 0.4 -0.4866025
v -0.9 0.4 -0.5
v 0.975 0.05 0.4433013
v 0.9433012 0.05 0.475
v -0.9866025 0.05 -0.4
v -0.9866025 0.05 0.4
v -0.9433012 0.05 0.475
v -0.975 0.05 0.4433013
v -0.9433012 0.05 -0.475
v -0.975 0.05 -0.4433013
v 0.925 0.4866025 -0.4433013
v 0.9433012 0.4866025 -0.425
v 0.9 0.5 -0.4
v 0.9499999 0.4866025 0.4
v 0.9433012 0.4866025 0.425
v 0.9 0.5 0.4
v 0.9 0.4866025 -0.45
v 0.925 0.4866025 0.4433013
v 0.9499999 0.4866025 -0.4
v 0.9 0.4866025 0.45
v -0.9 0.4866025 -0.45
v -0.9 0.5 -0.4
v -0.925 0.4866025 -0.4433013
v -0.9 0.5 0.4
v -0.925 0.4866025 0.4433013
v -0.9433012 0.4866025 0.425
v -0.9499999 0.4866025 0.4
v -0.9433012 0.4866025 -0.425
v -0.9 0.4866025 0.45
v -0.9499999 0.4866025 -0.4
v 0.9866025 0.45 -0.4
v 0.9866025 0.45 0.4
v -0.9 0.45 -0.4866025
v 0.9 0.45 -0.4866025
v -0.9866025 0.45 -0.4
v -0.9866025 0.45 0.4
v 0.9 0.45 0.4866025
v -0.9 0.45 0.4866025
v 0.975 0.45 -0.4433013
v 0.9433012 0.45 -0.475
v 0.975 0.45 0.4433013
v 0.9433012 0.45 0.475
v -0.975 0.45 -0.4433013
v -0.9433012 0.45 0.475
v -0.975 0.45 0.4433013
v -0.9433012 0.45 -0.475

vn 0.4597727 -0.8474345 -0.2654499
vn 0.2654499 -0.8474345 -0.4597727
vn 0.1731918 -0.9695407 -0.1731918
vn 0.5256083 -0.8389881 -0.1408363
vn 0.2654499 -0.8474345 0.4597727
vn 0.4597727 -0.8474345 0.2654499
vn 0.08519387 -0.9722424 0.2179146
vn 0.5140254 -0.8549294 0.06981172
vn 0.06981172 -0.8549294 0.5140254
vn 0.1408363 -0.8389881 -0.5256083
vn -0.06981172 -0.8549294 0.5140254
vn -0.1453179 -0.9786549 0.1453179
vn -0.2654499 -0.8474345 0.4597727
vn -0.4597727 -0.8474345 0.2654499
vn -0.5140254 -0.8549294 0.06981172
vn -0.1453179 -0.9786549 -0.1453179
vn -0.06981172 -0.8549294 -0.5140254
vn -0.2654499 -0.8474345 -0.4597727
vn -0.4597727 -0.8474345 -0.2654499
vn -0.5140254 -0.8549294 -0.06981172
vn 0.8660254 -0.5 0
vn 0.5 -0.8660254 0
vn 0.865321 -0.4883322 0.1129214
vn 0.9659258 -0.258819 0
vn 0.9702645 -0.1711532 0.1711532
vn 0.858921 0.1278264 -0.4958982
vn 0.8660254 0 -0.5
vn 0.9702645 0.1711532 -0.1711532
vn 0.9659258 0 -0.258819
vn 0.4958982 0.1278264 -0.858921
vn 0.5 0 -0.8660254
vn 0.258819 0 -0.9659258
vn 0.1711532 0.1711532 -0.9702645
vn 0.258819 -0.9659258 0
vn 0.1129214 -0.4883322 0.865321
vn -0.1129214 -0.4883322 0.865321
vn 0.1711532 -0.1711532 0.9702645
vn -0.1711532 -0.1711532 0.9702645
vn -0.858921 -0.1278264 0.4958982
vn -0.858921 0.1278264 0.4958982
vn -0.4958982 -0.1278264 0.858921
vn -0.4958982 0.1278264 0.858921
vn -0.9702645 -0.1711532 0.1711532
vn -0.9702645 0.1711532 0.1711532
vn 0.4958982 -0.1278264 0.858921
vn 0.4958982 0.1278264 0.858921
vn 0.1711532 0.1711532 0.9702645
vn 0.9702645 0.1711532 0.1711532
vn 0.858921 0.1278264 0.4958982
vn 0.858921 -0.1278264 0.4958982
vn -0.1711532 0.1711532 0.9702645
vn 0 -0.8660254 -0.5
vn 0.1129214 -0.4883322 -0.865321
vn -0.1129214 -0.4883322 -0.865321
vn -0.1711532 -0.1711532 -0.9702645
vn 0.1235385 -0.2568364 -0.9585266
vn 0.7586237 -0.4823416 -0.4379916
vn 0.4379916 -0.4823416 -0.7586237
vn 0.8365163 -0.258819 -0.4829629
vn 0.9351131 -0.2505628 -0.2505628
vn 0.8528062 -0.4695798 -0.2285087
vn -0.858921 -0.1278264 -0.4958982
vn -0.858921 0.1278264 -0.4958982
vn -0.9702645 -0.1711532 -0.1711532
vn -0.9702645 0.1711532 -0.1711532
vn -0.4958982 -0.1278264 -0.858921
vn -0.4958982 0.1278264 -0.858921
vn -0.1711532 0.1711532 -0.9702645
vn 0.4829629 -0.258819 -0.8365163
vn 0.7586237 -0.4823416 0.4379916
vn 0.4379916 -0.4823416 0.7586237
vn -0.865321 -0.4883322 -0.1129214
vn -0.865321 -0.4883322 0.1129214
vn 0 -0.9659258 -0.258819
vn -0.4379916 -0.4823416 0.7586237
vn -0.7586237 -0.4823416 0.4379916
vn -0.4379916 -0.4823416 -0.7586237
vn -0.7586237 -0.4823416 -0.4379916
vn 1 0 0
vn -1 0 0
vn 0 0 1
vn 0 -1 0
vn 0 0 -1
vn 0.2654499 0.8474345 -0.4597727
vn 0.4597727 0.8474345 -0.2654499
vn 0.1453179 0.9786549 -0.1453179
vn 0.5140254 0.8549294 0.06981172
vn 0.4597727 0.8474345 0.2654499
vn 0.1453179 0.9786549 0.1453179
vn 0.06981172 0.8549294 -0.5140254
vn 0.2654499 0.8474345 0.4597727
vn 0.5140254 0.8549294 -0.06981172
vn 0.06981172 0.8549294 0.5140254
vn -0.06981172 0.8549294 -0.5140254
vn -0.1453179 0.9786549 -0.1453179
vn -0.2654499 0.8474345 -0.4597727
vn -0.1453179 0.9786549 0.1453179
vn -0.2654499 0.8474345 0.4597727
vn -0.4597727 0.8474345 0.2654499
vn -0.5140254 0.8549294 0.06981172
vn -0.4597727 0.8474345 -0.2654499
vn -0.06981172 0.8549294 0.5140254
vn -0.5140254 0.8549294 -0.06981172
vn 0.865321 0.4883322 -0.1129214
vn 0.865321 0.4883322 0.1129214
vn -0.1129214 0.4883322 -0.865321
vn 0.1129214 0.4883322 -0.865321
vn -0.865321 0.4883322 -0.1129214
vn -0.865321 0.4883322 0.1129214
vn 0.1129214 0.4883322 0.865321
vn -0.1129214 0.4883322 0.865321
vn 0.7586237 0.4823416 -0.4379916
vn 0.4379916 0.4823416 -0.7586237
vn 0.7586237 0.4823416 0.4379916
vn 0.4379916 0.4823416 0.7586237
vn -0.7586237 0.4823416 -0.4379916
vn -0.4379916 0.4823416 0.7586237
vn -0.7586237 0.4823416 0.4379916
vn -0.4379916 0.4823416 -0.7586237
vn 0 1 0

vt -14.42891 36.84681
vt -13.40994 36.84681
vt -13.91943 34.87358
vt 5.53119 38.8811
vt 6.550163 38.8811
vt 6.040677 36.90787
vt 13.40994 36.84681
vt 14.42891 36.84681
vt 13.91943 34.87358
vt -6.550163 38.8811
vt -5.53119 38.8811
vt -6.040677 36.90787
vt 29.64034 25.46818
vt 30.65931 25.46818
vt 30.14983 23.49495
vt -30.14983 23.49495
vt -30.65931 25.46818
vt -29.64034 25.46818
vt 15.74803 28.85782
vt 15.74803 26.81988
vt -15.74803 28.85782
vt -15.74803 26.81988
vt 15.74803 13.99258
vt 15.74803 11.95464
vt -15.74803 13.99258
vt -15.74803 11.95464
vt 7.059649 15.74803
vt 7.059649 3.937008
vt 5.021704 15.74803
vt 5.021704 3.937008
vt -12.90045 15.74803
vt -12.90045 3.937008
vt -14.9384 15.74803
vt -14.9384 3.937008
vt -29.13086 3.937008
vt -31.1688 3.937008
vt -29.13086 15.74803
vt -31.1688 15.74803
vt -15.74803 36.26366
vt 15.74803 36.26366
vt -15.74803 34.22572
vt 15.74803 34.22572
vt 35.43307 6.859776
vt -35.43307 6.859776
vt 35.43307 8.89772
vt -35.43307 8.89772
vt 31.1688 3.937008
vt 29.13086 3.937008
vt 31.1688 15.74803
vt 29.13086 15.74803
vt -5.021704 15.74803
vt -5.021704 3.937008
vt -7.059649 15.74803
vt -7.059649 3.937008
vt 35.43307 17.24938
vt 35.43307 15.21143
vt -35.43307 17.24938
vt -35.43307 15.21143
vt 35.43307 14.9384
vt 35.43307 12.90045
vt -35.43307 14.9384
vt -35.43307 12.90045
vt 14.9384 15.74803
vt 14.9384 3.937008
vt 12.90045 15.74803
vt 12.90045 3.937008
vt -14.80188 28.84714
vt -13.03697 28.84714
vt -14.42891 26.84362
vt -13.40994 26.84362
vt 7.059649 14.36123
vt 6.923133 12.32786
vt 5.021704 14.36123
vt 5.158221 12.32786
vt -31.03228 20.64335
vt -29.26737 20.64335
vt -30.65931 18.63983
vt -29.64034 18.63983
vt -12.90045 13.83227
vt -13.03697 11.7989
vt -14.9384 13.83227
vt -14.80188 11.7989
vt 6.923133 30.31383
vt 6.550163 28.3103
vt 5.158221 30.31383
vt 5.53119 28.3103
vt -5.158221 30.31383
vt -5.53119 28.3103
vt -6.923133 30.31383
vt -6.550163 28.3103
vt 14.80188 28.84714
vt 14.42891 26.84362
vt 13.03697 28.84714
vt 13.40994 26.84362
vt -29.26737 8.840174
vt -31.03228 8.840174
vt -29.13086 10.87354
vt -31.1688 10.87354
vt 30.65931 18.63983
vt 29.64034 18.63983
vt 31.03228 20.64335
vt 29.26737 20.64335
vt 14.80188 11.7989
vt 13.03697 11.7989
vt 14.9384 13.83227
vt 12.90045 13.83227
vt 31.03228 8.840174
vt 29.26737 8.840174
vt 31.1688 10.87354
vt 29.13086 10.87354
vt -5.021704 14.36123
vt -5.158221 12.32786
vt -7.059649 14.36123
vt -6.923133 12.32786
vt 15.74803 15.74803
vt 15.74803 3.937008
vt -15.74803 15.74803
vt -15.74803 3.937008
vt 35.43307 3.937008
vt -35.43307 3.937008
vt 35.43307 15.74803
vt -35.43307 15.74803
vt 35.43307 -15.74803
vt -35.43307 -15.74803
vt -13.40994 -31.58486
vt -14.42891 -31.58486
vt -13.91943 -29.61163
vt -5.53119 -33.61914
vt -6.550163 -33.61914
vt -6.040677 -31.64591
vt -29.64034 -20.20623
vt -30.65931 -20.20623
vt -30.14983 -18.233
vt 14.42891 -31.58486
vt 13.40994 -31.58486
vt 13.91943 -29.61163
vt 6.550163 -33.61914
vt 5.53119 -33.61914
vt 6.040677 -31.64591
vt 30.14983 -18.233
vt 30.65931 -20.20623
vt 29.64034 -20.20623
vt 15.74803 7.059649
vt 15.74803 5.021704
vt -15.74803 7.059649
vt -15.74803 5.021704
vt 15.74803 -31.1688
vt -15.74803 -31.1688
vt 15.74803 -29.13086
vt -15.74803 -29.13086
vt 15.74803 -12.90045
vt 15.74803 -14.9384
vt -15.74803 -12.90045
vt -15.74803 -14.9384
vt 35.43307 -10.11657
vt 35.43307 -12.15451
vt -35.43307 -10.11657
vt -35.43307 -12.15451
vt 35.43307 -1.018973
vt -35.43307 -1.018973
vt 35.43307 1.018973
vt -35.43307 1.018973
vt 35.43307 10.11657
vt -35.43307 10.11657
vt 35.43307 12.15451
vt -35.43307 12.15451
vt -14.80188 -14.68859
vt -14.42891 -12.68506
vt -13.03697 -14.68859
vt -13.40994 -12.68506
vt -12.90045 5.224826
vt -14.9384 5.224826
vt -13.03697 7.258193
vt -14.80188 7.258193
vt 6.923133 -16.15527
vt 5.158221 -16.15527
vt 6.550163 -14.15175
vt 5.53119 -14.15175
vt -29.26737 -6.484798
vt -31.03228 -6.484798
vt -29.64034 -4.481273
vt -30.65931 -4.481273
vt -29.13086 8.183552
vt -31.1688 8.183552
vt -29.26737 10.21692
vt -31.03228 10.21692
vt -5.53119 -14.15175
vt -5.158221 -16.15527
vt -6.550163 -14.15175
vt -6.923133 -16.15527
vt 14.80188 -14.68859
vt 13.03697 -14.68859
vt 14.42891 -12.68506
vt 13.40994 -12.68506
vt 7.059649 4.695861
vt 5.021704 4.695861
vt 6.923133 6.729229
vt 5.158221 6.729229
vt -5.158221 6.729229
vt -5.021704 4.695861
vt -6.923133 6.729229
vt -7.059649 4.695861
vt 31.1688 8.183552
vt 29.13086 8.183552
vt 31.03228 10.21692
vt 29.26737 10.21692
vt 14.80188 7.258193
vt 14.9384 5.224826
vt 13.03697 7.258193
vt 12.90045 5.224826
vt 31.03228 -6.484798
vt 29.26737 -6.484798
vt 30.65931 -4.481273
vt 29.64034 -4.481273

usemtl dirt

f 3/3/3 2/2/2 1/1/1
f 3/6/3 1/5/1 4/4/4
f 7/9/7 6/8/6 5/7/5
f 7/12/7 8/11/8 6/10/6
f 7/15/7 5/14/5 9/13/9
f 10/18/10 2/17/2 3/16/3
f 13/17/13 12/16/12 11/18/11
f 15/4/15 12/6/12 14/5/14
f 14/1/14 12/3/12 13/2/13
f 18/14/18 17/13/17 16/15/16
f 19/8/19 18/7/18 16/9/16
f 20/11/20 19/10/19 16/12/16
f 22/21/23 4/20/22 21/19/21
f 4/20/22 22/21/23 8/22/8
f 24/25/25 21/24/21 23/23/24
f 21/24/21 24/25/25 22/26/23
f 27/29/28 26/28/27 25/27/26
f 26/28/27 27/29/28 23/30/29
f 25/33/26 29/32/31 28/31/30
f 29/32/31 25/33/26 26/34/27
f 31/37/33 29/36/31 30/35/32
f 29/36/31 31/37/33 28/38/30
f 7/41/34 4/40/22 8/39/8
f 4/40/22 7/41/34 3/42/34
f 34/45/37 33/44/36 32/43/35
f 33/44/36 34/45/37 35/46/38
f 38/32/41 37/33/40 36/34/39
f 37/33/40 38/32/41 39/31/42
f 36/28/39 41/29/44 40/30/43
f 41/29/44 36/28/39 37/27/40
f 15/40/15 16/41/16 12/42/12
f 16/41/16 15/40/15 20/39/20
f 43/49/46 34/48/37 42/47/45
f 34/48/37 43/49/46 44/50/47
f 46/53/49 24/52/25 45/51/48
f 24/52/25 46/53/49 47/54/50
f 11/57/11 7/56/7 9/55/9
f 7/56/7 11/57/11 12/58/12
f 33/61/36 9/60/9 32/59/35
f 9/60/9 33/61/36 11/62/11
f 43/65/46 47/64/50 46/63/49
f 47/64/50 43/65/46 42/66/45
f 48/37/51 38/36/41 35/35/38
f 38/36/41 48/37/51 39/38/42
f 17/60/17 49/61/53 10/62/52
f 49/61/53 17/60/17 50/59/54
f 51/45/55 49/44/53 50/43/54
f 49/44/53 51/45/55 30/46/56
f 1/69/1 53/68/58 52/67/57
f 53/68/58 1/69/1 2/70/2
f 23/73/60 52/72/57 26/71/59
f 52/72/57 23/73/60 21/74/61
f 56/52/64 55/53/63 54/54/62
f 55/53/63 56/52/64 57/51/65
f 2/77/2 49/76/53 53/75/58
f 49/76/53 2/77/2 10/78/10
f 59/49/67 51/48/55 58/47/66
f 51/48/55 59/49/67 60/50/68
f 26/81/59 53/80/58 29/79/69
f 53/80/58 26/81/59 52/82/57
f 21/85/61 1/84/1 52/83/57
f 1/84/1 21/85/61 4/86/4
f 61/89/70 8/88/8 22/87/23
f 8/88/8 61/89/70 6/90/6
f 62/93/71 6/92/6 61/91/70
f 6/92/6 62/93/71 5/94/5
f 15/20/15 63/21/72 20/22/20
f 63/21/72 15/20/15 64/19/73
f 54/64/62 59/65/67 58/66/66
f 59/65/67 54/64/62 55/63/63
f 30/97/56 53/96/58 49/95/53
f 53/96/58 30/97/56 29/98/69
f 16/56/16 10/57/52 3/58/74
f 10/57/52 16/56/16 17/55/17
f 62/101/71 9/100/9 5/99/5
f 9/100/9 62/101/71 32/102/35
f 64/24/73 56/25/64 63/26/72
f 56/25/64 64/24/73 40/23/43
f 47/105/50 62/104/71 61/103/70
f 62/104/71 47/105/50 42/106/45
f 42/109/45 32/108/35 62/107/71
f 32/108/35 42/109/45 34/110/37
f 47/113/50 22/112/23 24/111/25
f 22/112/23 47/113/50 61/114/70
f 65/68/75 14/69/14 13/70/13
f 14/69/14 65/68/75 66/67/76
f 65/75/75 11/78/11 33/76/36
f 11/78/11 65/75/75 13/77/13
f 58/109/66 50/108/54 67/107/77
f 50/108/54 58/109/66 51/110/55
f 19/92/19 67/93/77 18/94/18
f 67/93/77 19/92/19 68/91/78
f 65/80/75 36/81/39 66/82/76
f 36/81/39 65/80/75 38/79/41
f 14/84/14 64/85/73 15/86/15
f 64/85/73 14/84/14 66/83/76
f 35/97/38 65/96/75 33/95/36
f 65/96/75 35/97/38 38/98/41
f 66/72/76 40/73/43 64/74/73
f 40/73/43 66/72/76 36/71/39
f 19/90/19 63/87/72 68/89/78
f 63/87/72 19/90/19 20/88/20
f 18/99/18 50/102/54 17/100/17
f 50/102/54 18/99/18 67/101/77
f 67/104/77 54/105/62 58/106/66
f 54/105/62 67/104/77 68/103/78
f 68/114/78 56/111/64 54/113/62
f 56/111/64 68/114/78 63/112/72
f 45/117/79 23/116/79 27/115/79
f 23/116/79 45/117/79 24/118/79
f 40/116/80 57/117/80 56/118/80
f 57/117/80 40/116/80 41/115/80
f 44/121/81 35/120/81 34/119/81
f 35/120/81 44/121/81 48/122/81
f 12/122/82 3/123/82 7/121/82
f 3/123/82 12/122/82 16/124/82
f 60/121/83 30/120/83 51/119/83
f 30/120/83 60/121/83 31/122/83

usemtl snow

f 71/127/86 70/126/85 69/125/84
f 74/130/89 73/129/88 72/128/87
f 71/133/86 69/132/84 75/131/90
f 74/136/89 76/135/91 73/134/88
f 71/139/86 77/138/92 70/137/85
f 78/142/93 76/141/91 74/140/89
f 81/141/96 80/140/95 79/142/94
f 84/126/99 83/125/98 82/127/97
f 85/138/100 84/137/99 82/139/97
f 86/134/101 80/136/95 81/135/96
f 83/132/98 87/131/102 82/133/97
f 88/128/103 80/130/95 86/129/101
f 90/145/105 27/144/28 89/143/104
f 27/144/28 90/145/105 45/146/48
f 71/149/86 72/148/87 77/147/92
f 72/148/87 71/149/86 74/150/89
f 72/153/87 89/152/104 77/151/92
f 89/152/104 72/153/87 90/154/105
f 82/157/97 78/156/93 74/155/89
f 78/156/93 82/157/97 87/158/102
f 88/148/103 82/149/97 80/150/95
f 82/149/97 88/148/103 85/147/100
f 79/161/94 92/160/107 91/159/106
f 92/160/107 79/161/94 75/162/90
f 79/156/94 71/157/86 75/158/90
f 71/157/86 79/156/94 80/155/95
f 91/165/106 31/164/33 60/163/68
f 31/164/33 91/165/106 92/166/107
f 94/152/109 88/153/103 93/154/108
f 88/153/103 94/152/109 85/151/100
f 95/165/110 48/164/51 44/163/47
f 48/164/51 95/165/110 96/166/111
f 78/161/93 96/160/111 95/159/110
f 96/160/111 78/161/93 87/162/102
f 41/144/44 93/145/108 57/146/65
f 93/145/108 41/144/44 94/143/109
f 98/169/113 70/168/85 97/167/112
f 70/168/85 98/169/113 69/170/84
f 98/173/113 25/172/26 28/171/30
f 25/172/26 98/173/113 97/174/112
f 70/177/85 89/176/104 97/175/112
f 89/176/104 70/177/85 77/178/92
f 75/181/90 98/180/113 92/179/107
f 98/180/113 75/181/90 69/182/84
f 92/185/107 28/184/30 31/183/33
f 28/184/30 92/185/107 98/186/113
f 73/189/88 90/188/105 72/187/87
f 90/188/105 73/189/88 99/190/114
f 73/193/88 100/192/115 99/191/114
f 100/192/115 73/193/88 76/194/91
f 97/197/112 27/196/28 25/195/26
f 27/196/28 97/197/112 89/198/104
f 99/201/114 45/200/48 90/199/105
f 45/200/48 99/201/114 46/202/49
f 100/205/115 44/204/47 43/203/46
f 44/204/47 100/205/115 95/206/110
f 57/200/65 101/201/116 55/202/63
f 101/201/116 57/200/65 93/199/108
f 83/182/98 96/179/111 87/181/102
f 96/179/111 83/182/98 102/180/117
f 84/168/99 102/169/117 83/170/98
f 102/169/117 84/168/99 103/167/118
f 100/209/115 46/208/49 99/207/114
f 46/208/49 100/209/115 43/210/46
f 104/192/119 86/193/101 81/194/96
f 86/193/101 104/192/119 101/191/116
f 103/175/118 85/178/100 94/176/109
f 85/178/100 103/175/118 84/177/99
f 96/185/111 39/184/42 48/183/51
f 39/184/42 96/185/111 102/186/117
f 76/213/91 95/212/110 100/211/115
f 95/212/110 76/213/91 78/214/93
f 55/208/63 104/209/119 59/210/67
f 104/209/119 55/208/63 101/207/116
f 104/211/119 79/214/94 91/212/106
f 79/214/94 104/211/119 81/213/96
f 104/205/119 60/204/68 59/203/67
f 60/204/68 104/205/119 91/206/106
f 93/188/108 86/189/101 101/190/116
f 86/189/101 93/188/108 88/187/103
f 37/172/40 102/173/117 103/174/118
f 102/173/117 37/172/40 39/171/42
f 37/195/40 94/198/109 41/196/44
f 94/198/109 37/195/40 103/197/118
f 80/123/120 74/122/120 71/124/120
f 74/122/120 80/123/120 82/121/120

