# Created by Kenney (www.kenney.nl)

mtllib block.mtl

g block

v -0.591514 0.8414931 0.5
v -0.5 1 0.5
v -0.5 0.8414931 0.591514
v 0.5 0.8414931 -0.591514
v 0.591514 0.8414931 -0.5
v 0.5 1 -0.5
v 0.591514 0.8414931 0.5
v 0.5 0.8414931 0.591514
v 0.5 1 0.5
v -0.591514 0.8414931 -0.5
v -0.5 0.8414931 -0.591514
v -0.5 1 -0.5
v -0.633028 0.7695886 -0.4166667
v -0.591514 0.8414931 -0.3333333
v -0.591514 0.8414931 -0.1666667
v -0.633028 0.7695886 -0.25
v -0.591514 0.8414931 7.219114E-16
v -0.633028 0.7695886 -0.0833333
v -0.591514 0.8414931 0.1666667
v -0.633028 0.7695886 0.0833333
v -0.633028 0.7695886 0.25
v -0.591514 0.8414931 0.3333333
v -0.633028 0.7695886 0.4166666
v -0.4166666 0.7695886 -0.633028
v -0.3333333 0.8414931 -0.591514
v -0.1666667 0.8414931 -0.591514
v -0.25 0.7695886 -0.633028
v 0 0.8414931 -0.591514
v -0.0833333 0.7695886 -0.633028
v 0.1666667 0.8414931 -0.591514
v 0.0833333 0.7695886 -0.633028
v 0.3333333 0.8414931 -0.591514
v 0.25 0.7695886 -0.633028
v 0.4166667 0.7695886 -0.633028
v 0.4166667 0.7695886 0.633028
v 0.3333333 0.8414931 0.591514
v 0.1666667 0.8414931 0.591514
v 0.25 0.7695886 0.633028
v 0 0.8414931 0.591514
v 0.0833333 0.7695886 0.633028
v -0.1666667 0.8414931 0.591514
v -0.0833333 0.7695886 0.633028
v -0.3333333 0.8414931 0.591514
v -0.25 0.7695886 0.633028
v -0.4166666 0.7695886 0.633028
v 0.633028 0.7695886 -0.4166667
v 0.591514 0.8414931 -0.3333333
v 0.591514 0.8414931 -0.1666667
v 0.633028 0.7695886 -0.25
v 0.591514 0.8414931 7.219114E-16
v 0.633028 0.7695886 -0.0833333
v 0.591514 0.8414931 0.1666667
v 0.633028 0.7695886 0.0833333
v 0.633028 0.7695886 0.25
v 0.591514 0.8414931 0.3333333
v 0.633028 0.7695886 0.4166666
v 0.5 0 0.5
v -0.5 0 0.5
v -0.5 0 -0.5
v 0.5 0 -0.5

vn -0.6546537 0.3779645 0.6546537
vn 0.6546537 -0.3779645 -0.6546537
vn 0.6546537 0.3779645 -0.6546537
vn -0.6546537 -0.3779645 0.6546537
vn 0.6546535 0.3779645 0.6546537
vn -0.6546535 -0.3779645 -0.6546537
vn -0.6546537 0.3779645 -0.6546535
vn 0.6546537 -0.3779645 0.6546535
vn -0.8660254 0.4999999 0
vn 0.8660254 -0.4999999 0
vn 0 0.4999999 -0.8660254
vn 0 -0.4999999 0.8660254
vn 0 1 0
vn 0 0.4999999 0.8660254
vn 0 -0.4999999 -0.8660254
vn 0.8660254 0.4999999 0
vn -0.8660254 -0.4999999 0
vn 0 0 1
vn -1 0 0
vn 0 -1 0
vn 0 0 -1
vn 1 0 0

vt -2.547644 19.18708
vt 0 25.92752
vt 2.547644 19.18708
vt 2.547645 19.18708
vt -2.547645 19.18708
vt -4.217249E-11 25.92751
vt 2.547647 19.18708
vt -2.547643 19.18708
vt 1.521009E-06 25.92751
vt 2.547643 19.18708
vt -2.547647 19.18708
vt -1.521016E-06 25.92751
vt -19.68504 17.04715
vt -19.68504 24.25297
vt -16.4042 13.77833
vt -13.12336 17.04715
vt 19.68504 24.25297
vt -6.561681 17.04715
vt -9.84252 13.77833
vt 3.391326E-14 17.04715
vt -3.280838 13.77833
vt 6.561681 17.04715
vt 3.280838 13.77833
vt 9.84252 13.77833
vt 13.12336 17.04715
vt 16.4042 13.77833
vt 19.68504 17.04715
vt -3.336409E-12 17.04715
vt -19.68504 19.68504
vt 19.68504 19.68504
vt -19.68504 -19.68504
vt 19.68504 -19.68504
vt 16.4042 13.77833
vt -5.683218E-15 17.04715
vt -16.4042 13.77833
vt -3.125373E-12 17.04715
vt 19.68504 0
vt -19.68504 0
vt 19.68504 39.37008
vt -19.68504 39.37008
vt 19.68504 4.973799E-12
vt -19.68504 4.973799E-12
vt 19.68504 -4.604317E-12
vt -19.68504 -4.604317E-12

usemtl grass

f 3/3/1 2/2/1 1/1/1
f 1/1/2 2/2/2 3/3/2
f 6/6/3 5/5/3 4/4/3
f 4/4/4 5/5/4 6/6/4
f 9/9/5 8/8/5 7/7/5
f 7/7/6 8/8/6 9/9/6
f 12/12/7 11/11/7 10/10/7
f 10/10/8 11/11/8 12/12/8
f 13/15/9 12/14/9 10/13/9
f 12/14/9 13/15/9 14/16/9
f 12/14/9 14/16/9 2/17/9
f 2/17/9 14/16/9 15/18/9
f 15/18/9 14/16/9 16/19/9
f 2/17/9 15/18/9 17/20/9
f 17/20/9 15/18/9 18/21/9
f 2/17/9 17/20/9 19/22/9
f 19/22/9 17/20/9 20/23/9
f 2/17/9 19/22/9 21/24/9
f 2/17/9 21/24/9 22/25/9
f 2/17/9 22/25/9 23/26/9
f 2/17/9 23/26/9 1/27/9
f 10/13/10 12/14/10 13/15/10
f 14/16/10 13/15/10 12/14/10
f 2/17/10 14/16/10 12/14/10
f 15/18/10 14/16/10 2/17/10
f 16/19/10 14/16/10 15/18/10
f 17/20/10 15/18/10 2/17/10
f 18/21/10 15/18/10 17/20/10
f 19/22/10 17/20/10 2/17/10
f 20/23/10 17/20/10 19/22/10
f 21/24/10 19/22/10 2/17/10
f 22/25/10 21/24/10 2/17/10
f 23/26/10 22/25/10 2/17/10
f 1/27/10 23/26/10 2/17/10
f 11/27/11 25/25/11 24/26/11
f 25/25/11 11/27/11 12/17/11
f 25/25/11 12/17/11 26/22/11
f 26/22/11 27/24/11 25/25/11
f 26/22/11 12/17/11 28/28/11
f 28/28/11 29/23/11 26/22/11
f 28/28/11 12/17/11 30/18/11
f 30/18/11 31/21/11 28/28/11
f 30/18/11 12/17/11 32/16/11
f 32/16/11 33/19/11 30/18/11
f 32/16/11 12/17/11 4/13/11
f 4/13/11 12/17/11 6/14/11
f 4/13/11 34/15/11 32/16/11
f 24/26/12 25/25/12 11/27/12
f 12/17/12 11/27/12 25/25/12
f 26/22/12 12/17/12 25/25/12
f 25/25/12 27/24/12 26/22/12
f 28/28/12 12/17/12 26/22/12
f 26/22/12 29/23/12 28/28/12
f 30/18/12 12/17/12 28/28/12
f 28/28/12 31/21/12 30/18/12
f 32/16/12 12/17/12 30/18/12
f 30/18/12 33/19/12 32/16/12
f 4/13/12 12/17/12 32/16/12
f 32/16/12 34/15/12 4/13/12
f 6/14/12 12/17/12 4/13/12
f 6/31/13 2/30/13 9/29/13
f 2/30/13 6/31/13 12/32/13
f 8/27/14 36/25/14 35/33/14
f 36/25/14 8/27/14 9/17/14
f 36/25/14 9/17/14 37/22/14
f 37/22/14 38/24/14 36/25/14
f 37/22/14 9/17/14 39/34/14
f 39/34/14 40/23/14 37/22/14
f 39/34/14 9/17/14 41/18/14
f 41/18/14 42/21/14 39/34/14
f 41/18/14 9/17/14 43/16/14
f 43/16/14 44/19/14 41/18/14
f 43/16/14 9/17/14 3/13/14
f 3/13/14 9/17/14 2/14/14
f 3/13/14 45/35/14 43/16/14
f 35/33/15 36/25/15 8/27/15
f 9/17/15 8/27/15 36/25/15
f 37/22/15 9/17/15 36/25/15
f 36/25/15 38/24/15 37/22/15
f 39/34/15 9/17/15 37/22/15
f 37/22/15 40/23/15 39/34/15
f 41/18/15 9/17/15 39/34/15
f 39/34/15 42/21/15 41/18/15
f 43/16/15 9/17/15 41/18/15
f 41/18/15 44/19/15 43/16/15
f 3/13/15 9/17/15 43/16/15
f 43/16/15 45/35/15 3/13/15
f 2/14/15 9/17/15 3/13/15
f 6/17/16 46/33/16 5/27/16
f 46/33/16 6/17/16 47/25/16
f 47/25/16 6/17/16 9/14/16
f 47/25/16 9/14/16 48/22/16
f 47/25/16 48/22/16 49/24/16
f 48/22/16 9/14/16 50/36/16
f 48/22/16 50/36/16 51/23/16
f 50/36/16 9/14/16 52/18/16
f 50/36/16 52/18/16 53/21/16
f 52/18/16 9/14/16 54/19/16
f 54/19/16 9/14/16 55/16/16
f 55/16/16 9/14/16 56/35/16
f 56/35/16 9/14/16 7/13/16
f 5/27/17 46/33/17 6/17/17
f 47/25/17 6/17/17 46/33/17
f 9/14/17 6/17/17 47/25/17
f 48/22/17 9/14/17 47/25/17
f 49/24/17 48/22/17 47/25/17
f 50/36/17 9/14/17 48/22/17
f 51/23/17 50/36/17 48/22/17
f 52/18/17 9/14/17 50/36/17
f 53/21/17 52/18/17 50/36/17
f 54/19/17 9/14/17 52/18/17
f 55/16/17 9/14/17 54/19/17
f 56/35/17 9/14/17 55/16/17
f 7/13/17 9/14/17 56/35/17

usemtl dirt

f 9/39/18 58/38/18 57/37/18
f 58/38/18 9/39/18 2/40/18
f 58/37/19 12/40/19 59/38/19
f 12/40/19 58/37/19 2/39/19
f 58/29/20 60/32/20 57/30/20
f 60/32/20 58/29/20 59/31/20
f 12/39/21 60/42/21 59/41/21
f 60/42/21 12/39/21 6/40/21
f 9/40/22 60/43/22 6/39/22
f 60/43/22 9/40/22 57/44/22

