# Created by Kenney (www.kenney.nl)

mtllib blockSnowRoundedLong.mtl

g blockSnowRoundedLong

v 0.9499999 0.01339746 -0.4
v 0.9433012 0.01339746 -0.425
v 0.9 0 -0.4
v 0.9433012 0.01339746 0.425
v 0.9499999 0.01339746 0.4
v 0.9 0 0.4
v 0.925 0.01339746 0.4433013
v -0.9 0 -0.4
v -0.9433012 0.01339746 -0.425
v -0.9499999 0.01339746 -0.4
v -0.9 0.01339746 -0.45
v -0.925 0.01339746 -0.4433013
v 0.9 0.01339746 0.45
v -0.9 0.01339746 0.45
v -0.9 0 0.4
v -0.925 0.01339746 0.4433013
v 0.925 0.01339746 -0.4433013
v 0.9 0.01339746 -0.45
v -0.9433012 0.01339746 0.425
v -0.9499999 0.01339746 0.4
v 0.9 0.1 0.5
v -0.9 0.1 0.5
v 0.9 0.7 0.5
v -0.9 0.7 0.5
v -1 0.1 -0.4
v -1 0.7 -0.4
v -1 0.1 0.4
v -1 0.7 0.4
v 1 0.7 -0.4
v 1 0.1 -0.4
v 1 0.7 0.4
v 1 0.1 0.4
v -0.9866025 0.05 -0.4
v -0.9866025 0.05 0.4
v 0.9 0.05 0.4866025
v -0.9 0.05 0.4866025
v -0.9 0.1 -0.5
v 0.9 0.1 -0.5
v -0.9 0.7 -0.5
v 0.9 0.7 -0.5
v 0.9 0.05 -0.4866025
v -0.9 0.05 -0.4866025
v 0.9866025 0.05 -0.4
v 0.9866025 0.05 0.4
v -0.9866025 0.1 0.45
v -0.9866025 0.7 0.45
v -0.9499999 0.1 0.4866025
v -0.9499999 0.7 0.4866025
v 0.9866025 0.7 0.45
v 0.9866025 0.1 0.45
v 0.9499999 0.1 0.4866025
v 0.9499999 0.7 0.4866025
v 0.9866025 0.1 -0.45
v 0.975 0.05 -0.4433013
v 0.9499999 0.7 -0.4866025
v 0.9499999 0.1 -0.4866025
v 0.9866025 0.7 -0.45
v 0.9433012 0.05 -0.475
v -0.9433012 0.05 -0.475
v -0.975 0.05 -0.4433013
v 0.975 0.05 0.4433013
v 0.9433012 0.05 0.475
v -0.9499999 0.1 -0.4866025
v -0.9499999 0.7 -0.4866025
v -0.9866025 0.1 -0.45
v -0.9866025 0.7 -0.45
v -0.975 0.05 0.4433013
v -0.9433012 0.05 0.475
v -0.9 1 0.4
v -0.9 0.9866025 0.45
v -0.925 0.9866025 0.4433013
v -0.9 0.9866025 -0.45
v -0.9 1 -0.4
v -0.925 0.9866025 -0.4433013
v 0.9433012 0.9866025 -0.425
v 0.9499999 0.9866025 -0.4
v 0.9 1 -0.4
v 0.9 0.9866025 -0.45
v 0.925 0.9866025 -0.4433013
v -0.9433012 0.9866025 -0.425
v -0.9499999 0.9866025 -0.4
v 0.9499999 0.9866025 0.4
v 0.9433012 0.9866025 0.425
v 0.9 1 0.4
v 0.925 0.9866025 0.4433013
v 0.9 0.9866025 0.45
v -0.9433012 0.9866025 0.425
v -0.9499999 0.9866025 0.4
v -0.9 0.9 -0.5
v 0.9 0.9 -0.5
v -1 0.9 -0.4
v -1 0.9 0.4
v 1 0.9 -0.4
v 1 0.9 0.4
v 0.9 0.9 0.5
v -0.9 0.9 0.5
v -0.9 0.9499999 -0.4866025
v 0.9 0.9499999 -0.4866025
v 0.9499999 0.9 -0.4866025
v 0.9866025 0.9 -0.45
v -0.9499999 0.9 -0.4866025
v 0.9 0.9499999 0.4866025
v -0.9 0.9499999 0.4866025
v -0.9866025 0.9499999 -0.4
v -0.9866025 0.9499999 0.4
v -0.9866025 0.9 -0.45
v 0.9866025 0.9499999 -0.4
v 0.9866025 0.9499999 0.4
v -0.9866025 0.9 0.45
v 0.9866025 0.9 0.45
v -0.9499999 0.9 0.4866025
v 0.9499999 0.9 0.4866025
v 0.975 0.9499999 -0.4433013
v 0.9433012 0.9499999 -0.475
v -0.9433012 0.9499999 -0.475
v -0.975 0.9499999 -0.4433013
v 0.9433012 0.9499999 0.475
v 0.975 0.9499999 0.4433013
v -0.9433012 0.9499999 0.475
v -0.975 0.9499999 0.4433013

vn 0.5140254 -0.8549294 -0.06981172
vn 0.4597727 -0.8474345 -0.2654499
vn 0.1453179 -0.9786549 -0.1453179
vn 0.4597727 -0.8474345 0.2654499
vn 0.5140254 -0.8549294 0.06981172
vn 0.1453179 -0.9786549 0.1453179
vn 0.2654499 -0.8474345 0.4597727
vn -0.1453179 -0.9786549 -0.1453179
vn -0.4597727 -0.8474345 -0.2654499
vn -0.5140254 -0.8549294 -0.06981172
vn -0.06981172 -0.8549294 -0.5140254
vn -0.2654499 -0.8474345 -0.4597727
vn 0.06981172 -0.8549294 0.5140254
vn -0.06981172 -0.8549294 0.5140254
vn -0.1453179 -0.9786549 0.1453179
vn -0.2654499 -0.8474345 0.4597727
vn 0.2654499 -0.8474345 -0.4597727
vn 0.06981172 -0.8549294 -0.5140254
vn -0.4597727 -0.8474345 0.2654499
vn -0.5140254 -0.8549294 0.06981172
vn 0 -1 0
vn 0 0 1
vn -1 0 0
vn 1 0 0
vn -0.865321 -0.4883322 -0.1129214
vn -0.865321 -0.4883322 0.1129214
vn 0.1129214 -0.4883322 0.865321
vn -0.1129214 -0.4883322 0.865321
vn 0 0 -1
vn 0.1129214 -0.4883322 -0.865321
vn -0.1129214 -0.4883322 -0.865321
vn 0.865321 -0.4883322 -0.1129214
vn 0.865321 -0.4883322 0.1129214
vn -0.9585266 -0.2568364 -0.1235385
vn -0.9585266 -0.2568364 0.1235385
vn 0.9585266 -0.2568364 -0.1235385
vn 0.9585266 -0.2568364 0.1235385
vn -0.1235385 -0.2568364 -0.9585266
vn 0.1235385 -0.2568364 -0.9585266
vn 0.1235385 -0.2568364 0.9585266
vn -0.1235385 -0.2568364 0.9585266
vn -0.8660254 0 0.5
vn -0.5 0 0.8660254
vn 0.9659258 0 0.258819
vn 0.8660254 0 0.5
vn 0.5 0 0.8660254
vn 0.258819 0 0.9659258
vn -0.258819 0 0.9659258
vn 0.8365163 -0.258819 -0.4829629
vn 0.7586237 -0.4823416 -0.4379916
vn 0.5 0 -0.8660254
vn 0.8660254 0 -0.5
vn 0.4829629 -0.258819 -0.8365163
vn 0.4379916 -0.4823416 -0.7586237
vn -0.9659258 0 0.258819
vn -0.4379916 -0.4823416 -0.7586237
vn -0.7586237 -0.4823416 -0.4379916
vn 0.9659258 0 -0.258819
vn 0.7586237 -0.4823416 0.4379916
vn 0.4379916 -0.4823416 0.7586237
vn 0.8365163 -0.258819 0.4829629
vn 0.4829629 -0.258819 0.8365163
vn -0.5 0 -0.8660254
vn -0.258819 0 -0.9659258
vn 0.258819 0 -0.9659258
vn -0.8660254 0 -0.5
vn -0.9659258 0 -0.258819
vn -0.8365163 -0.258819 -0.4829629
vn -0.4829629 -0.258819 -0.8365163
vn -0.7586237 -0.4823416 0.4379916
vn -0.8365163 -0.258819 0.4829629
vn -0.4379916 -0.4823416 0.7586237
vn -0.4829629 -0.258819 0.8365163
vn -0.1731918 0.9695407 0.1731918
vn -0.1408363 0.8389881 0.5256083
vn -0.2654499 0.8474345 0.4597727
vn -0.06981172 0.8549294 -0.5140254
vn -0.08519387 0.9722424 -0.2179146
vn -0.2654499 0.8474345 -0.4597727
vn 0.4597727 0.8474345 -0.2654499
vn 0.5256083 0.8389881 -0.1408363
vn 0.08519387 0.9722424 -0.2179146
vn 0.06981172 0.8549294 -0.5140254
vn 0.2654499 0.8474345 -0.4597727
vn -0.4597727 0.8474345 -0.2654499
vn -0.5256083 0.8389881 -0.1408363
vn 0.5256083 0.8389881 0.1408363
vn 0.4597727 0.8474345 0.2654499
vn 0.1731918 0.9695407 0.1731918
vn 0.2654499 0.8474345 0.4597727
vn 0.1408363 0.8389881 0.5256083
vn -0.4597727 0.8474345 0.2654499
vn -0.5256083 0.8389881 0.1408363
vn 0 1 0
vn -0.1235385 0.2568364 -0.9585266
vn 0.1235385 0.2568364 -0.9585266
vn -0.1129214 0.4883322 -0.865321
vn 0.1129214 0.4883322 -0.865321
vn 0 0.5 0.8660254
vn 0 0.8660254 0.5
vn -0.9659258 0.258819 0
vn -0.8660254 0.5 0
vn 0 0.258819 0.9659258
vn 0.8660254 0.5 0
vn 0.5 0.8660254 0
vn -0.5 0.8660254 0
vn 0 0.9659258 0.258819
vn -0.258819 0.9659258 0
vn 0.9659258 0.258819 0
vn 0.258819 0.9659258 0
vn 0.7586237 0.4823416 -0.4379916
vn 0.8528062 0.4695798 -0.2285087
vn 0.4379916 0.4823416 -0.7586237
vn -0.4379916 0.4823416 -0.7586237
vn -0.7586237 0.4823416 -0.4379916
vn 0.4829629 0.258819 0.8365163
vn 0.2505628 0.2505628 0.9351131
vn 0.4379916 0.4823416 0.7586237
vn 0.2285087 0.4695798 0.8528062
vn -0.8528062 0.4695798 -0.2285087
vn 0.4829629 0.258819 -0.8365163
vn 0.8365163 0.258819 -0.4829629
vn -0.8365163 0.258819 -0.4829629
vn -0.4829629 0.258819 -0.8365163
vn 0.8365163 0.258819 0.4829629
vn 0.7586237 0.4823416 0.4379916
vn 0.9351131 0.2505628 -0.2505628
vn -0.9351131 0.2505628 -0.2505628
vn 0.8528062 0.4695798 0.2285087
vn -0.4379916 0.4823416 0.7586237
vn -0.7586237 0.4823416 0.4379916
vn 0.9351131 0.2505628 0.2505628
vn -0.8528062 0.4695798 0.2285087
vn -0.2505628 0.2505628 0.9351131
vn -0.4829629 0.258819 0.8365163
vn -0.2285087 0.4695798 0.8528062
vn -0.9351131 0.2505628 0.2505628
vn -0.8365163 0.258819 0.4829629

vt 5.53119 38.8811
vt 6.550163 38.8811
vt 6.040677 36.90787
vt -6.550163 38.8811
vt -5.53119 38.8811
vt -6.040677 36.90787
vt 13.40994 36.84681
vt 14.42891 36.84681
vt 13.91943 34.87358
vt 30.14983 23.49495
vt 29.64034 25.46818
vt 30.65931 25.46818
vt -29.64034 25.46818
vt -30.14983 23.49495
vt -30.65931 25.46818
vt -14.42891 36.84681
vt -13.40994 36.84681
vt -13.91943 34.87358
vt 35.43307 -15.74803
vt -35.43307 -15.74803
vt 35.43307 15.74803
vt -35.43307 15.74803
vt 35.43307 3.937008
vt -35.43307 3.937008
vt 35.43307 27.55906
vt -35.43307 27.55906
vt -15.74803 3.937008
vt -15.74803 27.55906
vt 15.74803 3.937008
vt 15.74803 27.55906
vt -15.74803 28.85782
vt 15.74803 28.85782
vt -15.74803 26.81988
vt 15.74803 26.81988
vt 35.43307 14.9384
vt 35.43307 12.90045
vt -35.43307 14.9384
vt -35.43307 12.90045
vt 15.74803 36.26366
vt 15.74803 34.22572
vt -15.74803 36.26366
vt -15.74803 34.22572
vt -15.74803 11.95464
vt -15.74803 13.99258
vt 15.74803 11.95464
vt 15.74803 13.99258
vt 35.43307 6.859776
vt -35.43307 6.859776
vt 35.43307 8.89772
vt -35.43307 8.89772
vt -35.43307 17.24938
vt 35.43307 17.24938
vt -35.43307 15.21143
vt 35.43307 15.21143
vt -14.9384 3.937008
vt -14.9384 27.55906
vt -12.90045 3.937008
vt -12.90045 27.55906
vt -5.021704 27.55906
vt -5.021704 3.937008
vt -7.059649 27.55906
vt -7.059649 3.937008
vt 31.1688 3.937008
vt 29.13086 3.937008
vt 31.1688 27.55906
vt 29.13086 27.55906
vt 14.9384 3.937008
vt 12.90045 3.937008
vt 14.9384 27.55906
vt 12.90045 27.55906
vt -29.13086 3.937008
vt -31.1688 3.937008
vt -29.13086 27.55906
vt -31.1688 27.55906
vt 7.059649 14.36123
vt 6.923133 12.32786
vt 5.021704 14.36123
vt 5.158221 12.32786
vt -12.90045 13.83227
vt -13.03697 11.7989
vt -14.9384 13.83227
vt -14.80188 11.7989
vt 5.021704 3.937008
vt 5.021704 27.55906
vt 7.059649 3.937008
vt 7.059649 27.55906
vt 13.40994 26.84362
vt 13.03697 28.84714
vt 14.42891 26.84362
vt 14.80188 28.84714
vt 6.923133 30.31383
vt 6.550163 28.3103
vt 5.158221 30.31383
vt 5.53119 28.3103
vt 30.65931 18.63983
vt 29.64034 18.63983
vt 31.03228 20.64335
vt 29.26737 20.64335
vt -5.158221 12.32786
vt -6.923133 12.32786
vt -5.021704 14.36123
vt -7.059649 14.36123
vt 14.80188 11.7989
vt 13.03697 11.7989
vt 14.9384 13.83227
vt 12.90045 13.83227
vt -14.80188 28.84714
vt -13.03697 28.84714
vt -14.42891 26.84362
vt -13.40994 26.84362
vt -6.550163 28.3103
vt -6.923133 30.31383
vt -5.53119 28.3103
vt -5.158221 30.31383
vt 31.03228 8.840174
vt 29.26737 8.840174
vt 31.1688 10.87354
vt 29.13086 10.87354
vt -31.03228 20.64335
vt -29.26737 20.64335
vt -30.65931 18.63983
vt -29.64034 18.63983
vt -29.26737 8.840174
vt -31.03228 8.840174
vt -29.13086 10.87354
vt -31.1688 10.87354
vt -30.14983 -12.97105
vt -29.64034 -14.94428
vt -30.65931 -14.94428
vt 29.64034 -14.94428
vt 30.14983 -12.97105
vt 30.65931 -14.94428
vt 6.550163 -28.35719
vt 5.53119 -28.35719
vt 6.040677 -26.38396
vt -6.550163 -28.35719
vt -6.040677 -26.38396
vt -5.53119 -28.35719
vt 13.40994 -26.32291
vt 13.91943 -24.34968
vt 14.42891 -26.32291
vt -13.40994 -26.32291
vt -14.42891 -26.32291
vt -13.91943 -24.34968
vt 35.43307 35.43307
vt -35.43307 35.43307
vt -15.74803 35.43307
vt 15.74803 35.43307
vt 35.43307 29.13086
vt -35.43307 29.13086
vt 35.43307 31.1688
vt -35.43307 31.1688
vt -12.90045 35.43307
vt -14.9384 35.43307
vt -29.13086 35.43307
vt -31.1688 35.43307
vt -35.43307 -7.059649
vt -35.43307 -5.021704
vt 35.43307 -7.059649
vt 35.43307 -5.021704
vt 31.1688 35.43307
vt 29.13086 35.43307
vt -15.74803 24.03599
vt -15.74803 26.07394
vt 15.74803 24.03599
vt 15.74803 26.07394
vt 14.9384 35.43307
vt 12.90045 35.43307
vt 15.74803 -1.018973
vt -15.74803 -1.018973
vt 15.74803 1.018973
vt -15.74803 1.018973
vt 5.021704 35.43307
vt 7.059649 35.43307
vt -5.021704 35.43307
vt -7.059649 35.43307
vt -15.74803 -24.03599
vt 15.74803 -24.03599
vt -15.74803 -26.07394
vt 15.74803 -26.07394
vt 6.923133 -1.996716
vt 5.158221 -1.996716
vt 6.550163 0.006809517
vt 5.53119 0.006809517
vt -31.03228 7.673757
vt -30.65931 9.677282
vt -29.26737 7.673757
vt -29.64034 9.677282
vt 13.40994 1.473492
vt 14.42891 1.473492
vt 13.03697 -0.5300335
vt 14.80188 -0.5300335
vt 31.1688 27.24064
vt 29.13086 27.24064
vt 31.03228 29.27401
vt 29.26737 29.27401
vt -6.550163 0.006809517
vt -5.53119 0.006809517
vt -6.923133 -1.996716
vt -5.158221 -1.996716
vt -12.90045 24.28192
vt -14.9384 24.28192
vt -13.03697 26.31529
vt -14.80188 26.31529
vt 14.9384 24.28192
vt 12.90045 24.28192
vt 14.80188 26.31529
vt 13.03697 26.31529
vt -14.80188 -0.5300335
vt -14.42891 1.473492
vt -13.03697 -0.5300335
vt -13.40994 1.473492
vt 7.059649 23.75295
vt 5.021704 23.75295
vt 6.923133 25.78632
vt 5.158221 25.78632
vt -7.059649 23.75295
vt -6.923133 25.78632
vt -5.021704 23.75295
vt -5.158221 25.78632
vt 31.03228 7.673757
vt 29.26737 7.673757
vt 30.65931 9.677282
vt 29.64034 9.677282
vt -29.13086 27.24064
vt -31.1688 27.24064
vt -29.26737 29.27401
vt -31.03228 29.27401

usemtl dirt

f 3/3/3 2/2/2 1/1/1
f 6/6/6 5/5/5 4/4/4
f 6/9/6 4/8/4 7/7/7
f 10/5/10 9/4/9 8/6/8
f 12/12/12 11/11/11 8/10/8
f 9/8/9 12/7/12 8/9/8
f 13/11/13 6/10/6 7/12/7
f 16/15/16 15/14/15 14/13/14
f 3/14/3 18/13/18 17/15/17
f 3/18/3 17/17/17 2/16/2
f 19/16/19 15/18/15 16/17/16
f 20/1/20 15/3/15 19/2/19
f 6/21/21 8/20/21 3/19/21
f 8/20/21 6/21/21 15/22/21
f 23/25/22 22/24/22 21/23/22
f 22/24/22 23/25/22 24/26/22
f 27/29/23 26/28/23 25/27/23
f 26/28/23 27/29/23 28/30/23
f 31/28/24 30/29/24 29/30/24
f 30/29/24 31/28/24 32/27/24
f 10/33/10 34/32/26 33/31/25
f 34/32/26 10/33/10 20/34/20
f 36/37/28 13/36/13 35/35/27
f 13/36/13 36/37/28 14/38/14
f 5/41/5 3/40/3 1/39/1
f 3/40/3 5/41/5 6/42/6
f 39/25/29 38/24/29 37/23/29
f 38/24/29 39/25/29 40/26/29
f 11/36/11 41/37/30 18/38/18
f 41/37/30 11/36/11 42/35/31
f 44/31/33 1/34/1 43/32/32
f 1/34/1 44/31/33 5/33/5
f 15/40/15 10/41/10 8/42/8
f 10/41/10 15/40/15 20/39/20
f 34/45/26 25/44/34 33/43/25
f 25/44/34 34/45/26 27/46/35
f 30/46/36 44/43/33 43/45/32
f 44/43/33 30/46/36 32/44/37
f 37/49/38 41/48/30 42/47/31
f 41/48/30 37/49/38 38/50/39
f 3/53/3 11/52/11 18/51/18
f 11/52/11 3/53/3 8/54/8
f 21/49/40 36/48/28 35/47/27
f 36/48/28 21/49/40 22/50/41
f 13/52/13 15/53/15 6/54/6
f 15/53/15 13/52/13 14/51/14
f 47/57/43 46/56/42 45/55/42
f 46/56/42 47/57/43 48/58/43
f 49/61/45 32/60/44 31/59/44
f 32/60/44 49/61/45 50/62/45
f 52/65/46 21/64/47 51/63/46
f 21/64/47 52/65/46 23/66/47
f 49/69/45 51/68/46 50/67/45
f 51/68/46 49/69/45 52/70/46
f 24/73/48 47/72/43 22/71/48
f 47/72/43 24/73/48 48/74/43
f 30/77/36 54/76/50 53/75/49
f 54/76/50 30/77/36 43/78/32
f 57/56/52 56/57/51 55/58/51
f 56/57/51 57/56/52 53/55/52
f 53/81/49 58/80/54 56/79/53
f 58/80/54 53/81/49 54/82/50
f 45/85/42 28/84/55 27/83/55
f 28/84/55 45/85/42 46/86/42
f 9/89/9 59/88/56 12/87/12
f 59/88/56 9/89/9 60/90/57
f 43/93/32 2/92/2 54/91/50
f 2/92/2 43/93/32 1/94/1
f 29/84/58 53/85/52 57/86/52
f 53/85/52 29/84/58 30/83/58
f 62/88/60 4/89/4 61/90/59
f 4/89/4 62/88/60 7/87/7
f 59/97/56 11/96/11 12/95/12
f 11/96/11 59/97/56 42/98/31
f 62/97/60 13/96/13 7/95/7
f 13/96/13 62/97/60 35/98/27
f 32/101/37 61/100/59 44/99/33
f 61/100/59 32/101/37 50/102/61
f 50/105/61 62/104/60 61/103/59
f 62/104/60 50/105/61 51/106/62
f 64/65/63 37/64/64 63/63/63
f 37/64/64 64/65/63 39/66/64
f 2/109/2 58/108/54 54/107/50
f 58/108/54 2/109/2 17/110/17
f 10/113/10 60/112/57 9/111/9
f 60/112/57 10/113/10 33/114/25
f 61/112/59 5/113/5 44/114/33
f 5/113/5 61/112/59 4/111/4
f 51/117/62 35/116/27 62/115/60
f 35/116/27 51/117/62 21/118/40
f 40/73/65 56/72/51 38/71/65
f 56/72/51 40/73/65 55/74/51
f 25/60/67 66/61/66 65/62/66
f 66/61/66 25/60/67 26/59/67
f 66/69/66 63/68/63 65/67/66
f 63/68/63 66/69/66 64/70/63
f 65/105/68 59/104/56 60/103/57
f 59/104/56 65/105/68 63/106/69
f 60/100/57 25/101/34 65/102/68
f 25/101/34 60/100/57 33/99/25
f 63/117/69 42/116/31 59/115/56
f 42/116/31 63/117/69 37/118/38
f 17/121/17 41/120/30 58/119/54
f 41/120/30 17/121/17 18/122/18
f 38/125/39 58/124/54 41/123/30
f 58/124/54 38/125/39 56/126/53
f 67/76/70 27/77/35 34/78/26
f 27/77/35 67/76/70 45/75/71
f 68/108/72 19/109/19 16/110/16
f 19/109/19 68/108/72 67/107/70
f 68/80/72 45/81/71 67/82/70
f 45/81/71 68/80/72 47/79/73
f 36/120/28 16/121/16 14/122/14
f 16/121/16 36/120/28 68/119/72
f 20/94/20 67/91/70 34/93/26
f 67/91/70 20/94/20 19/92/19
f 22/125/41 68/124/72 36/123/28
f 68/124/72 22/125/41 47/126/73

usemtl snow

f 71/129/76 70/128/75 69/127/74
f 74/132/79 73/131/78 72/130/77
f 77/135/82 76/134/81 75/133/80
f 77/127/82 79/129/84 78/128/83
f 81/138/86 73/137/78 80/136/85
f 80/141/85 73/140/78 74/139/79
f 77/144/82 75/143/80 79/142/84
f 84/137/89 83/136/88 82/138/87
f 84/140/89 85/139/90 83/141/88
f 86/130/91 85/132/90 84/131/89
f 88/134/93 87/133/92 69/135/74
f 87/143/92 71/142/76 69/144/74
f 89/145/29 40/26/29 39/25/29
f 40/26/29 89/145/29 90/146/29
f 73/19/94 84/22/94 77/20/94
f 84/22/94 73/19/94 69/21/94
f 28/30/23 91/147/23 26/28/23
f 91/147/23 28/30/23 92/148/23
f 94/147/24 29/30/24 93/148/24
f 29/30/24 94/147/24 31/28/24
f 95/145/22 24/26/22 23/25/22
f 24/26/22 95/145/22 96/146/22
f 97/151/97 90/150/96 89/149/95
f 90/150/96 97/151/97 98/152/98
f 100/154/52 55/58/51 99/153/51
f 55/58/51 100/154/52 57/56/52
f 72/35/77 98/38/98 97/36/97
f 98/38/98 72/35/77 78/37/83
f 90/155/65 55/74/51 40/73/65
f 55/74/51 90/155/65 99/156/51
f 72/159/77 77/158/82 78/157/83
f 77/158/82 72/159/77 73/160/78
f 101/161/63 39/66/64 64/65/63
f 39/66/64 101/161/63 89/162/64
f 86/35/100 103/38/99 102/36/99
f 103/38/99 86/35/100 70/37/100
f 92/165/101 104/164/102 91/163/101
f 104/164/102 92/165/101 105/166/102
f 102/151/99 96/150/103 95/149/103
f 96/150/103 102/151/99 103/152/99
f 106/167/66 64/70/63 66/69/66
f 64/70/63 106/167/66 101/168/63
f 76/171/105 108/170/104 107/169/104
f 108/170/104 76/171/105 82/172/105
f 105/169/102 81/172/106 104/170/102
f 81/172/106 105/169/102 88/171/106
f 46/86/42 92/173/55 28/84/55
f 92/173/55 46/86/42 109/174/42
f 110/176/45 31/59/44 94/175/44
f 31/59/44 110/176/45 49/61/45
f 96/155/48 48/74/43 24/73/48
f 48/74/43 96/155/48 111/156/43
f 93/173/58 57/86/52 100/174/52
f 57/86/52 93/173/58 29/84/58
f 69/158/107 86/159/100 84/160/107
f 86/159/100 69/158/107 70/157/100
f 48/58/43 109/154/42 46/56/42
f 109/154/42 48/58/43 111/153/43
f 81/179/106 69/178/108 73/177/108
f 69/178/108 81/179/106 88/180/106
f 108/164/104 93/165/109 107/166/104
f 93/165/109 108/164/104 94/163/109
f 26/59/67 106/176/66 66/61/66
f 106/176/66 26/59/67 91/175/67
f 112/161/46 23/66/47 52/65/46
f 23/66/47 112/161/46 95/162/47
f 77/178/110 82/179/105 76/180/105
f 82/179/105 77/178/110 84/177/110
f 110/167/45 52/70/46 49/69/45
f 52/70/46 110/167/45 112/168/46
f 75/183/80 107/182/112 113/181/111
f 107/182/112 75/183/80 76/184/81
f 98/187/98 79/186/84 114/185/113
f 79/186/84 98/187/98 78/188/83
f 115/191/114 80/190/85 74/189/79
f 80/190/85 115/191/114 116/192/115
f 117/195/118 95/194/117 112/193/116
f 95/194/117 117/195/118 102/196/119
f 116/199/115 81/198/86 80/197/85
f 81/198/86 116/199/115 104/200/120
f 114/203/113 100/202/122 99/201/121
f 100/202/122 114/203/113 113/204/111
f 116/207/115 101/206/124 106/205/123
f 101/206/124 116/207/115 115/208/114
f 118/207/126 112/206/116 110/205/125
f 112/206/116 118/207/126 117/208/118
f 114/211/113 75/210/80 113/209/111
f 75/210/80 114/211/113 79/212/84
f 115/195/114 89/194/95 101/193/124
f 89/194/95 115/195/114 97/196/97
f 113/215/111 93/214/127 100/213/122
f 93/214/127 113/215/111 107/216/112
f 83/190/88 117/191/118 118/192/126
f 117/191/118 83/190/88 85/189/90
f 91/219/128 116/218/115 106/217/123
f 116/218/115 91/219/128 104/220/120
f 82/198/87 118/199/126 108/200/129
f 118/199/126 82/198/87 83/197/88
f 74/223/79 97/222/97 115/221/114
f 97/222/97 74/223/79 72/224/77
f 98/227/98 99/226/121 90/225/96
f 99/226/121 98/227/98 114/228/113
f 87/210/92 119/211/130 71/212/76
f 119/211/130 87/210/92 120/209/131
f 118/218/126 94/219/132 108/220/129
f 94/219/132 118/218/126 110/217/125
f 120/181/131 88/184/93 105/182/133
f 88/184/93 120/181/131 87/183/92
f 85/223/90 102/222/119 117/221/118
f 102/222/119 85/223/90 86/224/91
f 103/227/136 111/226/135 96/225/134
f 111/226/135 103/227/136 119/228/130
f 71/186/76 103/187/136 70/188/75
f 103/187/136 71/186/76 119/185/130
f 109/213/138 105/216/133 92/214/137
f 105/216/133 109/213/138 120/215/131
f 109/202/138 119/203/130 120/204/131
f 119/203/130 109/202/138 111/201/135

