# Created by Kenney (www.kenney.nl)

mtllib blockSnowEnd.mtl

g blockSnowEnd

v 0.5 0.5 0
v 0.5 5.414336E-16 0
v 0 0.5 0.5
v 0 2.707168E-16 0.5
v -0.5 0 -0.5
v -0.5 0.5 -0.5
v -0.5 2.707168E-16 0
v -0.5 0.5 0
v 0.5 0 -0.5
v 0.5 0.5 -0.5
v -0.591514 0.3414931 0
v -0.56471 0.3414931 0.0647101
v 0.0647102 0.3414931 0.56471
v -0.0647101 0.3414931 0.56471
v 0.5 0.3414931 -0.591514
v 0.591514 0.3414931 -0.5
v 0.591514 0.3414931 0
v 0.5647101 0.3414931 0.0647101
v -0.591514 0.3414931 -0.5
v -0.5 0.3414931 -0.591514
v -0.539362 0.3546042 0.0793534
v -0.5145 0.3654097 0.0953923
v -0.4902329 0.3738629 0.1127575
v -0.4666652 0.3799272 0.1313738
v -0.4438989 0.3835762 0.1511607
v -0.4220325 0.3847944 0.1720325
v -0.4011607 0.3835762 0.1938989
v -0.3813738 0.3799272 0.2166652
v -0.3627575 0.3738629 0.240233
v -0.3453923 0.3654097 0.2645002
v -0.3293533 0.3546042 0.2893618
v -0.3000669 0.328382 0.3400586
v -0.284028 0.3175765 0.3649201
v -0.2666628 0.3091233 0.3891874
v -0.2480465 0.303059 0.4127551
v -0.2282596 0.29941 0.4355215
v -0.2073878 0.2981918 0.4573879
v -0.1855214 0.29941 0.4782597
v -0.1627551 0.303059 0.4980465
v -0.1391873 0.3091233 0.516663
v -0.1149201 0.3175765 0.534028
v -0.0900586 0.328382 0.550067
v 0.4573878 0.2981918 0.2073878
v 0.4355214 0.29941 0.2282596
v 0.4782597 0.29941 0.1855214
v 0.4980465 0.303059 0.1627551
v 0.4127551 0.303059 0.2480465
v 0.5166628 0.3091233 0.1391873
v 0.3891874 0.3091233 0.2666628
v 0.534028 0.3175765 0.1149201
v 0.3649202 0.3175765 0.284028
v 0.5500669 0.328382 0.0900586
v 0.3400586 0.328382 0.3000669
v 0.3147102 0.3414931 0.3147101
v 0.2893618 0.3546042 0.3293533
v 0.2645002 0.3654097 0.3453923
v 0.240233 0.3738629 0.3627575
v 0.2166652 0.3799272 0.3813738
v 0.1938989 0.3835762 0.4011607
v 0.1720325 0.3847944 0.4220325
v 0.1511607 0.3835762 0.4438989
v 0.1313738 0.3799272 0.4666652
v 0.1127575 0.3738629 0.4902329
v 0.0953923 0.3654097 0.5145
v 0.0793534 0.3546042 0.539362
v 0.5990837 0.328382 -0.4800042
v 0.6053223 0.3175765 -0.4595539
v 0.6102027 0.3091233 -0.4387378
v 0.6137039 0.303059 -0.4176457
v 0.6158107 0.29941 -0.3963691
v 0.616514 0.2981918 -0.375
v 0.6158107 0.29941 -0.3536309
v 0.6137039 0.303059 -0.3323543
v 0.6102027 0.3091233 -0.3112623
v 0.6053223 0.3175765 -0.2904461
v 0.5839443 0.3546042 -0.2300042
v 0.591514 0.3414931 -0.25
v 0.5990837 0.328382 -0.2699958
v 0.5777057 0.3654097 -0.209554
v 0.5728253 0.3738629 -0.1887378
v 0.5693241 0.3799272 -0.1676457
v 0.5672172 0.3835762 -0.1463691
v 0.566514 0.3847944 -0.125
v 0.5672172 0.3835762 -0.1036309
v 0.5693241 0.3799272 -0.0823543
v 0.5728253 0.3738629 -0.0612622
v 0.5777057 0.3654097 -0.0404461
v 0.5839443 0.3546042 -0.0199958
v -0.583944 0.3546042 -0.4800042
v -0.577706 0.3654097 -0.4595539
v -0.572825 0.3738629 -0.4387378
v -0.569324 0.3799272 -0.4176457
v -0.567217 0.3835762 -0.3963691
v -0.566514 0.3847944 -0.375
v -0.567217 0.3835762 -0.3536309
v -0.569324 0.3799272 -0.3323543
v -0.572825 0.3738629 -0.3112623
v -0.577706 0.3654097 -0.2904461
v -0.583944 0.3546042 -0.2699958
v -0.599084 0.328382 -0.2300042
v -0.605322 0.3175765 -0.209554
v -0.610203 0.3091233 -0.1887378
v -0.613704 0.303059 -0.1676457
v -0.615811 0.29941 -0.1463691
v -0.616514 0.2981918 -0.125
v -0.615811 0.29941 -0.1036309
v -0.613704 0.303059 -0.0823543
v -0.610203 0.3091233 -0.0612622
v -0.605322 0.3175765 -0.0404461
v -0.599084 0.328382 -0.0199958
v -0.25 0.2981918 -0.616514
v -0.2072618 0.29941 -0.6158107
v -0.2927382 0.29941 -0.6158107
v -0.3352913 0.303059 -0.6137039
v -0.1647086 0.303059 -0.6137039
v -0.3774755 0.3091233 -0.6102027
v -0.1225245 0.3091233 -0.6102027
v -0.4191079 0.3175765 -0.6053223
v -0.0808921 0.3175765 -0.6053223
v -0.4600083 0.328382 -0.5990837
v -0.0399916 0.328382 -0.5990837
v 0.0399916 0.3546042 -0.5839443
v 0.0808921 0.3654097 -0.5777057
v 0.1225245 0.3738629 -0.5728253
v 0.1647086 0.3799272 -0.5693241
v 0.2072618 0.3835762 -0.5672172
v 0.25 0.3847944 -0.566514
v 0.2927382 0.3835762 -0.5672172
v 0.3352914 0.3799272 -0.5693241
v 0.3774755 0.3738629 -0.5728253
v 0.4191079 0.3654097 -0.5777057
v 0.4600084 0.3546042 -0.5839443

vn 0.7071068 0 0.7071068
vn -1 0 0
vn 0 -1 0
vn -0.7071068 0 0.7071068
vn 0 0 -1
vn 1 0 0
vn -0.8151639 0.4706351 0.3376544
vn 0.8151639 -0.4706351 -0.3376544
vn 0 0.3779636 0.9258204
vn 0 -0.3779636 -0.9258204
vn 0.6546537 0.3779645 -0.6546537
vn -0.6546537 -0.3779645 0.6546537
vn 0.8151644 0.4706354 0.3376526
vn -0.8151644 -0.4706354 -0.3376526
vn -0.6546537 0.3779645 -0.6546535
vn 0.6546537 -0.3779645 0.6546535
vn -0.6123725 0.5 0.6123724
vn 0.6123725 -0.5 -0.6123724
vn 0.6123725 0.5 0.6123725
vn -0.6123725 -0.5 -0.6123725
vn 0.8660254 0.5 0
vn -0.8660254 -0.5 0
vn -0.8660251 0.5000005 -3.560154E-07
vn 0.8660251 -0.5000005 3.560154E-07
vn 0 0.5 -0.8660254
vn 0 -0.5 0.8660254
vn 0 1 0

vt 13.91943 19.68504
vt 13.91943 2.131628E-14
vt -13.91943 19.68504
vt -13.91943 1.065814E-14
vt -19.68504 0
vt -19.68504 19.68504
vt 0 1.065814E-14
vt 0 19.68504
vt 19.68504 -19.68504
vt -19.68504 -19.68504
vt 19.68504 6.49201E-30
vt 1.442669E-30 19.68504
vt -19.68504 4.63715E-30
vt 13.91943 1.065814E-14
vt 19.68504 9.919177E-12
vt -19.68504 9.919177E-12
vt 19.68504 19.68504
vt 19.68504 -9.208634E-12
vt -4.658379E-24 19.68504
vt -4.658379E-24 -9.187318E-12
vt -8.91197 1.736729
vt -7.533186 8.809416
vt -6.154419 1.736729
vt 2.547646 4.044152
vt -2.547642 4.044152
vt -4.665198E-17 10.78458
vt 2.547645 0.962274
vt -2.547645 0.962274
vt -2.319389E-11 7.702708
vt 7.533148 8.809398
vt 8.911925 1.73671
vt 6.154377 1.73671
vt 2.547643 0.9622746
vt -2.547647 0.9622746
vt -1.520817E-06 7.702709
vt -13.91942 2.882208
vt -13.91942 10.08803
vt -12.80611 3.478241
vt -11.66748 3.969472
vt -10.50848 4.353759
vt -9.334126 4.629445
vt 13.91943 10.08803
vt -8.149494 4.795331
vt -6.959712 4.85071
vt -5.769929 4.795331
vt -4.585297 4.629445
vt -3.41094 4.353757
vt -2.251942 3.96947
vt -1.113317 3.478245
vt 1.113324 2.286166
vt 2.251944 1.794942
vt 3.410945 1.410653
vt 4.585299 1.134967
vt 5.769934 0.9690794
vt 6.959716 0.9137
vt 8.149498 0.9690794
vt 9.334127 1.134967
vt 10.50849 1.410651
vt 13.91942 2.882209
vt 11.66748 1.794942
vt 12.80611 2.286165
vt 6.959714 0.9137017
vt 5.769932 0.9690809
vt 8.149496 0.969081
vt 9.334127 1.134967
vt 4.585299 1.134967
vt 10.50848 1.410654
vt 3.410944 1.410653
vt 11.66748 1.794942
vt 2.251946 1.794941
vt 12.8061 2.286166
vt 1.113323 2.286167
vt 13.91943 2.882207
vt 3.252939E-06 2.882206
vt -1.113317 3.478246
vt -2.251943 3.96947
vt -3.410941 4.353758
vt -4.585298 4.629446
vt -5.769929 4.795331
vt -6.959712 4.850711
vt -13.91942 10.08803
vt -8.149494 4.795331
vt -9.334126 4.629446
vt -10.50848 4.353759
vt -11.66748 3.969473
vt -12.80611 3.478242
vt -13.91942 2.882208
vt 19.68504 7.205225
vt 19.68504 -0.0006021772
vt 2.321286E-07 7.205225
vt 18.8978 -0.5966414
vt 18.09267 -1.087867
vt 17.27314 -1.472154
vt 16.44275 -1.74784
vt 15.60508 -1.913727
vt 14.76378 -1.969107
vt 13.92248 -1.913727
vt 13.08482 -1.747841
vt 12.25442 -1.472154
vt 11.43489 -1.087867
vt 9.055284 0.5954369
vt 9.84252 -0.0006022353
vt 10.62976 -0.5966414
vt 8.250157 1.086662
vt 7.430622 1.47095
vt 6.600224 1.746637
vt 5.762563 1.912524
vt 4.92126 1.967903
vt 4.079957 1.912524
vt 3.242296 1.746637
vt 2.411898 1.47095
vt 1.592366 1.086662
vt 0.7872365 0.5954369
vt 2.746146E-07 -0.0006022933
vt -19.68503 -0.0006217214
vt -19.68503 7.205205
vt -18.89779 0.5954235
vt -18.09266 1.086638
vt -17.27313 1.470937
vt -16.44274 1.746619
vt 8.092349E-06 7.205209
vt -15.60507 1.91251
vt -14.76377 1.967884
vt -13.92247 1.912511
vt -13.08481 1.74662
vt -12.25441 1.470938
vt -11.43488 1.086639
vt -10.62975 0.5954252
vt -9.055274 -0.5966647
vt -8.250148 -1.087879
vt -7.430612 -1.472177
vt -6.600214 -1.747859
vt -5.762553 -1.91375
vt -4.92125 -1.969124
vt -4.079947 -1.91375
vt -3.242285 -1.747859
vt -2.411888 -1.472176
vt -1.592356 -1.087877
vt -0.7872265 -0.5966629
vt 9.573476E-06 -0.0006176753
vt 9.84252 -1.969107
vt 8.159913 -1.913727
vt 11.52513 -1.913727
vt 13.20045 -1.747841
vt 6.484591 -1.747841
vt 14.86124 -1.472154
vt 4.823799 -1.472154
vt 16.50031 -1.087867
vt 3.184728 -1.087867
vt 18.11056 -0.5966414
vt 1.574473 -0.5966414
vt 19.68504 -0.0006021941
vt -1.574472 0.5954369
vt -3.184728 1.086662
vt -4.823799 1.47095
vt -6.484591 1.746637
vt -8.159913 1.912524
vt -9.84252 1.967903
vt -19.68504 7.205225
vt -11.52513 1.912524
vt -13.20045 1.746637
vt -14.86124 1.47095
vt -16.50031 1.086662
vt -18.11057 0.5954369
vt -19.68504 -0.0006023126
vt 19.68504 0

usemtl dirt

f 3/3/1 2/2/1 1/1/1
f 2/2/1 3/3/1 4/4/1
f 7/7/2 6/6/2 5/5/2
f 6/6/2 7/7/2 8/8/2
f 2/11/3 5/10/3 9/9/3
f 5/10/3 2/11/3 4/12/3
f 5/10/3 4/12/3 7/13/3
f 4/14/4 8/3/4 7/4/4
f 8/3/4 4/14/4 3/1/4
f 6/17/5 9/16/5 5/15/5
f 9/16/5 6/17/5 10/6/5
f 1/19/6 9/18/6 10/17/6
f 9/18/6 1/19/6 2/20/6

usemtl snow

f 12/23/7 8/22/7 11/21/7
f 11/21/8 8/22/8 12/23/8
f 3/26/9 14/25/9 13/24/9
f 13/24/10 14/25/10 3/26/10
f 10/29/11 16/28/11 15/27/11
f 15/27/12 16/28/12 10/29/12
f 18/32/13 17/31/13 1/30/13
f 1/30/14 17/31/14 18/32/14
f 6/35/15 20/34/15 19/33/15
f 19/33/16 20/34/16 6/35/16
f 21/38/17 8/37/17 12/36/17
f 22/39/17 8/37/17 21/38/17
f 23/40/17 8/37/17 22/39/17
f 24/41/17 8/37/17 23/40/17
f 8/37/17 24/41/17 3/42/17
f 3/42/17 24/41/17 25/43/17
f 3/42/17 25/43/17 26/44/17
f 3/42/17 26/44/17 27/45/17
f 3/42/17 27/45/17 28/46/17
f 3/42/17 28/46/17 29/47/17
f 3/42/17 29/47/17 30/48/17
f 3/42/17 30/48/17 31/49/17
f 3/42/17 31/49/17 32/50/17
f 3/42/17 32/50/17 33/51/17
f 3/42/17 33/51/17 34/52/17
f 3/42/17 34/52/17 35/53/17
f 3/42/17 35/53/17 36/54/17
f 3/42/17 36/54/17 37/55/17
f 3/42/17 37/55/17 38/56/17
f 3/42/17 38/56/17 39/57/17
f 3/42/17 39/57/17 40/58/17
f 3/42/17 40/58/17 14/59/17
f 14/59/17 40/58/17 41/60/17
f 14/59/17 41/60/17 42/61/17
f 12/36/18 8/37/18 21/38/18
f 21/38/18 8/37/18 22/39/18
f 22/39/18 8/37/18 23/40/18
f 23/40/18 8/37/18 24/41/18
f 3/42/18 24/41/18 8/37/18
f 25/43/18 24/41/18 3/42/18
f 26/44/18 25/43/18 3/42/18
f 27/45/18 26/44/18 3/42/18
f 28/46/18 27/45/18 3/42/18
f 29/47/18 28/46/18 3/42/18
f 30/48/18 29/47/18 3/42/18
f 31/49/18 30/48/18 3/42/18
f 32/50/18 31/49/18 3/42/18
f 33/51/18 32/50/18 3/42/18
f 34/52/18 33/51/18 3/42/18
f 35/53/18 34/52/18 3/42/18
f 36/54/18 35/53/18 3/42/18
f 37/55/18 36/54/18 3/42/18
f 38/56/18 37/55/18 3/42/18
f 39/57/18 38/56/18 3/42/18
f 40/58/18 39/57/18 3/42/18
f 14/59/18 40/58/18 3/42/18
f 41/60/18 40/58/18 14/59/18
f 42/61/18 41/60/18 14/59/18
f 45/64/19 44/63/19 43/62/19
f 44/63/19 45/64/19 46/65/19
f 44/63/19 46/65/19 47/66/19
f 47/66/19 46/65/19 48/67/19
f 47/66/19 48/67/19 49/68/19
f 49/68/19 48/67/19 50/69/19
f 49/68/19 50/69/19 51/70/19
f 51/70/19 50/69/19 52/71/19
f 51/70/19 52/71/19 53/72/19
f 53/72/19 52/71/19 18/73/19
f 53/72/19 18/73/19 54/74/19
f 54/74/19 18/73/19 1/42/19
f 54/74/19 1/42/19 55/75/19
f 55/75/19 1/42/19 56/76/19
f 56/76/19 1/42/19 57/77/19
f 57/77/19 1/42/19 58/78/19
f 58/78/19 1/42/19 59/79/19
f 59/79/19 1/42/19 60/80/19
f 3/81/19 60/80/19 1/42/19
f 3/81/19 61/82/19 60/80/19
f 3/81/19 62/83/19 61/82/19
f 3/81/19 63/84/19 62/83/19
f 3/81/19 64/85/19 63/84/19
f 3/81/19 65/86/19 64/85/19
f 65/86/19 3/81/19 13/87/19
f 43/62/20 44/63/20 45/64/20
f 46/65/20 45/64/20 44/63/20
f 47/66/20 46/65/20 44/63/20
f 48/67/20 46/65/20 47/66/20
f 49/68/20 48/67/20 47/66/20
f 50/69/20 48/67/20 49/68/20
f 51/70/20 50/69/20 49/68/20
f 52/71/20 50/69/20 51/70/20
f 53/72/20 52/71/20 51/70/20
f 18/73/20 52/71/20 53/72/20
f 54/74/20 18/73/20 53/72/20
f 1/42/20 18/73/20 54/74/20
f 55/75/20 1/42/20 54/74/20
f 56/76/20 1/42/20 55/75/20
f 57/77/20 1/42/20 56/76/20
f 58/78/20 1/42/20 57/77/20
f 59/79/20 1/42/20 58/78/20
f 60/80/20 1/42/20 59/79/20
f 1/42/20 60/80/20 3/81/20
f 60/80/20 61/82/20 3/81/20
f 61/82/20 62/83/20 3/81/20
f 62/83/20 63/84/20 3/81/20
f 63/84/20 64/85/20 3/81/20
f 64/85/20 65/86/20 3/81/20
f 13/87/20 3/81/20 65/86/20
f 1/90/21 16/89/21 10/88/21
f 16/89/21 1/90/21 66/91/21
f 66/91/21 1/90/21 67/92/21
f 67/92/21 1/90/21 68/93/21
f 68/93/21 1/90/21 69/94/21
f 69/94/21 1/90/21 70/95/21
f 70/95/21 1/90/21 71/96/21
f 71/96/21 1/90/21 72/97/21
f 72/97/21 1/90/21 73/98/21
f 73/98/21 1/90/21 74/99/21
f 74/99/21 1/90/21 75/100/21
f 75/100/21 1/90/21 76/101/21
f 75/100/21 76/101/21 77/102/21
f 75/100/21 77/102/21 78/103/21
f 76/101/21 1/90/21 79/104/21
f 79/104/21 1/90/21 80/105/21
f 80/105/21 1/90/21 81/106/21
f 81/106/21 1/90/21 82/107/21
f 82/107/21 1/90/21 83/108/21
f 83/108/21 1/90/21 84/109/21
f 84/109/21 1/90/21 85/110/21
f 85/110/21 1/90/21 86/111/21
f 86/111/21 1/90/21 87/112/21
f 87/112/21 1/90/21 88/113/21
f 88/113/21 1/90/21 17/114/21
f 10/88/22 16/89/22 1/90/22
f 66/91/22 1/90/22 16/89/22
f 67/92/22 1/90/22 66/91/22
f 68/93/22 1/90/22 67/92/22
f 69/94/22 1/90/22 68/93/22
f 70/95/22 1/90/22 69/94/22
f 71/96/22 1/90/22 70/95/22
f 72/97/22 1/90/22 71/96/22
f 73/98/22 1/90/22 72/97/22
f 74/99/22 1/90/22 73/98/22
f 75/100/22 1/90/22 74/99/22
f 76/101/22 1/90/22 75/100/22
f 77/102/22 76/101/22 75/100/22
f 78/103/22 77/102/22 75/100/22
f 79/104/22 1/90/22 76/101/22
f 80/105/22 1/90/22 79/104/22
f 81/106/22 1/90/22 80/105/22
f 82/107/22 1/90/22 81/106/22
f 83/108/22 1/90/22 82/107/22
f 84/109/22 1/90/22 83/108/22
f 85/110/22 1/90/22 84/109/22
f 86/111/22 1/90/22 85/110/22
f 87/112/22 1/90/22 86/111/22
f 88/113/22 1/90/22 87/112/22
f 17/114/22 1/90/22 88/113/22
f 89/117/23 6/116/23 19/115/23
f 6/116/23 89/117/23 90/118/23
f 6/116/23 90/118/23 91/119/23
f 6/116/23 91/119/23 92/120/23
f 6/116/23 92/120/23 8/121/23
f 8/121/23 92/120/23 93/122/23
f 8/121/23 93/122/23 94/123/23
f 8/121/23 94/123/23 95/124/23
f 8/121/23 95/124/23 96/125/23
f 8/121/23 96/125/23 97/126/23
f 8/121/23 97/126/23 98/127/23
f 8/121/23 98/127/23 99/128/23
f 8/121/23 99/128/23 100/129/23
f 8/121/23 100/129/23 101/130/23
f 8/121/23 101/130/23 102/131/23
f 8/121/23 102/131/23 103/132/23
f 8/121/23 103/132/23 104/133/23
f 8/121/23 104/133/23 105/134/23
f 8/121/23 105/134/23 106/135/23
f 8/121/23 106/135/23 107/136/23
f 8/121/23 107/136/23 108/137/23
f 8/121/23 108/137/23 109/138/23
f 8/121/23 109/138/23 110/139/23
f 8/121/23 110/139/23 11/140/23
f 19/115/24 6/116/24 89/117/24
f 90/118/24 89/117/24 6/116/24
f 91/119/24 90/118/24 6/116/24
f 92/120/24 91/119/24 6/116/24
f 8/121/24 92/120/24 6/116/24
f 93/122/24 92/120/24 8/121/24
f 94/123/24 93/122/24 8/121/24
f 95/124/24 94/123/24 8/121/24
f 96/125/24 95/124/24 8/121/24
f 97/126/24 96/125/24 8/121/24
f 98/127/24 97/126/24 8/121/24
f 99/128/24 98/127/24 8/121/24
f 100/129/24 99/128/24 8/121/24
f 101/130/24 100/129/24 8/121/24
f 102/131/24 101/130/24 8/121/24
f 103/132/24 102/131/24 8/121/24
f 104/133/24 103/132/24 8/121/24
f 105/134/24 104/133/24 8/121/24
f 106/135/24 105/134/24 8/121/24
f 107/136/24 106/135/24 8/121/24
f 108/137/24 107/136/24 8/121/24
f 109/138/24 108/137/24 8/121/24
f 110/139/24 109/138/24 8/121/24
f 11/140/24 110/139/24 8/121/24
f 113/143/25 112/142/25 111/141/25
f 112/142/25 113/143/25 114/144/25
f 112/142/25 114/144/25 115/145/25
f 115/145/25 114/144/25 116/146/25
f 115/145/25 116/146/25 117/147/25
f 117/147/25 116/146/25 118/148/25
f 117/147/25 118/148/25 119/149/25
f 119/149/25 118/148/25 120/150/25
f 119/149/25 120/150/25 121/151/25
f 121/151/25 120/150/25 20/152/25
f 121/151/25 20/152/25 122/153/25
f 122/153/25 20/152/25 6/88/25
f 122/153/25 6/88/25 123/154/25
f 123/154/25 6/88/25 124/155/25
f 124/155/25 6/88/25 125/156/25
f 125/156/25 6/88/25 126/157/25
f 126/157/25 6/88/25 127/158/25
f 10/159/25 127/158/25 6/88/25
f 10/159/25 128/160/25 127/158/25
f 10/159/25 129/161/25 128/160/25
f 10/159/25 130/162/25 129/161/25
f 10/159/25 131/163/25 130/162/25
f 10/159/25 132/164/25 131/163/25
f 132/164/25 10/159/25 15/165/25
f 111/141/26 112/142/26 113/143/26
f 114/144/26 113/143/26 112/142/26
f 115/145/26 114/144/26 112/142/26
f 116/146/26 114/144/26 115/145/26
f 117/147/26 116/146/26 115/145/26
f 118/148/26 116/146/26 117/147/26
f 119/149/26 118/148/26 117/147/26
f 120/150/26 118/148/26 119/149/26
f 121/151/26 120/150/26 119/149/26
f 20/152/26 120/150/26 121/151/26
f 122/153/26 20/152/26 121/151/26
f 6/88/26 20/152/26 122/153/26
f 123/154/26 6/88/26 122/153/26
f 124/155/26 6/88/26 123/154/26
f 125/156/26 6/88/26 124/155/26
f 126/157/26 6/88/26 125/156/26
f 127/158/26 6/88/26 126/157/26
f 6/88/26 127/158/26 10/159/26
f 127/158/26 128/160/26 10/159/26
f 128/160/26 129/161/26 10/159/26
f 129/161/26 130/162/26 10/159/26
f 130/162/26 131/163/26 10/159/26
f 131/163/26 132/164/26 10/159/26
f 15/165/26 10/159/26 132/164/26
f 10/10/27 3/8/27 1/5/27
f 3/8/27 10/10/27 6/9/27
f 3/8/27 6/9/27 8/166/27

