# Created by Kenney (www.kenney.nl)

mtllib blockRoundedLow.mtl

g blockRoundedLow

v -0.4 0.5 0.4
v -0.4 0.4866025 0.45
v -0.425 0.4866025 0.4433013
v -0.4 0 -0.4
v -0.4433013 0.01339746 -0.425
v -0.45 0.01339746 -0.4
v -0.4 0.01339746 0.45
v -0.4 0 0.4
v -0.425 0.01339746 0.4433013
v -0.4 0.01339746 -0.45
v -0.425 0.01339746 -0.4433013
v 0.4433013 0.01339746 -0.425
v 0.425 0.01339746 -0.4433013
v 0.4 0 -0.4
v 0.45 0.01339746 -0.4
v -0.4433013 0.4866025 0.425
v -0.45 0.4866025 0.4
v 0.4 0.01339746 -0.45
v 0.425 0.01339746 0.4433013
v 0.4433013 0.01339746 0.425
v 0.4 0 0.4
v 0.4 0.01339746 0.45
v 0.45 0.01339746 0.4
v -0.4433013 0.4866025 -0.425
v -0.4 0.5 -0.4
v -0.45 0.4866025 -0.4
v -0.425 0.4866025 -0.4433013
v -0.4 0.4866025 -0.45
v 0.4 0.5 0.4
v 0.425 0.4866025 0.4433013
v 0.4 0.4866025 0.45
v -0.4433013 0.01339746 0.425
v 0.4433013 0.4866025 -0.425
v 0.45 0.4866025 -0.4
v 0.4 0.5 -0.4
v 0.4433013 0.4866025 0.425
v 0.4 0.4866025 -0.45
v 0.425 0.4866025 -0.4433013
v 0.45 0.4866025 0.4
v -0.45 0.01339746 0.4
v -0.5 0.1 -0.4
v -0.5 0.4 -0.4
v -0.5 0.1 0.4
v -0.5 0.4 0.4
v -0.4 0.1 -0.5
v 0.4 0.1 -0.5
v -0.4 0.4 -0.5
v 0.4 0.4 -0.5
v 0.5 0.4 -0.4
v 0.5 0.1 -0.4
v 0.5 0.4 0.4
v 0.5 0.1 0.4
v 0.4 0.1 0.5
v -0.4 0.1 0.5
v 0.4 0.4 0.5
v -0.4 0.4 0.5
v -0.4 0.05 0.4866025
v -0.4433013 0.05 0.475
v -0.45 0.1 0.4866025
v -0.475 0.05 0.4433013
v -0.4866025 0.1 0.45
v -0.475 0.05 -0.4433013
v -0.4866025 0.05 -0.4
v 0.4433013 0.05 -0.475
v 0.4 0.05 -0.4866025
v -0.4433013 0.05 -0.475
v 0.4433013 0.05 0.475
v 0.4 0.05 0.4866025
v 0.475 0.05 0.4433013
v 0.4866025 0.1 0.45
v 0.45 0.1 0.4866025
v 0.4866025 0.05 0.4
v 0.4866025 0.1 -0.45
v 0.475 0.05 -0.4433013
v 0.4866025 0.05 -0.4
v -0.4 0.05 -0.4866025
v -0.4866025 0.05 0.4
v -0.45 0.1 -0.4866025
v 0.45 0.1 -0.4866025
v -0.4866025 0.1 -0.45
v -0.4866025 0.45 0.4
v -0.475 0.45 0.4433013
v -0.4433013 0.45 0.475
v -0.4 0.45 0.4866025
v -0.4866025 0.4 0.45
v -0.45 0.4 0.4866025
v -0.4 0.45 -0.4866025
v 0.4 0.45 -0.4866025
v 0.4866025 0.45 -0.4
v 0.4866025 0.45 0.4
v -0.4866025 0.4 -0.45
v -0.45 0.4 -0.4866025
v -0.4866025 0.45 -0.4
v 0.4 0.45 0.4866025
v 0.45 0.4 -0.4866025
v 0.4866025 0.4 -0.45
v 0.4866025 0.4 0.45
v 0.45 0.4 0.4866025
v -0.475 0.45 -0.4433013
v -0.4433013 0.45 -0.475
v 0.4433013 0.45 0.475
v 0.475 0.45 0.4433013
v 0.475 0.45 -0.4433013
v 0.4433013 0.45 -0.475

vn -0.1731918 0.9695407 0.1731918
vn -0.1408363 0.8389881 0.5256083
vn -0.2654499 0.8474345 0.4597727
vn -0.1731918 -0.9695407 -0.1731918
vn -0.4597727 -0.8474345 -0.2654499
vn -0.5256083 -0.8389881 -0.1408363
vn -0.1408363 -0.8389881 0.5256083
vn -0.1731918 -0.9695407 0.1731918
vn -0.2654499 -0.8474345 0.4597727
vn -0.1408363 -0.8389881 -0.5256083
vn -0.2654499 -0.8474345 -0.4597727
vn 0.4597727 -0.8474345 -0.2654499
vn 0.2654499 -0.8474345 -0.4597727
vn 0.1731918 -0.9695407 -0.1731918
vn 0.5256083 -0.8389881 -0.1408363
vn -0.4597727 0.8474345 0.2654499
vn -0.5256083 0.8389881 0.1408363
vn 0.1408363 -0.8389881 -0.5256083
vn 0.2654499 -0.8474345 0.4597727
vn 0.4597727 -0.8474345 0.2654499
vn 0.1731918 -0.9695407 0.1731918
vn 0.1408363 -0.8389881 0.5256083
vn 0.5256083 -0.8389881 0.1408363
vn -0.4597727 0.8474345 -0.2654499
vn -0.1731918 0.9695407 -0.1731918
vn -0.5256083 0.8389881 -0.1408363
vn -0.2654499 0.8474345 -0.4597727
vn -0.1408363 0.8389881 -0.5256083
vn 0.1731918 0.9695407 0.1731918
vn 0.2654499 0.8474345 0.4597727
vn 0.1408363 0.8389881 0.5256083
vn -0.4597727 -0.8474345 0.2654499
vn 0.4597727 0.8474345 -0.2654499
vn 0.5256083 0.8389881 -0.1408363
vn 0.1731918 0.9695407 -0.1731918
vn 0.4597727 0.8474345 0.2654499
vn 0.1408363 0.8389881 -0.5256083
vn 0.2654499 0.8474345 -0.4597727
vn 0.5256083 0.8389881 0.1408363
vn -0.5256083 -0.8389881 0.1408363
vn 0 -1 0
vn -1 0 0
vn 0 1 0
vn 0 0 -1
vn 1 0 0
vn 0 0 1
vn -0.2285087 -0.4695798 0.8528062
vn -0.4379916 -0.4823416 0.7586237
vn -0.2505628 -0.2505628 0.9351131
vn -0.4829629 -0.258819 0.8365163
vn -0.7586237 -0.4823416 0.4379916
vn -0.8365163 -0.258819 0.4829629
vn -0.7586237 -0.4823416 -0.4379916
vn -0.8528062 -0.4695798 -0.2285087
vn 0.4379916 -0.4823416 -0.7586237
vn 0.2285087 -0.4695798 -0.8528062
vn -0.4379916 -0.4823416 -0.7586237
vn 0.4379916 -0.4823416 0.7586237
vn 0.2285087 -0.4695798 0.8528062
vn 0.7586237 -0.4823416 0.4379916
vn 0.8365163 -0.258819 0.4829629
vn 0.4829629 -0.258819 0.8365163
vn 0.9351131 -0.2505628 0.2505628
vn 0.8528062 -0.4695798 0.2285087
vn 0.8365163 -0.258819 -0.4829629
vn 0.7586237 -0.4823416 -0.4379916
vn 0.9351131 -0.2505628 -0.2505628
vn 0.8528062 -0.4695798 -0.2285087
vn -0.2285087 -0.4695798 -0.8528062
vn -0.8528062 -0.4695798 0.2285087
vn -0.9351131 -0.2505628 0.2505628
vn -0.4829629 -0.258819 -0.8365163
vn -0.2505628 -0.2505628 -0.9351131
vn 0.2505628 -0.2505628 -0.9351131
vn 0.4829629 -0.258819 -0.8365163
vn -0.8365163 -0.258819 -0.4829629
vn 0.2505628 -0.2505628 0.9351131
vn -0.8528062 0.4695798 0.2285087
vn -0.7586237 0.4823416 0.4379916
vn -0.9351131 -0.2505628 -0.2505628
vn -0.4379916 0.4823416 0.7586237
vn -0.2285087 0.4695798 0.8528062
vn -0.9351131 0.2505628 0.2505628
vn -0.8365163 0.258819 0.4829629
vn -0.2505628 0.2505628 0.9351131
vn -0.4829629 0.258819 0.8365163
vn 0 0.5 -0.8660254
vn 0 0.8660254 -0.5
vn 0 0.9659258 -0.258819
vn 0.5 0.8660254 0
vn 0.8660254 0.5 0
vn 0 0.258819 -0.9659258
vn 0.258819 0.9659258 0
vn 0.9659258 0.258819 0
vn -0.5 -0.8660254 0
vn -0.8660254 -0.5 0
vn -0.9659258 -0.258819 0
vn -0.258819 -0.9659258 0
vn -0.8660254 0 -0.5
vn -0.858921 0.1278264 -0.4958982
vn -0.9659258 0 -0.258819
vn -0.9585266 0.1235385 -0.2568364
vn -0.5 0 -0.8660254
vn -0.4958982 0.1278264 -0.858921
vn -0.258819 0 -0.9659258
vn -0.2568364 0.1235385 -0.9585266
vn 0 -0.8660254 -0.5
vn 0 -0.5 -0.8660254
vn 0 -0.258819 -0.9659258
vn 0 -0.9659258 -0.258819
vn 0.5 -0.8660254 0
vn 0.258819 -0.9659258 0
vn 0.8660254 -0.5 0
vn 0.9659258 -0.258819 0
vn 0 -0.8660254 0.5
vn 0 -0.9659258 0.258819
vn -0.8660254 0 0.5
vn -0.5 0 0.8660254
vn -0.258819 0 0.9659258
vn 0 0.9659258 0.258819
vn 0 0.8660254 0.5
vn -0.9659258 0.258819 0
vn -0.8660254 0.5 0
vn -0.258819 0.9659258 0
vn -0.5 0.8660254 0
vn 0 0.5 0.8660254
vn 0 0.258819 0.9659258
vn 0 -0.5 0.8660254
vn 0 -0.258819 0.9659258
vn -0.9659258 0 0.258819
vn 0.258819 0 -0.9659258
vn 0.5 0 -0.8660254
vn 0.8660254 0 -0.5
vn 0.9659258 0 -0.258819
vn 0.9659258 0 0.258819
vn 0.8660254 0 0.5
vn 0.5 0 0.8660254
vn 0.258819 0 0.9659258
vn -0.7586237 0.4823416 -0.4379916
vn -0.8528062 0.4695798 -0.2285087
vn -0.4379916 0.4823416 -0.7586237
vn -0.2285087 0.4695798 -0.8528062
vn 0.4829629 0.258819 0.8365163
vn 0.2505628 0.2505628 0.9351131
vn 0.4379916 0.4823416 0.7586237
vn 0.2285087 0.4695798 0.8528062
vn 0.8528062 0.4695798 0.2285087
vn 0.7586237 0.4823416 0.4379916
vn 0.7586237 0.4823416 -0.4379916
vn 0.4379916 0.4823416 -0.7586237
vn 0.9351131 0.2505628 0.2505628
vn 0.8365163 0.258819 0.4829629
vn 0.8528062 0.4695798 -0.2285087
vn 0.2285087 0.4695798 -0.8528062
vn 0.4829629 0.258819 -0.8365163
vn 0.8365163 0.258819 -0.4829629
vn 0.9351131 0.2505628 -0.2505628
vn 0.2505628 0.2505628 -0.9351131

vt -11.13554 -13.32353
vt -10.62605 -15.29676
vt -11.64503 -15.29676
vt -11.13554 18.58548
vt -11.64503 20.55871
vt -10.62605 20.55871
vt 11.13554 18.58548
vt 10.62605 20.55871
vt 11.64503 20.55871
vt -0.5094863 23.4339
vt 0.5094863 23.4339
vt -2.007283E-13 21.46067
vt 2.186029E-13 21.46067
vt 11.13554 -13.32353
vt 11.64503 -15.29676
vt 10.62605 -15.29676
vt 1.721956E-13 21.46067
vt -1.620926E-13 -16.19871
vt 0.5094863 -18.17195
vt -0.5094863 -18.17195
vt 2.251532E-13 -16.19871
vt -1.777467E-13 21.46067
vt 1.563194E-13 -16.19871
vt -2.153833E-13 -16.19871
vt 15.74803 15.74803
vt 15.74803 -15.74803
vt -15.74803 15.74803
vt -15.74803 -15.74803
vt -15.74803 3.937008
vt 15.74803 3.937008
vt -10.25308 17.10371
vt -10.62605 15.10019
vt -12.018 17.10371
vt -11.64503 15.10019
vt -10.25308 7.563591
vt -12.018 7.563591
vt -10.11657 9.596958
vt -12.15451 9.596958
vt 0.5094863 17.17315
vt -0.5094863 17.17315
vt 0.8824562 19.17667
vt -0.8824562 19.17667
vt -0.8824562 8.31121
vt -1.018973 10.34458
vt 0.8824562 8.31121
vt 1.018973 10.34458
vt 12.018 17.10371
vt 11.64503 15.10019
vt 10.25308 17.10371
vt 10.62605 15.10019
vt 12.15451 9.596958
vt 12.018 7.563591
vt 10.11657 9.596958
vt 10.25308 7.563591
vt 10.25308 -2.945159
vt 10.62605 -0.9416338
vt 12.018 -2.945159
vt 11.64503 -0.9416338
vt 0.5094863 -3.01459
vt 0.8824562 -5.018116
vt -0.5094863 -3.01459
vt -0.8824562 -5.018116
vt -10.62605 -0.9416338
vt -10.25308 -2.945159
vt -11.64503 -0.9416338
vt -12.018 -2.945159
vt 10.11657 9.460135
vt 10.25308 11.4935
vt 12.15451 9.460135
vt 12.018 11.4935
vt -10.11657 9.460135
vt -12.15451 9.460135
vt -10.25308 11.4935
vt -12.018 11.4935
vt -0.8824562 10.74588
vt 0.8824562 10.74588
vt -1.018973 8.712516
vt 1.018973 8.712516
vt 15.74803 -1.018973
vt -15.74803 -1.018973
vt 15.74803 1.018973
vt -15.74803 1.018973
vt -15.74803 -12.15451
vt -15.74803 -10.11657
vt 15.74803 -12.15451
vt 15.74803 -10.11657
vt 15.74803 10.11657
vt -15.74803 10.11657
vt 15.74803 12.15451
vt -15.74803 12.15451
vt -15.74803 12.90045
vt -15.74803 14.9384
vt 15.74803 12.90045
vt 15.74803 14.9384
vt -15.74803 6.859776
vt -15.74803 8.89772
vt 15.74803 6.859776
vt 15.74803 8.89772
vt 15.74803 15.21143
vt -15.74803 15.21143
vt 15.74803 17.24938
vt -15.74803 17.24938
vt -12.15451 3.937008
vt -12.15451 15.74803
vt -10.11657 3.937008
vt -10.11657 15.74803
vt -1.018973 3.937008
vt -1.018973 15.74803
vt 1.018973 3.937008
vt 1.018973 15.74803
vt 12.15451 3.937008
vt 10.11657 3.937008
vt 12.15451 15.74803
vt 10.11657 15.74803

usemtl dirt

f 3/3/3 2/2/2 1/1/1
f 6/6/6 5/5/5 4/4/4
f 9/5/9 8/4/8 7/6/7
f 11/9/11 10/8/10 4/7/4
f 14/12/14 13/11/13 12/10/12
f 14/7/14 12/9/12 15/8/15
f 5/11/5 11/10/11 4/13/4
f 17/16/17 16/15/16 1/14/1
f 18/6/18 13/5/13 14/4/14
f 21/17/21 20/11/20 19/10/19
f 16/20/16 3/19/3 1/18/1
f 21/7/21 19/9/19 22/8/22
f 21/4/21 23/6/23 20/5/20
f 26/2/26 25/1/25 24/3/24
f 24/19/24 25/21/25 27/20/27
f 27/15/27 25/14/25 28/16/28
f 31/16/31 30/15/30 29/14/29
f 32/10/32 8/22/8 9/11/9
f 35/14/35 34/16/34 33/15/33
f 29/23/29 30/20/30 36/19/36
f 35/1/35 38/3/38 37/2/37
f 29/1/29 36/3/36 39/2/39
f 35/24/35 33/20/33 38/19/38
f 40/8/40 8/7/8 32/9/32
f 8/27/41 14/26/41 21/25/41
f 14/26/41 8/27/41 4/28/41
f 43/30/42 42/27/42 41/29/42
f 42/27/42 43/30/42 44/25/42
f 25/26/43 29/27/43 35/28/43
f 29/27/43 25/26/43 1/25/43
f 47/25/44 46/29/44 45/30/44
f 46/29/44 47/25/44 48/27/44
f 51/27/45 50/30/45 49/25/45
f 50/30/45 51/27/45 52/29/45
f 55/25/46 54/29/46 53/30/46
f 54/29/46 55/25/46 56/27/46
f 58/33/48 7/32/7 57/31/47
f 7/32/7 58/33/48 9/34/9
f 54/37/49 58/36/48 57/35/47
f 58/36/48 54/37/49 59/38/50
f 58/41/48 32/40/32 9/39/9
f 32/40/32 58/41/48 60/42/51
f 58/45/48 61/44/52 60/43/51
f 61/44/52 58/45/48 59/46/50
f 5/34/5 63/31/54 62/33/53
f 63/31/54 5/34/5 6/32/6
f 13/34/13 65/31/56 64/33/55
f 65/31/56 13/34/13 18/32/18
f 5/39/5 66/42/57 11/40/11
f 66/42/57 5/39/5 62/41/53
f 68/49/59 19/48/19 67/47/58
f 19/48/19 68/49/59 22/50/22
f 70/46/61 67/43/58 69/45/60
f 67/43/58 70/46/61 71/44/62
f 70/38/61 72/35/64 52/37/63
f 72/35/64 70/38/61 69/36/60
f 50/53/67 74/52/66 73/51/65
f 74/52/66 50/53/67 75/54/68
f 11/48/11 76/49/69 10/50/10
f 76/49/69 11/48/11 66/47/57
f 60/52/51 43/53/71 77/54/70
f 43/53/71 60/52/51 61/51/52
f 78/51/72 76/54/69 66/52/57
f 76/54/69 78/51/72 45/53/73
f 75/49/68 12/48/12 74/47/66
f 12/48/12 75/49/68 15/50/15
f 69/33/60 23/32/23 72/31/64
f 23/32/23 69/33/60 20/34/20
f 12/40/12 64/41/55 74/42/66
f 64/41/55 12/40/12 13/39/13
f 46/37/74 64/36/55 65/35/56
f 64/36/55 46/37/74 79/38/75
f 66/43/57 80/46/76 78/44/72
f 80/46/76 66/43/57 62/45/53
f 71/51/62 68/54/59 67/52/58
f 68/54/59 71/51/62 53/53/77
f 82/57/79 17/56/17 81/55/78
f 17/56/17 82/57/79 16/58/16
f 62/36/53 41/37/80 80/38/76
f 41/37/80 62/36/53 63/35/54
f 73/44/65 64/45/55 79/46/75
f 64/45/55 73/44/65 74/43/66
f 16/61/16 83/60/81 3/59/3
f 83/60/81 16/61/16 82/62/79
f 67/42/58 20/39/20 69/41/60
f 20/39/20 67/42/58 19/40/19
f 3/65/3 84/64/82 2/63/2
f 84/64/82 3/65/3 83/66/81
f 85/69/84 81/68/78 44/67/83
f 81/68/78 85/69/84 82/70/79
f 84/73/82 86/72/86 56/71/85
f 86/72/86 84/73/82 83/74/81
f 85/77/84 83/76/81 82/75/79
f 83/76/81 85/77/84 86/78/86
f 28/81/88 88/80/87 87/79/87
f 88/80/87 28/81/88 37/82/88
f 28/85/88 35/84/89 37/83/88
f 35/84/89 28/85/88 25/86/89
f 39/82/90 89/79/91 34/81/90
f 89/79/91 39/82/90 90/80/91
f 87/89/87 48/88/92 47/87/92
f 48/88/92 87/89/87 88/90/87
f 35/86/93 39/83/90 34/85/90
f 39/83/90 35/86/93 29/84/93
f 90/90/91 49/87/94 89/89/91
f 49/87/94 90/90/91 51/88/94
f 40/93/95 63/92/96 6/91/95
f 63/92/96 40/93/95 77/94/96
f 77/97/96 41/96/97 63/95/96
f 41/96/97 77/97/96 43/98/97
f 40/101/95 4/100/98 8/99/98
f 4/100/98 40/101/95 6/102/95
f 41/105/101 91/104/100 80/103/99
f 91/104/100 41/105/101 42/106/102
f 80/109/99 92/108/104 78/107/103
f 92/108/104 80/109/99 91/110/100
f 92/113/104 45/112/105 78/111/103
f 45/112/105 92/113/104 47/114/106
f 10/93/107 65/92/108 18/91/107
f 65/92/108 10/93/107 76/94/108
f 45/98/109 65/95/108 76/97/108
f 65/95/108 45/98/109 46/96/109
f 4/99/110 18/102/107 14/100/110
f 18/102/107 4/99/110 10/101/107
f 21/100/112 15/101/111 23/102/111
f 15/101/111 21/100/112 14/99/112
f 72/92/113 15/93/111 75/94/113
f 15/93/111 72/92/113 23/91/111
f 52/96/114 75/97/113 50/98/114
f 75/97/113 52/96/114 72/95/113
f 7/102/115 21/99/116 22/101/115
f 21/99/116 7/102/115 8/100/116
f 59/109/118 85/108/117 61/107/117
f 85/108/117 59/109/118 86/110/118
f 56/106/119 59/103/118 54/105/119
f 59/103/118 56/106/119 86/104/118
f 1/84/120 31/85/121 29/86/120
f 31/85/121 1/84/120 2/83/121
f 44/87/122 93/90/123 42/88/122
f 93/90/123 44/87/122 81/89/123
f 26/83/125 1/86/124 25/84/124
f 1/86/124 26/83/125 17/85/125
f 31/81/121 84/80/126 94/79/126
f 84/80/126 31/81/121 2/82/121
f 94/89/126 56/88/127 55/87/127
f 56/88/127 94/89/126 84/90/126
f 57/92/128 22/93/115 68/94/128
f 22/93/115 57/92/128 7/91/115
f 53/98/129 57/95/128 68/97/128
f 57/95/128 53/98/129 54/96/129
f 61/111/117 44/114/130 43/112/130
f 44/114/130 61/111/117 85/113/117
f 81/79/123 26/82/125 93/80/123
f 26/82/125 81/79/123 17/81/125
f 48/106/131 79/103/132 46/105/131
f 79/103/132 48/106/131 95/104/132
f 49/114/134 73/111/133 96/113/133
f 73/111/133 49/114/134 50/112/134
f 96/108/133 79/109/132 95/110/132
f 79/109/132 96/108/133 73/107/133
f 97/104/136 52/105/135 51/106/135
f 52/105/135 97/104/136 70/103/136
f 98/108/137 70/109/136 97/110/136
f 70/109/136 98/108/137 71/107/137
f 98/113/137 53/112/138 71/111/137
f 53/112/138 98/113/137 55/114/138
f 93/64/140 24/65/24 99/66/139
f 24/65/24 93/64/140 26/63/26
f 100/62/141 24/59/24 27/61/27
f 24/59/24 100/62/141 99/60/139
f 100/57/141 28/56/28 87/55/142
f 28/56/28 100/57/141 27/58/27
f 42/71/102 99/74/139 91/72/100
f 99/74/139 42/71/102 93/73/140
f 101/70/145 55/67/144 98/69/143
f 55/67/144 101/70/145 94/68/146
f 36/65/36 90/64/147 39/63/39
f 90/64/147 36/65/36 102/66/148
f 104/60/150 33/61/33 103/62/149
f 33/61/33 104/60/150 38/59/38
f 102/74/148 51/71/151 90/73/147
f 51/71/151 102/74/148 97/72/152
f 100/70/141 47/67/106 92/69/104
f 47/67/106 100/70/141 87/68/142
f 33/58/33 89/55/153 103/57/149
f 89/55/153 33/58/33 34/56/34
f 36/59/36 101/62/145 102/60/148
f 101/62/145 36/59/36 30/61/30
f 88/64/154 38/65/38 104/66/150
f 38/65/38 88/64/154 37/63/37
f 104/76/150 96/77/156 95/78/155
f 96/77/156 104/76/150 103/75/149
f 30/58/30 94/55/146 101/57/145
f 94/55/146 30/58/30 31/56/31
f 32/48/32 77/49/70 40/50/40
f 77/49/70 32/48/32 60/47/51
f 91/78/100 100/75/141 92/77/104
f 100/75/141 91/78/100 99/76/139
f 103/70/149 49/67/157 96/69/156
f 49/67/157 103/70/149 89/68/153
f 101/75/145 97/78/152 102/76/148
f 97/78/152 101/75/145 98/77/143
f 88/73/154 95/72/155 48/71/158
f 95/72/155 88/73/154 104/74/150

