# Created by Kenney (www.kenney.nl)

mtllib blockQuarter.mtl

g blockQuarter

v -0.341514 0.8414931 0.25
v -0.25 1 0.25
v -0.25 0.8414931 0.341514
v -0.341514 0.8414931 -0.25
v -0.25 0.8414931 -0.341514
v -0.25 1 -0.25
v 0.25 0.8414931 -0.341514
v 0.341514 0.8414931 -0.25
v 0.25 1 -0.25
v 0.341514 0.8414931 0.25
v 0.25 0.8414931 0.341514
v 0.25 1 0.25
v 0.383028 0.7695886 -0.1666667
v 0.341514 0.8414931 -0.0833333
v 0.383028 0.7695886 2.548347E-13
v 0.341514 0.8414931 0.0833333
v 0.383028 0.7695886 0.1666667
v 0.1666667 0.7695886 0.383028
v 0.0833333 0.8414931 0.341514
v -0.0833333 0.8414931 0.341514
v 5.414336E-16 0.7695886 0.383028
v -0.1666667 0.7695886 0.383028
v -0.1666667 0.7695886 -0.383028
v -0.0833333 0.8414931 -0.341514
v 0.0833333 0.8414931 -0.341514
v 5.414336E-16 0.7695886 -0.383028
v 0.1666667 0.7695886 -0.383028
v -0.383028 0.7695886 -0.1666667
v -0.341514 0.8414931 -0.0833333
v -0.383028 0.7695886 2.548347E-13
v -0.341514 0.8414931 0.0833333
v -0.383028 0.7695886 0.1666667
v 0.25 0 0.25
v 0.25 0 -0.25
v -0.25 0 0.25
v -0.25 0 -0.25

vn -0.6546537 0.3779645 0.6546537
vn 0.6546537 -0.3779645 -0.6546537
vn -0.6546537 0.3779645 -0.6546535
vn 0.6546537 -0.3779645 0.6546535
vn 0.6546537 0.3779645 -0.6546537
vn -0.6546537 -0.3779645 0.6546537
vn 0.6546535 0.3779645 0.6546537
vn -0.6546535 -0.3779645 -0.6546537
vn 0.8660254 0.5 0
vn -0.8660254 -0.5 0
vn 0 0.5 0.8660254
vn 0 -0.5 -0.8660254
vn 0 0.5 -0.8660254
vn 0 -0.5 0.8660254
vn 0 1 0
vn -0.8660254 0.5 0
vn 0.8660254 -0.5 0
vn 0 -1 0
vn 0 0 1
vn 0 0 -1
vn 1 0 0
vn -1 0 0

vt -2.547644 24.44813
vt 7.029044E-12 31.18856
vt 2.547644 24.44813
vt 2.547644 24.44813
vt -2.547646 24.44813
vt -7.604998E-07 31.18856
vt 2.547645 24.44813
vt -2.547645 24.44813
vt -1.012967E-11 31.18856
vt 2.547646 24.44813
vt -2.547644 24.44813
vt 7.605009E-07 31.18856
vt 9.84252 21.9684
vt 6.561679 18.69958
vt 9.84252 29.17423
vt 3.280838 21.9684
vt -9.84252 29.17423
vt -1.050163E-11 18.69958
vt -3.280838 21.9684
vt -6.561681 18.69958
vt -9.84252 21.9684
vt 3.681358E-14 18.69958
vt 6.561681 18.69958
vt -5.235143E-13 18.69958
vt -6.561679 18.69958
vt -9.84252 9.84252
vt 9.84252 9.84252
vt -9.84252 -9.84252
vt 9.84252 -9.84252
vt 1.001711E-11 18.69958
vt 9.84252 0
vt -9.84252 0
vt 9.84252 39.37008
vt -9.84252 39.37008
vt 9.84252 -2.060574E-13
vt -9.84252 -2.060574E-13
vt 9.84252 -2.042811E-13
vt -9.84252 -2.042811E-13

usemtl grass

f 3/3/1 2/2/1 1/1/1
f 1/1/2 2/2/2 3/3/2
f 6/6/3 5/5/3 4/4/3
f 4/4/4 5/5/4 6/6/4
f 9/9/5 8/8/5 7/7/5
f 7/7/6 8/8/6 9/9/6
f 12/12/7 11/11/7 10/10/7
f 10/10/8 11/11/8 12/12/8
f 9/15/9 13/14/9 8/13/9
f 13/14/9 9/15/9 14/16/9
f 14/16/9 9/15/9 12/17/9
f 14/16/9 12/17/9 15/18/9
f 15/18/9 12/17/9 16/19/9
f 16/19/9 12/17/9 17/20/9
f 17/20/9 12/17/9 10/21/9
f 8/13/10 13/14/10 9/15/10
f 14/16/10 9/15/10 13/14/10
f 12/17/10 9/15/10 14/16/10
f 15/18/10 12/17/10 14/16/10
f 16/19/10 12/17/10 15/18/10
f 17/20/10 12/17/10 16/19/10
f 10/21/10 12/17/10 17/20/10
f 11/13/11 19/16/11 18/14/11
f 19/16/11 11/13/11 12/15/11
f 19/16/11 12/15/11 20/19/11
f 20/19/11 21/22/11 19/16/11
f 20/19/11 12/15/11 3/21/11
f 3/21/11 12/15/11 2/17/11
f 3/21/11 22/20/11 20/19/11
f 18/14/12 19/16/12 11/13/12
f 12/15/12 11/13/12 19/16/12
f 20/19/12 12/15/12 19/16/12
f 19/16/12 21/22/12 20/19/12
f 3/21/12 12/15/12 20/19/12
f 20/19/12 22/20/12 3/21/12
f 2/17/12 12/15/12 3/21/12
f 5/13/13 24/16/13 23/23/13
f 24/16/13 5/13/13 6/15/13
f 24/16/13 6/15/13 25/19/13
f 25/19/13 26/24/13 24/16/13
f 25/19/13 6/15/13 7/21/13
f 7/21/13 6/15/13 9/17/13
f 7/21/13 27/25/13 25/19/13
f 23/23/14 24/16/14 5/13/14
f 6/15/14 5/13/14 24/16/14
f 25/19/14 6/15/14 24/16/14
f 24/16/14 26/24/14 25/19/14
f 7/21/14 6/15/14 25/19/14
f 25/19/14 27/25/14 7/21/14
f 9/17/14 6/15/14 7/21/14
f 9/28/15 2/27/15 12/26/15
f 2/27/15 9/28/15 6/29/15
f 28/25/16 6/17/16 4/21/16
f 6/17/16 28/25/16 29/19/16
f 6/17/16 29/19/16 2/15/16
f 2/15/16 29/19/16 30/30/16
f 2/15/16 30/30/16 31/16/16
f 2/15/16 31/16/16 32/23/16
f 2/15/16 32/23/16 1/13/16
f 4/21/17 6/17/17 28/25/17
f 29/19/17 28/25/17 6/17/17
f 2/15/17 29/19/17 6/17/17
f 30/30/17 29/19/17 2/15/17
f 31/16/17 30/30/17 2/15/17
f 32/23/17 31/16/17 2/15/17
f 1/13/17 32/23/17 2/15/17

usemtl dirt

f 35/26/18 34/29/18 33/27/18
f 34/29/18 35/26/18 36/28/18
f 12/33/19 35/32/19 33/31/19
f 35/32/19 12/33/19 2/34/19
f 6/33/20 34/36/20 36/35/20
f 34/36/20 6/33/20 9/34/20
f 9/33/21 33/38/21 34/37/21
f 33/38/21 9/33/21 12/34/21
f 35/31/22 6/34/22 36/32/22
f 6/34/22 35/31/22 2/33/22

