# Created by Kenney (www.kenney.nl)

mtllib blockEnd.mtl

g blockEnd

v -0.591514 0.3414931 2.519471E-13
v -0.5 0.5 2.519471E-13
v -0.56471 0.3414931 0.0647101
v 0.0647102 0.3414931 0.56471
v -0.0647101 0.3414931 0.56471
v 0 0.5 0.5
v 0.5 0.3414931 -0.591514
v 0.591514 0.3414931 -0.5
v 0.5 0.5 -0.5
v 0.5 0.5 2.519471E-13
v 0.591514 0.3414931 2.519471E-13
v 0.5647101 0.3414931 0.0647101
v -0.591514 0.3414931 -0.5
v -0.5 0.3414931 -0.591514
v -0.5 0.5 -0.5
v -0.633028 0.2695887 -0.4166667
v -0.591514 0.3414931 -0.3333333
v -0.633028 0.2695887 -0.25
v -0.591514 0.3414931 -0.1666667
v -0.633028 0.2695887 -0.0833333
v -0.156565 0.2695887 0.531565
v -0.1897101 0.3414931 0.4397101
v -0.3147101 0.3414931 0.3147101
v -0.281565 0.2695887 0.406565
v -0.4397101 0.3414931 0.1897101
v -0.406565 0.2695887 0.281565
v -0.531565 0.2695887 0.156565
v -0.4166666 0.2695887 -0.633028
v -0.3333333 0.3414931 -0.591514
v -0.1666667 0.3414931 -0.591514
v -0.25 0.2695887 -0.633028
v 0 0.3414931 -0.591514
v -0.0833333 0.2695887 -0.633028
v 0.1666667 0.3414931 -0.591514
v 0.0833333 0.2695887 -0.633028
v 0.3333333 0.3414931 -0.591514
v 0.25 0.2695887 -0.633028
v 0.4166667 0.2695887 -0.633028
v 0.531565 0.2695887 0.156565
v 0.4397102 0.3414931 0.1897101
v 0.3147102 0.3414931 0.3147101
v 0.406565 0.2695887 0.281565
v 0.1897102 0.3414931 0.4397101
v 0.281565 0.2695887 0.406565
v 0.156565 0.2695887 0.531565
v 0.633028 0.2695887 -0.4166667
v 0.591514 0.3414931 -0.3333333
v 0.633028 0.2695887 -0.25
v 0.591514 0.3414931 -0.1666667
v 0.633028 0.2695887 -0.0833333
v -0.5 2.707168E-16 2.519471E-13
v 0 2.707168E-16 0.5
v -0.5 -1.602965E-31 -0.5
v 0.5 -1.602965E-31 -0.5
v 0.5 5.414336E-16 2.519471E-13

vn -0.8151639 0.4706351 0.3376544
vn 0.8151639 -0.4706351 -0.3376544
vn 0 0.3779636 0.9258204
vn 0 -0.3779636 -0.9258204
vn 0.6546537 0.3779645 -0.6546537
vn -0.6546537 -0.3779645 0.6546537
vn 0.8151644 0.4706354 0.3376526
vn -0.8151644 -0.4706354 -0.3376526
vn -0.6546537 0.3779645 -0.6546535
vn 0.6546537 -0.3779645 0.6546535
vn -0.8660254 0.5 0
vn 0.8660254 -0.5 0
vn -0.6123725 0.4999999 0.6123725
vn 0.6123725 -0.4999999 -0.6123725
vn 0 0.4999999 -0.8660254
vn 0 -0.4999999 0.8660254
vn 0.6123725 0.4999999 0.6123725
vn -0.6123725 -0.4999999 -0.6123725
vn 0 1 0
vn 0.8660254 0.5 0
vn -0.8660254 -0.5 0
vn -0.7071068 0 0.7071068
vn 0 0 -1
vn -1 0 0
vn 1 0 0
vn 0.7071068 0 0.7071068
vn 0 -1 0

vt -8.91197 1.736729
vt -7.533186 8.809416
vt -6.154419 1.736729
vt 2.547646 4.044152
vt -2.547642 4.044152
vt -4.665198E-17 10.78458
vt 2.547645 0.962274
vt -2.547645 0.962274
vt -4.905587E-11 7.702708
vt 7.533148 8.809398
vt 8.911925 1.73671
vt 6.154377 1.73671
vt 2.547643 0.9622746
vt -2.547647 0.9622746
vt -1.521009E-06 7.702709
vt -19.68504 -0.0006003194
vt -19.68504 7.205226
vt -16.4042 -3.269421
vt -13.12336 -0.0006003194
vt 9.898676E-12 7.205226
vt -9.84252 -3.269421
vt -6.561681 -0.0006003194
vt -3.280838 -3.269421
vt 9.894924E-12 -0.0006003194
vt 10.43957 -0.3866131
vt 6.959713 2.882209
vt 13.91942 2.88221
vt 13.91943 10.08803
vt 6.068035E-12 2.882209
vt 3.479856 -0.3866131
vt -6.959713 2.882209
vt -3.479856 -0.3866131
vt -13.91942 2.88221
vt -13.91943 10.08803
vt -10.43957 -0.3866131
vt 16.4042 -3.26942
vt 13.12336 -0.0005999279
vt 19.68504 -0.0005999279
vt 19.68504 7.205227
vt 6.561681 -0.0005999279
vt 9.84252 -3.26942
vt -3.336409E-12 -0.0005999279
vt 3.280838 -3.26942
vt -6.561681 -0.0005999279
vt -3.280838 -3.26942
vt -13.12336 -0.0005999279
vt -9.84252 -3.26942
vt -19.68504 -0.0005999279
vt -19.68504 7.205227
vt -16.4042 -3.26942
vt 10.43957 -0.3866133
vt 6.959715 2.882208
vt 13.91943 2.882208
vt 3.119086E-06 2.882207
vt 3.479856 -0.3866133
vt -6.959709 2.882207
vt -3.479856 -0.3866134
vt -13.91942 2.882209
vt -10.43957 -0.3866135
vt -19.68504 9.919177E-12
vt 0 19.68504
vt -19.68504 -19.68504
vt 19.68504 -19.68504
vt 19.68504 9.919177E-12
vt 19.68504 -0.0006006568
vt 16.4042 -3.269421
vt 19.68504 7.205226
vt 13.12336 -0.0006006568
vt -1.348971E-11 7.205226
vt 9.84252 -3.269421
vt 6.561681 -0.0006006568
vt 3.280838 -3.269421
vt -1.414322E-11 -0.0006006568
vt -13.91943 1.065814E-14
vt -13.91943 19.68504
vt 13.91943 1.065814E-14
vt 13.91943 19.68504
vt 19.68504 1.000444E-11
vt -19.68504 1.000444E-11
vt 19.68504 19.68504
vt -19.68504 19.68504
vt -19.68504 -6.310887E-30
vt 9.919177E-12 1.065814E-14
vt 9.919177E-12 19.68504
vt 19.68504 -9.208634E-12
vt -9.919177E-12 19.68504
vt -9.919177E-12 -9.187318E-12
vt 13.91943 2.095533E-14
vt -13.91943 1.029719E-14
vt 1.442669E-30 19.68504

usemtl grass

f 3/3/1 2/2/1 1/1/1
f 1/1/2 2/2/2 3/3/2
f 6/6/3 5/5/3 4/4/3
f 4/4/4 5/5/4 6/6/4
f 9/9/5 8/8/5 7/7/5
f 7/7/6 8/8/6 9/9/6
f 12/12/7 11/11/7 10/10/7
f 10/10/8 11/11/8 12/12/8
f 15/15/9 14/14/9 13/13/9
f 13/13/10 14/14/10 15/15/10
f 16/18/11 15/17/11 13/16/11
f 15/17/11 16/18/11 17/19/11
f 15/17/11 17/19/11 2/20/11
f 2/20/11 17/19/11 18/21/11
f 2/20/11 18/21/11 19/22/11
f 2/20/11 19/22/11 20/23/11
f 2/20/11 20/23/11 1/24/11
f 13/16/12 15/17/12 16/18/12
f 17/19/12 16/18/12 15/17/12
f 2/20/12 17/19/12 15/17/12
f 18/21/12 17/19/12 2/20/12
f 19/22/12 18/21/12 2/20/12
f 20/23/12 19/22/12 2/20/12
f 1/24/12 20/23/12 2/20/12
f 5/27/13 22/26/13 21/25/13
f 22/26/13 5/27/13 6/28/13
f 22/26/13 6/28/13 23/29/13
f 23/29/13 24/30/13 22/26/13
f 23/29/13 6/28/13 25/31/13
f 25/31/13 26/32/13 23/29/13
f 25/31/13 6/28/13 3/33/13
f 3/33/13 6/28/13 2/34/13
f 3/33/13 27/35/13 25/31/13
f 21/25/14 22/26/14 5/27/14
f 6/28/14 5/27/14 22/26/14
f 23/29/14 6/28/14 22/26/14
f 22/26/14 24/30/14 23/29/14
f 25/31/14 6/28/14 23/29/14
f 23/29/14 26/32/14 25/31/14
f 3/33/14 6/28/14 25/31/14
f 25/31/14 27/35/14 3/33/14
f 2/34/14 6/28/14 3/33/14
f 14/38/15 29/37/15 28/36/15
f 29/37/15 14/38/15 15/39/15
f 29/37/15 15/39/15 30/40/15
f 30/40/15 31/41/15 29/37/15
f 30/40/15 15/39/15 32/42/15
f 32/42/15 33/43/15 30/40/15
f 32/42/15 15/39/15 34/44/15
f 34/44/15 35/45/15 32/42/15
f 34/44/15 15/39/15 36/46/15
f 36/46/15 37/47/15 34/44/15
f 36/46/15 15/39/15 7/48/15
f 7/48/15 15/39/15 9/49/15
f 7/48/15 38/50/15 36/46/15
f 28/36/16 29/37/16 14/38/16
f 15/39/16 14/38/16 29/37/16
f 30/40/16 15/39/16 29/37/16
f 29/37/16 31/41/16 30/40/16
f 32/42/16 15/39/16 30/40/16
f 30/40/16 33/43/16 32/42/16
f 34/44/16 15/39/16 32/42/16
f 32/42/16 35/45/16 34/44/16
f 36/46/16 15/39/16 34/44/16
f 34/44/16 37/47/16 36/46/16
f 7/48/16 15/39/16 36/46/16
f 36/46/16 38/50/16 7/48/16
f 9/49/16 15/39/16 7/48/16
f 12/53/17 40/52/17 39/51/17
f 40/52/17 12/53/17 10/28/17
f 40/52/17 10/28/17 41/54/17
f 41/54/17 42/55/17 40/52/17
f 41/54/17 10/28/17 43/56/17
f 43/56/17 44/57/17 41/54/17
f 43/56/17 10/28/17 4/58/17
f 4/58/17 10/28/17 6/34/17
f 4/58/17 45/59/17 43/56/17
f 39/51/18 40/52/18 12/53/18
f 10/28/18 12/53/18 40/52/18
f 41/54/18 10/28/18 40/52/18
f 40/52/18 42/55/18 41/54/18
f 43/56/18 10/28/18 41/54/18
f 41/54/18 44/57/18 43/56/18
f 4/58/18 10/28/18 43/56/18
f 43/56/18 45/59/18 4/58/18
f 6/34/18 10/28/18 4/58/18
f 9/62/19 6/61/19 10/60/19
f 6/61/19 9/62/19 15/63/19
f 6/61/19 15/63/19 2/64/19
f 9/67/20 46/66/20 8/65/20
f 46/66/20 9/67/20 47/68/20
f 47/68/20 9/67/20 10/69/20
f 47/68/20 10/69/20 48/70/20
f 48/70/20 10/69/20 49/71/20
f 49/71/20 10/69/20 50/72/20
f 50/72/20 10/69/20 11/73/20
f 8/65/21 46/66/21 9/67/21
f 47/68/21 9/67/21 46/66/21
f 10/69/21 9/67/21 47/68/21
f 48/70/21 10/69/21 47/68/21
f 49/71/21 10/69/21 48/70/21
f 50/72/21 10/69/21 49/71/21
f 11/73/21 10/69/21 50/72/21

usemtl dirt

f 52/76/22 2/75/22 51/74/22
f 2/75/22 52/76/22 6/77/22
f 15/80/23 54/79/23 53/78/23
f 54/79/23 15/80/23 9/81/23
f 51/83/24 15/81/24 53/82/24
f 15/81/24 51/83/24 2/84/24
f 10/86/25 54/85/25 9/80/25
f 54/85/25 10/86/25 55/87/25
f 6/75/26 55/88/26 10/77/26
f 55/88/26 6/75/26 52/89/26
f 55/64/27 53/62/27 54/63/27
f 53/62/27 55/64/27 52/90/27
f 53/62/27 52/90/27 51/60/27

