# Created by Kenney (www.kenney.nl)

mtllib blockRoundedLowLong.mtl

g blockRoundedLowLong

v 0.9433012 0.01339746 -0.425
v 0.925 0.01339746 -0.4433013
v 0.9 0 -0.4
v 0.9499999 0.01339746 -0.4
v 0.925 0.01339746 0.4433013
v 0.9433012 0.01339746 0.425
v 0.9 0 0.4
v 0.9499999 0.01339746 0.4
v 0.9 0.01339746 0.45
v 0.9 0.01339746 -0.45
v 0.925 0.4866025 -0.4433013
v 0.9433012 0.4866025 -0.425
v 0.9 0.5 -0.4
v 0.9499999 0.4866025 0.4
v 0.9433012 0.4866025 0.425
v 0.9 0.5 0.4
v 0.9 0.4866025 -0.45
v 0.925 0.4866025 0.4433013
v 0.9499999 0.4866025 -0.4
v 0.9 0.4866025 0.45
v -0.9 0.4866025 -0.45
v -0.9 0.5 -0.4
v -0.925 0.4866025 -0.4433013
v -0.9 0.5 0.4
v -0.925 0.4866025 0.4433013
v -0.9433012 0.4866025 0.425
v -0.9499999 0.4866025 0.4
v -0.9433012 0.4866025 -0.425
v -0.9 0.4866025 0.45
v -0.9499999 0.4866025 -0.4
v -0.9 0.01339746 0.45
v -0.9 0 0.4
v -0.925 0.01339746 0.4433013
v -0.9433012 0.01339746 0.425
v -0.9499999 0.01339746 0.4
v -0.9 0 -0.4
v -0.9 0.01339746 -0.45
v -0.925 0.01339746 -0.4433013
v -0.9433012 0.01339746 -0.425
v -0.9499999 0.01339746 -0.4
v 0.9866025 0.05 -0.4
v 0.9866025 0.05 0.4
v 1 0.1 -0.4
v 1 0.1 0.4
v 0.9866025 0.4 -0.45
v 0.9866025 0.1 -0.45
v 1 0.4 -0.4
v 0.9866025 0.45 -0.4
v 0.9866025 0.45 0.4
v 1 0.4 0.4
v 0.9499999 0.4 -0.4866025
v 0.9499999 0.1 -0.4866025
v 0.9 0.1 -0.5
v 0.9 0.4 -0.5
v 0.9 0.05 0.4866025
v -0.9 0.05 0.4866025
v 0.9 0.1 0.5
v -0.9 0.1 0.5
v -0.9866025 0.1 0.45
v -0.9866025 0.4 0.45
v -0.9499999 0.1 0.4866025
v -0.9499999 0.4 0.4866025
v -1 0.1 0.4
v -1 0.4 0.4
v -0.9 0.45 -0.4866025
v 0.9 0.45 -0.4866025
v 0.9499999 0.1 0.4866025
v 0.9499999 0.4 0.4866025
v 0.9 0.4 0.5
v 0.9866025 0.4 0.45
v 0.9866025 0.1 0.45
v -0.9 0.4 -0.5
v -0.9866025 0.45 -0.4
v -0.9866025 0.45 0.4
v -0.9 0.4 0.5
v 0.9 0.45 0.4866025
v -0.9 0.45 0.4866025
v -1 0.4 -0.4
v 0.9 0.05 -0.4866025
v -0.9 0.05 -0.4866025
v -0.9 0.1 -0.5
v 0.975 0.05 -0.4433013
v 0.9433012 0.05 -0.475
v -0.9866025 0.1 -0.45
v -0.9866025 0.4 -0.45
v -1 0.1 -0.4
v -0.9499999 0.1 -0.4866025
v -0.9499999 0.4 -0.4866025
v 0.975 0.05 0.4433013
v 0.9433012 0.05 0.475
v -0.9866025 0.05 -0.4
v -0.9866025 0.05 0.4
v 0.975 0.45 -0.4433013
v 0.9433012 0.45 -0.475
v 0.975 0.45 0.4433013
v 0.9433012 0.45 0.475
v -0.975 0.45 -0.4433013
v -0.9433012 0.45 0.475
v -0.975 0.45 0.4433013
v -0.9433012 0.45 -0.475
v -0.9433012 0.05 0.475
v -0.975 0.05 0.4433013
v -0.9433012 0.05 -0.475
v -0.975 0.05 -0.4433013

vn 0.4597727 -0.8474345 -0.2654499
vn 0.2654499 -0.8474345 -0.4597727
vn 0.1731918 -0.9695407 -0.1731918
vn 0.5256083 -0.8389881 -0.1408363
vn 0.2654499 -0.8474345 0.4597727
vn 0.4597727 -0.8474345 0.2654499
vn 0.08519387 -0.9722424 0.2179146
vn 0.5140254 -0.8549294 0.06981172
vn 0.06981172 -0.8549294 0.5140254
vn 0.1408363 -0.8389881 -0.5256083
vn 0.2654499 0.8474345 -0.4597727
vn 0.4597727 0.8474345 -0.2654499
vn 0.1453179 0.9786549 -0.1453179
vn 0.5140254 0.8549294 0.06981172
vn 0.4597727 0.8474345 0.2654499
vn 0.1453179 0.9786549 0.1453179
vn 0.06981172 0.8549294 -0.5140254
vn 0.2654499 0.8474345 0.4597727
vn 0.5140254 0.8549294 -0.06981172
vn 0.06981172 0.8549294 0.5140254
vn -0.06981172 0.8549294 -0.5140254
vn -0.1453179 0.9786549 -0.1453179
vn -0.2654499 0.8474345 -0.4597727
vn -0.1453179 0.9786549 0.1453179
vn -0.2654499 0.8474345 0.4597727
vn -0.4597727 0.8474345 0.2654499
vn -0.5140254 0.8549294 0.06981172
vn -0.4597727 0.8474345 -0.2654499
vn -0.06981172 0.8549294 0.5140254
vn -0.5140254 0.8549294 -0.06981172
vn -0.06981172 -0.8549294 0.5140254
vn -0.1453179 -0.9786549 0.1453179
vn -0.2654499 -0.8474345 0.4597727
vn -0.4597727 -0.8474345 0.2654499
vn -0.5140254 -0.8549294 0.06981172
vn -0.1453179 -0.9786549 -0.1453179
vn -0.06981172 -0.8549294 -0.5140254
vn -0.2654499 -0.8474345 -0.4597727
vn -0.4597727 -0.8474345 -0.2654499
vn -0.5140254 -0.8549294 -0.06981172
vn 0.8660254 -0.5 0
vn 0.5 -0.8660254 0
vn 0.865321 -0.4883322 0.1129214
vn 0.9659258 -0.258819 0
vn 0.9702645 -0.1711532 0.1711532
vn 0.858921 0.1278264 -0.4958982
vn 0.8660254 0 -0.5
vn 0.9702645 0.1711532 -0.1711532
vn 0.9659258 0 -0.258819
vn 0.865321 0.4883322 -0.1129214
vn 0.865321 0.4883322 0.1129214
vn 0.9702645 0.1711532 0.1711532
vn 0.4958982 0.1278264 -0.858921
vn 0.5 0 -0.8660254
vn 0.258819 0 -0.9659258
vn 0.1711532 0.1711532 -0.9702645
vn 0.258819 -0.9659258 0
vn 0.1129214 -0.4883322 0.865321
vn -0.1129214 -0.4883322 0.865321
vn 0.1711532 -0.1711532 0.9702645
vn -0.1711532 -0.1711532 0.9702645
vn -0.858921 -0.1278264 0.4958982
vn -0.858921 0.1278264 0.4958982
vn -0.4958982 -0.1278264 0.858921
vn -0.4958982 0.1278264 0.858921
vn -0.9702645 -0.1711532 0.1711532
vn -0.9702645 0.1711532 0.1711532
vn -0.1129214 0.4883322 -0.865321
vn 0.1129214 0.4883322 -0.865321
vn 0.4958982 -0.1278264 0.858921
vn 0.4958982 0.1278264 0.858921
vn 0.1711532 0.1711532 0.9702645
vn 0.858921 0.1278264 0.4958982
vn 0.858921 -0.1278264 0.4958982
vn -0.1711532 0.1711532 -0.9702645
vn -0.865321 0.4883322 -0.1129214
vn -0.865321 0.4883322 0.1129214
vn -0.1711532 0.1711532 0.9702645
vn 0.1129214 0.4883322 0.865321
vn -0.1129214 0.4883322 0.865321
vn -0.9702645 0.1711532 -0.1711532
vn 0 -0.8660254 -0.5
vn 0.1129214 -0.4883322 -0.865321
vn -0.1129214 -0.4883322 -0.865321
vn -0.1711532 -0.1711532 -0.9702645
vn 0.1235385 -0.2568364 -0.9585266
vn 0.7586237 -0.4823416 -0.4379916
vn 0.4379916 -0.4823416 -0.7586237
vn 0.8365163 -0.258819 -0.4829629
vn 0.9351131 -0.2505628 -0.2505628
vn 0.8528062 -0.4695798 -0.2285087
vn -0.858921 -0.1278264 -0.4958982
vn -0.858921 0.1278264 -0.4958982
vn -0.9702645 -0.1711532 -0.1711532
vn -0.4958982 -0.1278264 -0.858921
vn -0.4958982 0.1278264 -0.858921
vn 0.4829629 -0.258819 -0.8365163
vn 0.7586237 -0.4823416 0.4379916
vn 0.4379916 -0.4823416 0.7586237
vn -0.865321 -0.4883322 -0.1129214
vn -0.865321 -0.4883322 0.1129214
vn 0 -0.9659258 -0.258819
vn 0.7586237 0.4823416 -0.4379916
vn 0.4379916 0.4823416 -0.7586237
vn 0.7586237 0.4823416 0.4379916
vn 0.4379916 0.4823416 0.7586237
vn -0.7586237 0.4823416 -0.4379916
vn -0.4379916 0.4823416 0.7586237
vn -0.7586237 0.4823416 0.4379916
vn -0.4379916 0.4823416 -0.7586237
vn -0.4379916 -0.4823416 0.7586237
vn -0.7586237 -0.4823416 0.4379916
vn -0.4379916 -0.4823416 -0.7586237
vn -0.7586237 -0.4823416 -0.4379916
vn 1 0 0
vn -1 0 0
vn 0 1 0
vn 0 0 1
vn 0 -1 0
vn 0 0 -1

vt -14.42891 36.84681
vt -13.40994 36.84681
vt -13.91943 34.87358
vt 5.53119 38.8811
vt 6.550163 38.8811
vt 6.040677 36.90787
vt 13.40994 36.84681
vt 14.42891 36.84681
vt 13.91943 34.87358
vt -6.550163 38.8811
vt -5.53119 38.8811
vt -6.040677 36.90787
vt 29.64034 25.46818
vt 30.65931 25.46818
vt 30.14983 23.49495
vt -30.14983 23.49495
vt -30.65931 25.46818
vt -29.64034 25.46818
vt -13.40994 -31.58486
vt -14.42891 -31.58486
vt -13.91943 -29.61163
vt -5.53119 -33.61914
vt -6.550163 -33.61914
vt -6.040677 -31.64591
vt -29.64034 -20.20623
vt -30.65931 -20.20623
vt -30.14983 -18.233
vt 14.42891 -31.58486
vt 13.40994 -31.58486
vt 13.91943 -29.61163
vt 6.550163 -33.61914
vt 5.53119 -33.61914
vt 6.040677 -31.64591
vt 30.14983 -18.233
vt 30.65931 -20.20623
vt 29.64034 -20.20623
vt 15.74803 28.85782
vt 15.74803 26.81988
vt -15.74803 28.85782
vt -15.74803 26.81988
vt 15.74803 13.99258
vt 15.74803 11.95464
vt -15.74803 13.99258
vt -15.74803 11.95464
vt 7.059649 15.74803
vt 7.059649 3.937008
vt 5.021704 15.74803
vt 5.021704 3.937008
vt 15.74803 7.059649
vt 15.74803 5.021704
vt -15.74803 7.059649
vt -15.74803 5.021704
vt -12.90045 15.74803
vt -12.90045 3.937008
vt -14.9384 15.74803
vt -14.9384 3.937008
vt -29.13086 3.937008
vt -31.1688 3.937008
vt -29.13086 15.74803
vt -31.1688 15.74803
vt 15.74803 -31.1688
vt -15.74803 -31.1688
vt 15.74803 -29.13086
vt -15.74803 -29.13086
vt 15.74803 -12.90045
vt 15.74803 -14.9384
vt -15.74803 -12.90045
vt -15.74803 -14.9384
vt -15.74803 36.26366
vt 15.74803 36.26366
vt -15.74803 34.22572
vt 15.74803 34.22572
vt 35.43307 -10.11657
vt 35.43307 -12.15451
vt -35.43307 -10.11657
vt -35.43307 -12.15451
vt 35.43307 6.859776
vt -35.43307 6.859776
vt 35.43307 8.89772
vt -35.43307 8.89772
vt 35.43307 -1.018973
vt -35.43307 -1.018973
vt 35.43307 1.018973
vt -35.43307 1.018973
vt 31.1688 3.937008
vt 29.13086 3.937008
vt 31.1688 15.74803
vt 29.13086 15.74803
vt -5.021704 15.74803
vt -5.021704 3.937008
vt -7.059649 15.74803
vt -7.059649 3.937008
vt 35.43307 10.11657
vt -35.43307 10.11657
vt 35.43307 12.15451
vt -35.43307 12.15451
vt 35.43307 17.24938
vt 35.43307 15.21143
vt -35.43307 17.24938
vt -35.43307 15.21143
vt 35.43307 14.9384
vt 35.43307 12.90045
vt -35.43307 14.9384
vt -35.43307 12.90045
vt 14.9384 15.74803
vt 14.9384 3.937008
vt 12.90045 15.74803
vt 12.90045 3.937008
vt -14.80188 28.84714
vt -13.03697 28.84714
vt -14.42891 26.84362
vt -13.40994 26.84362
vt 7.059649 14.36123
vt 6.923133 12.32786
vt 5.021704 14.36123
vt 5.158221 12.32786
vt -31.03228 20.64335
vt -29.26737 20.64335
vt -30.65931 18.63983
vt -29.64034 18.63983
vt -12.90045 13.83227
vt -13.03697 11.7989
vt -14.9384 13.83227
vt -14.80188 11.7989
vt 6.923133 30.31383
vt 6.550163 28.3103
vt 5.158221 30.31383
vt 5.53119 28.3103
vt -5.158221 30.31383
vt -5.53119 28.3103
vt -6.923133 30.31383
vt -6.550163 28.3103
vt 14.80188 28.84714
vt 14.42891 26.84362
vt 13.03697 28.84714
vt 13.40994 26.84362
vt -29.26737 8.840174
vt -31.03228 8.840174
vt -29.13086 10.87354
vt -31.1688 10.87354
vt 30.65931 18.63983
vt 29.64034 18.63983
vt 31.03228 20.64335
vt 29.26737 20.64335
vt -14.80188 -14.68859
vt -14.42891 -12.68506
vt -13.03697 -14.68859
vt -13.40994 -12.68506
vt -12.90045 5.224826
vt -14.9384 5.224826
vt -13.03697 7.258193
vt -14.80188 7.258193
vt 14.80188 11.7989
vt 13.03697 11.7989
vt 14.9384 13.83227
vt 12.90045 13.83227
vt 31.03228 8.840174
vt 29.26737 8.840174
vt 31.1688 10.87354
vt 29.13086 10.87354
vt 6.923133 -16.15527
vt 5.158221 -16.15527
vt 6.550163 -14.15175
vt 5.53119 -14.15175
vt -29.26737 -6.484798
vt -31.03228 -6.484798
vt -29.64034 -4.481273
vt -30.65931 -4.481273
vt -29.13086 8.183552
vt -31.1688 8.183552
vt -29.26737 10.21692
vt -31.03228 10.21692
vt -5.53119 -14.15175
vt -5.158221 -16.15527
vt -6.550163 -14.15175
vt -6.923133 -16.15527
vt -5.021704 14.36123
vt -5.158221 12.32786
vt -7.059649 14.36123
vt -6.923133 12.32786
vt 14.80188 -14.68859
vt 13.03697 -14.68859
vt 14.42891 -12.68506
vt 13.40994 -12.68506
vt 7.059649 4.695861
vt 5.021704 4.695861
vt 6.923133 6.729229
vt 5.158221 6.729229
vt -5.158221 6.729229
vt -5.021704 4.695861
vt -6.923133 6.729229
vt -7.059649 4.695861
vt 31.1688 8.183552
vt 29.13086 8.183552
vt 31.03228 10.21692
vt 29.26737 10.21692
vt 14.80188 7.258193
vt 14.9384 5.224826
vt 13.03697 7.258193
vt 12.90045 5.224826
vt 31.03228 -6.484798
vt 29.26737 -6.484798
vt 30.65931 -4.481273
vt 29.64034 -4.481273
vt 15.74803 15.74803
vt 15.74803 3.937008
vt -15.74803 15.74803
vt -15.74803 3.937008
vt -35.43307 -15.74803
vt -35.43307 15.74803
vt 35.43307 -15.74803
vt 35.43307 15.74803
vt 35.43307 3.937008
vt -35.43307 3.937008

usemtl dirt

f 3/3/3 2/2/2 1/1/1
f 3/6/3 1/5/1 4/4/4
f 7/9/7 6/8/6 5/7/5
f 7/12/7 8/11/8 6/10/6
f 7/15/7 5/14/5 9/13/9
f 10/18/10 2/17/2 3/16/3
f 13/21/13 12/20/12 11/19/11
f 16/24/16 15/23/15 14/22/14
f 13/27/13 11/26/11 17/25/17
f 16/30/16 18/29/18 15/28/15
f 13/33/13 19/32/19 12/31/12
f 20/36/20 18/35/18 16/34/16
f 23/35/23 22/34/22 21/36/21
f 26/20/26 25/19/25 24/21/24
f 27/32/27 26/31/26 24/33/24
f 28/28/28 22/30/22 23/29/23
f 25/26/25 29/25/29 24/27/24
f 30/22/30 22/24/22 28/23/28
f 33/17/33 32/16/32 31/18/31
f 35/4/35 32/6/32 34/5/34
f 34/1/34 32/3/32 33/2/33
f 38/14/38 37/13/37 36/15/36
f 39/8/39 38/7/38 36/9/36
f 40/11/40 39/10/39 36/12/36
f 42/39/43 4/38/42 41/37/41
f 4/38/42 42/39/43 8/40/8
f 44/43/45 41/42/41 43/41/44
f 41/42/41 44/43/45 42/44/43
f 47/47/48 46/46/47 45/45/46
f 46/46/47 47/47/48 43/48/49
f 49/51/51 47/50/48 48/49/50
f 47/50/48 49/51/51 50/52/52
f 45/55/46 52/54/54 51/53/53
f 52/54/54 45/55/46 46/56/47
f 54/59/56 52/58/54 53/57/55
f 52/58/54 54/59/56 51/60/53
f 13/63/13 14/62/14 19/61/19
f 14/62/14 13/63/13 16/64/16
f 14/67/14 48/66/50 19/65/19
f 48/66/50 14/67/14 49/68/51
f 7/71/57 4/70/42 8/69/8
f 4/70/42 7/71/57 3/72/57
f 24/75/24 20/74/20 16/73/16
f 20/74/20 24/75/24 29/76/29
f 57/79/60 56/78/59 55/77/58
f 56/78/59 57/79/60 58/80/61
f 30/62/30 24/63/24 22/64/22
f 24/63/24 30/62/30 27/61/27
f 61/54/64 60/55/63 59/56/62
f 60/55/63 61/54/64 62/53/65
f 59/46/62 64/47/67 63/48/66
f 64/47/67 59/46/62 60/45/63
f 21/83/21 66/82/69 65/81/68
f 66/82/69 21/83/21 17/84/17
f 35/70/35 36/71/36 32/72/32
f 36/71/36 35/70/35 40/69/40
f 68/87/71 57/86/60 67/85/70
f 57/86/60 68/87/71 69/88/72
f 21/74/21 13/75/13 17/76/17
f 13/75/13 21/74/21 22/73/22
f 70/91/73 44/90/45 50/89/52
f 44/90/45 70/91/73 71/92/74
f 65/95/68 54/94/56 72/93/75
f 54/94/56 65/95/68 66/96/69
f 74/66/77 30/67/30 73/68/76
f 30/67/30 74/66/77 27/65/27
f 76/95/79 75/94/78 69/93/72
f 75/94/78 76/95/79 77/96/80
f 31/99/31 7/98/7 9/97/9
f 7/98/7 31/99/31 32/100/32
f 56/103/59 9/102/9 55/101/58
f 9/102/9 56/103/59 31/104/31
f 20/83/20 77/82/80 76/81/79
f 77/82/80 20/83/20 29/84/29
f 68/107/71 71/106/74 70/105/73
f 71/106/74 68/107/71 67/108/70
f 75/59/78 61/58/64 58/57/61
f 61/58/64 75/59/78 62/60/65
f 64/50/67 73/51/76 78/52/81
f 73/51/76 64/50/67 74/49/77
f 37/102/37 79/103/83 10/104/82
f 79/103/83 37/102/37 80/101/84
f 81/79/85 79/78/83 80/77/84
f 79/78/83 81/79/85 53/80/86
f 1/111/1 83/110/88 82/109/87
f 83/110/88 1/111/1 2/112/2
f 43/115/90 82/114/87 46/113/89
f 82/114/87 43/115/90 41/116/91
f 86/90/94 85/91/93 84/92/92
f 85/91/93 86/90/94 78/89/81
f 2/119/2 79/118/83 83/117/88
f 79/118/83 2/119/2 10/120/10
f 88/87/96 81/86/85 87/85/95
f 81/86/85 88/87/96 72/88/75
f 46/123/89 83/122/88 52/121/97
f 83/122/88 46/123/89 82/124/87
f 41/127/91 1/126/1 82/125/87
f 1/126/1 41/127/91 4/128/4
f 89/131/98 8/130/8 42/129/43
f 8/130/8 89/131/98 6/132/6
f 90/135/99 6/134/6 89/133/98
f 6/134/6 90/135/99 5/136/5
f 35/38/35 91/39/100 40/40/40
f 91/39/100 35/38/35 92/37/101
f 84/106/92 88/107/96 87/108/95
f 88/107/96 84/106/92 85/105/93
f 53/139/86 83/138/88 79/137/83
f 83/138/88 53/139/86 52/140/97
f 36/98/36 10/99/82 3/100/102
f 10/99/82 36/98/36 37/97/37
f 90/143/99 9/142/9 5/141/5
f 9/142/9 90/143/99 55/144/58
f 92/42/101 86/43/94 91/44/100
f 86/43/94 92/42/101 63/41/66
f 94/147/104 12/146/12 93/145/103
f 12/146/12 94/147/104 11/148/11
f 94/151/104 45/150/46 51/149/53
f 45/150/46 94/151/104 93/152/103
f 71/155/74 90/154/99 89/153/98
f 90/154/99 71/155/74 67/156/70
f 67/159/70 55/158/58 90/157/99
f 55/158/58 67/159/70 57/160/60
f 12/163/12 48/162/50 93/161/103
f 48/162/50 12/163/12 19/164/19
f 17/167/17 94/166/104 66/165/69
f 94/166/104 17/167/17 11/168/11
f 66/171/69 51/170/53 54/169/56
f 51/170/53 66/171/69 94/172/104
f 15/175/15 49/174/51 14/173/14
f 49/174/51 15/175/15 95/176/105
f 71/179/74 42/178/43 44/177/45
f 42/178/43 71/179/74 89/180/98
f 15/183/15 96/182/106 95/181/105
f 96/182/106 15/183/15 18/184/18
f 93/187/103 47/186/48 45/185/46
f 47/186/48 93/187/103 48/188/50
f 95/191/105 50/190/52 49/189/51
f 50/190/52 95/191/105 70/192/73
f 96/195/106 69/194/72 68/193/71
f 69/194/72 96/195/106 76/196/79
f 78/190/81 97/191/107 85/192/93
f 97/191/107 78/190/81 73/189/76
f 25/168/25 77/165/80 29/167/29
f 77/165/80 25/168/25 98/166/108
f 26/146/26 98/147/108 25/148/25
f 98/147/108 26/146/26 99/145/109
f 96/199/106 70/198/73 95/197/105
f 70/198/73 96/199/106 68/200/71
f 100/182/110 28/183/28 23/184/23
f 28/183/28 100/182/110 97/181/107
f 99/161/109 27/164/27 74/162/77
f 27/164/27 99/161/109 26/163/26
f 77/171/80 62/170/65 75/169/78
f 62/170/65 77/171/80 98/172/108
f 18/203/18 76/202/79 96/201/106
f 76/202/79 18/203/18 20/204/20
f 85/198/93 100/199/110 88/200/96
f 100/199/110 85/198/93 97/197/107
f 100/201/110 21/204/21 65/202/68
f 21/204/21 100/201/110 23/203/23
f 100/195/110 72/194/75 88/193/96
f 72/194/75 100/195/110 65/196/68
f 73/174/76 28/175/28 97/176/107
f 28/175/28 73/174/76 30/173/30
f 60/150/63 98/151/108 99/152/109
f 98/151/108 60/150/63 62/149/65
f 60/185/63 74/188/77 64/186/67
f 74/188/77 60/185/63 99/187/109
f 101/110/111 34/111/34 33/112/33
f 34/111/34 101/110/111 102/109/112
f 101/117/111 31/120/31 56/118/59
f 31/120/31 101/117/111 33/119/33
f 87/159/95 80/158/84 103/157/113
f 80/158/84 87/159/95 81/160/85
f 39/134/39 103/135/113 38/136/38
f 103/135/113 39/134/39 104/133/114
f 101/122/111 59/123/62 102/124/112
f 59/123/62 101/122/111 61/121/64
f 34/126/34 92/127/101 35/128/35
f 92/127/101 34/126/34 102/125/112
f 58/139/61 101/138/111 56/137/59
f 101/138/111 58/139/61 61/140/64
f 102/114/112 63/115/66 92/116/101
f 63/115/66 102/114/112 59/113/62
f 39/132/39 91/129/100 104/131/114
f 91/129/100 39/132/39 40/130/40
f 38/141/38 80/144/84 37/142/37
f 80/144/84 38/141/38 103/143/113
f 103/154/113 84/155/92 87/156/95
f 84/155/92 103/154/113 104/153/114
f 104/180/114 86/177/94 84/179/92
f 86/177/94 104/180/114 91/178/100
f 50/207/115 43/206/115 47/205/115
f 43/206/115 50/207/115 44/208/115
f 63/206/116 78/207/116 86/208/116
f 78/207/116 63/206/116 64/205/116
f 22/211/117 16/210/117 13/209/117
f 16/210/117 22/211/117 24/212/117
f 69/212/118 58/214/118 57/213/118
f 58/214/118 69/212/118 75/210/118
f 32/210/119 3/211/119 7/212/119
f 3/211/119 32/210/119 36/209/119
f 72/212/120 53/214/120 81/213/120
f 53/214/120 72/212/120 54/210/120

