# Created by Kenney (www.kenney.nl)

mtllib blockSlope.mtl

g blockSlope

v -0.5 0 -0.5
v -0.5 1 -0.5
v -0.5 -1.425775E-14 0.5
v 0.5 1 -0.5
v 0.5 0 -0.5
v 0.5 -1.371632E-14 0.5
v -0.591514 -0.1585069 0.5
v -0.5 -0.1585069 0.591514
v -0.591514 0.8414931 -0.5
v -0.5 0.8414931 -0.591514
v 0.591514 -0.1585069 0.5
v 0.5 -0.1585069 0.591514
v 0.5 0.8414931 -0.591514
v 0.591514 0.8414931 -0.5
v 0.4166667 -0.2304112 0.633028
v 0.3333333 -0.1585069 0.591514
v 0.1666667 -0.1585069 0.591514
v 0.25 -0.2304112 0.633028
v 1.443823E-15 -0.1585069 0.591514
v 0.0833333 -0.2304112 0.633028
v -0.1666667 -0.1585069 0.591514
v -0.0833333 -0.2304112 0.633028
v -0.3333333 -0.1585069 0.591514
v -0.25 -0.2304112 0.633028
v -0.4166666 -0.2304112 0.633028
v 0.591514 0.7164931 -0.375
v 0.633028 0.7070888 -0.4375
v 0.591514 0.5914931 -0.25
v 0.591514 0.4664931 -0.125
v 0.633028 0.5820887 -0.3125
v 0.633028 0.4570888 -0.1875
v 0.591514 0.3414931 2.519471E-13
v 0.633028 0.3320887 -0.0625
v 0.591514 0.2164931 0.125
v 0.633028 0.2070887 0.0625
v 0.591514 0.09149311 0.25
v 0.633028 0.08208875 0.1875
v 0.633028 -0.04291125 0.3125
v 0.591514 -0.0335069 0.375
v 0.633028 -0.1679112 0.4375001
v -0.633028 0.7070888 -0.4375
v -0.591514 0.7164931 -0.375
v -0.591514 0.5914931 -0.25
v -0.591514 0.4664931 -0.125
v -0.633028 0.5820887 -0.3125
v -0.633028 0.4570888 -0.1875
v -0.591514 0.3414931 2.519471E-13
v -0.633028 0.3320887 -0.0625
v -0.591514 0.2164931 0.125
v -0.633028 0.2070887 0.0625
v -0.591514 0.09149311 0.25
v -0.633028 0.08208875 0.1875
v -0.633028 -0.04291125 0.3125
v -0.591514 -0.0335069 0.375
v -0.633028 -0.1679112 0.4375001
v -0.4166666 0.7695886 -0.633028
v -0.3333333 0.8414931 -0.591514
v -0.1666667 0.8414931 -0.591514
v -0.25 0.7695886 -0.633028
v 1.443823E-15 0.8414931 -0.591514
v -0.0833333 0.7695886 -0.633028
v 0.1666667 0.8414931 -0.591514
v 0.0833333 0.7695886 -0.633028
v 0.3333333 0.8414931 -0.591514
v 0.25 0.7695886 -0.633028
v 0.4166667 0.7695886 -0.633028

vn -1 0 0
vn 1 0 0
vn 0 0 -1
vn 0 -1 0
vn -0.6546537 0.3779645 0.6546537
vn 0.6546537 -0.3779645 -0.6546537
vn -0.6546537 0.3779645 -0.6546535
vn 0.6546537 -0.3779645 0.6546535
vn 0.6546535 0.3779645 0.6546537
vn -0.6546535 -0.3779645 -0.6546537
vn 0.6546537 0.3779645 -0.6546537
vn -0.6546537 -0.3779645 0.6546537
vn 0 0.5000001 0.8660253
vn 0 -0.5000001 -0.8660253
vn 0.7745966 0.4472136 0.4472136
vn -0.7745966 -0.4472136 -0.4472136
vn 0 0.7071068 0.7071068
vn -0.7745966 0.4472136 0.4472136
vn 0.7745966 -0.4472136 -0.4472136
vn 0 0.4999999 -0.8660254
vn 0 -0.4999999 0.8660254

vt -19.68504 0
vt -19.68504 39.37008
vt 19.68504 -5.613288E-13
vt 19.68504 39.37008
vt 19.68504 -3.253215E-28
vt -19.68504 -5.400125E-13
vt 19.68504 -3.552714E-15
vt -19.68504 -3.552714E-15
vt 19.68504 19.68504
vt 19.68504 -19.68504
vt -19.68504 19.68504
vt -19.68504 -19.68504
vt -2.547644 -17.26253
vt 7.057466E-12 -10.5221
vt 2.547644 -17.26253
vt 2.547643 19.18708
vt -2.547647 19.18708
vt -1.521009E-06 25.92751
vt 2.547647 -17.26253
vt -2.547643 -17.26253
vt 1.521006E-06 -10.5221
vt 7.858958E-11 25.92751
vt 2.547645 19.18708
vt -2.547645 19.18708
vt 16.4042 -20.31717
vt 13.12336 -17.04835
vt 19.68504 -17.04835
vt 19.68504 -9.842522
vt 6.561681 -17.04835
vt 9.84252 -20.31717
vt 6.676175E-14 -17.04835
vt 3.280838 -20.31717
vt -6.561681 -17.04835
vt -3.280838 -20.31717
vt -13.12336 -17.04835
vt -9.84252 -20.31717
vt -19.68504 -17.04835
vt -19.68504 -9.842522
vt -16.4042 -20.31717
vt 26.89026 31.99139
vt 28.69172 25.01438
vt -7.205224 -12.02569
vt 24.42978 19.51225
vt 27.37796 19.0983
vt 20.16785 14.01011
vt 15.90591 8.507975
vt 23.11602 13.59616
vt 18.85409 8.094025
vt 11.64398 3.005839
vt 14.59215 2.591885
vt 7.382041 -2.496297
vt 10.33021 -2.91025
vt 3.120105 -7.998432
vt 6.068277 -8.412385
vt 1.806342 -13.91452
vt -1.141831 -13.50057
vt -2.455598 -19.41665
vt -5.403767 -19.0027
vt -19.68504 -13.91943
vt -19.68504 41.75827
vt 19.68504 -13.91943
vt 19.68504 41.75827
vt -28.69172 25.01438
vt -26.89026 31.99139
vt -27.37796 19.0983
vt -24.42978 19.51225
vt 7.205224 -12.02569
vt -20.16785 14.01011
vt -15.90591 8.507975
vt -23.11602 13.59616
vt -18.85409 8.094025
vt -11.64398 3.005839
vt -14.59215 2.591885
vt -7.382041 -2.496297
vt -10.33021 -2.910251
vt -3.120105 -7.998432
vt -6.068278 -8.412385
vt -1.806342 -13.91452
vt 1.141831 -13.50057
vt 2.455598 -19.41665
vt 5.403767 -19.0027
vt 16.4042 13.77833
vt 13.12336 17.04715
vt 19.68504 17.04715
vt 19.68504 24.25297
vt 6.561681 17.04715
vt 9.84252 13.77833
vt -5.017966E-14 17.04715
vt 3.280838 13.77833
vt -6.561681 17.04715
vt -3.280838 13.77833
vt -13.12336 17.04715
vt -9.84252 13.77833
vt -19.68504 17.04715
vt -19.68504 24.25297
vt -16.4042 13.77833

usemtl dirt

f 3/3/1 2/2/1 1/1/1
f 6/6/2 5/5/2 4/4/2
f 2/4/3 5/8/3 1/7/3
f 5/8/3 2/4/3 4/2/3
f 3/11/4 5/10/4 6/9/4
f 5/10/4 3/11/4 1/12/4

usemtl grass

f 8/15/5 3/14/5 7/13/5
f 7/13/6 3/14/6 8/15/6
f 2/18/7 10/17/7 9/16/7
f 9/16/8 10/17/8 2/18/8
f 6/21/9 12/20/9 11/19/9
f 11/19/10 12/20/10 6/21/10
f 14/24/11 13/23/11 4/22/11
f 4/22/12 13/23/12 14/24/12
f 12/27/13 16/26/13 15/25/13
f 16/26/13 12/27/13 6/28/13
f 16/26/13 6/28/13 17/29/13
f 17/29/13 18/30/13 16/26/13
f 17/29/13 6/28/13 19/31/13
f 19/31/13 20/32/13 17/29/13
f 19/31/13 6/28/13 21/33/13
f 21/33/13 22/34/13 19/31/13
f 21/33/13 6/28/13 23/35/13
f 23/35/13 24/36/13 21/33/13
f 23/35/13 6/28/13 8/37/13
f 8/37/13 6/28/13 3/38/13
f 8/37/13 25/39/13 23/35/13
f 15/25/14 16/26/14 12/27/14
f 6/28/14 12/27/14 16/26/14
f 17/29/14 6/28/14 16/26/14
f 16/26/14 18/30/14 17/29/14
f 19/31/14 6/28/14 17/29/14
f 17/29/14 20/32/14 19/31/14
f 21/33/14 6/28/14 19/31/14
f 19/31/14 22/34/14 21/33/14
f 23/35/14 6/28/14 21/33/14
f 21/33/14 24/36/14 23/35/14
f 8/37/14 6/28/14 23/35/14
f 23/35/14 25/39/14 8/37/14
f 3/38/14 6/28/14 8/37/14
f 6/42/15 14/41/15 4/40/15
f 14/41/15 6/42/15 26/43/15
f 14/41/15 26/43/15 27/44/15
f 26/43/15 6/42/15 28/45/15
f 28/45/15 6/42/15 29/46/15
f 26/43/15 28/45/15 30/47/15
f 28/45/15 29/46/15 31/48/15
f 29/46/15 6/42/15 32/49/15
f 29/46/15 32/49/15 33/50/15
f 32/49/15 6/42/15 34/51/15
f 32/49/15 34/51/15 35/52/15
f 34/51/15 6/42/15 36/53/15
f 34/51/15 36/53/15 37/54/15
f 36/53/15 6/42/15 38/55/15
f 38/55/15 6/42/15 39/56/15
f 39/56/15 6/42/15 40/57/15
f 40/57/15 6/42/15 11/58/15
f 4/40/16 14/41/16 6/42/16
f 26/43/16 6/42/16 14/41/16
f 27/44/16 26/43/16 14/41/16
f 28/45/16 6/42/16 26/43/16
f 29/46/16 6/42/16 28/45/16
f 30/47/16 28/45/16 26/43/16
f 31/48/16 29/46/16 28/45/16
f 32/49/16 6/42/16 29/46/16
f 33/50/16 32/49/16 29/46/16
f 34/51/16 6/42/16 32/49/16
f 35/52/16 34/51/16 32/49/16
f 36/53/16 6/42/16 34/51/16
f 37/54/16 36/53/16 34/51/16
f 38/55/16 6/42/16 36/53/16
f 39/56/16 6/42/16 38/55/16
f 40/57/16 6/42/16 39/56/16
f 11/58/16 6/42/16 40/57/16
f 6/61/17 2/60/17 3/59/17
f 2/60/17 6/61/17 4/62/17
f 41/65/18 2/64/18 9/63/18
f 2/64/18 41/65/18 42/66/18
f 2/64/18 42/66/18 3/67/18
f 3/67/18 42/66/18 43/68/18
f 3/67/18 43/68/18 44/69/18
f 43/68/18 42/66/18 45/70/18
f 44/69/18 43/68/18 46/71/18
f 3/67/18 44/69/18 47/72/18
f 47/72/18 44/69/18 48/73/18
f 3/67/18 47/72/18 49/74/18
f 49/74/18 47/72/18 50/75/18
f 3/67/18 49/74/18 51/76/18
f 51/76/18 49/74/18 52/77/18
f 3/67/18 51/76/18 53/78/18
f 3/67/18 53/78/18 54/79/18
f 3/67/18 54/79/18 55/80/18
f 3/67/18 55/80/18 7/81/18
f 9/63/19 2/64/19 41/65/19
f 42/66/19 41/65/19 2/64/19
f 3/67/19 42/66/19 2/64/19
f 43/68/19 42/66/19 3/67/19
f 44/69/19 43/68/19 3/67/19
f 45/70/19 42/66/19 43/68/19
f 46/71/19 43/68/19 44/69/19
f 47/72/19 44/69/19 3/67/19
f 48/73/19 44/69/19 47/72/19
f 49/74/19 47/72/19 3/67/19
f 50/75/19 47/72/19 49/74/19
f 51/76/19 49/74/19 3/67/19
f 52/77/19 49/74/19 51/76/19
f 53/78/19 51/76/19 3/67/19
f 54/79/19 53/78/19 3/67/19
f 55/80/19 54/79/19 3/67/19
f 7/81/19 55/80/19 3/67/19
f 10/84/20 57/83/20 56/82/20
f 57/83/20 10/84/20 2/85/20
f 57/83/20 2/85/20 58/86/20
f 58/86/20 59/87/20 57/83/20
f 58/86/20 2/85/20 60/88/20
f 60/88/20 61/89/20 58/86/20
f 60/88/20 2/85/20 62/90/20
f 62/90/20 63/91/20 60/88/20
f 62/90/20 2/85/20 64/92/20
f 64/92/20 65/93/20 62/90/20
f 64/92/20 2/85/20 13/94/20
f 13/94/20 2/85/20 4/95/20
f 13/94/20 66/96/20 64/92/20
f 56/82/21 57/83/21 10/84/21
f 2/85/21 10/84/21 57/83/21
f 58/86/21 2/85/21 57/83/21
f 57/83/21 59/87/21 58/86/21
f 60/88/21 2/85/21 58/86/21
f 58/86/21 61/89/21 60/88/21
f 62/90/21 2/85/21 60/88/21
f 60/88/21 63/91/21 62/90/21
f 64/92/21 2/85/21 62/90/21
f 62/90/21 65/93/21 64/92/21
f 13/94/21 2/85/21 64/92/21
f 64/92/21 66/96/21 13/94/21
f 4/95/21 2/85/21 13/94/21

