# Created by Kenney (www.kenney.nl)

mtllib bridge.mtl

g bridge

v -0.43 0.3575 0.2750883
v -0.43 0.3575 0.1138089
v -0.4980423 0.3575 0.2766323
v -0.5 0.3575 0.1153975
v 0.5 0.3925 -0.0806189
v 0.5 0.3925 0.0806189
v -0.5 0.3925 -0.0806189
v -0.5 0.3925 0.0806189
v -0.43 0.3575 -0.2887622
v -0.43 0.3575 -0.45
v -0.5 0.3575 -0.2887622
v -0.5 0.3575 -0.45
v 0.5 0.3575 0.0806189
v 0.5 0.3575 -0.0806189
v 0.43 0.3575 0.0806189
v 0.43 0.3575 -0.0806189
v 0.5 0.3925 -0.45
v 0.5 0.3925 -0.2887622
v -0.5 0.3925 -0.45
v -0.5 0.3925 -0.2887622
v -0.5 0.3575 0.2887622
v -0.43 0.3575 0.2887622
v -0.5 0.3925 0.2887622
v -0.36 0.3575 0.2887622
v 0.36 0.3575 0.2887622
v 0.43 0.3575 0.2887622
v 0.5 0.3575 0.2887622
v 0.5 0.3925 0.2887622
v 0.5 0.3575 -0.45
v 0.5 0.3575 -0.2887622
v -0.5 0.3575 -0.0806189
v -0.43 0.3575 -0.0806189
v -0.36 0.3575 -0.0806189
v 0.36 0.3575 -0.0806189
v 0.5 0.3925 0.4499999
v -0.5 0.3925 0.4499999
v -0.43 0.3575 0.0806189
v -0.5 0.3575 0.0806189
v 0.5 0.3575 0.4499999
v 0.43 0.3575 0.4499999
v 0.36 0.3575 0.4499999
v -0.36 0.3575 0.4499999
v -0.43 0.3575 0.4499999
v -0.5 0.3575 0.4499999
v 0.43 0.3575 -0.2887622
v 0.36 0.3575 -0.2887622
v -0.36 0.3575 -0.2887622
v -0.43 0.3575 -0.1108167
v -0.43 0.3575 -0.2720744
v -0.5 0.3575 -0.1119164
v -0.4986719 0.3575 -0.2731532
v -0.36 0.3575 -0.45
v 0.36 0.3575 -0.45
v 0.43 0.3575 -0.45
v 0.36 0.3575 -0.0984064
v 0.36 0.3575 -0.2596641
v -0.36 0.3575 -0.109717
v -0.36 0.3575 -0.2709747
v 0.498672 0.3575 -0.0962279
v 0.43 0.3575 -0.0973067
v 0.498672 0.375 -0.0962279
v -0.5 0.375 -0.1119164
v 0.5 0.375 0.2539836
v -0.4980423 0.375 0.2766323
v 0.4980423 0.375 0.0927488
v -0.5 0.375 0.1153975
v 0.5 0.3575 0.2539836
v 0.4980423 0.3575 0.0927488
v 0.43 0.3575 0.2555721
v 0.43 0.3575 0.0942928
v 0.36 0.3575 0.2571607
v -0.36 0.3575 0.2734997
v 0.36 0.3575 0.0806189
v -0.36 0.3575 0.0806189
v 0.36 0.3575 0.0958813
v -0.36 0.3575 0.1122204
v -0.4986719 0.375 -0.2731532
v 0.43 0.3575 -0.2585644
v 0.5 0.3575 -0.2574647
v 0.5 0.375 -0.2574647
v -0.4125 0.098995 -0.5
v -0.4125 0.2875 -0.3114949
v -0.4125 0 -0.5
v -0.4125 0.2875 -0.2125
v 0.4125 0.098995 -0.5
v 0.4125 0.2875 -0.3114949
v 0.3775 0.098995 -0.5
v 0.3775 0.2875 -0.3114949
v -0.36 0.3575 0.5
v -0.43 0.3575 0.5
v -0.4125 0 0.5
v -0.3775 0 0.5
v -0.4125 0.2875 0.2125
v -0.3775 0.2875 0.2125
v -0.3775 0.098995 -0.5
v -0.3775 0.2875 -0.3114949
v 0.4125 0 0.5
v 0.3775 0 0.5
v 0.4125 0.098995 0.5
v 0.3775 0.098995 0.5
v 0.4125 0.2875 -0.2125
v 0.4125 0 -0.5
v 0.3775 0.2875 -0.2125
v 0.3775 0 -0.5
v -0.43 0.2875 -0.5
v -0.43 0.3575 -0.5
v -0.43 0.2875 0.5
v 0.36 0.2875 -0.5
v 0.43 0.2875 -0.5
v 0.36 0.3575 -0.5
v 0.43 0.3575 -0.5
v -0.36 0.3575 -0.5
v -0.36 0.2875 -0.5
v -0.36 0.2875 0.5
v -0.3775 0.2875 0.3114949
v -0.3775 0.098995 0.5
v 0.43 0.2875 0.5
v 0.36 0.2875 0.5
v 0.43 0.3575 0.5
v 0.36 0.3575 0.5
v -0.4125 0.098995 0.5
v -0.3775 0 -0.5
v -0.3775 0.2875 -0.2125
v 0.4125 0.2875 0.2125
v 0.4125 0.2875 0.3114949
v -0.4125 0.2875 0.3114949
v 0.3775 0.2875 0.2125
v 0.3775 0.2875 0.3114949

vn 0 -1 0
vn 0 1 0
vn 0 0 -1
vn 1 0 0
vn -1 0 0
vn 0 0 1
vn -0.01570736 0 0.9998766
vn 0.02268731 1.791499E-06 0.9997426
vn -0.02268731 3.808107E-06 -0.9997426
vn 0.01570737 0 -0.9998766
vn 0.9999661 0 0.008235992
vn 0.9999263 0 -0.01214117
vn -0.9999263 0 0.01214103
vn -0.9999661 0 -0.008236674
vn 0 0.7071069 -0.7071066
vn 0 -0.7071068 -0.7071068
vn 0 -0.7071068 0.7071068
vn 0 0.7071069 0.7071066

vt -16.92913 10.83025
vt -16.92913 4.480665
vt -19.60797 10.89104
vt -19.68504 4.54321
vt -19.68504 -3.173972
vt -19.68504 3.173972
vt 19.68504 -3.173972
vt 19.68504 3.173972
vt -16.92913 -11.36859
vt -16.92913 -17.71654
vt -19.68504 -11.36859
vt -19.68504 -17.71654
vt 16.92913 3.173972
vt 16.92913 -3.173972
vt 19.68504 -17.71654
vt 19.68504 -11.36859
vt 19.68504 14.0748
vt 16.92913 14.0748
vt 19.68504 15.45276
vt 14.17323 14.0748
vt -14.17323 14.0748
vt -16.92913 14.0748
vt -19.68504 14.0748
vt -19.68504 15.45276
vt 17.71654 15.45276
vt 17.71654 14.0748
vt 11.36859 15.45276
vt 11.36859 14.0748
vt -17.71654 14.0748
vt -17.71654 15.45276
vt -11.36859 14.0748
vt -11.36859 15.45276
vt -19.68504 11.36859
vt -19.68504 17.71653
vt 19.68504 11.36859
vt 19.68504 17.71653
vt -16.92913 3.173972
vt -16.92913 -3.173972
vt 17.71653 14.0748
vt 17.71653 15.45276
vt 14.17323 17.71653
vt 14.17323 11.36859
vt -14.17323 17.71653
vt -14.17323 11.36859
vt 16.92913 17.71653
vt 16.92913 11.36859
vt -16.92913 -4.362862
vt -16.92913 -10.71159
vt -19.68504 -4.406157
vt -19.63275 -10.75406
vt 3.173972 15.45276
vt 3.173972 14.0748
vt -3.173972 15.45276
vt -3.173972 14.0748
vt 14.17323 -11.36859
vt 14.17323 -17.71654
vt -14.17323 -11.36859
vt -14.17323 -17.71654
vt 14.17323 -3.874268
vt 14.17323 -10.223
vt -14.17323 -4.319567
vt -14.17323 -10.66829
vt 19.57083 14.0748
vt 16.86687 14.0748
vt 19.57083 14.76378
vt 14.11063 14.0748
vt -14.23933 14.0748
vt -16.99557 14.0748
vt -19.75182 14.0748
vt -19.75182 14.76378
vt 16.92913 -11.36859
vt 16.92913 -17.71654
vt -17.71653 15.45276
vt -17.71653 14.0748
vt -16.92913 17.71653
vt -16.92913 11.36859
vt -19.68504 9.999353
vt 19.60797 10.89104
vt -19.60796 3.651528
vt 19.68504 4.54321
vt 19.68504 9.999353
vt 19.60796 3.651528
vt 16.92913 10.06189
vt 16.92913 3.712315
vt 19.45311 14.07478
vt 16.6965 14.07478
vt 19.45311 14.76376
vt 13.93988 14.07478
vt -14.41387 14.07478
vt -17.17049 14.07478
vt -19.85001 14.07478
vt -19.85001 14.76376
vt 14.17323 3.173972
vt 14.17323 -3.173972
vt -14.17323 3.173972
vt -14.17323 -3.173972
vt 14.17323 10.12444
vt 14.17323 3.774854
vt -14.17323 10.7677
vt -14.17323 4.418126
vt 19.78305 14.07482
vt 17.02643 14.07482
vt 19.78305 14.76379
vt 14.26982 14.07482
vt -14.08394 14.07482
vt -16.84055 14.07482
vt -19.52007 14.07482
vt -19.52007 14.76379
vt 19.79925 14.0748
vt 17.0953 14.0748
vt 19.79925 14.76378
vt 14.33905 14.0748
vt -14.0109 14.0748
vt -16.76715 14.0748
vt -19.5234 14.0748
vt -19.5234 14.76378
vt 19.68504 -10.13641
vt 16.92913 -10.1797
vt 19.63276 -3.7885
vt 16.92913 -3.830972
vt 10.29819 14.76378
vt 10.29819 14.0748
vt 3.950067 14.76378
vt 3.950067 14.0748
vt -3.889322 14.76378
vt -3.889322 14.0748
vt -10.23762 14.76378
vt -10.23762 14.0748
vt 4.303878 14.76378
vt 10.65217 14.76378
vt 4.303878 14.0748
vt 10.65217 14.0748
vt -19.68504 -10.13641
vt -19.63276 -3.7885
vt 19.63275 -10.75406
vt 19.68504 -4.406157
vt -10.59199 14.0748
vt -10.59199 14.76378
vt -4.243867 14.0748
vt -4.243867 14.76378
vt -19.68504 3.897441
vt -12.26358 11.3189
vt -19.68504 0
vt -8.366141 11.3189
vt -16.24016 -11.16352
vt -16.24016 -0.6679949
vt -14.8622 -11.16352
vt -14.8622 -0.6679949
vt 14.17323 19.68504
vt 16.92913 19.68504
vt 16.24016 -13.91943
vt 14.8622 -13.91943
vt 16.24016 2.087914
vt 14.8622 2.087914
vt 14.8622 -11.16352
vt 14.8622 -0.6679949
vt 16.24016 -11.16352
vt 16.24016 -0.6679949
vt 16.24016 0
vt 14.8622 0
vt 16.24016 3.897441
vt 14.8622 3.897441
vt -19.68504 11.3189
vt 19.68504 11.3189
vt -10.71159 14.0748
vt -4.362862 14.0748
vt 4.480665 14.0748
vt 10.83025 14.0748
vt 19.68504 3.897441
vt 19.68504 0
vt 12.26358 11.3189
vt 8.366141 11.3189
vt -14.17323 11.3189
vt -16.92913 11.3189
vt 10.66829 14.0748
vt 4.319567 14.0748
vt -4.418126 14.0748
vt -10.7677 14.0748
vt -14.8622 5.024293E-12
vt -16.24016 5.024293E-12
vt -14.8622 3.897441
vt -16.24016 3.897441
vt -16.92913 -10.1797
vt -14.17323 -10.223
vt -16.92913 -19.68504
vt -14.17323 -19.68504
vt 16.92913 11.3189
vt 14.17323 11.3189
vt -14.8622 0
vt -16.24016 0
vt 16.24016 5.024293E-12
vt 14.8622 5.024293E-12
vt -16.92913 10.06189
vt -14.17323 10.12444
vt 14.17323 4.418126
vt 16.92913 4.480665
vt 14.17323 -4.319567
vt 16.92913 -4.362862
vt -14.8622 2.087914
vt -14.8622 -13.91943
vt -16.24016 2.087914
vt -16.24016 -13.91943
vt -16.92913 19.68504
vt -14.17323 19.68504
vt 14.17323 -10.66829
vt 16.92913 -10.71159
vt -16.92913 3.712315
vt -14.17323 3.774854
vt 14.17323 10.7677
vt 16.92913 10.83025
vt 14.17323 -19.68504
vt 16.92913 -19.68504
vt -16.92913 -3.830972
vt -14.17323 -3.874268
vt 10.1797 14.0748
vt 3.830972 14.0748
vt -3.712315 14.0748
vt -10.06189 14.0748
vt -10.223 14.0748
vt -3.874268 14.0748
vt 3.774854 14.0748
vt 10.12444 14.0748
vt -14.8622 12.26358
vt -14.8622 -12.26358
vt -16.24016 12.26358
vt -14.8622 8.366141
vt -16.24016 8.366141
vt -16.24016 -12.26358
vt -14.8622 -8.366141
vt -16.24016 -8.366141
vt 16.24016 12.26358
vt 16.24016 -12.26358
vt 14.8622 12.26358
vt 16.24016 8.366141
vt 14.8622 8.366141
vt 14.8622 -12.26358
vt 16.24016 -8.366141
vt 14.8622 -8.366141

usemtl wood

f 3/3/1 2/2/1 1/1/1
f 2/2/1 3/3/1 4/4/1
f 7/7/2 6/6/2 5/5/2
f 6/6/2 7/7/2 8/8/2
f 11/11/1 10/10/1 9/9/1
f 10/10/1 11/11/1 12/12/1
f 15/13/1 14/7/1 13/8/1
f 14/7/1 15/13/1 16/14/1
f 19/15/2 18/11/2 17/12/2
f 18/11/2 19/15/2 20/16/2
f 23/19/3 22/18/3 21/17/3
f 22/18/3 23/19/3 24/20/3
f 24/20/3 23/19/3 25/21/3
f 25/21/3 23/19/3 26/22/3
f 26/22/3 23/19/3 27/23/3
f 27/23/3 23/19/3 28/24/3
f 18/27/4 29/26/4 17/25/4
f 29/26/4 18/27/4 30/28/4
f 11/31/5 19/30/5 12/29/5
f 19/30/5 11/31/5 20/32/5
f 7/19/3 32/18/3 31/17/3
f 32/18/3 7/19/3 33/20/3
f 33/20/3 7/19/3 34/21/3
f 34/21/3 7/19/3 16/22/3
f 16/22/3 7/19/3 14/23/3
f 14/23/3 7/19/3 5/24/3
f 23/35/2 35/34/2 28/33/2
f 35/34/2 23/35/2 36/36/2
f 38/6/1 32/38/1 37/37/1
f 32/38/1 38/6/1 31/5/1
f 35/19/6 40/18/6 39/17/6
f 40/18/6 35/19/6 41/20/6
f 41/20/6 35/19/6 42/21/6
f 42/21/6 35/19/6 43/22/6
f 43/22/6 35/19/6 44/23/6
f 44/23/6 35/19/6 36/24/6
f 44/39/5 23/27/5 21/28/5
f 23/27/5 44/39/5 36/40/5
f 18/19/6 45/18/6 30/17/6
f 45/18/6 18/19/6 46/20/6
f 46/20/6 18/19/6 47/21/6
f 47/21/6 18/19/6 9/22/6
f 9/22/6 18/19/6 11/23/6
f 11/23/6 18/19/6 20/24/6
f 42/43/1 25/42/1 41/41/1
f 25/42/1 42/43/1 24/44/1
f 40/45/1 27/35/1 39/36/1
f 27/35/1 40/45/1 26/46/1
f 50/49/1 49/48/1 48/47/1
f 49/48/1 50/49/1 51/50/1
f 19/19/3 10/18/3 12/17/3
f 10/18/3 19/19/3 52/20/3
f 52/20/3 19/19/3 53/21/3
f 53/21/3 19/19/3 54/22/3
f 54/22/3 19/19/3 29/23/3
f 29/23/3 19/19/3 17/24/3
f 6/53/4 14/52/4 5/51/4
f 14/52/4 6/53/4 13/54/4
f 38/52/5 7/53/5 31/54/5
f 7/53/5 38/52/5 8/51/5
f 47/57/1 53/56/1 46/55/1
f 53/56/1 47/57/1 52/58/1
f 57/61/1 56/60/1 55/59/1
f 56/60/1 57/61/1 58/62/1
f 61/65/7 60/64/7 59/63/7
f 60/64/7 61/65/7 55/66/7
f 55/66/7 61/65/7 57/67/7
f 57/67/7 61/65/7 48/68/7
f 48/68/7 61/65/7 50/69/7
f 50/69/7 61/65/7 62/70/7
f 45/71/1 29/15/1 30/16/1
f 29/15/1 45/71/1 54/72/1
f 35/73/4 27/31/4 28/32/4
f 27/31/4 35/73/4 39/74/4
f 44/34/1 22/76/1 43/75/1
f 22/76/1 44/34/1 21/33/1
f 65/79/2 64/78/2 63/77/2
f 64/78/2 65/79/2 66/80/2
f 69/83/1 68/82/1 67/81/1
f 68/82/1 69/83/1 70/84/1
f 63/87/8 69/86/8 67/85/8
f 69/86/8 63/87/8 71/88/8
f 71/88/8 63/87/8 72/89/8
f 72/89/8 63/87/8 1/90/8
f 1/90/8 63/87/8 3/91/8
f 3/91/8 63/87/8 64/92/8
f 6/19/6 15/18/6 13/17/6
f 15/18/6 6/19/6 73/20/6
f 73/20/6 6/19/6 74/21/6
f 74/21/6 6/19/6 37/22/6
f 37/22/6 6/19/6 38/23/6
f 38/23/6 6/19/6 8/24/6
f 74/95/1 34/94/1 73/93/1
f 34/94/1 74/95/1 33/96/1
f 72/99/1 75/98/1 71/97/1
f 75/98/1 72/99/1 76/100/1
f 66/103/9 2/102/9 4/101/9
f 2/102/9 66/103/9 76/104/9
f 76/104/9 66/103/9 75/105/9
f 75/105/9 66/103/9 70/106/9
f 70/106/9 66/103/9 68/107/9
f 68/107/9 66/103/9 65/108/9
f 77/111/10 49/110/10 51/109/10
f 49/110/10 77/111/10 58/112/10
f 58/112/10 77/111/10 56/113/10
f 56/113/10 77/111/10 78/114/10
f 78/114/10 77/111/10 79/115/10
f 79/115/10 77/111/10 80/116/10
f 59/119/1 78/118/1 79/117/1
f 78/118/1 59/119/1 60/120/1
f 61/123/11 79/122/11 80/121/11
f 79/122/11 61/123/11 59/124/11
f 63/127/12 68/126/12 65/125/12
f 68/126/12 63/127/12 67/128/12
f 4/131/13 64/130/13 66/129/13
f 64/130/13 4/131/13 3/132/13
f 77/135/2 61/134/2 80/133/2
f 61/134/2 77/135/2 62/136/2
f 50/139/14 77/138/14 51/137/14
f 77/138/14 50/139/14 62/140/14

usemtl woodDark

f 83/143/5 82/142/5 81/141/5
f 82/142/5 83/143/5 84/144/5
f 87/147/15 86/146/15 85/145/15
f 86/146/15 87/147/15 88/148/15
f 43/45/2 89/149/2 42/41/2
f 89/149/2 43/45/2 90/150/2
f 93/153/16 92/152/16 91/151/16
f 92/152/16 93/153/16 94/154/16
f 81/157/15 96/156/15 95/155/15
f 96/156/15 81/157/15 82/158/15
f 99/161/6 98/160/6 97/159/6
f 98/160/6 99/161/6 100/162/6
f 103/154/17 102/151/17 101/153/17
f 102/151/17 103/154/17 104/152/17
f 107/164/5 106/23/5 105/163/5
f 106/23/5 107/164/5 10/29/5
f 10/29/5 107/164/5 9/31/5
f 9/31/5 107/164/5 49/165/5
f 49/165/5 107/164/5 48/166/5
f 48/166/5 107/164/5 32/54/5
f 32/54/5 107/164/5 37/52/5
f 37/52/5 107/164/5 2/167/5
f 2/167/5 107/164/5 1/168/5
f 1/168/5 107/164/5 22/28/5
f 22/28/5 107/164/5 43/39/5
f 43/39/5 107/164/5 90/17/5
f 86/171/4 102/170/4 85/169/4
f 102/170/4 86/171/4 101/172/4
f 110/21/3 109/174/3 108/173/3
f 109/174/3 110/21/3 111/22/3
f 52/26/4 113/164/4 112/17/4
f 113/164/4 52/26/4 114/163/4
f 114/163/4 52/26/4 47/28/4
f 114/163/4 47/28/4 58/175/4
f 114/163/4 58/175/4 57/176/4
f 114/163/4 57/176/4 33/52/4
f 114/163/4 33/52/4 74/54/4
f 114/163/4 74/54/4 76/177/4
f 114/163/4 76/177/4 72/178/4
f 114/163/4 72/178/4 24/31/4
f 114/163/4 24/31/4 42/74/4
f 114/163/4 42/74/4 89/23/4
f 87/181/3 102/180/3 104/179/3
f 102/180/3 87/181/3 85/182/3
f 115/142/4 92/143/4 94/144/4
f 92/143/4 115/142/4 116/141/4
f 46/57/2 78/183/2 45/9/2
f 78/183/2 46/57/2 56/184/2
f 110/186/2 54/10/2 111/185/2
f 54/10/2 110/186/2 53/58/2
f 119/18/6 118/188/6 117/187/6
f 118/188/6 119/18/6 120/20/6
f 106/18/3 113/188/3 105/187/3
f 113/188/3 106/18/3 112/20/3
f 116/181/6 91/190/6 92/189/6
f 91/190/6 116/181/6 121/182/6
f 81/161/3 122/192/3 83/191/3
f 122/192/3 81/161/3 95/162/3
f 89/21/6 107/174/6 114/173/6
f 107/174/6 89/21/6 90/22/6
f 71/194/2 26/76/2 69/193/2
f 26/76/2 71/194/2 25/44/2
f 37/13/2 76/195/2 74/93/2
f 76/195/2 37/13/2 2/196/2
f 48/198/2 33/94/2 57/197/2
f 33/94/2 48/198/2 32/14/2
f 84/201/17 122/200/17 123/199/17
f 122/200/17 84/201/17 83/202/17
f 41/43/2 119/203/2 40/75/2
f 119/203/2 41/43/2 120/204/2
f 125/142/4 97/143/4 124/144/4
f 97/143/4 125/142/4 99/141/4
f 91/170/5 126/171/5 93/172/5
f 126/171/5 91/170/5 121/169/5
f 9/71/2 58/205/2 47/55/2
f 58/205/2 9/71/2 49/206/2
f 96/171/4 122/170/4 95/169/4
f 122/170/4 96/171/4 123/172/4
f 98/170/5 128/171/5 127/172/5
f 128/171/5 98/170/5 100/169/5
f 73/95/2 70/207/2 15/37/2
f 70/207/2 73/95/2 75/208/2
f 127/199/16 97/202/16 98/200/16
f 97/202/16 127/199/16 124/201/16
f 104/143/5 88/142/5 87/141/5
f 88/142/5 104/143/5 103/144/5
f 1/210/2 24/42/2 72/209/2
f 24/42/2 1/210/2 22/46/2
f 106/212/2 52/56/2 112/211/2
f 52/56/2 106/212/2 10/72/2
f 128/156/18 99/157/18 125/158/18
f 99/157/18 128/156/18 100/155/18
f 55/214/2 16/38/2 60/213/2
f 16/38/2 55/214/2 34/96/2
f 54/26/4 109/164/4 111/17/4
f 109/164/4 54/26/4 117/163/4
f 117/163/4 54/26/4 45/28/4
f 117/163/4 45/28/4 78/215/4
f 117/163/4 78/215/4 60/216/4
f 117/163/4 60/216/4 16/52/4
f 117/163/4 16/52/4 15/54/4
f 117/163/4 15/54/4 70/217/4
f 117/163/4 70/217/4 69/218/4
f 117/163/4 69/218/4 26/31/4
f 117/163/4 26/31/4 40/74/4
f 117/163/4 40/74/4 119/23/4
f 118/164/5 110/23/5 108/163/5
f 110/23/5 118/164/5 53/29/5
f 53/29/5 118/164/5 46/31/5
f 46/31/5 118/164/5 56/219/5
f 56/219/5 118/164/5 55/220/5
f 55/220/5 118/164/5 34/54/5
f 34/54/5 118/164/5 73/52/5
f 73/52/5 118/164/5 75/221/5
f 75/221/5 118/164/5 71/222/5
f 71/222/5 118/164/5 25/28/5
f 25/28/5 118/164/5 41/39/5
f 41/39/5 118/164/5 120/17/5
f 126/146/18 116/147/18 115/148/18
f 116/147/18 126/146/18 121/145/18
f 114/204/1 115/223/1 113/186/1
f 115/223/1 114/204/1 107/203/1
f 96/224/1 113/186/1 115/223/1
f 113/186/1 96/224/1 105/185/1
f 115/223/1 107/203/1 126/225/1
f 96/224/1 115/223/1 94/226/1
f 126/225/1 107/203/1 93/227/1
f 105/185/1 96/224/1 82/228/1
f 105/185/1 82/228/1 107/203/1
f 96/224/1 94/226/1 123/229/1
f 93/227/1 123/229/1 94/226/1
f 84/230/1 107/203/1 82/228/1
f 123/229/1 93/227/1 84/230/1
f 93/227/1 107/203/1 84/230/1
f 117/150/1 125/231/1 109/212/1
f 125/231/1 117/150/1 118/149/1
f 86/232/1 109/212/1 125/231/1
f 109/212/1 86/232/1 108/211/1
f 125/231/1 118/149/1 128/233/1
f 86/232/1 125/231/1 124/234/1
f 128/233/1 118/149/1 127/235/1
f 108/211/1 86/232/1 88/236/1
f 108/211/1 88/236/1 118/149/1
f 86/232/1 124/234/1 101/237/1
f 127/235/1 101/237/1 124/234/1
f 103/238/1 118/149/1 88/236/1
f 101/237/1 127/235/1 103/238/1
f 127/235/1 118/149/1 103/238/1

