# Created by Kenney (www.kenney.nl)

mtllib chest.mtl

g chest

v -0.15 0 -0.2
v 0.15 0 -0.2
v -0.15 0.25 -0.2
v 0.15 0.25 -0.2
v 0.15 0.05 -0.15
v 0.15 0.25 -0.15
v 0.15 0.05 0.15
v 0.15 0.25 0.15
v 0.05 0.25 0.2
v 0.15 0.25 0.2
v 0.05 0.15 0.2
v 0.15 0 0.2
v -0.15 0 0.2
v -0.05 0.15 0.2
v -0.15 0.25 0.2
v -0.05 0.25 0.2
v -0.15 0.05 -0.15
v -0.15 0.25 -0.15
v -0.15 0.25 0.15
v -0.15 0.05 0.15
v -0.2 0 -0.15
v -0.2 0.25 -0.15
v -0.2 0 0.15
v -0.2 0.25 0.15
v 0.2 0.25 -0.15
v 0.2 0.25 0.15
v 0.2 0 -0.15
v 0.2 0 0.15
v -0.15 0 -0.15
v -0.15 0 0.15
v 0.15 0 -0.15
v 0.15 0 0.15
v -0.25 0 -0.25
v -0.15 0 -0.25
v -0.25 0.25 -0.25
v -0.15 0.25 -0.25
v -0.15 0.25 0.25
v -0.15 0 0.25
v -0.25 0 -0.15
v -0.25 0.25 -0.15
v 0.15 0 0.25
v 0.15 0.25 0.25
v -0.25 0 0.15
v -0.25 0.25 0.15
v -0.25 0 0.25
v -0.25 0.25 0.25
v 0.25 0 -0.15
v 0.25 0 -0.25
v 0.15 0 -0.25
v 0.05 0.25 0.225
v 0.05 0.15 0.225
v 0.15 0.25 -0.25
v 0.25 0.25 -0.25
v 0.25 0 0.25
v 0.25 0.25 0.25
v -0.05 0.15 0.225
v -0.05 0.25 0.225
v 0.25 0.25 -0.15
v 0.25 0 0.15
v 0.25 0.25 0.15

vn 0 0 -1
vn -1 0 0
vn 0 0 1
vn 1 0 0
vn 0 1 0
vn 0 -1 0

vt 5.905512 0
vt -5.905512 0
vt 5.905512 9.84252
vt -5.905512 9.84252
vt -5.905512 1.968504
vt 5.905512 1.968504
vt 1.968504 9.84252
vt 1.968504 5.905512
vt -1.968504 5.905512
vt -1.968504 9.84252
vt -5.905512 -5.905512
vt -5.905512 5.905512
vt 5.905512 -5.905512
vt 5.905512 5.905512
vt -5.905512 -7.874016
vt 5.905512 -7.874016
vt -7.874016 -5.905512
vt -7.874016 5.905512
vt 7.874016 -5.905512
vt 7.874016 5.905512
vt -5.905512 7.874016
vt -1.968504 7.874016
vt 1.968504 7.874016
vt 5.905512 7.874016
vt 9.84252 0
vt 9.84252 9.84252
vt -7.874016 9.84252
vt -7.874016 0
vt -9.84252 9.84252
vt -9.84252 0
vt 7.874016 0
vt 7.874016 9.84252
vt 9.84252 -5.905512
vt 9.84252 -9.84252
vt 5.905512 -9.84252
vt -8.858268 9.84252
vt -8.858268 5.905512
vt -5.905512 -9.84252
vt -9.84252 -9.84252
vt -9.84252 -5.905512
vt 8.858268 5.905512
vt 8.858268 9.84252
vt 1.968504 8.858268
vt -1.968504 8.858268
vt 9.84252 5.905512
vt -9.84252 5.905512

usemtl wood

f 3/3/1 2/2/1 1/1/1
f 2/2/1 3/3/1 4/4/1
f 7/6/2 6/4/2 5/5/2
f 6/4/2 7/6/2 8/3/2
f 11/8/3 10/3/3 9/7/3
f 11/8/3 12/1/3 10/3/3
f 12/1/3 11/8/3 13/2/3
f 14/9/3 13/2/3 11/8/3
f 13/2/3 14/9/3 15/4/3
f 15/4/3 14/9/3 16/10/3
f 6/3/3 17/5/3 5/6/3
f 17/5/3 6/3/3 18/4/3
f 19/4/4 17/6/4 18/3/4
f 17/6/4 19/4/4 20/5/4
f 23/1/2 22/4/2 21/2/2
f 22/4/2 23/1/2 24/3/2
f 19/3/1 7/5/1 20/6/1
f 7/5/1 19/3/1 8/4/1
f 17/13/5 7/12/5 5/11/5
f 7/12/5 17/13/5 20/14/5
f 3/16/5 6/11/5 4/15/5
f 6/11/5 3/16/5 18/13/5
f 6/11/5 26/18/5 25/17/5
f 26/18/5 6/11/5 8/12/5
f 22/19/5 19/14/5 18/13/5
f 19/14/5 22/19/5 24/20/5
f 19/14/5 10/21/5 8/12/5
f 10/21/5 19/14/5 9/22/5
f 9/22/5 19/14/5 16/23/5
f 16/23/5 19/14/5 15/24/5
f 26/4/4 27/1/4 25/3/4
f 27/1/4 26/4/4 28/2/4
f 29/11/6 23/18/6 21/17/6
f 23/18/6 29/11/6 30/12/6
f 1/15/6 30/12/6 29/11/6
f 1/15/6 13/21/6 30/12/6
f 2/16/6 13/21/6 1/15/6
f 31/13/6 13/21/6 2/16/6
f 32/14/6 13/21/6 31/13/6
f 13/21/6 32/14/6 12/24/6
f 27/19/6 32/14/6 31/13/6
f 32/14/6 27/19/6 28/20/6

usemtl metal

f 35/26/1 34/1/1 33/25/1
f 34/1/1 35/26/1 36/3/1
f 37/29/4 13/28/4 15/27/4
f 13/28/4 37/29/4 38/30/4
f 22/27/3 39/30/3 21/28/3
f 39/30/3 22/27/3 40/29/3
f 41/25/2 10/32/2 12/31/2
f 10/32/2 41/25/2 42/26/2
f 44/26/1 23/31/1 43/25/1
f 23/31/1 44/26/1 24/32/1
f 45/25/2 44/3/2 43/1/2
f 44/3/2 45/25/2 46/26/2
f 3/32/4 34/25/4 36/26/4
f 34/25/4 3/32/4 1/31/4
f 27/19/6 48/34/6 47/33/6
f 48/34/6 27/19/6 49/35/6
f 49/35/6 27/19/6 31/13/6
f 49/35/6 31/13/6 2/16/6
f 50/36/4 11/18/4 9/27/4
f 11/18/4 50/36/4 51/37/4
f 52/4/1 48/30/1 49/2/1
f 48/30/1 52/4/1 53/29/1
f 39/2/2 35/29/2 33/30/2
f 35/29/2 39/2/2 40/4/2
f 55/26/3 41/1/3 54/25/3
f 41/1/3 55/26/3 42/3/3
f 2/28/2 52/29/2 49/30/2
f 52/29/2 2/28/2 4/27/2
f 50/7/3 56/9/3 51/8/3
f 56/9/3 50/7/3 57/10/3
f 21/17/6 1/15/6 29/11/6
f 1/15/6 21/17/6 34/38/6
f 34/38/6 21/17/6 33/39/6
f 33/39/6 21/17/6 39/40/6
f 56/41/2 16/32/2 14/20/2
f 16/32/2 56/41/2 57/42/2
f 52/38/5 58/40/5 53/39/5
f 58/40/5 52/38/5 25/17/5
f 25/17/5 52/38/5 6/11/5
f 6/11/5 52/38/5 4/15/5
f 56/44/6 11/23/6 51/43/6
f 11/23/6 56/44/6 14/22/6
f 41/3/6 59/45/6 54/26/6
f 59/45/6 41/3/6 28/20/6
f 28/20/6 41/3/6 32/14/6
f 32/14/6 41/3/6 12/24/6
f 35/34/5 3/16/5 36/35/5
f 3/16/5 35/34/5 18/13/5
f 18/13/5 35/34/5 22/19/5
f 22/19/5 35/34/5 40/33/5
f 58/3/4 48/25/4 53/26/4
f 48/25/4 58/3/4 47/1/4
f 16/23/5 50/44/5 9/22/5
f 50/44/5 16/23/5 57/43/5
f 37/4/3 45/30/3 38/2/3
f 45/30/3 37/4/3 46/29/3
f 26/18/5 55/29/5 60/46/5
f 55/29/5 26/18/5 42/4/5
f 42/4/5 26/18/5 8/12/5
f 42/4/5 8/12/5 10/21/5
f 26/27/1 59/30/1 28/28/1
f 59/30/1 26/27/1 60/29/1
f 58/26/3 27/31/3 47/25/3
f 27/31/3 58/26/3 25/32/3
f 45/29/6 13/21/6 38/4/6
f 13/21/6 45/29/6 30/12/6
f 30/12/6 45/29/6 23/18/6
f 23/18/6 45/29/6 43/46/6
f 24/20/5 15/24/5 19/14/5
f 15/24/5 24/20/5 37/3/5
f 37/3/5 24/20/5 46/26/5
f 46/26/5 24/20/5 44/45/5
f 55/29/4 59/2/4 60/4/4
f 59/2/4 55/29/4 54/30/4

g lid

v -0.25 0.375 -0.2165063
v -0.25 0.4665064 -0.125
v -0.25 0.356066 -0.106066
v -0.25 0.5 0
v -0.25 0.4 0
v -0.25 0.4665064 0.125
v -0.25 0.356066 0.106066
v -0.25 0.375 0.2165064
v -0.15 0.4665064 -0.125
v -0.15 0.5 0
v 0.25 0.375 0.2165064
v 0.15 0.375 0.2165064
v -0.15 0.375 -0.2165063
v 0.25 0.356066 -0.106066
v 0.2 0.356066 -0.106066
v -0.15 0.375 0.2165064
v -0.15 0.4665064 0.125
v 0.25 0.4665064 -0.125
v 0.25 0.5 0
v 0.15 0.4665064 -0.125
v 0.15 0.5 0
v 0.15 0.375 -0.2165063
v 0.25 0.375 -0.2165063
v -0.2 0.356066 0.106066
v -0.2 0.4 0
v 0.25 0.4665064 0.125
v 0.15 0.4665064 0.125
v 0.2 0.356066 0.106066
v 0.25 0.356066 0.106066
v -0.2 0.356066 -0.106066
v 0.25 0.4 0
v 0.2 0.4 0

vn 0 0.8660254 -0.5
vn 0 0.258819 0.9659258
vn 0 0.5 0.8660254
vn 0 0.5 -0.8660254
vn 0 -0.3826834 0.9238795
vn 0 -0.7071068 0.7071068
vn 0 0.8660254 0.5
vn 0 0.258819 -0.9659258
vn 0 -0.3826834 -0.9238795
vn 0 -0.7071068 -0.7071068

vt 0 -1.776357E-15
vt 1.318648 4.92126
vt 3.937008 -1.776357E-15
vt 4.92126 8.523872
vt 5.666692 4.175828
vt 14.76378 8.523872
vt 14.01835 4.175828
vt 15.74803 -1.776357E-15
vt 18.36639 4.92126
vt 19.68504 -1.776357E-15
vt 9.84252 19.68504
vt 9.84252 15.74803
vt 5.905512 19.68504
vt 7.874016 15.74803
vt -7.874016 15.74803
vt -5.905512 19.68504
vt -9.84252 19.68504
vt -9.84252 15.74803
vt 5.905512 6.959713
vt 5.905512 12.05458
vt 9.84252 6.959713
vt 9.84252 12.05458
vt 9.84252 -5.094863
vt 5.905512 -5.094863
vt 9.84252 -1.412204E-13
vt 5.905512 -1.412204E-13
vt 9.84252 4.412281
vt 5.905512 4.412281
vt 9.84252 9.507144
vt 5.905512 9.507144
vt 9.84252 1.506628
vt 7.874016 1.506628
vt 9.84252 6.026511
vt 7.874016 6.026511
vt 9.84252 3.937008
vt 7.874016 3.937008
vt -7.874016 3.937008
vt -9.84252 3.937008
vt -5.905512 -5.094863
vt -9.84252 -5.094863
vt -5.905512 -1.412204E-13
vt -9.84252 -1.412204E-13
vt -5.905512 -9.507144
vt -9.84252 -9.507144
vt -5.905512 -4.412281
vt -9.84252 -4.412281
vt -9.84252 6.959713
vt -9.84252 12.05458
vt -5.905512 6.959713
vt -5.905512 12.05458
vt -5.905512 -1.715829E-15
vt -9.84252 -1.715829E-15
vt -5.905512 5.094863
vt -9.84252 5.094863
vt -5.905512 4.412281
vt -9.84252 4.412281
vt -5.905512 9.507144
vt -9.84252 9.507144
vt 9.84252 -6.026511
vt 7.874016 -6.026511
vt 9.84252 -1.506628
vt 7.874016 -1.506628
vt 7.874016 -11.35324
vt 7.874016 -6.833361
vt 9.84252 -11.35324
vt 9.84252 -6.833361
vt -5.905512 -6.959713
vt -5.905512 -12.05458
vt -9.84252 -6.959713
vt -9.84252 -12.05458
vt 9.84252 -6.959713
vt 9.84252 -12.05458
vt 5.905512 -6.959713
vt 5.905512 -12.05458
vt 9.84252 -9.507144
vt 5.905512 -9.507144
vt 9.84252 -4.412281
vt 5.905512 -4.412281
vt 9.84252 -1.715829E-15
vt 5.905512 -1.715829E-15
vt 9.84252 5.094863
vt 5.905512 5.094863
vt -7.874016 -6.026511
vt -9.84252 -6.026511
vt -7.874016 -1.506628
vt -9.84252 -1.506628
vt -7.874016 11.35324
vt -7.874016 6.833361
vt -9.84252 11.35324
vt -9.84252 6.833361
vt -9.84252 -11.35324
vt -9.84252 -6.833361
vt -7.874016 -11.35324
vt -7.874016 -6.833361
vt -7.874016 1.506628
vt -9.84252 1.506628
vt -7.874016 6.026511
vt -9.84252 6.026511
vt 9.84252 11.35324
vt 9.84252 6.833361
vt 7.874016 11.35324
vt 7.874016 6.833361
vt -3.937008 -1.776357E-15
vt -1.318648 4.92126
vt -4.92126 8.523872
vt -5.666692 4.175828
vt -14.76378 8.523872
vt -14.01835 4.175828
vt -15.74803 -1.776357E-15
vt -18.36639 4.92126
vt -19.68504 -1.776357E-15

usemtl metal

f 40/49/2 61/48/2 35/47/2
f 61/48/2 40/49/2 62/50/2
f 62/50/2 40/49/2 63/51/2
f 62/50/2 63/51/2 64/26/2
f 64/26/2 63/51/2 65/45/2
f 64/26/2 65/45/2 66/52/2
f 66/52/2 65/45/2 67/53/2
f 66/52/2 67/53/2 44/54/2
f 66/52/2 44/54/2 68/55/2
f 68/55/2 44/54/2 46/56/2
f 42/59/6 60/58/6 55/57/6
f 60/58/6 42/59/6 26/60/6
f 26/60/6 42/59/6 24/61/6
f 24/61/6 42/59/6 37/62/6
f 24/61/6 37/62/6 46/63/6
f 24/61/6 46/63/6 44/64/6
f 62/67/7 70/66/5 69/65/7
f 70/66/5 62/67/7 64/68/5
f 71/71/9 42/70/8 55/69/8
f 42/70/8 71/71/9 72/72/9
f 62/75/7 73/74/10 61/73/10
f 73/74/10 62/75/7 69/76/7
f 74/79/12 25/78/11 58/77/11
f 25/78/11 74/79/12 75/80/12
f 25/82/6 53/25/6 58/81/6
f 53/25/6 25/82/6 52/1/6
f 52/1/6 25/82/6 22/83/6
f 52/1/6 22/83/6 36/2/6
f 36/2/6 22/83/6 35/30/6
f 35/30/6 22/83/6 40/84/6
f 76/87/9 46/86/8 37/85/8
f 46/86/8 76/87/9 68/88/9
f 77/91/13 68/90/9 76/89/9
f 68/90/9 77/91/13 66/92/13
f 80/95/7 79/94/5 78/93/7
f 79/94/5 80/95/7 81/96/5
f 82/99/10 53/98/14 52/97/14
f 53/98/14 82/99/10 83/100/10
f 80/103/7 83/102/10 82/101/10
f 83/102/10 80/103/7 78/104/7
f 67/107/16 24/106/15 44/105/15
f 24/106/15 67/107/16 84/108/16
f 67/111/16 85/110/6 84/109/16
f 85/110/6 67/111/16 65/112/6
f 64/115/5 77/114/13 70/113/5
f 77/114/13 64/115/5 66/116/13
f 81/119/5 86/118/13 79/117/5
f 86/118/13 81/119/5 87/120/13
f 86/123/13 72/122/9 71/121/9
f 72/122/9 86/123/13 87/124/13
f 61/127/10 36/126/14 35/125/14
f 36/126/14 61/127/10 73/128/10
f 88/131/16 60/130/15 26/129/15
f 60/130/15 88/131/16 89/132/16
f 65/135/6 90/134/12 85/133/6
f 90/134/12 65/135/6 63/136/12
f 88/139/16 91/138/6 89/137/16
f 91/138/6 88/139/16 92/140/6
f 90/143/12 40/142/11 22/141/11
f 40/142/11 90/143/12 63/144/12
f 92/147/6 74/146/12 91/145/6
f 74/146/12 92/147/6 75/148/12
f 83/150/4 58/149/4 53/47/4
f 58/149/4 83/150/4 78/151/4
f 58/149/4 78/151/4 74/152/4
f 74/152/4 78/151/4 79/29/4
f 74/152/4 79/29/4 91/46/4
f 91/46/4 79/29/4 86/153/4
f 91/46/4 86/153/4 89/154/4
f 89/154/4 86/153/4 60/155/4
f 60/155/4 86/153/4 71/156/4
f 60/155/4 71/156/4 55/157/4

usemtl wood

f 24/61/6 25/82/6 26/60/6
f 25/82/6 24/61/6 22/83/6
f 69/65/7 81/96/5 80/95/7
f 81/96/5 69/65/7 70/66/5
f 73/128/10 52/97/14 36/126/14
f 52/97/14 73/128/10 82/99/10
f 72/72/9 37/85/8 42/70/8
f 37/85/8 72/72/9 76/87/9
f 75/152/4 26/155/4 25/149/4
f 26/155/4 75/152/4 92/46/4
f 26/155/4 92/46/4 88/154/4
f 87/124/13 76/89/9 72/122/9
f 76/89/9 87/124/13 77/91/13
f 70/113/5 87/120/13 81/119/5
f 87/120/13 70/113/5 77/114/13
f 24/54/2 90/51/2 22/49/2
f 90/51/2 24/54/2 85/45/2
f 85/45/2 24/54/2 84/53/2
f 69/76/7 82/101/10 73/74/10
f 82/101/10 69/76/7 80/103/7

