# Created by Kenney (www.kenney.nl)

mtllib crateItem.mtl

g crateItem

v 0.2099999 0.5 0.21
v 0.25 0.46 0.21
v 0.2099999 0.46 0.2500001
v -0.2500001 0.46 0.21
v -0.21 0.5 0.21
v -0.21 0.46 0.2500001
v -0.2500001 0.04 -0.2099999
v -0.21 0 -0.2099999
v -0.21 0.04 -0.25
v -0.21 0 0.21
v -0.2500001 0.04 0.21
v -0.21 0.04 0.2500001
v 0.25 0.04 -0.2099999
v 0.2099999 0.04 -0.25
v 0.2099999 0 -0.2099999
v 0.25 0.04 0.21
v 0.2099999 0 0.21
v 0.2099999 0.04 0.2500001
v 0.2099999 0.46 -0.25
v 0.25 0.46 -0.2099999
v 0.2099999 0.5 -0.2099999
v -0.2500001 0.46 -0.2099999
v -0.21 0.46 -0.25
v -0.21 0.5 -0.2099999
v -0.2500001 0.08972832 -0.1602716
v -0.2500001 0.4102716 -0.1602716
v -0.2 0.1217827 -0.1282173
v -0.2 0.3782173 -0.1282173
v -0.1282174 0.3782173 0.2
v -0.1282174 0.1217827 0.2
v -0.1602716 0.4102716 0.2500001
v -0.1602716 0.08972832 0.2500001
v 0.1602716 0.4102716 0.2500001
v 0.1282173 0.3782173 0.2
v -0.1602716 0.4102716 -0.25
v -0.1602716 0.08972832 -0.25
v -0.1282174 0.3782173 -0.1999999
v -0.1282174 0.1217827 -0.1999999
v 0.1282173 0.1217827 0.2
v 0.1602716 0.08972832 0.2500001
v -0.2500001 0.08972832 0.1602716
v -0.2 0.1217827 0.1282174
v -0.2500001 0.4102716 0.1602716
v -0.2 0.3782173 0.1282174
v 0.1602716 0.4102716 -0.25
v 0.1282173 0.3782173 -0.1999999
v -0.1602716 0 0.1602716
v 0.1602716 0 0.1602716
v -0.1282174 0.05 0.1282174
v 0.1282173 0.05 0.1282174
v -0.1602716 0.5 -0.1602716
v -0.1282174 0.45 -0.1282173
v -0.1602716 0.5 0.1602716
v -0.1282174 0.45 0.1282174
v 0.25 0.4102716 0.1602716
v 0.25 0.4102716 -0.1602716
v 0.1999999 0.3782173 0.1282174
v 0.1999999 0.3782173 -0.1282173
v 0.1602716 0.08972832 -0.25
v 0.1282173 0.1217827 -0.1999999
v -0.1602716 0 -0.1602716
v -0.1282174 0.05 -0.1282173
v 0.25 0.08972832 -0.1602716
v 0.25 0.08972832 0.1602716
v 0.1999999 0.1217827 -0.1282173
v 0.1999999 0.1217827 0.1282174
v 0.1602716 0 -0.1602716
v 0.1282173 0.05 -0.1282173
v 0.1602716 0.5 -0.1602716
v 0.1602716 0.5 0.1602716
v 0.1282173 0.45 -0.1282173
v 0.1282173 0.45 0.1282174

vn 0.5773503 0.5773503 0.5773503
vn -0.5773503 0.5773503 0.5773503
vn -0.5773503 -0.5773503 -0.5773503
vn -0.5773503 -0.5773503 0.5773503
vn 0.5773503 -0.5773503 -0.5773503
vn 0.5773503 -0.5773503 0.5773503
vn 0.5773503 0.5773503 -0.5773503
vn -0.5773503 0.5773503 -0.5773503
vn -0.5397033 0 0.8418553
vn -0.7071068 0 -0.7071068
vn 0 -0.7071068 0.7071068
vn 0.7071068 0 0.7071068
vn -0.7071068 0 0.7071068
vn 0.8418561 0 0.5397021
vn 0 -0.8418561 0.5397021
vn 0.8418561 0 -0.5397021
vn 0.7071068 0 -0.7071068
vn -0.8418553 0 0.5397033
vn -0.7071068 0.7071068 0
vn -0.5397021 0 -0.8418561
vn 0 -0.8418561 -0.5397021
vn 0.7071068 0.7071068 0
vn 0 0.7071068 -0.7071068
vn -0.5397031 0.8418555 0
vn 0.7071068 -0.7071068 0
vn 0 -0.5397021 -0.8418561
vn 0.8418561 0.5397021 0
vn 0.5397021 -0.8418561 0
vn 0 0.7071068 0.7071068
vn 0 0.8418555 -0.5397031
vn 0.8418561 -0.5397021 0
vn 0 0.8418555 0.5397031
vn 0 -0.7071068 -0.7071068
vn -0.8418553 0 -0.5397033
vn 0.5397031 0.8418555 0
vn 0 -0.5397033 0.8418553
vn -0.8418553 0.5397033 0
vn 0.5397033 0 0.8418553
vn 0 0.5397021 -0.8418561
vn 0 0.5397033 0.8418553
vn -0.7071068 -0.7071068 0
vn -0.5397021 -0.8418561 0
vn 0.5397021 0 -0.8418561
vn -0.8418553 -0.5397033 0
vn 0 0 -1
vn -1 0 0
vn 1 0 0
vn 0 -1 0
vn 0 0 1
vn 0 1 0

vt -2.783885E-06 9.322205
vt 1.113551 7.393473
vt -1.113557 7.393473
vt -1.113554 7.393471
vt 3.996803E-14 9.322204
vt 1.113554 7.393471
vt 1.113557 8.679295
vt 2.783885E-06 6.750562
vt -1.113551 8.679295
vt 3.996803E-14 6.750564
vt -1.113554 8.679296
vt 1.113554 8.679296
vt -1.113554 8.679293
vt 1.113554 8.679293
vt -3.996803E-14 6.750561
vt 1.113551 8.679295
vt -2.783885E-06 6.750562
vt -1.113557 8.679295
vt 1.113554 7.393475
vt -1.113554 7.393475
vt -4.085621E-14 9.322206
vt 1.113557 7.393473
vt -1.113551 7.393473
vt 2.783885E-06 9.322205
vt -11.69146 3.532611
vt -11.69146 16.15243
vt -9.353165 4.794594
vt -9.353165 14.89044
vt 1.113557 1.574803
vt -1.113551 1.574803
vt 1.113557 18.11024
vt -1.113551 18.11024
vt 8.267715 8.073268
vt 8.267715 5.84616
vt -8.267718 8.073268
vt -8.267718 5.84616
vt 1.113551 18.11024
vt 1.113551 1.574803
vt -1.113557 18.11024
vt -1.113557 1.574803
vt -1.113554 1.574803
vt -1.113554 18.11024
vt 1.113554 1.574803
vt 1.113554 18.11024
vt -9.353167 14.89044
vt -9.353167 4.794594
vt 6.309907 17.00348
vt 5.047923 14.66519
vt -6.309907 17.00348
vt -5.047927 14.66519
vt 11.69145 16.15243
vt 11.69145 3.532611
vt 9.353163 14.89044
vt 9.353163 4.794594
vt 9.353165 4.794594
vt 9.353165 14.89044
vt 11.69146 3.532611
vt 11.69146 16.15243
vt -8.267715 5.846157
vt -8.267715 8.073265
vt 8.267718 5.846157
vt 8.267718 8.073265
vt 9.353167 4.794594
vt 9.353167 14.89044
vt -6.309907 17.00348
vt 6.309907 17.00348
vt -5.047923 14.66519
vt 5.047927 14.66519
vt 8.267718 5.84616
vt -8.267715 5.84616
vt 8.267718 8.073268
vt -8.267715 8.073268
vt -5.047923 -4.041127
vt 5.047927 -4.041127
vt -6.309907 -6.379419
vt 6.309907 -6.379419
vt 8.267715 8.073265
vt 8.267715 5.846157
vt -8.267718 8.073265
vt -8.267718 5.846157
vt 6.309907 -3.405471
vt -6.309907 -3.405471
vt 5.047927 -1.06718
vt -5.047923 -1.06718
vt 6.309907 19.97744
vt 5.047923 17.63915
vt -6.309907 19.97744
vt -5.047927 17.63915
vt -5.047927 14.66519
vt 5.047923 14.66519
vt -6.309907 -6.379416
vt -5.047923 -4.041124
vt 6.309907 -6.379416
vt 5.047927 -4.041124
vt 5.047923 -1.06718
vt -5.047927 -1.06718
vt 5.047923 -4.041127
vt -5.047927 -4.041127
vt -11.69145 3.532611
vt -11.69145 16.15243
vt -9.353161 4.794594
vt -9.353161 14.89044
vt 5.047923 -4.041124
vt -5.047927 -4.041124
vt 6.309907 -3.405478
vt -6.309907 -3.405478
vt 5.047923 -1.067186
vt -5.047927 -1.067186
vt -6.309907 19.97743
vt 6.309907 19.97743
vt -5.047923 17.63914
vt 5.047927 17.63914
vt 9.353161 4.794594
vt 9.353161 14.89044
vt 5.047927 17.63915
vt -5.047923 17.63915
vt 5.047923 17.63914
vt -5.047927 17.63914
vt 5.047927 14.66519
vt -5.047923 14.66519
vt -9.353163 4.794594
vt -9.353163 14.89044
vt -5.047923 -1.067186
vt 5.047927 -1.067186
vt -8.267715 1.574803
vt 6.309907 3.532611
vt 8.267718 1.574803
vt 8.267718 18.11024
vt -6.309907 3.532611
vt 6.309907 16.15243
vt -8.267715 18.11024
vt -6.309907 16.15243
vt 8.267715 1.574803
vt 8.267715 18.11024
vt -8.267718 18.11024
vt -8.267718 1.574803
vt -6.309907 6.309907
vt -8.267718 8.267718
vt 6.309907 6.309907
vt -6.309907 -6.309907
vt 8.267715 8.267718
vt -8.267718 -8.267715
vt 8.267715 -8.267715
vt 6.309907 -6.309907
vt -8.267715 8.267718
vt -8.267715 -8.267715
vt 8.267718 -8.267715
vt 8.267718 8.267718
vt 5.047923 4.794594
vt -5.047927 4.794594
vt 5.047923 14.89044
vt -5.047927 14.89044
vt 5.047927 4.794594
vt -5.047923 4.794594
vt 5.047927 14.89044
vt -5.047923 14.89044
vt -5.047923 -5.047923
vt -5.047923 5.047927
vt 5.047927 -5.047923
vt 5.047927 5.047927
vt 5.047923 5.047927
vt 5.047923 -5.047923
vt -5.047927 5.047927
vt -5.047927 -5.047923

usemtl gold

f 3/3/1 2/2/1 1/1/1
f 6/6/2 5/5/2 4/4/2
f 9/9/3 8/8/3 7/7/3
f 12/12/4 11/11/4 10/10/4
f 15/15/5 14/14/5 13/13/5
f 18/18/6 17/17/6 16/16/6
f 21/21/7 20/20/7 19/19/7
f 24/24/8 23/23/8 22/22/8
f 27/27/9 26/26/9 25/25/9
f 26/26/9 27/27/9 28/28/9
f 22/31/10 9/30/10 7/29/10
f 9/30/10 22/31/10 23/32/10
f 12/35/11 17/34/11 18/33/11
f 17/34/11 12/35/11 10/36/11
f 3/39/12 16/38/12 2/37/12
f 16/38/12 3/39/12 18/40/12
f 12/43/13 4/42/13 11/41/13
f 4/42/13 12/43/13 6/44/13
f 31/26/14 30/46/14 29/45/14
f 30/46/14 31/26/14 32/25/14
f 31/49/15 34/48/15 33/47/15
f 34/48/15 31/49/15 29/50/15
f 37/53/16 36/52/16 35/51/16
f 36/52/16 37/53/16 38/54/16
f 20/42/17 14/43/17 19/44/17
f 14/43/17 20/42/17 13/41/17
f 40/57/18 34/56/18 39/55/18
f 34/56/18 40/57/18 33/58/18
f 4/61/19 24/60/19 22/59/19
f 24/60/19 4/61/19 5/62/19
f 43/58/20 42/63/20 41/57/20
f 42/63/20 43/58/20 44/64/20
f 46/67/21 35/66/21 45/65/21
f 35/66/21 46/67/21 37/68/21
f 1/35/22 20/34/22 21/33/22
f 20/34/22 1/35/22 2/36/22
f 24/71/23 19/70/23 23/69/23
f 19/70/23 24/71/23 21/72/23
f 25/75/24 42/74/24 27/73/24
f 42/74/24 25/75/24 41/76/24
f 16/79/25 15/78/25 13/77/25
f 15/78/25 16/79/25 17/80/25
f 49/83/26 48/82/26 47/81/26
f 48/82/26 49/83/26 50/84/26
f 53/87/27 52/86/27 51/85/27
f 52/86/27 53/87/27 54/88/27
f 57/89/28 56/66/28 55/65/28
f 56/66/28 57/89/28 58/90/28
f 1/77/29 6/80/29 3/78/29
f 6/80/29 1/77/29 5/79/29
f 36/93/30 60/92/30 59/91/30
f 60/92/30 36/93/30 38/94/30
f 62/95/31 47/82/31 61/81/31
f 47/82/31 62/95/31 49/96/31
f 39/97/32 32/75/32 40/76/32
f 32/75/32 39/97/32 30/98/32
f 9/62/33 15/59/33 8/61/33
f 15/59/33 9/62/33 14/60/33
f 60/101/34 45/100/34 59/99/34
f 45/100/34 60/101/34 46/102/34
f 65/103/35 64/91/35 63/93/35
f 64/91/35 65/103/35 66/104/35
f 68/107/36 61/106/36 67/105/36
f 61/106/36 68/107/36 62/108/36
f 71/111/37 70/110/37 69/109/37
f 70/110/37 71/111/37 72/112/37
f 56/51/38 65/113/38 63/52/38
f 65/113/38 56/51/38 58/114/38
f 53/85/39 72/116/39 54/115/39
f 72/116/39 53/85/39 70/87/39
f 69/110/40 52/118/40 71/117/40
f 52/118/40 69/110/40 51/109/40
f 11/71/41 8/70/41 10/69/41
f 8/70/41 11/71/41 7/72/41
f 43/47/42 28/120/42 44/119/42
f 28/120/42 43/47/42 26/49/42
f 66/121/43 55/100/43 64/99/43
f 55/100/43 66/121/43 57/122/43
f 48/105/44 68/123/44 67/106/44
f 68/123/44 48/105/44 50/124/44
f 9/127/45 36/126/45 14/125/45
f 36/126/45 9/127/45 23/128/45
f 59/129/45 14/125/45 36/126/45
f 36/126/45 23/128/45 35/130/45
f 14/125/45 59/129/45 19/131/45
f 35/130/45 23/128/45 45/132/45
f 19/131/45 59/129/45 45/132/45
f 19/131/45 45/132/45 23/128/45
f 25/129/46 11/127/46 41/126/46
f 41/126/46 11/127/46 43/130/46
f 25/129/46 7/125/46 11/127/46
f 4/128/46 43/130/46 11/127/46
f 7/125/46 25/129/46 22/131/46
f 4/128/46 26/132/46 43/130/46
f 22/131/46 26/132/46 4/128/46
f 26/132/46 22/131/46 25/129/46
f 20/134/47 56/130/47 13/133/47
f 56/130/47 20/134/47 2/135/47
f 63/126/47 13/133/47 56/130/47
f 56/130/47 2/135/47 55/132/47
f 13/133/47 63/126/47 16/136/47
f 55/132/47 2/135/47 64/129/47
f 16/136/47 63/126/47 64/129/47
f 16/136/47 64/129/47 2/135/47
f 48/139/48 10/138/48 47/137/48
f 47/137/48 10/138/48 61/140/48
f 48/139/48 17/141/48 10/138/48
f 8/142/48 61/140/48 10/138/48
f 17/141/48 48/139/48 15/143/48
f 8/142/48 67/144/48 61/140/48
f 15/143/48 67/144/48 8/142/48
f 67/144/48 15/143/48 48/139/48
f 18/133/49 40/126/49 12/136/49
f 40/126/49 18/133/49 3/134/49
f 32/129/49 12/136/49 40/126/49
f 40/126/49 3/134/49 33/130/49
f 12/136/49 32/129/49 6/135/49
f 33/130/49 3/134/49 31/132/49
f 6/135/49 32/129/49 31/132/49
f 6/135/49 31/132/49 3/134/49
f 21/146/50 69/140/50 1/145/50
f 69/140/50 21/146/50 24/147/50
f 70/137/50 1/145/50 69/140/50
f 69/140/50 24/147/50 51/144/50
f 1/145/50 70/137/50 5/148/50
f 51/144/50 24/147/50 53/139/50
f 5/148/50 70/137/50 53/139/50
f 5/148/50 53/139/50 24/147/50

usemtl wood

f 34/151/49 30/150/49 39/149/49
f 30/150/49 34/151/49 29/152/49
f 37/155/45 60/154/45 38/153/45
f 60/154/45 37/155/45 46/156/45
f 42/153/46 28/156/46 27/154/46
f 28/156/46 42/153/46 44/155/46
f 52/159/50 72/158/50 71/157/50
f 72/158/50 52/159/50 54/160/50
f 57/152/47 65/149/47 58/151/47
f 65/149/47 57/152/47 66/150/47
f 49/163/48 68/162/48 50/161/48
f 68/162/48 49/163/48 62/164/48

