# Created by Kenney (www.kenney.nl)

mtllib crate.mtl

g crate

v -0.0853076 0.4206152 -0.2
v 0.1706152 0.1646924 -0.2
v 0.1706152 0.4206152 -0.2
v 0.0853076 0.05 -0.1706152
v -0.1706151 0.05 -0.1706152
v -0.1706152 0.05 0.0853076
v -0.2 0.0793848 0.1706151
v -0.2 0.0793848 -0.0853076
v -0.2 0.3353076 0.1706151
v 0.1706152 0.0793848 0.2
v -0.0853076 0.0793848 0.2
v 0.1706152 0.3353076 0.2
v 0.2 0.3353076 -0.1706152
v 0.2 0.0793848 -0.1706152
v 0.2 0.0793848 0.0853076
v -0.1706151 0.0793848 -0.2
v 0.0853076 0.0793848 -0.2
v -0.1706151 0.3353076 -0.2
v 0.2 0.4206152 0.1706151
v 0.2 0.4206152 -0.0853076
v 0.2 0.1646924 0.1706151
v -0.2 0.1646924 -0.1706152
v -0.2 0.4206152 -0.1706152
v -0.2 0.4206152 0.0853076
v 0.1706152 0.45 -0.0853076
v 0.1706152 0.45 0.1706151
v -0.0853076 0.45 0.1706151
v 0.0853076 0.4206152 0.2
v -0.1706151 0.1646924 0.2
v -0.1706151 0.4206152 0.2
v -0.1706151 0.45 -0.1706152
v 0.0853076 0.45 -0.1706152
v -0.1706152 0.45 0.0853076
v 0.1706152 0.05 0.1706151
v 0.1706152 0.05 -0.0853076
v -0.0853076 0.05 0.1706151
v 0.1706152 0.0793848 -0.25
v 0.1706152 0.4206152 -0.25
v 0.1706152 0.0793848 -0.225
v 0.1706152 0.1646924 -0.225
v -0.225 0.0793848 -0.1706152
v -0.225 0.0793848 -0.0853076
v -0.25 0.0793848 -0.1706152
v -0.25 0.0793848 0.1706151
v 0.1706152 0.025 -0.0853076
v 0.1706152 0.025 -0.1706152
v -0.0853076 0.025 0.1706151
v 0.0853076 0.025 -0.1706152
v -0.1706152 0.025 0.0853076
v -0.1706151 0.025 0.1706151
v -0.1706152 0.475 0.0853076
v 0.0853076 0.475 -0.1706152
v 0.1706152 0.475 -0.0853076
v 0.1706152 0.5 0.1706151
v 0.1706152 0.5 -0.1706152
v 0.1706152 0.475 -0.1706152
v -0.1706151 0.475 0.1706151
v -0.0853076 0.475 0.1706151
v -0.1706151 0.5 0.1706151
v -0.0853076 0.4206152 -0.225
v 0.225 0.0793848 0.0853076
v 0.225 0.3353076 -0.1706152
v 0.225 0.1646924 0.1706151
v 0.225 0.4206152 -0.0853076
v 0.1706152 0.4206152 0.25
v 0.1706152 0.4206152 0.225
v -0.1706151 0.4206152 0.25
v 0.0853076 0.4206152 0.225
v 0.225 0.4206152 -0.1706152
v 0.225 0.0793848 0.1706151
v -0.225 0.4206152 0.1706151
v -0.225 0.4206152 0.0853076
v -0.25 0.4206152 0.1706151
v -0.25 0.4206152 -0.1706152
v -0.1706151 0.4206152 -0.25
v -0.1706151 0.0793848 -0.25
v -0.1706151 0.4206152 -0.225
v -0.1706151 0.3353076 -0.225
v -0.1706151 0.1646924 0.225
v -0.1706151 0.0793848 0.225
v -0.1706151 0.0793848 0.25
v -0.1706151 0.5 -0.1706152
v 0.0853076 0.0793848 -0.225
v 0.1706152 -8.722975E-32 -0.1706152
v 0.1706152 -8.722975E-32 0.1706151
v 0.25 0.0793848 -0.1706152
v 0.25 0.0793848 0.1706151
v 0.25 0.4206152 -0.1706152
v -0.225 0.3353076 0.1706151
v -0.225 0.1646924 -0.1706152
v -0.1706151 -8.722975E-32 0.1706151
v -0.0853076 0.0793848 0.225
v 0.1706152 0.3353076 0.225
v 0.25 0.4206152 0.1706151
v 0.1706152 0.0793848 0.25
v -0.1706151 -8.722975E-32 -0.1706152
v 0.25 -8.722975E-32 -0.25
v 0.25 -8.722975E-32 0.25
v -0.25 -8.722975E-32 0.25
v -0.25 -8.722975E-32 -0.25
v 0.25 0.5 0.25
v 0.25 0.5 -0.25
v -0.25 0.5 -0.25
v -0.25 0.5 0.25

vn 0 0 -1
vn 0 -1 0
vn -1 0 0
vn 0 0 1
vn 1 0 0
vn 0 1 0
vn -0.7071068 0 -0.7071068
vn 0.7071068 0.7071068 0
vn 0 -0.7071068 -0.7071068
vn 0 0.7071066 0.7071069
vn 1 -1.092683E-06 0
vn -0.7071069 -0.7071066 0
vn 0.7071066 0 0.7071069
vn 0 0.7071068 -0.7071068
vn 0.7071068 -0.7071068 0
vn -0.7071069 0.7071066 0
vn 1 1.092683E-06 0
vn 0 -0.7071066 0.7071069

vt 3.358567 16.55965
vt -6.717134 6.483953
vt -6.717134 16.55965
vt 3.358567 -6.717134
vt -6.71713 -6.717134
vt -6.717134 3.358567
vt 6.71713 3.125386
vt -3.358567 3.125386
vt 6.71713 13.20109
vt 6.717134 3.125386
vt 6.717134 13.20109
vt -6.71713 16.55965
vt -6.71713 6.483953
vt -6.717134 -3.358567
vt -6.717134 6.71713
vt 3.358567 6.71713
vt 6.71713 -6.717134
vt -3.358567 -6.717134
vt 6.717134 3.358567
vt 6.717134 6.71713
vt 6.717134 -3.358567
vt -3.358567 6.71713
vt -9.84252 3.125386
vt -9.84252 16.55965
vt -8.858268 3.125386
vt -8.858268 6.483953
vt -7.874016 16.55965
vt -7.874016 6.483953
vt 8.858268 -6.717134
vt 8.858268 -3.358567
vt 9.84252 -6.717134
vt 9.84252 6.71713
vt 7.874016 6.71713
vt 7.874016 -3.358567
vt 6.717134 -6.717134
vt -6.71713 6.71713
vt 7.124596 17.71654
vt -7.124596 17.71654
vt 7.124596 18.70079
vt -7.124596 18.70079
vt -3.358567 17.71654
vt -3.358567 18.70079
vt 6.71713 17.71654
vt 6.71713 19.68504
vt -6.717134 19.68504
vt -6.717134 18.70079
vt 6.71713 18.70079
vt 3.358567 18.70079
vt -6.717134 17.71654
vt 3.358567 17.71654
vt 8.858268 14.08431
vt 8.858268 -0.1648839
vt 7.874016 14.08431
vt 7.874016 -0.1648839
vt -6.717134 -6.717134
vt 6.71713 6.71713
vt 7.124596 0.984252
vt -7.124596 0.984252
vt 7.124596 1.968504
vt -7.124596 1.968504
vt -7.874016 -0.1648839
vt -8.858268 -0.1648839
vt -7.874016 14.08431
vt -8.858268 14.08431
vt 8.858268 -0.1648793
vt 7.874016 -0.1648793
vt 8.858268 14.08431
vt 7.874016 14.08431
vt 6.717134 9.84252
vt 6.717134 8.858268
vt -6.71713 9.84252
vt 3.358567 8.858268
vt 3.358567 7.874016
vt -6.71713 7.874016
vt 6.717134 16.55965
vt -6.71713 3.125386
vt -8.858268 6.71713
vt -8.858268 3.358567
vt -9.84252 6.71713
vt -9.84252 -6.717134
vt -7.874016 -6.717134
vt -7.874016 3.358567
vt 9.84252 16.55965
vt 9.84252 3.125386
vt 8.858268 16.55965
vt 8.858268 13.20109
vt 7.874016 3.125386
vt 7.874016 13.20109
vt 6.717133 19.68503
vt 6.717133 17.71653
vt -6.717131 19.68503
vt -3.358568 18.70078
vt -6.717131 18.70078
vt -3.358568 17.71653
vt -6.717134 -9.84252
vt -6.717134 -8.858268
vt 6.71713 -9.84252
vt -3.358567 -8.858268
vt -3.358567 -7.874016
vt 6.71713 -7.874016
vt -6.717134 -3.434242E-30
vt -6.717134 0.984252
vt 6.71713 -3.434242E-30
vt -3.358567 0.984252
vt -3.358567 1.968504
vt 6.71713 1.968504
vt -6.717134 3.125386
vt 6.71713 16.55965
vt -8.858268 -0.164883
vt -8.858268 14.08431
vt -7.874016 -0.164883
vt -7.874016 14.08431
vt 7.124597 0.984252
vt -7.124593 0.984252
vt 7.124597 1.968504
vt -7.124593 1.968504
vt 6.71713 0.984252
vt 3.358567 0.984252
vt -6.717134 1.968504
vt 3.358567 1.968504
vt 7.124597 17.71654
vt -7.124593 17.71654
vt 7.124597 18.70079
vt -7.124593 18.70079
vt 6.717134 18.70079
vt 6.717134 19.68504
vt -6.71713 19.68504
vt -6.71713 17.71654
vt 6.717134 -3.434242E-30
vt -6.71713 -3.434242E-30
vt 6.717134 0.984252
vt -6.71713 1.968504
vt 6.717133 1.968511
vt 6.717133 7.339694E-06
vt -3.358568 1.968511
vt -3.358568 0.9842593
vt -6.717131 7.339692E-06
vt -6.717131 0.9842593
vt 6.717134 -7.874016
vt 6.717134 -9.84252
vt -6.71713 -9.84252
vt -6.71713 -8.858268
vt -6.717134 7.874016
vt -6.717134 9.84252
vt 6.71713 9.84252
vt 6.71713 8.858268
vt 9.84252 -9.84252
vt 9.84252 9.84252
vt -9.84252 9.84252
vt -9.84252 -9.84252
vt -9.84252 19.68504
vt 9.84252 19.68504
vt -9.84252 -3.434242E-30
vt 9.84252 -3.434242E-30

usemtl woodDark

f 3/3/1 2/2/1 1/1/1
f 6/6/2 5/5/2 4/4/2
f 9/9/3 8/8/3 7/7/3
f 12/11/4 11/8/4 10/10/4
f 15/8/5 14/10/5 13/11/5
f 18/9/1 17/8/1 16/7/1
f 21/13/5 20/1/5 19/12/5
f 24/1/3 23/3/3 22/2/3
f 27/16/6 26/15/6 25/14/6
f 30/12/4 29/13/4 28/1/4
f 33/19/6 32/18/6 31/17/6
f 36/22/2 35/21/2 34/20/2

usemtl wood

f 39/25/3 38/24/3 37/23/3
f 38/24/3 39/25/3 40/26/3
f 38/24/3 40/26/3 3/27/3
f 3/27/3 40/26/3 2/28/3
f 43/31/6 42/30/6 41/29/6
f 44/32/6 42/30/6 43/31/6
f 7/33/6 42/30/6 44/32/6
f 42/30/6 7/33/6 8/34/6
f 47/22/2 46/35/2 45/21/2
f 46/35/2 47/22/2 48/4/2
f 48/4/2 47/22/2 49/6/2
f 49/6/2 47/22/2 50/36/2
f 51/39/7 32/38/7 33/37/7
f 32/38/7 51/39/7 52/40/7
f 26/43/3 53/42/3 25/41/3
f 54/44/3 53/42/3 26/43/3
f 55/45/3 53/42/3 54/44/3
f 53/42/3 55/45/3 56/46/3
f 59/44/1 58/48/1 57/47/1
f 54/45/1 58/48/1 59/44/1
f 26/49/1 58/48/1 54/45/1
f 58/48/1 26/49/1 27/50/1
f 1/53/8 40/52/8 60/51/8
f 40/52/8 1/53/8 2/54/8
f 52/18/6 53/14/6 56/55/6
f 53/14/6 52/18/6 58/16/6
f 58/16/6 52/18/6 51/19/6
f 58/16/6 51/19/6 57/56/6
f 6/59/7 48/58/7 49/57/7
f 48/58/7 6/59/7 4/60/7
f 13/63/9 61/62/9 15/61/9
f 61/62/9 13/63/9 62/64/9
f 64/67/10 21/66/10 63/65/10
f 21/66/10 64/67/10 20/68/10
f 67/71/2 66/70/2 65/69/2
f 66/70/2 67/71/2 68/72/2
f 68/72/2 67/71/2 28/73/2
f 28/73/2 67/71/2 30/74/2
f 64/1/5 62/11/5 69/75/5
f 62/11/5 64/1/5 61/8/5
f 61/8/5 64/1/5 63/13/5
f 61/8/5 63/13/5 70/76/5
f 73/79/2 72/78/2 71/77/2
f 74/80/2 72/78/2 73/79/2
f 23/81/2 72/78/2 74/80/2
f 72/78/2 23/81/2 24/82/2
f 77/85/5 76/84/5 75/83/5
f 76/84/5 77/85/5 78/86/5
f 76/84/5 78/86/5 16/87/5
f 16/87/5 78/86/5 18/88/5
f 67/24/5 29/28/5 30/27/5
f 29/28/5 67/24/5 79/26/5
f 79/26/5 67/24/5 80/25/5
f 80/25/5 67/24/5 81/23/5
f 59/91/11 31/90/11 82/89/11
f 31/90/11 59/91/11 51/92/11
f 51/92/11 59/91/11 57/93/11
f 33/94/11 31/90/11 51/92/11
f 76/97/6 39/96/6 37/95/6
f 39/96/6 76/97/6 83/98/6
f 83/98/6 76/97/6 17/99/6
f 17/99/6 76/97/6 16/100/6
f 85/103/3 46/102/3 84/101/3
f 46/102/3 85/103/3 45/104/3
f 45/104/3 85/103/3 35/105/3
f 35/105/3 85/103/3 34/106/3
f 14/81/6 87/79/6 86/80/6
f 87/79/6 14/81/6 61/78/6
f 61/78/6 14/81/6 15/82/6
f 70/77/6 87/79/6 61/78/6
f 88/83/4 14/87/4 86/84/4
f 14/87/4 88/83/4 62/86/4
f 62/86/4 88/83/4 69/85/4
f 13/88/4 14/87/4 62/86/4
f 78/9/1 39/107/1 83/8/1
f 39/107/1 78/9/1 40/2/1
f 40/2/1 78/9/1 60/1/1
f 60/1/1 78/9/1 77/108/1
f 17/111/12 78/110/12 83/109/12
f 78/110/12 17/111/12 18/112/12
f 73/83/1 7/87/1 44/84/1
f 7/87/1 73/83/1 89/86/1
f 89/86/1 73/83/1 71/85/1
f 9/88/1 7/87/1 89/86/1
f 35/115/13 47/114/13 45/113/13
f 47/114/13 35/115/13 36/116/13
f 23/27/4 90/26/4 22/28/4
f 74/24/4 90/26/4 23/27/4
f 43/23/4 90/26/4 74/24/4
f 90/26/4 43/23/4 41/25/4
f 50/117/1 85/101/1 91/103/1
f 85/101/1 50/117/1 47/118/1
f 85/101/1 47/118/1 34/119/1
f 34/119/1 47/118/1 36/120/1
f 93/11/4 80/76/4 92/8/4
f 80/76/4 93/11/4 79/13/4
f 79/13/4 93/11/4 68/1/4
f 68/1/4 93/11/4 66/75/4
f 72/51/14 22/54/14 90/52/14
f 22/54/14 72/51/14 24/53/14
f 19/27/1 63/26/1 21/28/1
f 94/24/1 63/26/1 19/27/1
f 87/23/1 63/26/1 94/24/1
f 63/26/1 87/23/1 70/25/1
f 53/123/13 27/122/13 25/121/13
f 27/122/13 53/123/13 58/124/13
f 42/8/3 90/2/3 41/107/3
f 90/2/3 42/8/3 72/1/3
f 72/1/3 42/8/3 89/9/3
f 72/1/3 89/9/3 71/108/3
f 19/33/2 88/31/2 94/32/2
f 88/31/2 19/33/2 64/30/2
f 64/30/2 19/33/2 20/34/2
f 69/29/2 88/31/2 64/30/2
f 95/84/3 12/88/3 10/87/3
f 12/88/3 95/84/3 93/86/3
f 93/86/3 95/84/3 66/85/3
f 66/85/3 95/84/3 65/83/3
f 55/126/4 52/48/4 56/125/4
f 82/127/4 52/48/4 55/126/4
f 31/128/4 52/48/4 82/127/4
f 52/48/4 31/128/4 32/50/4
f 93/64/15 11/61/15 12/63/15
f 11/61/15 93/64/15 92/62/15
f 46/131/4 96/130/4 84/129/4
f 96/130/4 46/131/4 48/118/4
f 96/130/4 48/118/4 5/132/4
f 5/132/4 48/118/4 4/120/4
f 79/65/16 28/68/16 29/66/16
f 28/68/16 79/65/16 68/67/16
f 6/135/17 96/134/17 5/133/17
f 96/134/17 6/135/17 49/136/17
f 96/134/17 49/136/17 91/137/17
f 91/137/17 49/136/17 50/138/17
f 1/99/2 38/140/2 3/139/2
f 38/140/2 1/99/2 60/98/2
f 38/140/2 60/98/2 75/141/2
f 75/141/2 60/98/2 77/142/2
f 11/73/6 95/144/6 10/143/6
f 95/144/6 11/73/6 92/72/6
f 95/144/6 92/72/6 81/145/6
f 81/145/6 92/72/6 80/146/6
f 9/112/18 42/109/18 8/111/18
f 42/109/18 9/112/18 89/110/18
f 98/148/2 85/20/2 97/147/2
f 85/20/2 98/148/2 99/149/2
f 84/35/2 97/147/2 85/20/2
f 85/20/2 99/149/2 91/36/2
f 97/147/2 84/35/2 100/150/2
f 91/36/2 99/149/2 96/5/2
f 100/150/2 84/35/2 96/5/2
f 100/150/2 96/5/2 99/149/2
f 88/75/5 101/151/5 94/12/5
f 94/12/5 101/151/5 87/76/5
f 88/75/5 102/152/5 101/151/5
f 98/153/5 87/76/5 101/151/5
f 102/152/5 88/75/5 97/154/5
f 98/153/5 86/10/5 87/76/5
f 97/154/5 86/10/5 98/153/5
f 86/10/5 97/154/5 88/75/5
f 100/154/1 76/7/1 97/153/1
f 76/7/1 100/154/1 103/152/1
f 37/107/1 97/153/1 76/7/1
f 76/7/1 103/152/1 75/108/1
f 97/153/1 37/107/1 102/151/1
f 75/108/1 103/152/1 38/3/1
f 102/151/1 37/107/1 38/3/1
f 102/151/1 38/3/1 103/152/1
f 102/150/6 55/55/6 101/149/6
f 55/55/6 102/150/6 103/147/6
f 54/15/6 101/149/6 55/55/6
f 55/55/6 103/147/6 82/17/6
f 101/149/6 54/15/6 104/148/6
f 82/17/6 103/147/6 59/56/6
f 104/148/6 54/15/6 59/56/6
f 104/148/6 59/56/6 103/147/6
f 98/154/4 95/10/4 99/153/4
f 95/10/4 98/154/4 101/152/4
f 81/76/4 99/153/4 95/10/4
f 95/10/4 101/152/4 65/75/4
f 99/153/4 81/76/4 104/151/4
f 65/75/4 101/152/4 67/12/4
f 104/151/4 81/76/4 67/12/4
f 104/151/4 67/12/4 101/152/4
f 100/153/3 43/107/3 103/151/3
f 43/107/3 100/153/3 99/154/3
f 74/3/3 103/151/3 43/107/3
f 43/107/3 99/154/3 44/7/3
f 103/151/3 74/3/3 104/152/3
f 44/7/3 99/154/3 73/108/3
f 104/152/3 74/3/3 73/108/3
f 104/152/3 73/108/3 99/154/3

