# Created by Kenney (www.kenney.nl)

mtllib doorOpen.mtl

g doorOpen

v -0.3 0.7 -0.1
v -0.2598076 0.85 -0.1
v -0.3 0.7 0.1
v -0.2598076 0.85 0.1
v 0.1994203 0.7 -0.1
v 0.1994203 0.7 0.1
v 0.1994203 1.242061E-16 -0.1
v 0.1994203 1.242061E-16 0.1
v 0.15 0.9598076 -0.1
v 0.15 0.9598076 0.1
v 0 1 -0.1
v 0 1 0.1
v -0.3 0 -0.1
v -0.3 0 0.1
v -0.15 0.9598076 -0.1
v -0.15 0.9598076 0.1
v -0.172703 0.7997102 -0.1
v -0.172703 0.7997102 0.1
v -0.09971015 0.872703 -0.1
v -0.09971015 0.872703 0.1
v 0.2598076 0.85 -0.1
v 0.3 0.7 -0.1
v 0.2598076 0.85 0.1
v 0.3 0.7 0.1
v -0.1994203 4.524707E-17 -0.1
v -0.1994203 0.7 -0.1
v -2.887646E-15 0.8994203 -0.1
v 0.09971015 0.872703 -0.1
v 0.172703 0.7997102 -0.1
v 0.3 0 -0.1
v 0.09971015 0.872703 0.1
v 0.172703 0.7997102 0.1
v -0.1994203 0.7 0.1
v -0.1994203 1.015062E-16 0.1
v 0.3 2.26999E-17 0.1
v -2.887646E-15 0.8994203 0.1

vn -0.9659258 0.258819 0
vn -0.8660254 0.5 0
vn -1 0 0
vn 0.5 0.8660254 0
vn 0 1 0
vn -0.5 0.8660254 0
vn 0.8660254 -0.5 0
vn 0.5 -0.8660254 0
vn 0.8660254 0.5 0
vn 0.9659258 0.258819 0
vn 0 0 -1
vn -0.5 -0.8660254 0
vn -0.8660254 -0.5 0
vn 1 0 0
vn 0 -1 0
vn 0.9659258 -0.258819 0
vn 0 0 1
vn -0.9659258 -0.258819 0

vt -3.937008 23.56309
vt -3.937008 29.67692
vt 3.937008 23.56309
vt 3.937008 29.67692
vt -3.937008 27.55906
vt 3.937008 27.55906
vt -3.937008 -2.74978E-14
vt 3.937008 -2.74978E-14
vt 3.937008 4.075891
vt -3.937008 4.075891
vt 3.937008 10.18973
vt -3.937008 10.18973
vt -3.937008 0
vt 3.937008 0
vt 3.937008 17.45516
vt -3.937008 17.45516
vt 3.937008 21.51923
vt -3.937008 21.51923
vt -3.937008 16.43028
vt -3.937008 22.54411
vt 3.937008 16.43028
vt 3.937008 22.54411
vt 11.81102 3.48034E-14
vt 7.851193 3.658478E-14
vt 11.81102 27.55906
vt 7.851193 27.55906
vt 10.22865 33.46457
vt 6.799333 31.48465
vt 3.925596 34.35839
vt 5.905512 37.7877
vt 1.918866E-13 35.41025
vt -5.905512 37.7877
vt 7.819971E-14 39.37008
vt -3.925596 34.35839
vt -10.22865 33.46457
vt -6.799333 31.48465
vt -11.81102 27.55906
vt -7.851193 27.55906
vt -7.851193 3.969341E-14
vt -11.81102 3.48034E-14
vt 3.937008 1.781381E-15
vt -3.937008 3.996307E-15
vt -7.851193 3.937008
vt -7.851193 -3.937008
vt -11.81102 3.937008
vt -11.81102 -3.937008
vt 3.937008 24.58797
vt -3.937008 24.58797
vt 3.937008 28.65204
vt -3.937008 28.65204
vt 11.81102 -2.110129E-14
vt 7.851193 -1.710499E-14
vt -3.548712E-14 35.41025
vt -7.851193 -1.799868E-14
vt -11.81102 -2.199499E-14
vt -3.937008 8.936968E-16
vt 11.81102 3.937008
vt 11.81102 -3.937008
vt 7.851193 3.937008
vt 7.851193 -3.937008
vt -3.937008 9.164846
vt 3.937008 9.164846
vt -3.937008 5.10077
vt 3.937008 5.10077

usemtl metal

f 3/3/1 2/2/2 1/1/1
f 2/2/2 3/3/1 4/4/2
f 7/7/3 6/6/3 5/5/3
f 6/6/3 7/7/3 8/8/3
f 11/11/5 10/10/4 9/9/4
f 10/10/4 11/11/5 12/12/5
f 13/13/3 3/6/3 1/5/3
f 3/6/3 13/13/3 14/14/3
f 15/10/6 12/11/5 11/12/5
f 12/11/5 15/10/6 16/9/6
f 19/17/8 18/16/7 17/15/7
f 18/16/7 19/17/8 20/18/8
f 23/2/9 22/3/10 21/4/9
f 22/3/10 23/2/9 24/1/10
f 4/21/2 15/20/6 2/19/2
f 15/20/6 4/21/2 16/22/6
f 1/25/11 25/24/11 13/23/11
f 25/24/11 1/25/11 26/26/11
f 26/26/11 1/25/11 2/27/11
f 26/26/11 2/27/11 17/28/11
f 17/28/11 2/27/11 19/29/11
f 19/29/11 2/27/11 15/30/11
f 19/29/11 15/30/11 27/31/11
f 9/32/11 27/31/11 15/30/11
f 9/32/11 15/30/11 11/33/11
f 9/32/11 28/34/11 27/31/11
f 21/35/11 28/34/11 9/32/11
f 21/35/11 29/36/11 28/34/11
f 22/37/11 29/36/11 21/35/11
f 22/37/11 5/38/11 29/36/11
f 22/37/11 7/39/11 5/38/11
f 7/39/11 22/37/11 30/40/11
f 29/16/13 31/17/12 28/18/12
f 31/17/12 29/16/13 32/15/13
f 33/5/14 25/41/14 26/6/14
f 25/41/14 33/5/14 34/42/14
f 14/45/15 25/44/15 34/43/15
f 25/44/15 14/45/15 13/46/15
f 9/22/4 23/19/9 21/21/9
f 23/19/9 9/22/4 10/20/4
f 17/49/7 33/48/16 26/47/16
f 33/48/16 17/49/7 18/50/7
f 24/25/17 8/52/17 35/51/17
f 8/52/17 24/25/17 6/26/17
f 6/26/17 24/25/17 32/28/17
f 32/28/17 24/25/17 23/27/17
f 32/28/17 23/27/17 31/29/17
f 31/29/17 23/27/17 10/30/17
f 31/29/17 10/30/17 36/53/17
f 16/32/17 36/53/17 10/30/17
f 16/32/17 10/30/17 12/33/17
f 16/32/17 20/34/17 36/53/17
f 4/35/17 20/34/17 16/32/17
f 4/35/17 18/36/17 20/34/17
f 4/35/17 33/38/17 18/36/17
f 3/37/17 33/38/17 4/35/17
f 3/37/17 34/54/17 33/38/17
f 34/54/17 3/37/17 14/55/17
f 5/48/18 32/49/13 29/50/13
f 32/49/13 5/48/18 6/47/18
f 24/5/14 30/14/14 22/6/14
f 30/14/14 24/5/14 35/56/14
f 8/59/15 30/58/15 35/57/15
f 30/58/15 8/59/15 7/60/15
f 20/63/8 27/62/15 36/61/15
f 27/62/15 20/63/8 19/64/8
f 36/62/15 28/63/12 31/64/12
f 28/63/12 36/62/15 27/61/15

