# Created by Kenney (www.kenney.nl)

mtllib hedge.mtl

g hedge

v -0.5 0 0.3099999
v -0.5 0.16 0.3099999
v -0.5 0 0.5
v -0.5 0.16 0.5
v 0.5 0 0.5
v 0.5 0.16 0.5
v -0.46 0.2 0.35
v -0.46 0.2 0.46
v 0.5 0 0.3099999
v 0.5 0.16 0.3099999
v 0.46 0.2 0.35
v 0.46 0.2 0.46

vn -1 0 0
vn 0 0 1
vn -0.4082478 0.8164968 -0.408248
vn -0.4082484 0.8164968 -0.4082475
vn -0.4082483 0.8164966 0.4082483
vn 0 0 -1
vn 1 0 0
vn 0 -1 0
vn 0.4082478 0.8164968 -0.408248
vn 0.4082484 0.8164968 -0.4082475
vn 0.4082483 0.8164966 0.4082483
vn 0 1 0

vt 12.20472 0
vt 12.20472 6.299212
vt 19.68504 0
vt 19.68504 6.299212
vt -19.68504 0
vt -19.68504 6.299212
vt 12.20472 -9.465209
vt 13.77953 -7.238101
vt 19.68504 -9.465209
vt 18.11024 -7.238101
vt -12.20472 6.299212
vt -12.20472 -2.220446E-14
vt -19.68504 -2.220446E-14
vt 19.68504 12.20472
vt -19.68504 12.20472
vt 19.68504 19.68504
vt -19.68504 19.68504
vt -19.68504 13.08426
vt -18.11024 15.31137
vt 19.68504 13.08426
vt 18.11024 15.31137
vt -12.20472 -9.465209
vt -19.68504 -9.465209
vt -13.77953 -7.238101
vt -18.11024 -7.238101
vt -18.11024 13.77953
vt -18.11024 18.11024
vt 18.11024 13.77953
vt 18.11024 18.11024

usemtl grass

f 3/3/1 2/2/1 1/1/1
f 2/2/1 3/3/1 4/4/1
f 6/4/2 3/5/2 5/3/2
f 3/5/2 6/4/2 4/6/2
f 4/9/5 7/8/4 2/7/3
f 7/8/4 4/9/5 8/10/5
f 2/4/6 9/5/6 1/3/6
f 9/5/6 2/4/6 10/6/6
f 6/6/7 9/12/7 10/11/7
f 9/12/7 6/6/7 5/13/7
f 5/16/8 1/15/8 9/14/8
f 1/15/8 5/16/8 3/17/8
f 2/20/3 11/19/10 10/18/9
f 11/19/10 2/20/3 7/21/4
f 11/24/10 6/23/11 10/22/9
f 6/23/11 11/24/10 12/25/11
f 7/28/12 12/27/12 11/26/12
f 12/27/12 7/28/12 8/29/12
f 12/10/11 4/23/5 6/9/11
f 4/23/5 12/10/11 8/25/5

