# Created by Kenney (www.kenney.nl)

mtllib ladderLong.mtl

g ladderLong

v 0.11 0.9066665 0.0164
v -0.11 0.9066665 0.0164
v 0.11 0.9066665 -0.0164
v -0.11 0.9066665 -0.0164
v 0.11 0.09 0.0164
v -0.11 0.09 0.0164
v 0.11 0.1566667 0.0164
v -0.11 0.1566667 0.0164
v 0.11 0.59 0.0164
v -0.11 0.59 0.0164
v 0.11 0.6566666 0.0164
v -0.11 0.6566666 0.0164
v 0.11 0.34 0.0164
v 0.11 0.34 -0.0164
v -0.11 0.34 0.0164
v -0.11 0.34 -0.0164
v 0.11 0.09 -0.0164
v -0.11 0.09 -0.0164
v 0.11 0.59 -0.0164
v -0.11 0.59 -0.0164
v 0.11 0.4066666 0.0164
v -0.11 0.4066666 0.0164
v 0.11 0.6566666 -0.0164
v -0.11 0.6566666 -0.0164
v -0.11 0.84 -0.0164
v 0.11 0.84 -0.0164
v 0.11 0.84 0.0164
v -0.11 0.84 0.0164
v -0.11 0.4066666 -0.0164
v 0.11 0.4066666 -0.0164
v 0.11 1.09 0.0164
v 0.11 1.09 -0.0164
v -0.11 1.09 0.0164
v -0.11 1.09 -0.0164
v 0.11 1.59 0.0164
v 0.11 1.59 -0.0164
v -0.11 1.59 0.0164
v -0.11 1.59 -0.0164
v 0.11 1.906667 0.0164
v -0.11 1.906667 0.0164
v 0.11 1.906667 -0.0164
v -0.11 1.906667 -0.0164
v 0.11 1.656667 0.0164
v -0.11 1.656667 0.0164
v 0.11 1.656667 -0.0164
v -0.11 1.656667 -0.0164
v 0.11 1.156667 0.0164
v -0.11 1.156667 0.0164
v 0.11 1.34 0.0164
v 0.11 1.34 -0.0164
v -0.11 1.34 0.0164
v -0.11 1.34 -0.0164
v 0.11 1.406667 0.0164
v -0.11 1.406667 0.0164
v 0.11 1.406667 -0.0164
v -0.11 1.406667 -0.0164
v -0.11 1.156667 -0.0164
v 0.11 1.156667 -0.0164
v -0.11 1.84 -0.0164
v 0.11 1.84 -0.0164
v 0.11 1.84 0.0164
v -0.11 1.84 0.0164
v 0.19 -5.639933E-18 0.04
v 0.11 -5.639933E-18 0.04
v 0.19 2 0.04
v 0.11 2 0.04
v 0.19 2 -0.04
v 0.19 -5.639933E-18 -0.04
v -0.19 -5.639933E-18 -0.04
v -0.11 -5.639933E-18 -0.04
v -0.19 2 -0.04
v -0.11 2 -0.04
v -0.19 -5.639933E-18 0.04
v -0.19 2 0.04
v -0.11 -5.639933E-18 0.04
v -0.11 2 0.04
v 0.11 -5.639933E-18 -0.04
v 0.11 2 -0.04
v -0.11 0.1566667 -0.0164
v 0.11 0.1566667 -0.0164

vn 0 0.7071068 0.7071068
vn 0 0.7071068 -0.7071068
vn 0 0 1
vn 0 -1 0
vn 0 0 -1
vn 1 0 0
vn -1 0 0
vn 0 1 0

vt -4.330709 0.6456692
vt 4.330709 0.6456693
vt -4.330709 -0.6456693
vt 4.330709 -0.6456692
vt 4.330709 3.543307
vt -4.330709 3.543307
vt 4.330709 6.16798
vt -4.330709 6.16798
vt 4.330709 23.22835
vt -4.330709 23.22835
vt 4.330709 25.85302
vt -4.330709 25.85302
vt 4.330709 0.6456692
vt 4.330709 -0.6456693
vt -4.330709 0.6456693
vt -4.330709 -0.6456692
vt 4.330709 13.38583
vt -4.330709 13.38583
vt 4.330709 16.0105
vt -4.330709 16.0105
vt 4.330709 33.07087
vt -4.330709 33.07087
vt 4.330709 35.69553
vt -4.330709 35.69553
vt 4.330709 42.91339
vt -4.330709 42.91339
vt 4.330709 45.53806
vt -4.330709 45.53806
vt 4.330709 62.59843
vt -4.330709 62.59843
vt 4.330709 65.22309
vt -4.330709 65.22309
vt 4.330709 52.75591
vt -4.330709 52.75591
vt 4.330709 55.38057
vt -4.330709 55.38057
vt 4.330709 72.44095
vt -4.330709 72.44095
vt 4.330709 75.06561
vt -4.330709 75.06561
vt 7.480315 -2.360306E-16
vt 4.330709 -2.360306E-16
vt 7.480315 78.74016
vt 4.330709 78.74016
vt 1.574803 78.74016
vt 1.574803 -4.458447E-09
vt -1.574803 78.74016
vt -1.574803 -4.458447E-09
vt 7.480315 -2.080586E-16
vt 4.330709 -2.080586E-16
vt 7.480315 78.74016
vt -1.574803 4.458447E-09
vt 1.574803 4.458447E-09
vt -4.330709 -2.360306E-16
vt -7.480315 -2.360306E-16
vt -4.330709 78.74016
vt -7.480315 78.74016
vt -4.330709 -2.080586E-16
vt -7.480315 -2.080586E-16
vt -7.480315 78.74016
vt -7.480315 1.574803
vt -4.330709 1.574803
vt -7.480315 -1.574803
vt -4.330709 -1.574803
vt 4.330709 1.574803
vt 7.480315 1.574803
vt 4.330709 -1.574803
vt 7.480315 -1.574803
vt -0.6456693 75.06561
vt 0.6456693 75.06561
vt -0.6456693 72.44095
vt 1.574803 2.581206E-09
vt 0.6456693 3.543307
vt 0.6456693 72.44095
vt -1.574803 2.581206E-09
vt 0.6456693 65.22309
vt -0.6456693 65.22309
vt 0.6456693 62.59843
vt -0.6456693 62.59843
vt -0.6456693 3.543307
vt -0.6456693 6.16798
vt 0.6456693 55.38057
vt 0.6456693 52.75591
vt -0.6456693 55.38057
vt 0.6456693 45.53806
vt 0.6456693 42.91339
vt -0.6456693 52.75591
vt -0.6456693 45.53806
vt -0.6456693 42.91339
vt 0.6456693 35.69553
vt -0.6456693 35.69553
vt 0.6456693 33.07087
vt -0.6456693 33.07087
vt 0.6456693 25.85302
vt -0.6456693 25.85302
vt 0.6456693 23.22835
vt -0.6456693 23.22835
vt 0.6456693 16.0105
vt 0.6456693 13.38583
vt -0.6456693 16.0105
vt 0.6456693 6.16798
vt -0.6456693 13.38583
vt -1.574803 -2.581206E-09
vt 1.574803 -2.581206E-09

usemtl woodDark

f 3/3/2 2/2/1 1/1/1
f 2/2/1 3/3/2 4/4/2
f 7/7/3 6/6/3 5/5/3
f 6/6/3 7/7/3 8/8/3
f 11/11/1 10/10/3 9/9/3
f 10/10/3 11/11/1 12/12/1
f 15/15/4 14/14/4 13/13/4
f 14/14/4 15/15/4 16/16/4
f 6/15/4 17/14/4 5/13/4
f 17/14/4 6/15/4 18/16/4
f 10/15/4 19/14/4 9/13/4
f 19/14/4 10/15/4 20/16/4
f 21/19/1 15/18/3 13/17/3
f 15/18/3 21/19/1 22/20/1
f 23/3/2 12/2/1 11/1/1
f 12/2/1 23/3/2 24/4/2
f 24/11/2 19/10/5 20/9/5
f 19/10/5 24/11/2 23/12/2
f 4/23/2 26/22/5 25/21/5
f 26/22/5 4/23/2 3/24/2
f 28/15/4 26/14/4 27/13/4
f 26/14/4 28/15/4 25/16/4
f 29/19/2 14/18/5 16/17/5
f 14/18/5 29/19/2 30/20/2
f 30/3/2 22/2/1 21/1/1
f 22/2/1 30/3/2 29/4/2
f 1/23/1 28/22/3 27/21/3
f 28/22/3 1/23/1 2/24/1
f 33/15/4 32/14/4 31/13/4
f 32/14/4 33/15/4 34/16/4
f 37/15/4 36/14/4 35/13/4
f 36/14/4 37/15/4 38/16/4
f 41/3/2 40/2/1 39/1/1
f 40/2/1 41/3/2 42/4/2
f 45/3/2 44/2/1 43/1/1
f 44/2/1 45/3/2 46/4/2
f 47/27/1 33/26/3 31/25/3
f 33/26/3 47/27/1 48/28/1
f 43/31/1 37/30/3 35/29/3
f 37/30/3 43/31/1 44/32/1
f 51/15/4 50/14/4 49/13/4
f 50/14/4 51/15/4 52/16/4
f 53/35/1 51/34/3 49/33/3
f 51/34/3 53/35/1 54/36/1
f 55/3/2 54/2/1 53/1/1
f 54/2/1 55/3/2 56/4/2
f 57/27/2 32/26/5 34/25/5
f 32/26/5 57/27/2 58/28/2
f 42/39/2 60/38/5 59/37/5
f 60/38/5 42/39/2 41/40/2
f 46/31/2 36/30/5 38/29/5
f 36/30/5 46/31/2 45/32/2
f 62/15/4 60/14/4 61/13/4
f 60/14/4 62/15/4 59/16/4
f 56/35/2 50/34/5 52/33/5
f 50/34/5 56/35/2 55/36/2
f 58/3/2 48/2/1 47/1/1
f 48/2/1 58/3/2 57/4/2
f 39/39/1 62/38/3 61/37/3
f 62/38/3 39/39/1 40/40/1

usemtl wood

f 65/43/3 64/42/3 63/41/3
f 64/42/3 65/43/3 66/44/3
f 65/47/6 68/46/6 67/45/6
f 68/46/6 65/47/6 63/48/6
f 71/51/5 70/50/5 69/49/5
f 70/50/5 71/51/5 72/44/5
f 73/53/7 71/47/7 69/52/7
f 71/47/7 73/53/7 74/45/7
f 76/56/3 73/55/3 75/54/3
f 73/55/3 76/56/3 74/57/3
f 78/56/5 68/59/5 77/58/5
f 68/59/5 78/56/5 67/60/5
f 67/63/8 66/62/8 65/61/8
f 66/62/8 67/63/8 78/64/8
f 72/67/8 74/66/8 76/65/8
f 74/66/8 72/67/8 71/68/8
f 42/70/6 76/47/6 40/69/6
f 40/69/6 76/47/6 62/71/6
f 42/70/6 72/45/6 76/47/6
f 72/45/6 42/70/6 70/72/6
f 18/73/6 70/72/6 42/70/6
f 18/73/6 42/70/6 59/74/6
f 70/72/6 18/73/6 75/75/6
f 62/71/6 46/76/6 59/74/6
f 18/73/6 59/74/6 46/76/6
f 46/76/6 62/71/6 44/77/6
f 62/71/6 76/47/6 44/77/6
f 18/73/6 46/76/6 38/78/6
f 44/77/6 76/47/6 37/79/6
f 75/75/6 18/73/6 6/80/6
f 75/75/6 6/80/6 76/47/6
f 8/81/6 76/47/6 6/80/6
f 18/73/6 38/78/6 56/82/6
f 37/79/6 56/82/6 38/78/6
f 18/73/6 56/82/6 52/83/6
f 56/82/6 37/79/6 54/84/6
f 37/79/6 76/47/6 54/84/6
f 18/73/6 52/83/6 57/85/6
f 18/73/6 57/85/6 34/86/6
f 54/84/6 76/47/6 51/87/6
f 51/87/6 57/85/6 52/83/6
f 51/87/6 76/47/6 48/88/6
f 57/85/6 51/87/6 48/88/6
f 48/88/6 76/47/6 33/89/6
f 33/89/6 4/90/6 34/86/6
f 18/73/6 34/86/6 4/90/6
f 4/90/6 33/89/6 2/91/6
f 33/89/6 76/47/6 2/91/6
f 18/73/6 4/90/6 25/92/6
f 2/91/6 76/47/6 28/93/6
f 28/93/6 24/94/6 25/92/6
f 18/73/6 25/92/6 24/94/6
f 24/94/6 28/93/6 12/95/6
f 28/93/6 76/47/6 12/95/6
f 18/73/6 24/94/6 20/96/6
f 12/95/6 76/47/6 10/97/6
f 18/73/6 20/96/6 29/98/6
f 10/97/6 29/98/6 20/96/6
f 18/73/6 29/98/6 16/99/6
f 29/98/6 10/97/6 22/100/6
f 10/97/6 76/47/6 22/100/6
f 18/73/6 16/99/6 79/101/6
f 22/100/6 76/47/6 15/102/6
f 15/102/6 79/101/6 16/99/6
f 15/102/6 76/47/6 8/81/6
f 79/101/6 15/102/6 8/81/6
f 77/103/7 17/80/7 78/47/7
f 41/69/7 78/47/7 17/80/7
f 78/47/7 41/69/7 66/45/7
f 17/80/7 77/103/7 64/104/7
f 17/80/7 64/104/7 5/73/7
f 5/73/7 64/104/7 7/101/7
f 41/69/7 17/80/7 80/81/7
f 66/45/7 41/69/7 39/70/7
f 66/45/7 39/70/7 64/104/7
f 61/74/7 64/104/7 39/70/7
f 7/101/7 14/102/7 80/81/7
f 41/69/7 80/81/7 14/102/7
f 14/102/7 7/101/7 13/99/7
f 7/101/7 64/104/7 13/99/7
f 41/69/7 14/102/7 30/100/7
f 13/99/7 64/104/7 21/98/7
f 43/76/7 64/104/7 61/74/7
f 60/71/7 43/76/7 61/74/7
f 35/78/7 64/104/7 43/76/7
f 43/76/7 60/71/7 45/77/7
f 41/69/7 45/77/7 60/71/7
f 53/82/7 64/104/7 35/78/7
f 21/98/7 64/104/7 9/96/7
f 41/69/7 36/79/7 45/77/7
f 36/79/7 53/82/7 35/78/7
f 41/69/7 55/84/7 36/79/7
f 53/82/7 36/79/7 55/84/7
f 41/69/7 50/87/7 55/84/7
f 49/83/7 64/104/7 53/82/7
f 19/97/7 21/98/7 9/96/7
f 21/98/7 19/97/7 30/100/7
f 41/69/7 30/100/7 19/97/7
f 41/69/7 19/97/7 23/95/7
f 9/96/7 64/104/7 11/94/7
f 50/87/7 47/85/7 49/83/7
f 47/85/7 64/104/7 49/83/7
f 47/85/7 50/87/7 58/88/7
f 41/69/7 58/88/7 50/87/7
f 31/86/7 64/104/7 47/85/7
f 41/69/7 32/89/7 58/88/7
f 41/69/7 23/95/7 26/93/7
f 11/94/7 26/93/7 23/95/7
f 41/69/7 26/93/7 3/91/7
f 41/69/7 3/91/7 32/89/7
f 26/93/7 11/94/7 27/92/7
f 11/94/7 64/104/7 27/92/7
f 1/90/7 32/89/7 3/91/7
f 32/89/7 1/90/7 31/86/7
f 27/92/7 64/104/7 1/90/7
f 1/90/7 64/104/7 31/86/7

usemtl _defaultMat

f 73/76/4 70/71/4 75/77/4
f 70/76/4 73/71/4 69/77/4
f 64/2/4 68/3/4 63/4/4
f 68/2/4 64/3/4 77/4/4

