# Created by Kenney (www.kenney.nl)

mtllib ladder.mtl

g ladder

v 0.11 0.9066665 0.0164
v -0.11 0.9066665 0.0164
v 0.11 0.9066665 -0.0164
v -0.11 0.9066665 -0.0164
v 0.11 0.09 0.0164
v -0.11 0.09 0.0164
v 0.11 0.1566667 0.0164
v -0.11 0.1566667 0.0164
v 0.11 0.59 0.0164
v -0.11 0.59 0.0164
v 0.11 0.6566666 0.0164
v -0.11 0.6566666 0.0164
v 0.11 0.34 0.0164
v 0.11 0.34 -0.0164
v -0.11 0.34 0.0164
v -0.11 0.34 -0.0164
v 0.11 0.09 -0.0164
v -0.11 0.09 -0.0164
v 0.11 0.59 -0.0164
v -0.11 0.59 -0.0164
v 0.11 0.4066666 0.0164
v -0.11 0.4066666 0.0164
v 0.11 0.6566666 -0.0164
v -0.11 0.6566666 -0.0164
v -0.11 0.84 -0.0164
v 0.11 0.84 -0.0164
v 0.11 0.84 0.0164
v -0.11 0.84 0.0164
v -0.11 0.4066666 -0.0164
v 0.11 0.4066666 -0.0164
v -0.11 0.1566667 -0.0164
v 0.11 0.1566667 -0.0164
v 0.19 -5.639933E-18 0.04
v 0.11 -5.639933E-18 0.04
v 0.19 1 0.04
v 0.11 1 0.04
v 0.19 1 -0.04
v 0.19 -5.639933E-18 -0.04
v -0.19 -5.639933E-18 -0.04
v -0.11 -5.639933E-18 -0.04
v -0.19 1 -0.04
v -0.11 1 -0.04
v -0.19 -5.639933E-18 0.04
v -0.19 1 0.04
v -0.11 -5.639933E-18 0.04
v -0.11 1 0.04
v 0.11 -5.639933E-18 -0.04
v 0.11 1 -0.04

vn 0 0.7071068 0.7071068
vn 0 0.7071068 -0.7071068
vn 0 0 1
vn 0 -1 0
vn 0 0 -1
vn 1 0 0
vn -1 0 0
vn 0 1 0

vt -4.330709 0.6456692
vt 4.330709 0.6456693
vt -4.330709 -0.6456693
vt 4.330709 -0.6456692
vt 4.330709 3.543307
vt -4.330709 3.543307
vt 4.330709 6.16798
vt -4.330709 6.16798
vt 4.330709 23.22835
vt -4.330709 23.22835
vt 4.330709 25.85302
vt -4.330709 25.85302
vt 4.330709 0.6456692
vt 4.330709 -0.6456693
vt -4.330709 0.6456693
vt -4.330709 -0.6456692
vt 4.330709 13.38583
vt -4.330709 13.38583
vt 4.330709 16.0105
vt -4.330709 16.0105
vt 4.330709 33.07087
vt -4.330709 33.07087
vt 4.330709 35.69553
vt -4.330709 35.69553
vt 7.480315 -2.220446E-16
vt 4.330709 -2.220446E-16
vt 7.480315 39.37008
vt 4.330709 39.37008
vt 1.574803 39.37008
vt 1.574803 -2.220446E-16
vt -1.574803 39.37008
vt -1.574803 -2.220446E-16
vt -4.330709 -2.220446E-16
vt -7.480315 -2.220446E-16
vt -4.330709 39.37008
vt -7.480315 39.37008
vt 4.330709 1.574803
vt 7.480315 1.574803
vt 4.330709 -1.574803
vt 7.480315 -1.574803
vt -7.480315 1.574803
vt -4.330709 1.574803
vt -7.480315 -1.574803
vt -4.330709 -1.574803
vt -0.6456693 3.543307
vt -0.6456693 35.69553
vt 0.6456693 3.543307
vt 0.6456693 6.16798
vt -0.6456693 6.16798
vt 0.6456693 35.69553
vt 0.6456693 33.07087
vt -0.6456693 13.38583
vt 0.6456693 13.38583
vt -0.6456693 16.0105
vt 0.6456693 16.0105
vt 0.6456693 25.85302
vt -0.6456693 33.07087
vt 0.6456693 23.22835
vt -0.6456693 25.85302
vt -0.6456693 23.22835

usemtl woodDark

f 3/3/2 2/2/1 1/1/1
f 2/2/1 3/3/2 4/4/2
f 7/7/1 6/6/3 5/5/3
f 6/6/3 7/7/1 8/8/1
f 11/11/1 10/10/3 9/9/3
f 10/10/3 11/11/1 12/12/1
f 15/15/4 14/14/4 13/13/4
f 14/14/4 15/15/4 16/16/4
f 6/15/4 17/14/4 5/13/4
f 17/14/4 6/15/4 18/16/4
f 10/15/4 19/14/4 9/13/4
f 19/14/4 10/15/4 20/16/4
f 21/19/1 15/18/3 13/17/3
f 15/18/3 21/19/1 22/20/1
f 23/3/2 12/2/1 11/1/1
f 12/2/1 23/3/2 24/4/2
f 24/11/2 19/10/5 20/9/5
f 19/10/5 24/11/2 23/12/2
f 4/23/2 26/22/5 25/21/5
f 26/22/5 4/23/2 3/24/2
f 28/15/4 26/14/4 27/13/4
f 26/14/4 28/15/4 25/16/4
f 29/19/2 14/18/5 16/17/5
f 14/18/5 29/19/2 30/20/2
f 31/7/2 17/6/5 18/5/5
f 17/6/5 31/7/2 32/8/2
f 30/3/2 22/2/1 21/1/1
f 22/2/1 30/3/2 29/4/2
f 1/23/1 28/22/3 27/21/3
f 28/22/3 1/23/1 2/24/1
f 32/3/2 8/2/1 7/1/1
f 8/2/1 32/3/2 31/4/2

usemtl wood

f 35/27/3 34/26/3 33/25/3
f 34/26/3 35/27/3 36/28/3
f 35/31/6 38/30/6 37/29/6
f 38/30/6 35/31/6 33/32/6
f 41/27/5 40/26/5 39/25/5
f 40/26/5 41/27/5 42/28/5
f 43/30/7 41/31/7 39/32/7
f 41/31/7 43/30/7 44/29/7
f 46/35/3 43/34/3 45/33/3
f 43/34/3 46/35/3 44/36/3
f 48/35/5 38/34/5 47/33/5
f 38/34/5 48/35/5 37/36/5
f 42/39/8 44/38/8 46/37/8
f 44/38/8 42/39/8 41/40/8
f 37/43/8 36/42/8 35/41/8
f 36/42/8 37/43/8 48/44/8
f 47/32/7 17/45/7 48/31/7
f 3/46/7 48/31/7 17/45/7
f 48/31/7 3/46/7 36/29/7
f 17/45/7 47/32/7 34/30/7
f 17/45/7 34/30/7 5/47/7
f 5/47/7 34/30/7 7/48/7
f 3/46/7 17/45/7 32/49/7
f 36/29/7 3/46/7 1/50/7
f 36/29/7 1/50/7 34/30/7
f 27/51/7 34/30/7 1/50/7
f 7/48/7 14/52/7 32/49/7
f 3/46/7 32/49/7 14/52/7
f 14/52/7 7/48/7 13/53/7
f 7/48/7 34/30/7 13/53/7
f 3/46/7 14/52/7 30/54/7
f 13/53/7 34/30/7 21/55/7
f 11/56/7 34/30/7 27/51/7
f 26/57/7 11/56/7 27/51/7
f 9/58/7 34/30/7 11/56/7
f 21/55/7 34/30/7 9/58/7
f 11/56/7 26/57/7 23/59/7
f 3/46/7 23/59/7 26/57/7
f 19/60/7 21/55/7 9/58/7
f 21/55/7 19/60/7 30/54/7
f 3/46/7 19/60/7 23/59/7
f 3/46/7 30/54/7 19/60/7
f 42/29/6 4/50/6 40/30/6
f 18/47/6 40/30/6 4/50/6
f 40/30/6 18/47/6 45/32/6
f 4/50/6 42/29/6 46/31/6
f 4/50/6 46/31/6 2/46/6
f 2/46/6 46/31/6 28/57/6
f 18/47/6 4/50/6 25/51/6
f 45/32/6 18/47/6 6/45/6
f 45/32/6 6/45/6 46/31/6
f 8/49/6 46/31/6 6/45/6
f 28/57/6 24/56/6 25/51/6
f 18/47/6 25/51/6 24/56/6
f 24/56/6 28/57/6 12/59/6
f 28/57/6 46/31/6 12/59/6
f 18/47/6 24/56/6 20/58/6
f 12/59/6 46/31/6 10/60/6
f 15/52/6 46/31/6 8/49/6
f 31/48/6 15/52/6 8/49/6
f 22/54/6 46/31/6 15/52/6
f 10/60/6 46/31/6 22/54/6
f 15/52/6 31/48/6 16/53/6
f 18/47/6 16/53/6 31/48/6
f 29/55/6 10/60/6 22/54/6
f 10/60/6 29/55/6 20/58/6
f 18/47/6 29/55/6 16/53/6
f 18/47/6 20/58/6 29/55/6

usemtl _defaultMat

f 43/56/4 40/57/4 45/59/4
f 40/56/4 43/57/4 39/59/4
f 34/2/4 38/3/4 33/4/4
f 38/2/4 34/3/4 47/4/4

