# Created by Kenney (www.kenney.nl)

mtllib saw.mtl

g saw

v -0.3968558 0.1636833 -1.010254E-09
v -0.329056 -1.673932E-14 -0.04066192
v -0.2326777 0.2326777 -0.04066192
v -0.1636833 -0.3968558 2.464146E-09
v -0.2326777 -0.2326777 -0.04066192
v -0.2326777 -0.2326777 0.04066192
v -0.396361 -0.1648779 -1.002882E-09
v -0.329056 -1.71454E-15 0.04066192
v 1.65382E-09 -0.329056 0.04066192
v 2.86559E-09 -0.329056 -0.04066191
v -0.2326777 0.2326777 0.04066192
v 0.2326777 -0.2326777 -0.04066191
v 0.3968558 -0.1636833 1.081649E-08
v 0.329056 -1.673932E-14 -0.04066191
v 0.396361 0.1648779 1.080912E-08
v 0.329056 -1.71454E-15 0.04066193
v 0.2326777 0.2326777 0.04066193
v 2.86559E-09 0.329056 -0.04066191
v 1.65382E-09 0.329056 0.04066192
v -0.1648779 0.396361 2.446347E-09
v 0.1648779 -0.396361 7.35989E-09
v 0.2326777 -0.2326777 0.04066193
v 0.2326777 0.2326777 -0.04066191
v 0.1636833 0.3968558 7.34209E-09
v -0.2124104 -2.801919E-14 -0.1016548
v -0.1501969 0.1501969 -0.1016548
v -0.2655131 -1.673932E-14 -0.04066192
v -0.1877461 0.1877461 -0.04066192
v 3.774404E-09 0.2124104 -0.1016548
v 2.86559E-09 0.2655131 -0.04066191
v 1.65382E-09 0.2655131 0.04066192
v 7.449837E-10 0.2124104 0.1016548
v -0.1877461 0.1877461 0.04066192
v -0.1501969 0.1501969 0.1016548
v -0.1501969 -0.1501969 -0.1016548
v -0.1877461 -0.1877461 -0.04066192
v 0.1501969 0.1501969 -0.1016548
v 0.2124104 -2.801919E-14 -0.1016548
v 0.1877461 0.1877461 -0.04066191
v 0.2655131 -1.673932E-14 -0.04066191
v 3.774404E-09 -0.2124104 -0.1016548
v 2.86559E-09 -0.2655131 -0.04066191
v 0.1877461 -0.1877461 -0.04066191
v 0.1501969 -0.1501969 -0.1016548
v -0.2655131 -1.71454E-15 0.04066192
v -0.2124104 9.429968E-15 0.1016548
v 0.1877461 -0.1877461 0.04066193
v 1.65382E-09 -0.2655131 0.04066192
v 0.1501969 -0.1501969 0.1016548
v 7.449837E-10 -0.2124104 0.1016548
v -0.04999999 -0.05 -0.1516548
v -0.04999999 0.05 -0.1516548
v -0.05 -0.05 -0.1016548
v -0.05 0.05 -0.1016548
v 0.05 -0.05 -0.1016548
v 0.05 0.05 -0.1016548
v 0.05 0.05 -0.1516548
v 0.1877461 0.1877461 0.04066193
v 0.1501969 0.1501969 0.1016548
v -0.1877461 -0.1877461 0.04066192
v -0.1501969 -0.1501969 0.1016548
v 0.05 -0.05 -0.1516548
v 0.05 -0.05 0.1016548
v -0.05 -0.05 0.1016548
v 0.05 -0.05 0.1516548
v -0.05 -0.05 0.1516548
v -0.05 0.05 0.1016548
v -0.05 0.05 0.1516548
v 0.2655131 -1.71454E-15 0.04066193
v 0.2124104 9.429968E-15 0.1016548
v 0.05 0.05 0.1516548
v 0.05 0.05 0.1016548

vn -0.2852198 0.118142 -0.9511531
vn -0.9219028 -0.3874215 0
vn -0.9258322 0.377935 0
vn -0.118142 -0.2852198 0.9511531
vn -0.2852197 -0.1181419 0.9511531
vn -0.2852197 -0.1181419 -0.9511531
vn -0.118142 -0.2852198 -0.9511531
vn -0.2852198 0.118142 0.9511531
vn -0.3826832 -0.9238796 0
vn 0.2852198 -0.118142 -0.9511531
vn 0.2852197 0.1181419 0.9511531
vn 0.3826832 -0.9238796 0
vn 0.377935 0.9258322 0
vn -0.377935 -0.9258322 0
vn 0.9238796 0.3826832 0
vn 0.118142 -0.2852197 -0.9511531
vn 0.2852198 -0.118142 0.9511531
vn 0.9238796 -0.3826832 0
vn -0.3874215 0.9219028 0
vn 0.3826832 0.9238796 0
vn 0.9258322 -0.377935 0
vn 0.118142 0.2852198 0.9511531
vn 0.1181419 -0.2852197 0.9511531
vn 0.9219028 0.3874215 0
vn -0.1181419 0.2852197 -0.9511531
vn -0.9238796 0.3826832 0
vn 0.3874215 -0.9219028 0
vn -0.118142 0.2852197 0.9511531
vn -0.9238796 -0.3826832 0
vn 0.2852197 0.1181419 -0.9511531
vn -0.3826832 0.9238796 0
vn 0.118142 0.2852198 -0.9511531
vn -0.7542052 0 -0.6566387
vn -0.5333036 0.5333036 -0.6566387
vn 0 0.7542053 -0.6566388
vn 0 0.7542053 0.6566388
vn -0.5333036 0.5333036 0.6566387
vn -0.5333036 -0.5333036 -0.6566387
vn 0.5333036 0.5333036 -0.6566387
vn 0.7542053 0 -0.6566388
vn 0 -0.7542053 -0.6566388
vn 0.5333036 -0.5333036 -0.6566387
vn -0.7542053 0 0.6566388
vn 0.5333036 -0.5333036 0.6566387
vn 0 -0.7542053 0.6566388
vn -1 0 0
vn 0 0 -1
vn 0 1 0
vn 0.5333036 0.5333036 0.6566387
vn -0.5333036 -0.5333036 0.6566387
vn 1 0 0
vn 0 -1 0
vn 0.7542052 0 0.6566387
vn 0 0 1

vt 14.96586 5.868899
vt 11.94924 -0.620774
vt 8.314708 8.604372
vt 1.930362E-07 -11.9074
vt -1.600863 -4.896136
vt 1.600863 -4.896136
vt 1.930373E-07 -11.9074
vt -1.600863 -4.896133
vt 1.600863 -4.896133
vt 0.1973257 -11.96372
vt -6.395082 -14.74869
vt -8.893357 -8.004859
vt -8.314708 -8.604372
vt -14.9472 -5.916263
vt -11.94924 0.6207739
vt 14.9472 -5.916263
vt 8.314708 -8.604372
vt 11.94924 0.6207739
vt 6.395082 -14.74869
vt -0.1973256 -11.96372
vt 8.893357 -8.00486
vt -11.94924 -0.620774
vt -14.96586 5.868899
vt -8.314708 8.604372
vt 1.600863 4.957651
vt -1.600863 4.957651
vt 1.930361E-07 11.93283
vt -14.96586 -5.868899
vt -11.94924 0.620774
vt 14.9472 5.916263
vt 11.94924 -0.6207739
vt -1.600863 -4.957646
vt 1.600863 -4.957646
vt -1.930362E-07 -11.93282
vt 1.600863 4.896133
vt -1.600863 4.896133
vt -1.930362E-07 11.9074
vt 1.930361E-07 -11.9074
vt -1.600863 -4.896133
vt 1.600863 -4.896133
vt 1.600863 -4.957646
vt -1.930374E-07 -11.93282
vt -1.600863 -4.957646
vt 0.1973254 -11.96372
vt -6.441755 -14.72836
vt -8.893357 -8.00486
vt 14.96586 -5.868899
vt 11.94924 0.620774
vt 1.600863 -4.957651
vt -1.930361E-07 -11.93283
vt -1.600863 -4.957651
vt 1.930362E-07 -11.9074
vt 1.600863 -4.957651
vt -1.930362E-07 -11.93283
vt -1.600863 -4.957651
vt -1.93035E-07 11.9074
vt 1.600863 4.896133
vt -1.600863 4.896133
vt 8.893357 8.004859
vt -0.1973255 11.96372
vt 6.395082 14.74869
vt 6.441755 -14.72836
vt -0.1973255 -11.96372
vt -1.930361E-07 11.9074
vt 1.600863 4.896136
vt -1.600863 4.896136
vt 8.893357 8.00486
vt -0.1973256 11.96372
vt 6.441755 14.72836
vt 1.930362E-07 11.93283
vt -1.930362E-07 11.9074
vt 0.1973256 11.96372
vt -8.893357 8.00486
vt -6.441754 14.72836
vt -1.600863 4.957646
vt 1.930349E-07 11.93282
vt 1.600863 4.957646
vt -11.94924 -0.6207739
vt -14.9472 5.916263
vt -1.600863 4.957646
vt 1.930361E-07 11.93282
vt 1.600863 4.957646
vt 0.1973255 11.96372
vt -6.395082 14.74869
vt 2.472769 -2.664354
vt 0.8644302 3.530745
vt 5.656644 -2.664355
vt 3.646218 5.079519
vt -1.719391 3.202665
vt -0.6877564 6.214773
vt 3.620355 -0.3262324
vt 5.986925 1.803648
vt 0.6877566 6.214773
vt 1.719391 3.202665
vt -5.986925 1.803648
vt -3.620355 -0.3262326
vt 2.472769 2.664354
vt 5.656644 2.664355
vt 0.8644302 -3.530745
vt 3.646218 -5.079519
vt -0.8644303 3.530745
vt -2.472769 -2.664354
vt -3.646218 5.079519
vt -5.656644 -2.664355
vt -1.719391 -3.202665
vt 3.620355 0.3262324
vt -0.6877564 -6.214773
vt 5.986925 -1.803648
vt -5.986926 -1.803648
vt -3.620355 0.3262324
vt 0.6877563 -6.214773
vt 1.719391 -3.202665
vt -5.656644 -2.664355
vt -3.646218 5.079519
vt -2.472768 -2.664354
vt -0.8644299 3.530745
vt -0.8644303 -3.530745
vt -3.646218 -5.079519
vt -2.472769 2.664354
vt -5.656644 2.664355
vt 5.986925 -1.803648
vt -0.6877564 -6.214773
vt 3.620355 0.3262327
vt -1.719391 -3.202665
vt -5.986926 1.803648
vt 0.6877563 6.214773
vt -3.620355 -0.3262324
vt 1.719391 3.202665
vt -5.970661 -1.968504
vt -5.970661 1.968504
vt -4.002157 -1.968504
vt -4.002157 1.968504
vt -8.896421E-08 -8.362615
vt -5.913264 -5.913264
vt 5.913264 -5.913264
vt 8.362614 -1.103118E-12
vt 1.968504 -1.968504
vt 1.968504 1.968504
vt -1.968504 -1.968504
vt -8.362615 -1.103118E-12
vt 5.913264 5.913264
vt -1.968504 1.968504
vt -5.913264 5.913264
vt -8.896421E-08 8.362615
vt -1.968504 -5.970661
vt -1.968504 -4.002157
vt 1.968504 -5.970661
vt 1.968504 -4.002157
vt 5.986925 1.803648
vt 3.620355 -0.3262327
vt -0.6877564 6.214773
vt -1.719391 3.202665
vt 0.6877566 -6.214773
vt -5.986925 -1.803648
vt 1.719391 -3.202665
vt -3.620355 0.3262326
vt 5.970661 1.968504
vt 5.970661 -1.968504
vt 4.002157 1.968504
vt 4.002157 -1.968504
vt 1.968504 4.002158
vt -1.968504 4.002158
vt 1.968504 5.970662
vt -1.968504 5.970662
vt -5.656644 2.664355
vt -2.472768 2.664354
vt -3.646218 -5.079519
vt -0.8644299 -3.530745
vt 4.002158 -1.968504
vt 4.002158 1.968504
vt 5.970662 -1.968504
vt 5.970662 1.968504
vt 1.968504 -5.970661
vt -1.968504 -5.970661
vt 1.968504 -4.002157
vt -1.968504 -4.002157
vt 3.646218 -5.079519
vt 0.86443 -3.530745
vt 5.656644 2.664355
vt 2.472769 2.664355
vt 1.968504 -1.968504
vt -1.968504 -1.968504
vt 1.968504 1.968504
vt -1.968504 1.968504
vt 3.646218 5.079519
vt 5.656644 -2.664355
vt 0.86443 3.530745
vt 2.472769 -2.664355
vt -4.002158 1.968504
vt -4.002158 -1.968504
vt -5.970662 1.968504
vt -5.970662 -1.968504
vt 8.896445E-08 -8.362615
vt 8.362615 3.712586E-13
vt -8.362614 3.712586E-13
vt 8.896445E-08 8.362615
vt -8.896478E-08 -12.95496
vt -8.896478E-08 -10.45327
vt 9.16054 -9.16054
vt -9.16054 -9.16054
vt 7.391579 -7.391579
vt -7.391579 -7.391579
vt 12.95496 -6.590284E-13
vt 10.45327 -6.590284E-13
vt -12.95496 -6.590284E-13
vt -10.45327 -6.590284E-13
vt -7.391579 7.391579
vt -9.16054 9.16054
vt 9.16054 9.16054
vt 7.391579 7.391579
vt -8.896478E-08 10.45327
vt -8.896478E-08 12.95496
vt 10.45327 -6.750156E-14
vt 8.896476E-08 10.45327
vt 12.95496 -6.750156E-14
vt 8.896476E-08 12.95496
vt 8.896476E-08 -10.45327
vt 8.896476E-08 -12.95496
vt -12.95496 -6.750156E-14
vt -10.45327 -6.750156E-14

usemtl metal

f 3/3/1 2/2/1 1/1/1
f 6/6/2 5/5/2 4/4/2
f 8/9/3 2/8/3 7/7/3
f 6/12/4 4/11/4 9/10/4
f 8/15/5 7/14/5 6/13/5
f 2/18/6 5/17/6 7/16/6
f 5/21/7 10/20/7 4/19/7
f 11/24/8 1/23/8 8/22/8
f 7/27/9 5/26/9 6/25/9
f 14/29/10 13/28/10 12/13/10
f 17/3/11 16/31/11 15/30/11
f 4/34/12 10/33/12 9/32/12
f 20/37/13 19/36/13 18/35/13
f 9/40/14 10/39/14 21/38/14
f 16/43/15 13/42/15 14/41/15
f 12/46/16 21/45/16 10/44/16
f 16/48/17 22/17/17 13/47/17
f 22/51/18 21/50/18 12/49/18
f 1/52/19 11/6/19 3/5/19
f 17/55/20 15/54/20 23/53/20
f 16/58/21 14/57/21 15/56/21
f 24/61/22 19/60/22 17/59/22
f 22/21/23 9/63/23 21/62/23
f 17/66/24 23/65/24 24/64/24
f 20/69/25 18/68/25 3/67/25
f 11/25/26 20/70/26 3/26/26
f 22/66/27 12/65/27 13/71/27
f 20/74/28 11/73/28 19/72/28
f 8/77/29 1/76/29 2/75/29
f 23/24/30 15/79/30 14/78/30
f 19/82/31 24/81/31 18/80/31
f 24/84/32 23/73/32 18/83/32
f 27/87/33 26/86/34 25/85/33
f 26/86/34 27/87/33 28/88/34
f 26/91/34 30/90/35 29/89/35
f 30/90/35 26/91/34 28/92/34
f 33/95/37 32/94/36 31/93/36
f 32/94/36 33/95/37 34/96/37
f 35/99/38 27/98/33 25/97/33
f 27/98/33 35/99/38 36/100/38
f 39/103/39 38/102/40 37/101/39
f 38/102/40 39/103/39 40/104/40
f 42/107/41 35/106/38 41/105/41
f 35/106/38 42/107/41 36/108/38
f 42/111/41 44/110/42 43/109/42
f 44/110/42 42/111/41 41/112/41
f 46/115/43 33/114/37 45/113/43
f 33/114/37 46/115/43 34/116/37
f 38/119/40 43/118/42 44/117/42
f 43/118/42 38/119/40 40/120/40
f 49/123/44 48/122/45 47/121/44
f 48/122/45 49/123/44 50/124/45
f 37/127/39 30/126/35 39/125/39
f 30/126/35 37/127/39 29/128/35
f 53/131/46 52/130/46 51/129/46
f 52/130/46 53/131/46 54/132/46
f 35/135/47 44/134/47 41/133/47
f 44/134/47 35/135/47 25/136/47
f 44/134/47 25/136/47 53/137/47
f 53/137/47 25/136/47 54/138/47
f 55/139/47 44/134/47 53/137/47
f 44/134/47 55/139/47 38/140/47
f 54/138/47 25/136/47 26/141/47
f 38/140/47 55/139/47 56/142/47
f 54/138/47 26/141/47 56/142/47
f 38/140/47 56/142/47 37/143/47
f 37/143/47 56/142/47 26/141/47
f 37/143/47 26/141/47 29/144/47
f 52/147/48 56/146/48 57/145/48
f 56/146/48 52/147/48 54/148/48
f 31/151/36 59/150/49 58/149/49
f 59/150/49 31/151/36 32/152/36
f 50/155/45 60/154/50 48/153/45
f 60/154/50 50/155/45 61/156/50
f 56/159/51 62/158/51 57/157/51
f 62/158/51 56/159/51 55/160/51
f 65/163/52 64/162/52 63/161/52
f 64/162/52 65/163/52 66/164/52
f 60/167/50 46/166/43 45/165/43
f 46/166/43 60/167/50 61/168/50
f 66/171/46 67/170/46 64/169/46
f 67/170/46 66/171/46 68/172/46
f 52/138/47 62/139/47 51/137/47
f 62/139/47 52/138/47 57/142/47
f 55/175/52 51/174/52 62/173/52
f 51/174/52 55/175/52 53/176/52
f 69/179/53 49/178/44 47/177/44
f 49/178/44 69/179/53 70/180/53
f 71/183/54 66/182/54 65/181/54
f 66/182/54 71/183/54 68/184/54
f 59/187/49 69/186/53 58/185/49
f 69/186/53 59/187/49 70/188/53
f 71/191/51 63/190/51 72/189/51
f 63/190/51 71/191/51 65/192/51
f 49/135/54 61/134/54 50/193/54
f 61/134/54 49/135/54 70/194/54
f 61/134/54 70/194/54 63/181/54
f 63/181/54 70/194/54 72/183/54
f 64/182/54 61/134/54 63/181/54
f 61/134/54 64/182/54 46/195/54
f 72/183/54 70/194/54 59/141/54
f 46/195/54 64/182/54 67/184/54
f 72/183/54 59/141/54 67/184/54
f 46/195/54 67/184/54 34/143/54
f 34/143/54 67/184/54 59/141/54
f 34/143/54 59/141/54 32/196/54
f 67/161/48 71/164/48 72/162/48
f 71/164/48 67/161/48 68/163/48
f 5/199/47 42/198/47 10/197/47
f 42/198/47 12/200/47 10/197/47
f 42/198/47 5/199/47 36/201/47
f 12/200/47 42/198/47 43/202/47
f 36/201/47 5/199/47 2/203/47
f 36/201/47 2/203/47 27/204/47
f 12/200/47 43/202/47 14/205/47
f 14/205/47 43/202/47 40/206/47
f 14/205/47 40/206/47 39/207/47
f 14/205/47 39/207/47 23/208/47
f 27/204/47 2/203/47 3/209/47
f 27/204/47 3/209/47 28/210/47
f 23/208/47 39/207/47 30/211/47
f 28/210/47 3/209/47 30/211/47
f 23/208/47 30/211/47 18/212/47
f 30/211/47 3/209/47 18/212/47
f 69/213/54 17/209/54 58/210/54
f 58/210/54 17/209/54 31/214/54
f 69/213/54 16/215/54 17/209/54
f 31/214/54 17/209/54 19/216/54
f 47/201/54 16/215/54 69/213/54
f 11/208/54 31/214/54 19/216/54
f 47/201/54 22/199/54 16/215/54
f 11/208/54 33/207/54 31/214/54
f 48/217/54 22/199/54 47/201/54
f 22/199/54 48/217/54 9/218/54
f 48/217/54 6/200/54 9/218/54
f 6/200/54 48/217/54 60/202/54
f 8/219/54 33/207/54 11/208/54
f 6/200/54 60/202/54 8/219/54
f 8/219/54 45/220/54 33/207/54
f 8/219/54 60/202/54 45/220/54

