# Created by Kenney (www.kenney.nl)

mtllib spikeBlock.mtl

g spikeBlock

v 0.1 0.4 -0.35
v 2.887646E-14 0.5 -0.45
v -0.1 0.4 -0.35
v -0.1 0.6 -0.35
v 0.1 0.6 -0.35
v 1.588205E-14 0.5 0.45
v -0.1 0.6 0.35
v 0.1 0.6 0.35
v 0.1 0.4 0.35
v -0.1 0.4 0.35
v 1.010676E-14 0.9499999 2.980251E-09
v 0.1 0.85 -0.09999999
v 0.1 0.85 0.1
v -0.1 0.85 -0.09999999
v -0.1 0.85 0.1
v 0.35 0.6 -0.09999999
v 0.45 0.5 2.980251E-09
v 0.35 0.6 0.1
v 0.35 0.4 -0.09999999
v 0.35 0.4 0.1
v 0.1 0.15 -0.1
v 1.443823E-15 0.05 0
v 0.1 0.15 0.1
v -0.1 0.15 0.1
v -0.1 0.15 -0.1
v -0.35 0.4 0.1
v -0.35 0.4 -0.09999999
v -0.45 0.5 2.980234E-09
v -0.35 0.6 -0.09999999
v -0.35 0.6 0.1
v 0.1 0.6 -0.25
v 0.1 0.4 -0.25
v -0.1 0.6 -0.25
v -0.1 0.4 -0.25
v -0.1 0.4 0.25
v -0.1 0.6 0.25
v 0.1 0.4 0.25
v 0.1 0.6 0.25
v 0.1 0.75 0.1
v -0.1 0.75 0.1
v 0.1 0.75 -0.09999999
v -0.1 0.75 -0.09999999
v 0.25 0.4 -0.09999999
v 0.25 0.6 -0.09999999
v 0.25 0.4 0.1
v 0.25 0.6 0.1
v -0.1 0.25 -0.09999999
v 0.1 0.25 -0.09999999
v 0.1 0.25 0.1
v -0.1 0.25 0.1
v -0.25 0.4 0.1
v -0.25 0.6 0.1
v -0.25 0.4 -0.09999999
v -0.25 0.6 -0.09999999
v -0.2 0.75 0.2
v -0.2 0.7 0.25
v -0.25 0.7 0.2
v 0.2 0.7 -0.25
v 0.25 0.7 -0.2
v 0.2 0.75 -0.2
v -0.2 0.7 -0.25
v -0.2 0.75 -0.2
v -0.25 0.7 -0.2
v 0.2 0.3 0.25
v 0.25 0.3 0.2
v 0.2 0.25 0.2
v 0.2 0.25 -0.2
v 0.25 0.3 -0.2
v 0.2 0.3 -0.25
v -0.2 0.3 0.25
v -0.2 0.25 0.2
v -0.25 0.3 0.2
v -0.2 0.25 -0.2
v -0.2 0.3 -0.25
v -0.25 0.3 -0.2
v 0.2 0.75 0.2
v 0.25 0.7 0.2
v 0.2 0.7 0.25

vn 0 -0.9576361 -0.2879809
vn 0 -0.7071068 -0.7071068
vn 0 0.9576361 -0.2879809
vn 0 0.7071068 -0.7071068
vn 0.9576361 0 -0.2879809
vn 0.7071068 0 -0.7071068
vn -0.9576361 0 -0.2879809
vn -0.7071068 0 -0.7071068
vn 0 0.7071068 0.7071068
vn 0 0.9576361 0.2879809
vn 0.9576361 0 0.2879809
vn 0.7071068 0 0.7071068
vn 0 -0.7071068 0.7071068
vn 0 -0.9576361 0.2879809
vn -0.7071068 0 0.7071068
vn -0.9576361 0 0.2879809
vn 0.7071068 0.7071068 0
vn 0.9576361 0.2879809 0
vn -0.9576361 0.2879809 0
vn -0.7071068 0.7071068 0
vn 0 0.2879809 -0.9576361
vn 0 0.2879809 0.9576361
vn 0.2879809 0.9576361 0
vn 0.2879809 0 -0.9576361
vn 0.7071068 -0.7071068 0
vn 0.2879809 -0.9576361 0
vn 0.2879809 0 0.9576361
vn 0.9576361 -0.2879809 0
vn 0 -0.2879809 0.9576361
vn 0 -0.2879809 -0.9576361
vn -0.7071068 -0.7071068 0
vn -0.9576361 -0.2879809 0
vn -0.2879809 -0.9576361 0
vn -0.2879809 0.9576361 0
vn -0.2879809 0 -0.9576361
vn -0.2879809 0 0.9576361
vn 1 0 0
vn 0 1 0
vn -1 0 0
vn 0 -1 0
vn 0 0 1
vn 0 0 -1
vn -0.4605629 0.758791 0.4605629
vn -0.4605629 0.4605629 0.758791
vn -0.758791 0.4605629 0.4605629
vn 0.4605629 0.4605629 -0.758791
vn 0.758791 0.4605629 -0.4605629
vn 0.4605629 0.758791 -0.4605629
vn -0.4605629 0.4605629 -0.758791
vn -0.4605629 0.758791 -0.4605629
vn -0.758791 0.4605629 -0.4605629
vn 0.4605629 -0.4605629 0.758791
vn 0.758791 -0.4605629 0.4605629
vn 0.4605629 -0.758791 0.4605629
vn 0.4605629 -0.758791 -0.4605629
vn 0.758791 -0.4605629 -0.4605629
vn 0.4605629 -0.4605629 -0.758791
vn -0.4605629 -0.4605629 0.758791
vn -0.4605629 -0.758791 0.4605629
vn -0.758791 -0.4605629 0.4605629
vn -0.4605629 -0.758791 -0.4605629
vn -0.4605629 -0.4605629 -0.758791
vn -0.758791 -0.4605629 -0.4605629
vn 0.4605629 0.758791 0.4605629
vn 0.758791 0.4605629 0.4605629
vn 0.4605629 0.4605629 0.758791

vt -3.937008 20.87914
vt 8.079342E-13 26.44691
vt 3.937008 20.87914
vt 3.937008 6.959713
vt 4.263497E-13 1.391943
vt -3.937008 6.959713
vt 6.959713 23.62205
vt 12.52748 19.68504
vt 6.959713 15.74803
vt -6.959713 15.74803
vt -12.52748 19.68504
vt -6.959713 23.62205
vt 1.753422E-13 1.391942
vt -2.062423E-13 26.44691
vt -1.173327E-07 26.44691
vt 3.937008 20.87914
vt -3.937008 20.87914
vt 1.173327E-07 26.44691
vt -3.979039E-13 26.44691
vt 3.979039E-13 26.44691
vt 3.937008 6.959713
vt -1.173327E-07 1.391943
vt -8.486901E-22 1.391943
vt 5.684342E-14 1.391943
vt -5.684342E-14 1.391943
vt -8.453926E-22 1.391943
vt -3.937008 6.959713
vt 1.173335E-07 26.44691
vt 1.173335E-07 1.391943
vt 13.77953 23.62205
vt 13.77953 15.74803
vt 9.84252 23.62205
vt 9.84252 15.74803
vt -3.937008 -13.77953
vt -3.937008 -9.84252
vt 3.937008 -13.77953
vt 3.937008 -9.84252
vt -13.77953 15.74803
vt -13.77953 23.62205
vt -9.84252 15.74803
vt -9.84252 23.62205
vt 3.937008 13.77953
vt 3.937008 9.84252
vt -3.937008 13.77953
vt -3.937008 9.84252
vt 3.937008 29.52756
vt -3.937008 29.52756
vt 3.937008 33.46457
vt -3.937008 33.46457
vt 3.937008 33.46457
vt 3.937008 29.52756
vt -3.937008 29.52756
vt -3.937008 33.46457
vt 13.77953 3.937008
vt 13.77953 -3.937008
vt 9.84252 3.937008
vt 9.84252 -3.937008
vt -13.77953 -3.937008
vt -13.77953 3.937008
vt -9.84252 -3.937008
vt -9.84252 3.937008
vt 3.937008 5.905512
vt -3.937008 5.905512
vt 3.937008 9.84252
vt -3.937008 9.84252
vt 8.296696E-08 17.68004
vt 1.391943 15.26913
vt -1.391942 15.26913
vt 1.391942 15.26913
vt -1.391943 15.26913
vt -8.296701E-08 17.68004
vt 8.296648E-08 17.68004
vt -1.391943 16.87641
vt 1.391942 16.87641
vt -8.296644E-08 14.46549
vt -8.296701E-08 14.46549
vt 1.391943 16.87641
vt 8.296696E-08 14.46549
vt -1.391942 16.87641
vt 8.296648E-08 14.46549
vt -8.296644E-08 17.68004
vt 1.391942 27.55906
vt 1.391942 11.81102
vt -1.391943 27.55906
vt -1.391943 11.81102
vt 7.874016 12.52748
vt -7.874016 12.52748
vt 7.874016 15.31137
vt -7.874016 15.31137
vt -1.391942 11.81102
vt -1.391942 27.55906
vt 1.391943 11.81102
vt 1.391943 27.55906
vt 7.874016 -7.874016
vt 3.937008 3.937008
vt 7.874016 7.874016
vt -7.874016 7.874016
vt 3.937008 -3.937008
vt -3.937008 3.937008
vt -7.874016 -7.874016
vt -3.937008 -3.937008
vt -7.874016 27.55906
vt -3.937008 15.74803
vt -7.874016 11.81102
vt 7.874016 11.81102
vt -3.937008 23.62205
vt 3.937008 15.74803
vt 7.874016 27.55906
vt 3.937008 23.62205
vt -3.937008 15.74803
vt -3.937008 23.62205
vt 3.937008 23.62205
vt 3.937008 15.74803

usemtl metal

f 3/3/1 2/2/2 1/1/1
f 5/6/3 2/5/4 4/4/3
f 1/9/5 2/8/6 5/7/5
f 4/12/7 2/11/8 3/10/7
f 8/4/10 7/6/10 6/13/9
f 6/11/12 9/10/11 8/12/11
f 10/1/14 9/3/14 6/14/13
f 7/7/16 10/9/16 6/8/15
f 13/1/18 12/16/18 11/15/17
f 15/3/19 11/18/20 14/17/19
f 14/3/21 11/19/4 12/1/21
f 15/1/22 13/3/22 11/20/9
f 18/6/23 17/22/17 16/21/23
f 17/11/6 19/10/24 16/12/24
f 20/1/26 19/16/26 17/15/25
f 20/9/27 17/8/12 18/7/27
f 23/6/28 22/23/25 21/21/28
f 24/6/29 22/24/13 23/4/29
f 21/6/30 22/25/2 25/4/30
f 24/4/32 25/27/32 22/26/31
f 28/28/31 27/17/33 26/3/33
f 30/4/34 29/27/34 28/29/20
f 29/7/35 27/9/35 28/8/8
f 30/12/36 28/11/15 26/10/36
f 31/32/37 1/31/5 5/30/5
f 1/31/5 31/32/37 32/33/37
f 4/36/3 31/35/38 5/34/3
f 31/35/38 4/36/3 33/37/38
f 34/40/39 4/39/7 3/38/7
f 4/39/7 34/40/39 33/41/39
f 32/37/40 3/34/1 1/36/1
f 3/34/1 32/37/40 34/35/40
f 10/31/16 36/32/39 35/33/39
f 36/32/39 10/31/16 7/30/16
f 10/44/14 37/43/40 9/42/14
f 37/43/40 10/44/14 35/45/40
f 8/39/11 37/40/37 38/41/37
f 37/40/37 8/39/11 9/38/11
f 38/45/38 7/42/10 8/44/10
f 7/42/10 38/45/38 36/43/38
f 13/48/22 40/47/41 39/46/41
f 40/47/41 13/48/22 15/49/22
f 13/49/18 41/51/37 12/50/18
f 41/51/37 13/49/18 39/47/37
f 40/46/39 14/53/19 42/52/39
f 14/53/19 40/46/39 15/48/19
f 14/48/21 41/47/42 42/46/42
f 41/47/42 14/48/21 12/49/21
f 44/41/42 19/38/24 43/40/42
f 19/38/24 44/41/42 16/39/24
f 45/56/40 19/55/26 20/54/26
f 19/55/26 45/56/40 43/57/40
f 44/60/38 18/59/23 16/58/23
f 18/59/23 44/60/38 46/61/38
f 20/31/27 46/32/41 45/33/41
f 46/32/41 20/31/27 18/30/27
f 47/43/42 21/63/30 25/62/30
f 21/63/30 47/43/42 48/45/42
f 48/64/37 23/63/28 21/62/28
f 23/63/28 48/64/37 49/45/37
f 23/62/29 50/45/41 24/63/29
f 50/45/41 23/62/29 49/43/41
f 24/62/32 47/65/39 25/63/32
f 47/65/39 24/62/32 50/43/39
f 51/40/41 30/39/36 26/38/36
f 30/39/36 51/40/41 52/41/41
f 29/30/35 53/33/42 27/31/35
f 53/33/42 29/30/35 54/32/42
f 51/61/40 27/58/33 53/60/40
f 27/58/33 51/61/40 26/59/33
f 29/55/34 52/56/38 54/57/38
f 52/56/38 29/55/34 30/54/34

usemtl blue

f 57/68/45 56/67/44 55/66/43
f 60/71/48 59/70/47 58/69/46
f 63/67/51 62/72/50 61/68/49
f 66/75/54 65/74/53 64/73/52
f 69/74/57 68/73/56 67/76/55
f 72/79/60 71/78/59 70/77/58
f 75/77/63 74/79/62 73/80/61
f 78/70/66 77/69/65 76/81/64
f 78/84/66 65/83/53 77/82/65
f 65/83/53 78/84/66 64/85/52
f 60/88/48 77/87/65 59/86/47
f 77/87/65 60/88/48 76/89/64
f 55/89/43 78/86/66 76/88/64
f 78/86/66 55/89/43 56/87/44
f 61/86/49 60/89/48 58/87/46
f 60/89/48 61/86/49 62/88/50
f 66/87/54 68/88/56 65/89/53
f 68/88/56 66/87/54 67/86/55
f 63/87/51 55/88/43 62/89/50
f 55/88/43 63/87/51 57/86/45
f 59/84/47 69/83/57 58/82/46
f 69/83/57 59/84/47 68/85/56
f 72/88/60 73/87/61 71/86/59
f 73/87/61 72/88/60 75/89/63
f 70/89/58 66/86/54 64/88/52
f 66/86/54 70/89/58 71/87/59
f 75/92/63 61/91/49 74/90/62
f 61/91/49 75/92/63 63/93/51
f 70/92/58 57/91/45 72/90/60
f 57/91/45 70/92/58 56/93/44
f 73/86/61 69/89/57 67/87/55
f 69/89/57 73/86/61 74/88/62
f 66/96/40 49/95/40 67/94/40
f 49/95/40 66/96/40 71/97/40
f 67/94/40 49/95/40 48/98/40
f 49/95/40 71/97/40 50/99/40
f 48/98/40 73/100/40 67/94/40
f 73/100/40 50/99/40 71/97/40
f 73/100/40 48/98/40 47/101/40
f 73/100/40 47/101/40 50/99/40
f 75/104/39 53/103/39 63/102/39
f 53/103/39 75/104/39 72/105/39
f 54/106/39 63/102/39 53/103/39
f 53/103/39 72/105/39 51/107/39
f 63/102/39 54/106/39 57/108/39
f 51/107/39 72/105/39 52/109/39
f 57/108/39 54/106/39 52/109/39
f 57/108/39 52/109/39 72/105/39
f 74/105/42 34/107/42 69/104/42
f 34/107/42 74/105/42 61/108/42
f 32/110/42 69/104/42 34/107/42
f 34/107/42 61/108/42 33/109/42
f 69/104/42 32/110/42 58/102/42
f 33/109/42 61/108/42 31/111/42
f 58/102/42 32/110/42 31/111/42
f 58/102/42 31/111/42 61/108/42
f 44/112/37 77/102/37 46/111/37
f 46/111/37 77/102/37 45/110/37
f 44/112/37 59/108/37 77/102/37
f 65/104/37 45/110/37 77/102/37
f 59/108/37 44/112/37 68/105/37
f 65/104/37 43/113/37 45/110/37
f 68/105/37 43/113/37 65/104/37
f 43/113/37 68/105/37 44/112/37
f 60/100/38 41/101/38 76/97/38
f 41/101/38 60/100/38 62/94/38
f 39/99/38 76/97/38 41/101/38
f 41/101/38 62/94/38 42/98/38
f 76/97/38 39/99/38 55/96/38
f 42/98/38 62/94/38 40/95/38
f 55/96/38 39/99/38 40/95/38
f 55/96/38 40/95/38 62/94/38
f 64/105/41 37/107/41 70/104/41
f 37/107/41 64/105/41 78/108/41
f 70/104/41 37/107/41 35/110/41
f 37/107/41 78/108/41 38/109/41
f 35/110/41 56/102/41 70/104/41
f 56/102/41 38/109/41 78/108/41
f 56/102/41 35/110/41 36/111/41
f 56/102/41 36/111/41 38/109/41

