# Created by Kenney (www.kenney.nl)

mtllib spikesHidden.mtl

g spikesHidden

v -0.20945 0.07 -0.1435
v -0.20945 0.07 -0.0315
v -0.26625 0.119062 -0.0875
v -0.32305 0.07 0.0315
v -0.26625 0.119062 0.0875
v -0.32305 0.07 0.1435
v 0.14555 0.07 -0.3185
v 0.08875 0.119062 -0.2625
v 0.03195 0.07 -0.3185
v 0.32305 0.07 -0.3185
v 0.32305 0.07 -0.2065
v 0.26625 0.119062 -0.2625
v 0.14555 0.07 0.0315
v 0.08875 0.119062 0.0875
v 0.03195 0.07 0.0315
v -0.03195 0.07 0.2065
v -0.08875 0.119062 0.2625
v -0.14555 0.07 0.2065
v -0.03195 0.07 -0.1435
v -0.03195 0.07 -0.0315
v -0.08875 0.119062 -0.0875
v 0.03195 0.07 0.2065
v 0.08875 0.119062 0.2625
v 0.03195 0.07 0.3185
v -0.14555 0.07 -0.1435
v -0.14555 0.07 -0.0315
v 0.20945 0.07 -0.3185
v 0.20945 0.07 -0.2065
v -0.32305 0.07 -0.1435
v -0.03195 0.07 0.0315
v -0.03195 0.07 0.1435
v -0.08875 0.119062 0.0875
v 0.32305 0.07 0.2065
v 0.26625 0.119062 0.2625
v 0.20945 0.07 0.2065
v 0.14555 0.07 -0.1435
v 0.14555 0.07 -0.0315
v 0.08875 0.119062 -0.0875
v -0.26625 0.119062 0.2625
v -0.20945 0.07 0.3185
v -0.32305 0.07 0.3185
v -0.20945 0.07 0.1435
v -0.03195 0.07 0.3185
v -0.14555 0.07 0.0315
v -0.14555 0.07 0.3185
v -0.20945 0.07 0.2065
v -0.08875 0.119062 -0.2625
v -0.03195 0.07 -0.2065
v -0.14555 0.07 -0.2065
v 0.20945 0.07 -0.1435
v 0.26625 0.119062 -0.0875
v 0.20945 0.07 -0.0315
v -0.20945 0.07 0.0315
v 0.32305 0.07 -0.1435
v 0.14555 0.07 0.2065
v 0.03195 0.07 -0.0315
v 0.14555 0.07 0.3185
v -0.32305 0.07 -0.0315
v -0.14555 0.07 0.1435
v -0.14555 0.07 -0.3185
v 0.03195 0.07 -0.2065
v 0.14555 0.07 -0.2065
v 0.32305 0.07 -0.0315
v 0.03195 0.07 -0.1435
v 0.14555 0.07 0.1435
v 0.03195 0.07 0.1435
v 0.32305 0.07 0.3185
v 0.20945 0.07 0.3185
v -0.20945 0.07 -0.3185
v -0.20945 0.07 -0.2065
v -0.26625 0.119062 -0.2625
v -0.32305 0.07 0.2065
v 0.32305 0.07 0.0315
v 0.32305 0.07 0.1435
v 0.26625 0.119062 0.0875
v -0.32305 0.07 -0.2065
v 0.20945 0.07 0.0315
v 0.20945 0.07 0.1435
v -0.03195 0.07 -0.3185
v -0.32305 0.07 -0.3185
v -0.03195 0.1 -0.3185
v -0.03195 0.1 -0.2065
v -0.32305 0.1 -0.2065
v -0.20945 0.1 -0.2065
v -0.32305 0.1 -0.3185
v -0.14555 0.1 -0.3185
v 0.405 0 0.4
v -0.405 0 0.4
v 0.405 0.05 0.4
v -0.405 0.05 0.4
v -0.355 0.1 -0.35
v -0.355 0.1 0.35
v -0.405 0.05 -0.4
v 0.405 0.05 -0.4
v 0.355 0.1 -0.35
v 0.355 0.1 0.35
v -0.20945 0.1 0.2065
v -0.20945 0.1 0.3185
v 0.03195 0.1 0.3185
v 0.14555 0.1 0.3185
v 0.32305 0.1 0.0315
v 0.32305 0.1 0.1435
v 0.14555 0.1 0.2065
v 0.03195 0.1 0.2065
v 0.20945 0.1 0.2065
v 0.20945 0.1 0.3185
v 0.14555 0.1 -0.1435
v 0.03195 0.1 -0.1435
v 0.32305 0.1 -0.1435
v 0.20945 0.1 -0.1435
v 0.32305 0.1 0.3185
v 0.20945 0.1 0.1435
v -0.03195 0.1 0.2065
v -0.03195 0.1 0.3185
v -0.32305 0.1 -0.1435
v -0.32305 0.1 -0.0315
v 0.20945 0.1 -0.2065
v 0.32305 0.1 -0.2065
v 0.32305 0.1 -0.3185
v 0.20945 0.1 -0.3185
v -0.14555 0.1 0.2065
v -0.14555 0.1 0.3185
v -0.03195 0.1 -0.1435
v -0.03195 0.1 -0.0315
v -0.32305 0.1 0.2065
v -0.20945 0.1 -0.0315
v 0.20945 0.1 0.0315
v -0.405 0 -0.4
v 0.32305 0.1 0.2065
v -0.14555 0.1 0.1435
v -0.03195 0.1 0.1435
v 0.405 0 -0.4
v -0.03195 0.1 0.0315
v -0.20945 0.1 -0.3185
v -0.14555 0.1 -0.2065
v -0.14555 0.1 0.0315
v 0.03195 0.1 0.0315
v 0.03195 0.1 0.1435
v 0.14555 0.1 0.1435
v 0.14555 0.1 0.0315
v 0.03195 0.1 -0.3185
v 0.03195 0.1 -0.2065
v 0.14555 0.1 -0.3185
v 0.14555 0.1 -0.0315
v -0.20945 0.1 -0.1435
v -0.14555 0.1 -0.0315
v -0.14555 0.1 -0.1435
v -0.20945 0.1 0.0315
v -0.20945 0.1 0.1435
v 0.20945 0.1 -0.0315
v 0.32305 0.1 -0.0315
v -0.32305 0.1 0.0315
v -0.32305 0.1 0.1435
v 0.14555 0.1 -0.2065
v -0.32305 0.1 0.3185
v 0.03195 0.1 -0.0315

vn 0.6536767 0.7567738 0
vn -0.6536767 0.7567738 0
vn 0 0.7521638 -0.6589761
vn 0 0.7521638 0.6589761
vn -1 0 0
vn 0 0 -1
vn 1 0 0
vn 0 0 1
vn -0.7071068 0.7071068 0
vn 0.7071068 0.7071068 0
vn 0 0.7071068 0.7071068
vn 0 0.7071068 -0.7071068
vn 0 -1 0
vn 0 1 0

vt 5.649606 8.041877
vt 1.240157 8.041877
vt 3.444882 10.99681
vt 1.240157 -7.82356
vt 3.444882 -4.868621
vt 5.649606 -7.82356
vt -5.730315 -7.615585
vt -3.494094 -4.684409
vt -1.257874 -7.615585
vt 12.53937 -7.82356
vt 8.129921 -7.82356
vt 10.33465 -4.868621
vt -5.730315 2.748878
vt -3.494094 5.680053
vt -1.257874 2.748878
vt 1.257874 7.931109
vt 3.494094 10.86228
vt 5.730315 7.931109
vt 5.649606 2.753397
vt 1.240157 2.753397
vt 3.444882 5.708336
vt 8.129921 2.753397
vt 10.33465 5.708336
vt 12.53937 2.753397
vt -5.649606 -2.535081
vt -3.444882 0.4198575
vt -1.240157 -2.535081
vt -12.53937 8.041877
vt -10.33465 10.99681
vt -8.129921 8.041877
vt 8.246063 -2.433354
vt 10.48228 0.497822
vt 12.7185 -2.433354
vt -1.240157 2.753397
vt -5.649606 2.753397
vt -3.444882 5.708336
vt -12.7185 7.931109
vt -10.48228 10.86228
vt -8.246063 7.931109
vt 5.649606 -2.535081
vt 1.240157 -2.535081
vt 3.444882 0.4198575
vt -10.48228 -4.684409
vt -8.246063 -7.615585
vt -12.7185 -7.615585
vt -10.48228 0.497822
vt -8.246063 -2.433354
vt -12.7185 -2.433354
vt -8.129921 2.753397
vt -12.53937 2.753397
vt -10.33465 5.708336
vt 1.257874 2.748878
vt 3.494094 5.680053
vt 5.730315 2.748878
vt 8.129921 -2.535081
vt 10.33465 0.4198575
vt 12.53937 -2.535081
vt -3.494094 10.86228
vt -1.257874 7.931109
vt -5.730315 7.931109
vt -5.649606 8.041877
vt -3.444882 10.99681
vt -1.240157 8.041877
vt 8.246063 2.748878
vt 10.48228 5.680053
vt 12.7185 2.748878
vt 3.494094 -4.684409
vt 5.730315 -7.615585
vt 1.257874 -7.615585
vt -8.129921 -2.535081
vt -12.53937 -2.535081
vt -10.33465 0.4198575
vt -10.48228 5.680053
vt -8.246063 2.748878
vt -12.7185 2.748878
vt -3.494094 0.497822
vt -1.257874 -2.433354
vt -5.730315 -2.433354
vt -5.649606 -7.82356
vt -3.444882 -4.868621
vt -1.240157 -7.82356
vt 3.494094 0.497822
vt 5.730315 -2.433354
vt 1.257874 -2.433354
vt 10.48228 -4.684409
vt 12.7185 -7.615585
vt 8.246063 -7.615585
vt 8.129921 8.041877
vt 10.33465 10.99681
vt 12.53937 8.041877
vt 8.246063 7.931109
vt 10.48228 10.86228
vt 12.7185 7.931109
vt -12.53937 -7.82356
vt -10.33465 -4.868621
vt -8.129921 -7.82356
vt -12.53937 2.755906
vt -12.53937 3.937008
vt -8.129921 2.755906
vt -8.129921 3.937008
vt 12.7185 2.755906
vt 8.246063 2.755906
vt 12.7185 3.937008
vt 8.246063 3.937008
vt 12.53937 3.937008
vt 12.53937 2.755906
vt 8.129921 3.937008
vt 8.129921 2.755906
vt -1.257874 2.755906
vt -5.730315 2.755906
vt -1.257874 3.937008
vt -5.730315 3.937008
vt 15.94488 0
vt -15.94488 0
vt 15.94488 1.968504
vt -15.94488 1.968504
vt -13.77953 -7.098907
vt 13.77953 -7.098907
vt -15.74803 -9.882792
vt 15.74803 -9.882792
vt 1.240157 2.755906
vt 1.240157 3.937008
vt 5.649606 2.755906
vt 5.649606 3.937008
vt 5.730315 2.755906
vt 1.257874 2.755906
vt 5.730315 3.937008
vt 1.257874 3.937008
vt -8.246063 2.755906
vt -12.7185 2.755906
vt -8.246063 3.937008
vt -12.7185 3.937008
vt -5.649606 2.755906
vt -5.649606 3.937008
vt -1.240157 2.755906
vt -1.240157 3.937008
vt -15.74803 0
vt -15.74803 1.968504
vt 15.74803 0
vt 15.74803 1.968504
vt 15.94488 -9.743597
vt -15.94488 -9.743597
vt 13.97638 -6.959713
vt -13.97638 -6.959713
vt 15.94488 15.74803
vt 15.94488 -15.74803
vt -15.94488 15.74803
vt -15.94488 -15.74803
vt -13.97638 13.77953
vt -12.7185 -12.53937
vt -13.97638 -13.77953
vt 13.97638 -13.77953
vt -12.7185 12.53937
vt 13.97638 13.77953
vt 12.7185 12.53937
vt 8.246063 12.53937
vt 5.730315 12.53937
vt 12.7185 8.129921
vt 1.257874 12.53937
vt -1.257874 12.53937
vt -5.730315 12.53937
vt -8.246063 12.53937
vt -8.246063 -12.53937
vt -12.7185 -8.129921
vt 8.246063 -12.53937
vt 5.730315 8.129921
vt 12.7185 -12.53937
vt 5.730315 5.649606
vt 1.257874 8.129921
vt 12.7185 -8.129921
vt -5.730315 -12.53937
vt -1.257874 -12.53937
vt 1.257874 -12.53937
vt -8.246063 -8.129921
vt -8.246063 -5.649606
vt -1.257874 -8.129921
vt -1.257874 -5.649606
vt -1.257874 -1.240157
vt -5.730315 -5.649606
vt -5.730315 -8.129921
vt 1.257874 5.649606
vt 1.257874 1.240157
vt -12.7185 -5.649606
vt -12.7185 -1.240157
vt -5.730315 -1.240157
vt -8.246063 -1.240157
vt -12.7185 1.240157
vt -12.7185 5.649606
vt -8.246063 1.240157
vt -12.7185 8.129921
vt -8.246063 5.649606
vt -8.246063 8.129921
vt -5.730315 1.240157
vt -5.730315 5.649606
vt -1.257874 1.240157
vt -5.730315 8.129921
vt -1.257874 5.649606
vt -1.257874 8.129921
vt 1.257874 -8.129921
vt 1.257874 -5.649606
vt 5.730315 -8.129921
vt 1.257874 -1.240157
vt 5.730315 -1.240157
vt 5.730315 -5.649606
vt 5.730315 1.240157
vt 5.730315 -12.53937
vt 8.246063 -8.129921
vt 8.246063 -5.649606
vt 12.7185 -5.649606
vt 8.246063 -1.240157
vt 12.7185 -1.240157
vt 8.246063 1.240157
vt 8.246063 5.649606
vt 12.7185 1.240157
vt 8.246063 8.129921
vt 12.7185 5.649606

usemtl metal

f 3/3/1 2/2/1 1/1/1
f 6/6/2 5/5/2 4/4/2
f 9/9/3 8/8/3 7/7/3
f 12/12/1 11/11/1 10/10/1
f 15/15/3 14/14/3 13/13/3
f 18/18/3 17/17/3 16/16/3
f 21/21/1 20/20/1 19/19/1
f 24/24/2 23/23/2 22/22/2
f 26/27/2 21/26/2 25/25/2
f 28/30/2 12/29/2 27/28/2
f 26/13/4 20/15/4 21/14/4
f 29/33/3 3/32/3 1/31/3
f 32/36/1 31/35/1 30/34/1
f 35/39/3 34/38/3 33/37/3
f 38/42/1 37/41/1 36/40/1
f 41/45/4 40/44/4 39/43/4
f 6/48/4 42/47/4 5/46/4
f 17/51/1 43/50/1 16/49/1
f 44/54/3 32/53/3 30/52/3
f 45/57/2 17/56/2 18/55/2
f 27/44/3 12/43/3 10/45/3
f 39/29/1 40/28/1 46/30/1
f 49/60/4 48/59/4 47/58/4
f 52/63/2 51/62/2 50/61/2
f 4/66/3 5/65/3 53/64/3
f 50/47/3 51/46/3 54/48/3
f 22/59/3 23/58/3 55/60/3
f 56/52/4 37/54/4 38/53/4
f 24/69/4 57/68/4 23/67/4
f 23/72/1 57/71/1 55/70/1
f 58/75/4 2/74/4 3/73/4
f 45/7/4 43/9/4 17/8/4
f 59/78/4 31/77/4 32/76/4
f 49/70/2 47/72/2 60/71/2
f 61/49/2 8/51/2 9/50/2
f 58/81/2 3/80/2 29/79/2
f 8/56/1 62/55/1 7/57/1
f 51/5/1 63/4/1 54/6/1
f 64/77/3 38/76/3 36/78/3
f 52/64/4 63/66/4 51/65/4
f 66/84/4 65/83/4 14/82/4
f 68/87/4 67/86/4 34/85/4
f 68/90/2 34/89/2 35/88/2
f 71/89/1 70/88/1 69/90/1
f 72/93/3 39/92/3 46/91/3
f 28/91/4 11/93/4 12/92/4
f 75/80/1 74/79/1 73/81/1
f 61/16/4 62/18/4 8/17/4
f 76/37/4 70/39/4 71/38/4
f 41/10/2 39/12/2 72/11/2
f 78/1/2 75/3/2 77/2/2
f 47/23/1 48/22/1 79/24/1
f 56/34/2 38/36/2 64/35/2
f 78/31/4 74/33/4 75/32/4
f 66/19/2 14/21/2 15/20/2
f 76/96/2 71/95/2 80/94/2
f 80/86/3 71/85/3 69/87/3
f 5/62/1 42/61/1 53/63/1
f 59/40/2 32/42/2 44/41/2
f 14/26/1 65/25/1 13/27/1
f 25/83/3 21/82/3 19/84/3
f 77/74/3 75/73/3 73/75/3
f 60/68/3 47/67/3 79/69/3
f 34/95/1 67/94/1 33/96/1
f 48/99/5 81/98/5 79/97/5
f 81/98/5 48/99/5 82/100/5
f 83/103/6 70/102/6 76/101/6
f 70/102/6 83/103/6 84/104/6
f 83/107/7 80/106/7 85/105/7
f 80/106/7 83/107/7 76/108/7
f 81/111/8 60/110/8 79/109/8
f 60/110/8 81/111/8 86/112/8
f 89/115/8 88/114/8 87/113/8
f 88/114/8 89/115/8 90/116/8
f 93/119/9 92/118/9 91/117/9
f 92/118/9 93/119/9 90/120/9
f 95/118/10 89/119/10 94/120/10
f 89/119/10 95/118/10 96/117/10
f 40/106/5 97/107/5 46/108/5
f 97/107/5 40/106/5 98/105/5
f 99/111/6 57/110/6 24/109/6
f 57/110/6 99/111/6 100/112/6
f 74/123/5 101/122/5 73/121/5
f 101/122/5 74/123/5 102/124/5
f 103/127/8 22/126/8 55/125/8
f 22/126/8 103/127/8 104/128/8
f 106/98/7 35/99/7 105/100/7
f 35/99/7 106/98/7 68/97/7
f 107/127/8 64/126/8 36/125/8
f 64/126/8 107/127/8 108/128/8
f 109/103/8 50/102/8 54/101/8
f 50/102/8 109/103/8 110/104/8
f 106/131/6 67/130/6 68/129/6
f 67/130/6 106/131/6 111/132/6
f 112/131/6 74/130/6 78/129/6
f 74/130/6 112/131/6 102/132/6
f 43/106/5 113/107/5 16/108/5
f 113/107/5 43/106/5 114/105/5
f 116/122/7 29/123/7 115/124/7
f 29/123/7 116/122/7 58/121/7
f 117/131/6 11/130/6 28/129/6
f 11/130/6 117/131/6 118/132/6
f 119/103/8 27/102/8 10/101/8
f 27/102/8 119/103/8 120/104/8
f 113/111/8 18/110/8 16/109/8
f 18/110/8 113/111/8 121/112/8
f 122/127/6 43/126/6 45/125/6
f 43/126/6 122/127/6 114/128/6
f 20/135/5 123/134/5 19/133/5
f 123/134/5 20/135/5 124/136/5
f 97/131/8 72/130/8 46/129/8
f 72/130/8 97/131/8 125/132/8
f 116/103/6 2/102/6 58/101/6
f 2/102/6 116/103/6 126/104/6
f 101/103/8 77/102/8 73/101/8
f 77/102/8 101/103/8 127/104/8
f 88/139/5 93/138/5 128/137/5
f 93/138/5 88/139/5 90/140/5
f 67/106/5 129/107/5 33/108/5
f 129/107/5 67/106/5 111/105/5
f 130/127/6 31/126/6 59/125/6
f 31/126/6 130/127/6 131/128/6
f 99/98/7 22/99/7 104/100/7
f 22/99/7 99/98/7 24/97/7
f 122/98/7 18/99/7 121/100/7
f 18/99/7 122/98/7 45/97/7
f 89/138/7 132/139/7 94/140/7
f 132/139/7 89/138/7 87/137/7
f 96/143/11 90/142/11 89/141/11
f 90/142/11 96/143/11 92/144/11
f 31/123/5 133/122/5 30/121/5
f 133/122/5 31/123/5 131/124/5
f 70/99/5 134/98/5 69/97/5
f 134/98/5 70/99/5 84/100/5
f 112/134/7 77/135/7 127/136/7
f 77/135/7 112/134/7 78/133/7
f 135/127/6 48/126/6 49/125/6
f 48/126/6 135/127/6 82/128/6
f 129/103/8 35/102/8 33/101/8
f 35/102/8 129/103/8 105/104/8
f 130/134/7 44/135/7 136/136/7
f 44/135/7 130/134/7 59/133/7
f 138/134/7 15/135/7 137/136/7
f 15/135/7 138/134/7 66/133/7
f 138/111/6 65/110/6 66/109/6
f 65/110/6 138/111/6 139/112/6
f 65/123/5 140/122/5 13/121/5
f 140/122/5 65/123/5 139/124/5
f 133/111/8 44/110/8 30/109/8
f 44/110/8 133/111/8 136/112/8
f 57/106/5 103/107/5 55/108/5
f 103/107/5 57/106/5 100/105/5
f 140/127/8 15/126/8 13/125/8
f 15/126/8 140/127/8 137/128/8
f 91/143/12 94/142/12 93/141/12
f 94/142/12 91/143/12 95/144/12
f 135/107/7 60/106/7 86/105/7
f 60/106/7 135/107/7 49/108/7
f 134/131/8 80/130/8 69/129/8
f 80/130/8 134/131/8 85/132/8
f 142/107/7 9/106/7 141/105/7
f 9/106/7 142/107/7 61/108/7
f 143/127/8 9/126/8 7/125/8
f 9/126/8 143/127/8 141/128/8
f 93/115/6 132/114/6 128/113/6
f 132/114/6 93/115/6 94/116/6
f 88/147/13 132/146/13 87/145/13
f 132/146/13 88/147/13 128/148/13
f 37/135/5 107/134/5 36/133/5
f 107/134/5 37/135/5 144/136/5
f 117/107/7 27/106/7 120/105/7
f 27/106/7 117/107/7 28/108/7
f 2/135/5 145/134/5 1/133/5
f 145/134/5 2/135/5 126/136/5
f 146/127/6 20/126/6 26/125/6
f 20/126/6 146/127/6 124/128/6
f 146/122/7 25/123/7 147/124/7
f 25/123/7 146/122/7 26/121/7
f 11/99/5 119/98/5 10/97/5
f 119/98/5 11/99/5 118/100/5
f 42/123/5 148/122/5 53/121/5
f 148/122/5 42/123/5 149/124/5
f 150/131/6 63/130/6 52/129/6
f 63/130/6 150/131/6 151/132/6
f 145/131/8 29/130/8 1/129/8
f 29/130/8 145/131/8 115/132/8
f 153/134/7 4/135/7 152/136/7
f 4/135/7 153/134/7 6/133/7
f 63/135/5 109/134/5 54/133/5
f 109/134/5 63/135/5 151/136/5
f 123/111/8 25/110/8 19/109/8
f 25/110/8 123/111/8 147/112/8
f 150/122/7 50/123/7 110/124/7
f 50/123/7 150/122/7 52/121/7
f 62/99/5 143/98/5 7/97/5
f 143/98/5 62/99/5 154/100/5
f 153/103/6 42/102/6 6/101/6
f 42/102/6 153/103/6 149/104/6
f 142/111/6 62/110/6 61/109/6
f 62/110/6 142/111/6 154/112/6
f 155/103/6 40/102/6 41/101/6
f 40/102/6 155/103/6 98/104/6
f 156/111/6 37/110/6 56/109/6
f 37/110/6 156/111/6 144/112/6
f 155/98/7 72/99/7 125/100/7
f 72/99/7 155/98/7 41/97/7
f 156/122/7 64/123/7 108/124/7
f 64/123/7 156/122/7 56/121/7
f 148/131/8 4/130/8 53/129/8
f 4/130/8 148/131/8 152/132/8
f 95/151/14 119/150/14 96/149/14
f 119/150/14 95/151/14 91/152/14
f 111/153/14 96/149/14 119/150/14
f 96/149/14 111/153/14 92/154/14
f 92/154/14 155/155/14 91/152/14
f 92/154/14 98/156/14 155/155/14
f 92/154/14 122/157/14 98/156/14
f 125/158/14 91/152/14 155/155/14
f 92/154/14 114/159/14 122/157/14
f 92/154/14 99/160/14 114/159/14
f 92/154/14 100/161/14 99/160/14
f 92/154/14 106/162/14 100/161/14
f 92/154/14 111/153/14 106/162/14
f 119/150/14 91/152/14 120/163/14
f 111/153/14 119/150/14 118/164/14
f 98/156/14 122/157/14 134/165/14
f 121/166/14 134/165/14 122/157/14
f 134/165/14 91/152/14 85/167/14
f 130/168/14 134/165/14 121/166/14
f 113/169/14 130/168/14 121/166/14
f 85/167/14 91/152/14 83/170/14
f 120/163/14 91/152/14 143/171/14
f 143/171/14 91/152/14 141/172/14
f 141/172/14 91/152/14 81/173/14
f 120/163/14 143/171/14 117/174/14
f 117/174/14 143/171/14 110/175/14
f 141/172/14 81/173/14 142/176/14
f 142/176/14 81/173/14 108/177/14
f 108/177/14 81/173/14 156/178/14
f 107/179/14 142/176/14 108/177/14
f 142/176/14 107/179/14 154/180/14
f 130/168/14 113/169/14 131/181/14
f 114/159/14 131/181/14 113/169/14
f 114/159/14 133/182/14 131/181/14
f 109/183/14 117/174/14 110/175/14
f 117/174/14 109/183/14 118/164/14
f 111/153/14 118/164/14 109/183/14
f 111/153/14 109/183/14 151/184/14
f 100/161/14 154/180/14 107/179/14
f 100/161/14 107/179/14 144/185/14
f 100/161/14 143/171/14 154/180/14
f 110/175/14 143/171/14 150/186/14
f 111/153/14 151/184/14 101/187/14
f 150/186/14 101/187/14 151/184/14
f 111/153/14 101/187/14 102/188/14
f 101/187/14 150/186/14 127/189/14
f 150/186/14 143/171/14 127/189/14
f 111/153/14 102/188/14 129/190/14
f 112/191/14 129/190/14 102/188/14
f 127/189/14 143/171/14 112/191/14
f 129/190/14 112/191/14 105/192/14
f 112/191/14 143/171/14 105/192/14
f 105/192/14 143/171/14 106/162/14
f 100/161/14 106/162/14 143/171/14
f 100/161/14 144/185/14 140/193/14
f 156/178/14 140/193/14 144/185/14
f 100/161/14 140/193/14 139/194/14
f 140/193/14 156/178/14 137/195/14
f 100/161/14 139/194/14 103/196/14
f 156/178/14 81/173/14 137/195/14
f 138/197/14 103/196/14 139/194/14
f 137/195/14 81/173/14 138/197/14
f 103/196/14 138/197/14 104/198/14
f 138/197/14 81/173/14 104/198/14
f 104/198/14 81/173/14 99/160/14
f 114/159/14 99/160/14 81/173/14
f 114/159/14 81/173/14 82/199/14
f 114/159/14 82/199/14 123/200/14
f 135/201/14 123/200/14 82/199/14
f 114/159/14 123/200/14 124/202/14
f 114/159/14 124/202/14 133/182/14
f 146/203/14 133/182/14 124/202/14
f 123/200/14 135/201/14 147/204/14
f 133/182/14 146/203/14 136/205/14
f 135/201/14 134/165/14 147/204/14
f 147/204/14 134/165/14 146/203/14
f 146/203/14 134/165/14 136/205/14
f 136/205/14 134/165/14 130/168/14
f 86/206/14 134/165/14 135/201/14
f 81/173/14 91/152/14 86/206/14
f 86/206/14 91/152/14 134/165/14
f 98/156/14 134/165/14 84/207/14
f 98/156/14 84/207/14 145/208/14
f 83/170/14 145/208/14 84/207/14
f 145/208/14 83/170/14 115/209/14
f 83/170/14 91/152/14 115/209/14
f 98/156/14 145/208/14 126/210/14
f 115/209/14 91/152/14 116/211/14
f 98/156/14 126/210/14 148/212/14
f 116/211/14 148/212/14 126/210/14
f 98/156/14 148/212/14 149/213/14
f 148/212/14 116/211/14 152/214/14
f 116/211/14 91/152/14 152/214/14
f 98/156/14 149/213/14 97/215/14
f 152/214/14 91/152/14 153/216/14
f 153/216/14 97/215/14 149/213/14
f 153/216/14 91/152/14 125/158/14
f 97/215/14 153/216/14 125/158/14

