# Created by Kenney (www.kenney.nl)

mtllib stones.mtl

g stones

v 0.1414213 -1.175134E-18 -0.1414214
v 0.03535533 -1.175134E-18 -0.2474874
v 0.1414213 0.05 -0.1679379
v 0.06187183 0.05 -0.2474874
v -0.2474874 -1.175134E-18 -0.2474874
v -0.2474874 0.05 -0.2209709
v -0.3535534 -1.175134E-18 -0.1414213
v -0.3270369 0.05 -0.1414213
v -0.1414214 -1.175134E-18 -0.1414213
v -0.2474874 -1.175134E-18 -0.03535533
v -0.1679379 0.05 -0.1414213
v -0.2474874 0.05 -0.06187183
v -0.1414214 -1.175134E-18 0.3535534
v -0.2474874 -1.175134E-18 0.2474874
v -0.1414214 0.05 0.3270369
v -0.2209709 0.05 0.2474874
v 0.2332296 -1.81653E-16 0.3463969
v 0.1801966 -1.81653E-16 0.2933639
v 0.1801966 -1.81653E-16 0.3994299
v 0.1271636 -1.81653E-16 0.3463969
v -0.1414214 -1.175134E-18 0.1414214
v -0.1414214 0.05 0.1679379
v 0.06738142 0.025 0.3208003
v 0.02760667 0.025 0.3605751
v 0.02760666 0.025 0.2810255
v -0.01216809 0.025 0.3208003
v 0.2626842 -1.81653E-16 -0.1444543
v 0.2626842 0.025 -0.131196
v 0.2096512 -1.81653E-16 -0.09142124
v 0.2229094 0.025 -0.09142124
v 0.2626842 -1.81653E-16 -0.03838823
v 0.2626842 0.025 -0.05164648
v 0.2209709 0.05 -0.2474874
v 0.1414213 0.05 -0.3270369
v 0.02760666 -1.175134E-18 0.2677673
v 0.08063968 -1.175134E-18 0.3208003
v 0.159099 0.05 7.902519E-10
v -7.902533E-10 0.05 0.159099
v -5.53177E-09 0.05 -0.159099
v -0.159099 0.05 5.531769E-09
v 0.212132 -1.175134E-18 -1.443823E-15
v -6.322022E-09 -1.175134E-18 -0.212132
v 0.02760667 -1.175134E-18 0.3738333
v -0.02542634 -1.175134E-18 0.3208003
v -0.1191614 -1.175134E-18 -0.3902474
v -0.06612836 -1.175134E-18 -0.3372144
v -0.1191614 0.025 -0.3769892
v -0.07938661 0.025 -0.3372144
v 0.3157172 -1.81653E-16 -0.09142124
v 0.302459 0.025 -0.09142124
v -0.03535534 -1.175134E-18 0.2474874
v -0.06187184 0.05 0.2474874
v 0.2199714 0.025 0.3463969
v 0.1801966 0.025 0.3861716
v 0.2474874 -1.175134E-18 -0.2474874
v 0.2465062 -1.175134E-18 0.03499046
v 0.3525722 -1.175134E-18 0.1410565
v 0.2465062 0.05 0.06150696
v 0.3260557 0.05 0.1410565
v 0.2465062 -1.175134E-18 0.2471225
v 0.2465062 0.05 0.220606
v 0.1414213 -1.175134E-18 -0.3535534
v 0.1669566 0.05 0.1410565
v 0 -1.175134E-18 0.212132
v -0.212132 -1.175134E-18 6.322021E-09
v -0.1191614 -1.175134E-18 -0.2841814
v -0.1721944 -1.175134E-18 -0.3372144
v -0.1191614 0.025 -0.2974397
v -0.1589361 0.025 -0.3372144
v 0.1801966 0.025 0.3066221
v 0.1404219 0.025 0.3463969
v 0.1404401 -1.175134E-18 0.1410565
v -0.2515189 -1.175134E-18 0.05893597
v -0.304552 -1.175134E-18 0.111969
v -0.2647772 0.025 0.05893597
v -0.304552 0.025 0.09871072
v -0.357585 -1.175134E-18 0.05893597
v -0.3443267 0.025 0.05893597
v -0.304552 0.025 0.01916122
v -0.304552 -1.175134E-18 0.005902963

vn -0.6620847 0.3511235 0.6620847
vn 0 0.7551419 0.6555614
vn -0.6555614 0.7551419 0
vn -0.6620847 0.3511235 -0.6620847
vn 0 0.7551419 -0.6555614
vn 0.6620847 0.3511235 0.6620847
vn 0.6555614 0.7551419 0
vn 0 -1 0
vn 0.6620847 0.3511235 -0.6620847
vn 0.5029939 0.86429 0
vn 0 0.86429 0.5029939
vn 0 0.86429 -0.5029939
vn -0.5029939 0.86429 0
vn 0.5656854 0.6 -0.5656855
vn -0.5656854 0.6 0.5656855
vn 0.5656855 0.6 0.5656854
vn -0.5656855 0.6 -0.5656854

vt -8.881784E-15 2.764751
vt -5.905512 2.764751
vt -0.738189 4.867115
vt -5.167323 4.867115
vt 1.759978E-07 -4.838315
vt 0.7381892 -2.735952
vt 5.905512 -4.838315
vt 5.167323 -2.735952
vt -1.759978E-07 2.764751
vt -0.7381892 4.867115
vt -5.167323 4.867115
vt 6.611727 -5.56777
vt 9.743598 -2.435899
vt 9.743598 -8.69964
vt 12.87547 -5.56777
vt -2.309264E-14 -4.838315
vt 5.167323 -2.735952
vt 0.738189 -2.735952
vt 9.182269 13.63767
vt 7.094355 11.54976
vt 7.094355 15.72559
vt 5.006442 13.63767
vt 7.874016 -1.292191E-14
vt 8.612205 2.102363
vt 13.77953 -7.592836E-15
vt 13.04134 2.102363
vt -2.652812 12.62993
vt -1.086877 14.19587
vt -1.086877 11.064
vt 0.4790587 12.62993
vt -11.33427 1.155683
vt -10.96517 2.206864
vt -8.38151 1.155683
vt -8.750605 2.206864
vt 6.244142 2.942945
vt 3.291386 2.942945
vt 5.875047 3.994126
vt 3.66048 3.994126
vt -8.69964 -9.743597
vt -5.56777 -6.611727
vt -5.56777 -12.87547
vt -2.435899 -9.743597
vt -8.222871 2.34754
vt -11.17563 2.34754
vt -8.591966 3.398721
vt -10.80653 3.398721
vt -6.263741 3.111228E-08
vt 3.111234E-08 6.263741
vt 2.177862E-07 -6.263741
vt 6.263741 2.177862E-07
vt -5.905512 -3.543307
vt -4.429134 -1.082677
vt 5.905512 -3.543307
vt 4.429134 -1.082677
vt 11.17563 -3.384321
vt 8.222871 -3.384321
vt 10.80653 -2.33314
vt 8.591966 -2.33314
vt 14.18136 -2.649832
vt 11.2286 -2.649832
vt 13.81226 -1.59865
vt 11.59769 -1.59865
vt 11.33427 -2.192465
vt 8.38151 -2.192465
vt 10.96517 -1.141283
vt 8.750605 -1.141283
vt 6.685796 2.887243
vt 7.05489 3.938424
vt 9.638552 2.887243
vt 9.269457 3.938424
vt -7.874016 -2.073564
vt -13.77953 -2.073564
vt -8.612205 0.02879949
vt -13.04134 0.02879949
vt -6.685796 -3.924025
vt -9.638552 -3.924025
vt -7.05489 -2.872843
vt -9.269457 -2.872843
vt -3.150446 -5.665775
vt -6.103202 -5.665775
vt -3.519541 -4.614594
vt -5.734107 -4.614594
vt 13.77953 7.950287E-15
vt 7.874016 2.84326E-15
vt 13.04134 2.102363
vt 13.77953 6.179695E-08
vt 7.874016 6.179697E-08
vt -11.90783 -3.599261
vt -10.3419 -2.033326
vt -10.3419 -5.165196
vt -8.775962 -3.599261
vt -7.836542 -2.067539
vt -13.74205 -2.067539
vt -8.574731 0.03482418
vt -13.00387 0.03482418
vt 5.888353 -4.825157
vt -0.0171583 -4.825157
vt 5.150165 -2.722794
vt 0.7210307 -2.722794
vt -13.04134 0.02879949
vt -12.83684 5.553404
vt -9.704967 8.685275
vt -9.704967 2.421534
vt -6.573096 5.553405
vt 9.743597 -9.743597
vt 5.56777 -13.91943
vt 5.56777 -5.56777
vt 1.391942 -9.743597
vt 3.17479 12.62993
vt 1.086877 10.54202
vt 1.086877 14.71785
vt -1.001037 12.62993
vt 5.905512 -3.543307
vt -5.905512 -3.543307
vt 4.429134 -1.082677
vt -4.429134 -1.082677
vt -11.2286 1.61305
vt -14.18136 1.61305
vt -11.59769 2.664232
vt -13.81226 2.664232
vt 7.546725 3.942624
vt 4.593969 3.942624
vt 7.17763 4.993806
vt 4.963063 4.993806
vt -13.18338 1.106195
vt -16.13614 1.106195
vt -13.55247 2.157377
vt -15.76704 2.157377
vt 3.150446 4.628994
vt 3.519541 5.680175
vt 6.103202 4.628994
vt 5.734107 5.680175
vt 3.125457 -13.27616
vt 4.691392 -11.71022
vt 4.691392 -14.84209
vt 6.257328 -13.27616
vt 13.88079 5.553404
vt 9.704967 1.377577
vt 9.704967 9.729232
vt 5.52914 5.553405
vt 8.351655 -5.684342E-14
vt -2.488985E-07 -8.351655
vt 0 8.351655
vt -8.351655 2.488985E-07
vt 2.309264E-14 -4.838315
vt 5.167323 -2.735952
vt 0.738189 -2.735952
vt 4.429134 -1.082677
vt -4.429134 -1.082677
vt -5.888353 2.751594
vt -5.150165 4.853957
vt 0.0171583 2.751594
vt -0.7210307 4.853957
vt -7.546725 -4.979406
vt -7.17763 -3.928225
vt -4.593969 -4.979406
vt -4.963063 -3.928225
vt -2.603479 -13.27616
vt -4.691392 -15.36407
vt -4.691392 -11.18824
vt -6.779306 -13.27616
vt 2.435899 9.743598
vt 5.56777 12.87547
vt 5.56777 6.611727
vt 8.69964 9.743598
vt 16.13614 -2.142977
vt 13.18338 -2.142977
vt 15.76704 -1.091796
vt 13.55247 -1.091796
vt -3.291386 -3.979726
vt -6.244142 -3.979726
vt -3.66048 -2.928545
vt -5.875047 -2.928545
vt 13.74205 -0.006024681
vt 7.836542 -0.006024681
vt 13.00387 2.096339
vt 8.574731 2.096339
vt -8.660291 13.63767
vt -7.094355 15.20361
vt -7.094355 12.07174
vt -5.52842 13.63767
vt 3.68594E-14 2.764752
vt -5.905512 2.764752
vt -8.612205 0.02879943
vt -13.04134 0.02879943
vt -1.391943 9.743598
vt -5.56777 5.56777
vt -5.56777 13.91943
vt -9.743597 9.743598
vt -8.642708 1.882474
vt -11.59546 1.882474
vt -9.011803 2.933656
vt -11.22637 2.933656
vt -5.361289 -4.071439
vt -8.314045 -4.071439
vt -5.730383 -3.020258
vt -7.94495 -3.020258
vt 10.4243 2.320314
vt 11.99023 3.886249
vt 11.99023 0.7543786
vt 13.55617 2.320314
vt -9.902321 2.320314
vt -11.99023 0.2324001
vt -11.99023 4.408227
vt -14.07815 2.320314
vt 8.314045 3.034657
vt 5.361289 3.034657
vt 7.94495 4.085839
vt 5.730383 4.085839
vt -5.56777 -5.56777
vt -9.743598 -9.743597
vt -9.743598 -1.391942
vt -13.91943 -5.56777
vt 12.42981 -3.599261
vt 10.3419 -5.687175
vt 10.3419 -1.511348
vt 8.253983 -3.599261
vt 8.642708 -2.919256
vt 9.011803 -1.868074
vt 11.59546 -2.919256
vt 11.22637 -1.868074

usemtl rock

f 3/3/2 2/2/1 1/1/1
f 2/2/1 3/3/2 4/4/3
f 7/7/4 6/6/5 5/5/4
f 6/6/5 7/7/4 8/8/3
f 11/10/7 10/2/6 9/9/6
f 10/2/6 11/10/7 12/11/2
f 6/14/5 12/13/2 11/12/7
f 12/13/2 6/14/5 8/15/3
f 15/17/2 14/16/1 13/7/1
f 14/16/1 15/17/2 16/18/3
f 19/21/8 18/20/8 17/19/8
f 18/20/8 19/21/8 20/22/8
f 14/25/4 22/24/5 21/23/4
f 22/24/5 14/25/4 16/26/3
f 25/29/5 24/28/2 23/27/7
f 24/28/2 25/29/5 26/30/3
f 29/33/4 28/32/5 27/31/4
f 28/32/5 29/33/4 30/34/3
f 32/37/2 29/36/1 31/35/1
f 29/36/1 32/37/2 30/38/3
f 34/41/5 3/40/2 33/39/7
f 3/40/2 34/41/5 4/42/3
f 25/45/5 36/44/9 35/43/9
f 36/44/9 25/45/5 23/46/7
f 39/49/12 38/48/11 37/47/10
f 38/48/11 39/49/12 40/50/13
f 42/53/14 37/52/10 41/51/14
f 37/52/10 42/53/14 39/54/12
f 24/57/2 44/56/1 43/55/1
f 44/56/1 24/57/2 26/58/3
f 47/61/5 46/60/9 45/59/9
f 46/60/9 47/61/5 48/62/7
f 50/65/7 31/64/6 49/63/6
f 31/64/6 50/65/7 32/66/2
f 44/69/4 25/68/5 35/67/4
f 25/68/5 44/69/4 26/70/3
f 52/73/7 13/72/6 51/71/6
f 13/72/6 52/73/7 15/74/2
f 23/77/7 43/76/6 36/75/6
f 43/76/6 23/77/7 24/78/2
f 53/81/7 19/80/6 17/79/6
f 19/80/6 53/81/7 54/82/2
f 33/85/7 1/84/6 55/83/6
f 1/84/6 33/85/7 3/24/2
f 6/26/5 9/87/9 5/86/9
f 9/87/9 6/26/5 11/24/7
f 28/90/5 32/89/2 50/88/7
f 32/89/2 28/90/5 30/91/3
f 58/94/5 57/93/9 56/92/9
f 57/93/9 58/94/5 59/95/7
f 59/98/7 60/97/6 57/96/6
f 60/97/6 59/98/7 61/99/2
f 2/71/4 34/100/5 62/72/4
f 34/100/5 2/71/4 4/73/3
f 58/103/5 61/102/2 59/101/7
f 61/102/2 58/103/5 63/104/3
f 1/107/8 62/106/8 55/105/8
f 62/106/8 1/107/8 2/108/8
f 43/111/8 35/110/8 36/109/8
f 35/110/8 43/111/8 44/112/8
f 38/115/11 65/114/15 64/113/15
f 65/114/15 38/115/11 40/116/13
f 68/119/2 67/118/1 66/117/1
f 67/118/1 68/119/2 69/120/3
f 48/123/7 66/122/6 46/121/6
f 66/122/6 48/123/7 68/124/2
f 70/127/5 17/126/9 18/125/9
f 17/126/9 70/127/5 53/128/7
f 20/131/4 70/130/5 18/129/4
f 70/130/5 20/131/4 71/132/3
f 47/135/5 68/134/2 48/133/7
f 68/134/2 47/135/5 69/136/3
f 60/139/8 56/138/8 57/137/8
f 56/138/8 60/139/8 72/140/8
f 64/143/8 42/142/8 41/141/8
f 42/142/8 64/143/8 65/144/8
f 34/146/5 55/145/9 62/7/9
f 55/145/9 34/146/5 33/147/7
f 37/148/10 64/51/16 41/53/16
f 64/51/16 37/148/10 38/149/11
f 42/51/17 40/148/13 39/149/12
f 40/148/13 42/51/17 65/53/17
f 72/152/4 58/151/5 56/150/4
f 58/151/5 72/152/4 63/153/3
f 67/156/4 47/155/5 45/154/4
f 47/155/5 67/156/4 69/157/3
f 66/160/8 45/159/8 46/158/8
f 45/159/8 66/160/8 67/161/8
f 22/164/5 15/163/2 52/162/7
f 15/163/2 22/164/5 16/165/3
f 54/168/2 20/167/1 19/166/1
f 20/167/1 54/168/2 71/169/3
f 28/172/5 49/171/9 27/170/9
f 49/171/9 28/172/5 50/173/7
f 61/176/2 72/175/1 60/174/1
f 72/175/1 61/176/2 63/177/3
f 70/180/5 54/179/2 53/178/7
f 54/179/2 70/180/5 71/181/3
f 22/3/5 51/183/9 21/182/9
f 51/183/9 22/3/5 52/4/7
f 12/184/2 7/72/1 10/71/1
f 7/72/1 12/184/2 8/185/3
f 13/188/8 21/187/8 51/186/8
f 21/187/8 13/188/8 14/189/8
f 75/192/7 74/191/6 73/190/6
f 74/191/6 75/192/7 76/193/2
f 76/196/2 77/195/1 74/194/1
f 77/195/1 76/196/2 78/197/3
f 79/200/5 76/199/2 75/198/7
f 76/199/2 79/200/5 78/201/3
f 74/204/8 80/203/8 73/202/8
f 80/203/8 74/204/8 77/205/8
f 79/208/5 73/207/9 80/206/9
f 73/207/9 79/208/5 75/209/7
f 10/212/8 5/211/8 9/210/8
f 5/211/8 10/212/8 7/213/8
f 31/216/8 27/215/8 49/214/8
f 27/215/8 31/216/8 29/217/8
f 77/220/4 79/219/5 80/218/4
f 79/219/5 77/220/4 78/221/3

