# Created by Kenney (www.kenney.nl)

mtllib treePineSnow.mtl

g treePineSnow

v -0.0763 0.1105263 -0.0763
v -0.05631299 0.522 -0.05631299
v -0.0763 0.1105263 0.0763
v -0.05631299 0.522 0.05631299
v 0.0763 0.1105263 0.0763
v 0.05631299 0.522 0.05631299
v -0.106057 -8.014827E-32 -0.106057
v 0.106057 -8.014827E-32 -0.106057
v 0.0763 0.1105263 -0.0763
v 0.106057 -8.014827E-32 0.106057
v 0.05631299 0.522 -0.05631299
v -0.106057 -8.014827E-32 0.106057
v -0.3353383 0.636 -0.3353383
v -0.4107039 0.636 -0.23712
v -0.3095431 0.522 -0.3095431
v -0.3791113 0.522 -0.21888
v 0.43776 0.522 2.887646E-15
v 0.4228437 0.522 -0.1133006
v 0.4228437 0.522 0.1133006
v 0.3791113 0.522 0.21888
v 0.3791113 0.522 -0.21888
v 0.3095431 0.522 0.3095431
v 0.3095431 0.522 -0.3095431
v 0.21888 0.522 0.3791113
v 0.21888 0.522 -0.3791113
v 0.1133006 0.522 0.4228437
v 0.1133006 0.522 -0.4228437
v -2.887646E-15 0.522 0.43776
v -2.887646E-15 0.522 -0.43776
v -0.1133006 0.522 0.4228437
v -0.1133006 0.522 -0.4228437
v -0.21888 0.522 0.3791113
v -0.21888 0.522 -0.3791113
v -0.3095431 0.522 0.3095431
v -0.3791113 0.522 0.21888
v -0.4228437 0.522 0.1133006
v -0.4228437 0.522 -0.1133006
v -0.43776 0.522 2.887646E-15
v -0.4580806 0.636 -0.1227423
v -0.47424 0.636 -5.775291E-15
v -0.23712 0.636 -0.4107039
v 2.887646E-15 0.636 -0.47424
v 0.1227423 0.636 -0.4580806
v 0.47424 0.636 -5.775291E-15
v 0.4580806 0.636 0.1227423
v 0.3353383 0.636 -0.3353383
v 0.4107039 0.636 -0.23712
v 0.23712 0.636 0.4107039
v 0.1227423 0.636 0.4580806
v 2.887646E-15 0.636 0.47424
v -0.4107039 0.636 0.23712
v -0.3353383 0.636 0.3353383
v 0.23712 0.636 -0.4107039
v -0.4580806 0.636 0.1227423
v -0.1227423 0.636 0.4580806
v 0.4107039 0.636 0.23712
v 0.3353383 0.636 0.3353383
v -0.1227423 0.636 -0.4580806
v 0.4580806 0.636 -0.1227423
v -0.23712 0.636 0.4107039
v 0.3036531 0.9499999 -2.021352E-14
v 0.2933064 0.9499999 0.0785912
v 0.2147152 0.9499999 0.2147152
v 0.1518265 0.9499999 0.2629713
v -0.0785912 0.9499999 0.2933064
v -0.1518265 0.9499999 0.2629713
v -0.2629713 0.9499999 -0.1518265
v -0.2933064 0.9499999 -0.0785912
v -0.2147152 0.9499999 -0.2147152
v -0.1518265 0.9499999 -0.2629713
v -0.3036531 0.9499999 -1.732587E-14
v -0.2933064 0.9499999 0.0785912
v -0.2629713 0.9499999 0.1518265
v -0.2147152 0.9499999 0.2147152
v -0.0785912 0.9499999 -0.2933064
v 1.155058E-14 0.9499999 -0.3036531
v 0.0785912 0.9499999 0.2933064
v 0.2629713 0.9499999 0.1518265
v -0.21424 1.09208 -0.3710746
v -0.1108988 1.09208 -0.4138799
v -0.02896691 1.941 -0.05017217
v -0.01499438 1.941 -0.05595977
v 0.4138799 1.09208 -0.1108988
v 0.42848 1.09208 -5.775291E-15
v 0.05595977 1.941 -0.01499438
v 0.05793382 1.941 -2.310117E-14
v 0.4 0.9499999 0
v 0.3863703 0.9499999 -0.1035276
v 0.3863703 0.9499999 0.1035276
v 0.3464102 0.9499999 0.2
v 0.3464102 0.9499999 -0.2
v 0.2828427 0.9499999 0.2828427
v 0.2828427 0.9499999 -0.2828427
v 0.2933064 0.9499999 -0.0785912
v 0.2629713 0.9499999 -0.1518265
v 0.2 0.9499999 0.3464102
v 0.1035276 0.9499999 0.3863703
v 0.2 0.9499999 -0.3464102
v 0.2147152 0.9499999 -0.2147152
v 0.1518265 0.9499999 -0.2629713
v 0.1035276 0.9499999 -0.3863703
v 0.0785912 0.9499999 -0.2933064
v 0 0.9499999 0.4
v 5.775291E-15 0.9499999 0.3036531
v -0.1035276 0.9499999 0.3863703
v -0.2 0.9499999 0.3464102
v 0 0.9499999 -0.4
v -0.1035276 0.9499999 -0.3863703
v -0.2 0.9499999 -0.3464102
v -0.2828427 0.9499999 0.2828427
v -0.2828427 0.9499999 -0.2828427
v -0.3464102 0.9499999 0.2
v -0.3464102 0.9499999 -0.2
v -0.3863703 0.9499999 0.1035276
v -0.3863703 0.9499999 -0.1035276
v -0.4 0.9499999 0
v -0.3710746 1.09208 -0.21424
v -0.05017217 1.941 -0.02896691
v -0.4138799 1.09208 -0.1108988
v -0.05595977 1.941 -0.01499438
v 0.05595977 1.941 0.01499438
v 0.05017217 1.941 -0.02896691
v 0.05017217 1.941 0.02896691
v 0.0409654 1.941 -0.0409654
v 0.0409654 1.941 0.0409654
v 0.02896691 1.941 -0.05017217
v 0.02896691 1.941 0.05017217
v 0.01499438 1.941 -0.05595977
v 0.01499438 1.941 0.05595977
v 5.775291E-15 1.941 -0.05793382
v 5.775291E-15 1.941 0.05793382
v -0.01499438 1.941 0.05595977
v -0.02896691 1.941 0.05017217
v -0.0409654 1.941 -0.0409654
v -0.0409654 1.941 0.0409654
v -0.05017217 1.941 0.02896691
v -0.05595977 1.941 0.01499438
v -0.05793382 1.941 -2.310117E-14
v 2.887646E-15 1.09208 -0.42848
v 0.1108988 1.09208 -0.4138799
v 2.887646E-15 1.09208 0.42848
v -0.1108988 1.09208 0.4138799
v -0.3710746 1.09208 0.21424
v -0.3029811 1.09208 0.3029811
v -0.21424 1.09208 0.3710746
v 0.3710746 1.09208 0.21424
v 0.3029811 1.09208 0.3029811
v 0.21424 1.09208 0.3710746
v 0.1108988 1.09208 0.4138799
v -0.42848 1.09208 -5.775291E-15
v -0.4138799 1.09208 0.1108988
v 0.3029811 1.09208 -0.3029811
v 0.3710746 1.09208 -0.21424
v 0.21424 1.09208 -0.3710746
v 0.4138799 1.09208 0.1108988
v -0.3029811 1.09208 -0.3029811

vn -0.9863356 0.1647478 0
vn -0.9988223 0.04851701 0
vn 0 0.1647478 0.9863356
vn 0 0.04851701 0.9988223
vn 0 0.2599728 -0.9656159
vn 0 0.1647478 -0.9863356
vn 0.9656159 0.2599728 0
vn 0.9863356 0.1647478 0
vn 0 0.04851701 -0.9988223
vn -0.9656159 0.2599728 0
vn 0 -1 0
vn 0 0.2599728 0.9656159
vn 0.9988223 0.04851701 0
vn -0.6734655 -0.3047757 -0.6734655
vn -0.8248236 -0.3047757 -0.4762121
vn -0.919971 -0.3047757 -0.2465055
vn -0.9524242 -0.3047757 0
vn -0.4762121 -0.3047757 -0.8248236
vn 0 -0.3047757 -0.9524242
vn 0.2465055 -0.3047757 -0.919971
vn 0.9524242 -0.3047757 0
vn 0.919971 -0.3047757 0.2465055
vn 0.6734655 -0.3047757 -0.6734655
vn 0.8248236 -0.3047757 -0.4762121
vn 0.4762121 -0.3047757 0.8248236
vn 0.2465055 -0.3047757 0.919971
vn 0 -0.3047757 0.9524242
vn -0.8248236 -0.3047757 0.4762121
vn -0.6734655 -0.3047757 0.6734655
vn 0.4762121 -0.3047757 -0.8248236
vn -0.919971 -0.3047757 0.2465055
vn -0.2465055 -0.3047757 0.919971
vn 0.8248236 -0.3047757 0.4762121
vn 0.6734655 -0.3047757 0.6734655
vn -0.2465055 -0.3047757 -0.919971
vn 0.919971 -0.3047757 -0.2465055
vn -0.4762121 -0.3047757 0.8248236
vn 0.8787011 0.4773723 0
vn 0.8487601 0.4773724 0.2274246
vn 0.6213355 0.4773724 0.6213355
vn 0.4393506 0.4773724 0.7609775
vn -0.2274246 0.4773724 0.8487601
vn -0.4393506 0.4773724 0.7609775
vn -0.7609775 0.4773724 -0.4393506
vn -0.8487601 0.4773724 -0.2274246
vn -0.6213355 0.4773724 -0.6213355
vn -0.4393506 0.4773724 -0.7609775
vn -0.8787011 0.4773723 0
vn -0.8487601 0.4773724 0.2274246
vn -0.7609775 0.4773724 0.4393506
vn -0.6213355 0.4773724 0.6213355
vn -0.2274246 0.4773724 -0.8487601
vn 0 0.4773723 -0.8787011
vn 0.2274246 0.4773724 0.8487601
vn 0.7609775 0.4773724 0.4393506
vn -0.4582483 0.4000427 -0.7937093
vn -0.2372067 0.4000427 -0.8852676
vn 0.8852676 0.4000427 -0.2372067
vn 0.9164965 0.4000427 0
vn 0.2274246 0.4773724 -0.8487601
vn -0.7937093 0.4000427 -0.4582483
vn -0.8852676 0.4000427 -0.2372067
vn 0.4393506 0.4773724 -0.7609775
vn 0.6213355 0.4773724 -0.6213355
vn 0.8487601 0.4773724 -0.2274246
vn 0.7609775 0.4773724 -0.4393506
vn 0 1 0
vn 0 0.4773723 0.8787011
vn 0 0.4000427 -0.9164965
vn 0.2372067 0.4000427 -0.8852676
vn 0 0.4000427 0.9164965
vn -0.2372067 0.4000427 0.8852676
vn -0.7937093 0.4000427 0.4582483
vn -0.6480609 0.4000427 0.6480609
vn -0.4582483 0.4000427 0.7937093
vn 0.7937093 0.4000427 0.4582483
vn 0.6480609 0.4000427 0.6480609
vn 0.4582483 0.4000427 0.7937093
vn 0.2372067 0.4000427 0.8852676
vn -0.9164965 0.4000427 0
vn -0.8852676 0.4000427 0.2372067
vn 0.6480609 0.4000427 -0.6480609
vn 0.7937093 0.4000427 -0.4582483
vn 0.4582483 0.4000427 -0.7937093
vn 0.8852676 0.4000427 0.2372067
vn -0.6480609 0.4000427 -0.6480609
vn 0.9804956 -0.1965408 0
vn 0.947086 -0.1965408 0.2537709
vn 0.8491341 -0.1965408 0.4902479
vn 0.6933151 -0.1965408 0.6933151
vn 0 -0.1965408 -0.9804956
vn 0.2537709 -0.1965408 -0.947086
vn -0.9804956 -0.1965408 0
vn -0.947086 -0.1965408 0.2537709
vn -0.947086 -0.1965408 -0.2537709
vn 0.6933151 -0.1965408 -0.6933151
vn 0.8491341 -0.1965408 -0.4902479
vn -0.4902479 -0.1965408 -0.8491341
vn -0.2537709 -0.1965408 -0.947086
vn -0.8491341 -0.1965408 -0.4902479
vn -0.8491341 -0.1965408 0.4902479
vn -0.6933151 -0.1965408 -0.6933151
vn 0.2537709 -0.1965408 0.947086
vn 0 -0.1965408 0.9804956
vn 0.4902479 -0.1965408 -0.8491341
vn -0.2537709 -0.1965408 0.947086
vn -0.4902479 -0.1965408 0.8491341
vn 0.947086 -0.1965408 -0.2537709
vn -0.6933151 -0.1965408 0.6933151
vn 0.4902479 -0.1965408 0.8491341

vt -3.003937 4.200562
vt -2.217047 20.41941
vt 3.003937 4.200562
vt 2.217047 20.41941
vt 4.175472 -1.085509
vt -4.175472 -1.085509
vt 3.003937 3.420867
vt -3.003937 3.420867
vt 4.175472 4.175472
vt 4.175472 -4.175472
vt -4.175472 4.175472
vt -4.175472 -4.175472
vt -2.437037 29.4649
vt 2.437037 29.4649
vt -2.249573 24.75625
vt 2.249573 24.75625
vt 17.23465 1.136868E-13
vt 16.64739 -4.460655
vt 16.64739 4.460655
vt 14.92564 8.617323
vt 14.92564 -8.617323
vt 12.18674 12.18674
vt 12.18674 -12.18674
vt 8.617323 14.92564
vt 8.617323 -14.92564
vt 4.460655 16.64739
vt 4.460655 -16.64739
vt 2.217047 2.217047
vt -1.136868E-13 17.23465
vt 2.217047 -2.217047
vt -2.217047 2.217047
vt -1.136868E-13 -17.23465
vt -4.460655 16.64739
vt -2.217047 -2.217047
vt -4.460655 -16.64739
vt -8.617323 14.92564
vt -8.617323 -14.92564
vt -12.18674 12.18674
vt -12.18674 -12.18674
vt -14.92564 8.617323
vt -14.92564 -8.617323
vt -16.64739 4.460655
vt -16.64739 -4.460655
vt -17.23465 1.136868E-13
vt 1.560421 27.30819
vt 2.437037 13.2668
vt -1.560421 27.30819
vt -2.437037 13.2668
vt 2.201884 32.81632
vt -2.201884 32.81632
vt 0.2977119 69.23376
vt -0.2977119 69.23376
vt 15.74803 0
vt 15.21143 -4.075891
vt 15.21143 4.075891
vt 13.6382 7.874016
vt 13.6382 -7.874016
vt 11.13554 11.13554
vt 11.95485 -7.958079E-13
vt 11.13554 -11.13554
vt 11.54749 3.094142
vt 11.54749 -3.094142
vt 10.3532 5.977423
vt 10.3532 -5.977423
vt 7.874016 13.6382
vt 8.453353 8.453353
vt 5.977423 10.3532
vt 4.075891 15.21143
vt 3.094142 11.54749
vt 7.874016 -13.6382
vt 8.453353 -8.453353
vt 5.977423 -10.3532
vt 4.075891 -15.21143
vt 3.094142 -11.54749
vt 0 15.74803
vt 2.273737E-13 11.95485
vt -3.094142 11.54749
vt -4.075891 15.21143
vt -5.977423 10.3532
vt -7.874016 13.6382
vt -8.453353 8.453353
vt 0 -15.74803
vt 4.547474E-13 -11.95485
vt -3.094142 -11.54749
vt -4.075891 -15.21143
vt -5.977423 -10.3532
vt -7.874016 -13.6382
vt -8.453353 -8.453353
vt -11.13554 11.13554
vt -10.3532 5.977423
vt -11.54749 3.094142
vt -11.13554 -11.13554
vt -10.3532 -5.977423
vt -11.54749 -3.094142
vt -13.6382 7.874016
vt -13.6382 -7.874016
vt -11.95485 -6.82121E-13
vt -15.21143 4.075891
vt -15.21143 -4.075891
vt -15.74803 0
vt -2.280859 -9.094947E-13
vt -2.203141 0.5903298
vt -2.203141 -0.5903298
vt -1.975282 -1.14043
vt -1.975282 1.14043
vt -1.612811 -1.612811
vt -1.612811 1.612811
vt -1.14043 -1.975282
vt -1.14043 1.975282
vt -0.5903298 -2.203141
vt -0.5903298 2.203141
vt -2.273737E-13 -2.280859
vt -2.273737E-13 2.280859
vt 0.5903298 -2.203141
vt 0.5903298 2.203141
vt 1.14043 -1.975282
vt 1.14043 1.975282
vt 1.612811 -1.612811
vt 1.612811 1.612811
vt 1.975282 -1.14043
vt 1.975282 1.14043
vt 2.203141 -0.5903298
vt 2.203141 0.5903298
vt 2.280859 -9.094947E-13
vt 2.201884 45.43065
vt 2.055531 39.72755
vt -2.201884 45.43065
vt -2.055531 39.72755

usemtl dirt

f 3/3/1 2/2/2 1/1/1
f 2/2/2 3/3/1 4/4/2
f 6/4/4 3/1/3 5/3/3
f 3/1/3 6/4/4 4/2/4
f 1/7/6 8/6/5 7/5/5
f 8/6/5 1/7/6 9/8/6
f 9/7/8 10/6/7 8/5/7
f 10/6/7 9/7/8 5/8/8
f 2/4/9 9/1/6 1/3/6
f 9/1/6 2/4/9 11/2/9
f 12/5/10 1/8/1 7/6/10
f 1/8/1 12/5/10 3/7/1
f 12/11/11 8/10/11 10/9/11
f 8/10/11 12/11/11 7/12/11
f 5/7/3 12/6/12 10/5/12
f 12/6/12 5/7/3 3/8/3
f 11/4/13 5/1/8 9/3/8
f 5/1/8 11/4/13 6/2/13

usemtl snow

f 15/15/14 14/14/15 13/13/14
f 14/14/15 15/15/14 16/16/15
f 19/19/11 18/18/11 17/17/11
f 18/18/11 19/19/11 20/20/11
f 18/18/11 20/20/11 21/21/11
f 21/21/11 20/20/11 22/22/11
f 21/21/11 22/22/11 23/23/11
f 23/23/11 22/22/11 24/24/11
f 23/23/11 24/24/11 25/25/11
f 25/25/11 24/24/11 26/26/11
f 25/25/11 26/26/11 27/27/11
f 27/27/11 26/26/11 6/28/11
f 6/28/11 26/26/11 28/29/11
f 27/27/11 6/28/11 11/30/11
f 6/28/11 28/29/11 4/31/11
f 11/30/11 29/32/11 27/27/11
f 4/31/11 28/29/11 30/33/11
f 29/32/11 11/30/11 2/34/11
f 4/31/11 30/33/11 2/34/11
f 29/32/11 2/34/11 31/35/11
f 31/35/11 2/34/11 30/33/11
f 31/35/11 30/33/11 32/36/11
f 31/35/11 32/36/11 33/37/11
f 33/37/11 32/36/11 34/38/11
f 33/37/11 34/38/11 15/39/11
f 15/39/11 34/38/11 35/40/11
f 15/39/11 35/40/11 16/41/11
f 16/41/11 35/40/11 36/42/11
f 16/41/11 36/42/11 37/43/11
f 37/43/11 36/42/11 38/44/11
f 37/15/16 40/14/17 39/13/16
f 40/14/17 37/15/16 38/16/17
f 13/14/14 33/15/18 15/16/14
f 33/15/18 13/14/14 41/13/18
f 42/14/19 27/15/20 29/16/19
f 27/15/20 42/14/19 43/13/20
f 45/13/22 17/16/21 44/14/21
f 17/16/21 45/13/22 19/15/22
f 47/13/24 23/16/23 46/14/23
f 23/16/23 47/13/24 21/15/24
f 48/14/25 26/15/26 24/16/25
f 26/15/26 48/14/25 49/13/26
f 16/15/15 39/14/16 14/13/15
f 39/14/16 16/15/15 37/16/16
f 49/14/26 28/15/27 26/16/26
f 28/15/27 49/14/26 50/13/27
f 34/16/29 51/13/28 35/15/28
f 51/13/28 34/16/29 52/14/29
f 53/14/30 23/15/23 25/16/30
f 23/15/23 53/14/30 46/13/23
f 35/16/28 54/13/31 36/15/31
f 54/13/31 35/16/28 51/14/28
f 50/14/27 30/15/32 28/16/27
f 30/15/32 50/14/27 55/13/32
f 56/14/33 22/15/34 20/16/33
f 22/15/34 56/14/33 57/13/34
f 38/15/17 54/14/31 40/13/17
f 54/14/31 38/15/17 36/16/31
f 43/14/20 25/15/30 27/16/20
f 25/15/30 43/14/20 53/13/30
f 58/14/35 29/15/19 31/16/35
f 29/15/19 58/14/35 42/13/19
f 59/13/36 21/16/24 47/14/24
f 21/16/24 59/13/36 18/15/36
f 45/14/22 20/15/33 19/16/22
f 20/15/33 45/14/22 56/13/33
f 57/14/34 24/15/25 22/16/34
f 24/15/25 57/14/34 48/13/25
f 55/14/32 32/15/37 30/16/32
f 32/15/37 55/14/32 60/13/37
f 62/47/39 44/46/38 61/45/38
f 44/46/38 62/47/39 45/48/39
f 63/45/40 48/48/41 57/46/40
f 48/48/41 63/45/40 64/47/41
f 65/45/42 60/48/43 55/46/42
f 60/48/43 65/45/42 66/47/43
f 39/46/45 67/47/44 14/48/44
f 67/47/44 39/46/45 68/45/45
f 69/45/46 41/48/47 13/46/46
f 41/48/47 69/45/46 70/47/47
f 40/48/48 72/45/49 71/47/48
f 72/45/49 40/48/48 54/46/49
f 51/48/50 74/45/51 73/47/50
f 74/45/51 51/48/50 52/46/51
f 54/48/49 73/45/50 72/47/49
f 73/45/50 54/48/49 51/46/50
f 75/45/52 42/48/53 58/46/52
f 42/48/53 75/45/52 76/47/53
f 64/45/41 49/48/54 48/46/41
f 49/48/54 64/45/41 77/47/54
f 66/45/43 52/48/51 60/46/43
f 52/48/51 66/45/43 74/47/51
f 14/46/44 69/47/46 13/48/46
f 69/47/46 14/46/44 67/45/44
f 60/14/37 34/15/29 32/16/37
f 34/15/29 60/14/37 52/13/29
f 44/13/21 18/16/36 59/14/36
f 18/16/36 44/13/21 17/15/21
f 78/47/55 45/46/39 62/45/39
f 45/46/39 78/47/55 56/48/55
f 40/46/48 68/47/45 39/48/45
f 68/47/45 40/46/48 71/45/48
f 41/14/18 31/15/35 33/16/18
f 31/15/35 41/14/18 58/13/35
f 81/51/56 80/50/57 79/49/56
f 80/50/57 81/51/56 82/52/57
f 85/51/58 84/50/59 83/49/58
f 84/50/59 85/51/58 86/52/59
f 89/55/11 88/54/11 87/53/11
f 88/54/11 89/55/11 90/56/11
f 88/54/11 90/56/11 91/57/11
f 91/57/11 90/56/11 92/58/11
f 91/57/11 92/58/11 61/59/11
f 61/59/11 93/60/11 91/57/11
f 61/59/11 92/58/11 62/61/11
f 93/60/11 61/59/11 94/62/11
f 62/61/11 92/58/11 78/63/11
f 93/60/11 94/62/11 95/64/11
f 78/63/11 92/58/11 96/65/11
f 78/63/11 96/65/11 63/66/11
f 63/66/11 96/65/11 64/67/11
f 64/67/11 96/65/11 97/68/11
f 64/67/11 97/68/11 77/69/11
f 93/60/11 95/64/11 98/70/11
f 98/70/11 95/64/11 99/71/11
f 98/70/11 99/71/11 100/72/11
f 98/70/11 100/72/11 101/73/11
f 101/73/11 100/72/11 102/74/11
f 77/69/11 97/68/11 103/75/11
f 77/69/11 103/75/11 104/76/11
f 104/76/11 103/75/11 65/77/11
f 65/77/11 103/75/11 105/78/11
f 65/77/11 105/78/11 66/79/11
f 66/79/11 105/78/11 106/80/11
f 66/79/11 106/80/11 74/81/11
f 101/73/11 102/74/11 107/82/11
f 107/82/11 102/74/11 76/83/11
f 107/82/11 76/83/11 75/84/11
f 107/82/11 75/84/11 108/85/11
f 108/85/11 75/84/11 70/86/11
f 108/85/11 70/86/11 109/87/11
f 109/87/11 70/86/11 69/88/11
f 74/81/11 106/80/11 110/89/11
f 74/81/11 110/89/11 73/90/11
f 73/90/11 110/89/11 72/91/11
f 109/87/11 69/88/11 111/92/11
f 111/92/11 69/88/11 67/93/11
f 111/92/11 67/93/11 68/94/11
f 72/91/11 110/89/11 112/95/11
f 111/92/11 68/94/11 113/96/11
f 72/91/11 112/95/11 71/97/11
f 113/96/11 68/94/11 71/97/11
f 113/96/11 71/97/11 112/95/11
f 113/96/11 112/95/11 114/98/11
f 113/96/11 114/98/11 115/99/11
f 115/99/11 114/98/11 116/100/11
f 76/45/53 43/48/60 42/46/53
f 43/48/60 76/45/53 102/47/60
f 119/49/62 118/52/61 117/50/61
f 118/52/61 119/49/62 120/51/62
f 63/47/40 56/46/55 78/45/55
f 56/46/55 63/47/40 57/48/40
f 100/45/63 46/48/64 53/46/63
f 46/48/64 100/45/63 99/47/64
f 94/45/65 44/48/38 59/46/65
f 44/48/38 94/45/65 61/47/38
f 99/45/64 47/48/66 46/46/64
f 47/48/66 99/45/64 95/47/66
f 102/45/60 53/48/63 43/46/60
f 53/48/63 102/45/60 100/47/63
f 85/103/67 121/102/67 86/101/67
f 121/102/67 85/103/67 122/104/67
f 121/102/67 122/104/67 123/105/67
f 123/105/67 122/104/67 124/106/67
f 123/105/67 124/106/67 125/107/67
f 125/107/67 124/106/67 126/108/67
f 125/107/67 126/108/67 127/109/67
f 127/109/67 126/108/67 128/110/67
f 127/109/67 128/110/67 129/111/67
f 129/111/67 128/110/67 130/112/67
f 129/111/67 130/112/67 131/113/67
f 131/113/67 130/112/67 82/114/67
f 131/113/67 82/114/67 132/115/67
f 132/115/67 82/114/67 81/116/67
f 132/115/67 81/116/67 133/117/67
f 133/117/67 81/116/67 134/118/67
f 133/117/67 134/118/67 135/119/67
f 135/119/67 134/118/67 118/120/67
f 135/119/67 118/120/67 136/121/67
f 136/121/67 118/120/67 120/122/67
f 136/121/67 120/122/67 137/123/67
f 137/123/67 120/122/67 138/124/67
f 77/45/54 50/48/68 49/46/54
f 50/48/68 77/45/54 104/47/68
f 95/45/66 59/48/65 47/46/66
f 59/48/65 95/45/66 94/47/65
f 130/51/69 140/50/70 139/49/69
f 140/50/70 130/51/69 128/52/70
f 104/45/68 55/48/42 50/46/68
f 55/48/42 104/45/68 65/47/42
f 70/45/47 58/48/52 41/46/47
f 58/48/52 70/45/47 75/47/52
f 131/51/71 142/50/72 141/49/71
f 142/50/72 131/51/71 132/52/72
f 143/50/73 135/51/74 136/52/73
f 135/51/74 143/50/73 144/49/74
f 82/51/57 139/50/69 80/49/57
f 139/50/69 82/51/57 130/52/69
f 133/51/75 144/50/74 145/49/75
f 144/50/74 133/51/75 135/52/74
f 125/52/77 146/49/76 123/51/76
f 146/49/76 125/52/77 147/50/77
f 127/51/78 149/50/79 148/49/78
f 149/50/79 127/51/78 129/52/79
f 132/51/72 145/50/75 142/49/72
f 145/50/75 132/51/72 133/52/75
f 150/49/80 120/52/62 119/50/62
f 120/52/62 150/49/80 138/51/80
f 151/50/81 136/51/73 137/52/81
f 136/51/73 151/50/81 143/49/73
f 125/51/77 148/50/78 147/49/77
f 148/50/78 125/51/77 127/52/78
f 124/51/82 153/50/83 152/49/82
f 153/50/83 124/51/82 122/52/83
f 128/51/70 154/50/84 140/49/70
f 154/50/84 128/51/70 126/52/84
f 150/50/80 137/51/81 138/52/80
f 137/51/81 150/50/80 151/49/81
f 123/52/76 155/49/85 121/51/85
f 155/49/85 123/52/76 146/50/76
f 129/51/79 141/50/71 149/49/79
f 141/50/71 129/51/79 131/52/71
f 117/49/61 134/52/86 156/50/86
f 134/52/86 117/49/61 118/51/61
f 122/51/83 83/50/58 153/49/83
f 83/50/58 122/51/83 85/52/58
f 121/52/85 84/49/59 86/51/59
f 84/49/59 121/52/85 155/50/85
f 126/51/84 152/50/82 154/49/84
f 152/50/82 126/51/84 124/52/82
f 134/51/86 79/50/56 156/49/86
f 79/50/56 134/51/86 81/52/56
f 155/127/88 87/126/87 84/125/87
f 87/126/87 155/127/88 89/128/88
f 146/125/89 92/128/90 90/126/89
f 92/128/90 146/125/89 147/127/90
f 139/125/91 101/128/92 107/126/91
f 101/128/92 139/125/91 140/127/92
f 116/128/93 151/125/94 150/127/93
f 151/125/94 116/128/93 114/126/94
f 115/128/95 150/125/93 119/127/95
f 150/125/93 115/128/95 116/126/93
f 153/127/97 93/126/96 152/125/96
f 93/126/96 153/127/97 91/128/97
f 79/125/98 108/128/99 109/126/98
f 108/128/99 79/125/98 80/127/99
f 113/128/100 119/125/95 117/127/100
f 119/125/95 113/128/100 115/126/95
f 112/126/101 151/127/94 114/128/94
f 151/127/94 112/126/101 143/125/101
f 156/125/102 109/128/98 111/126/102
f 109/128/98 156/125/102 79/127/98
f 149/125/103 103/128/104 97/126/103
f 103/128/104 149/125/103 141/127/104
f 140/125/92 98/128/105 101/126/92
f 98/128/105 140/125/92 154/127/105
f 111/128/102 117/125/100 156/127/102
f 117/125/100 111/128/102 113/126/100
f 142/125/106 106/128/107 105/126/106
f 106/128/107 142/125/106 145/127/107
f 83/127/108 91/126/97 153/125/97
f 91/126/97 83/127/108 88/128/108
f 84/127/87 88/126/108 83/125/108
f 88/126/108 84/127/87 87/128/87
f 145/125/107 110/128/109 106/126/107
f 110/128/109 145/125/107 144/127/109
f 154/125/105 93/128/96 98/126/105
f 93/128/96 154/125/105 152/127/96
f 80/125/99 107/128/91 108/126/99
f 107/128/91 80/125/99 139/127/91
f 148/125/110 97/128/103 96/126/110
f 97/128/103 148/125/110 149/127/103
f 147/125/90 96/128/110 92/126/90
f 96/128/110 147/125/90 148/127/110
f 141/125/104 105/128/106 103/126/104
f 105/128/106 141/125/104 142/127/106
f 110/126/109 143/127/101 112/128/101
f 143/127/101 110/126/109 144/125/109
f 155/125/88 90/128/89 89/126/88
f 90/128/89 155/125/88 146/127/89

