# Created by Kenney (www.kenney.nl)

mtllib treePineSmall.mtl

g treePineSmall

v -0.2515037 0.384875 -0.2515037
v -0.3080279 0.384875 -0.17784
v -0.2321573 0.299375 -0.2321573
v -0.2843335 0.299375 -0.16416
v 0.32832 0.299375 2.887646E-15
v 0.3171328 0.299375 -0.08497547
v 0.3171328 0.299375 0.08497547
v 0.2843335 0.299375 0.16416
v 0.2843335 0.299375 -0.16416
v 0.2321573 0.299375 0.2321573
v 0.2321573 0.299375 -0.2321573
v 0.16416 0.299375 0.2843335
v 0.16416 0.299375 -0.2843335
v 0.08497547 0.299375 0.3171328
v 0.08497547 0.299375 -0.3171328
v 0.04223474 0.299375 0.04223474
v -1.443823E-15 0.299375 0.32832
v 0.04223474 0.299375 -0.04223474
v -0.04223474 0.299375 0.04223474
v -1.443823E-15 0.299375 -0.32832
v -0.08497547 0.299375 0.3171328
v -0.04223474 0.299375 -0.04223474
v -0.08497547 0.299375 -0.3171328
v -0.16416 0.299375 0.2843335
v -0.16416 0.299375 -0.2843335
v -0.2321573 0.299375 0.2321573
v -0.2843335 0.299375 0.16416
v -0.3171328 0.299375 0.08497547
v -0.3171328 0.299375 -0.08497547
v -0.32832 0.299375 2.887646E-15
v -0.3435605 0.384875 -0.09205676
v -0.35568 0.384875 -4.331469E-15
v -0.17784 0.384875 -0.3080279
v 2.887646E-15 0.384875 -0.35568
v 0.09205676 0.384875 -0.3435605
v 0.35568 0.384875 -4.331469E-15
v 0.3435605 0.384875 0.09205676
v 0.2515037 0.384875 -0.2515037
v 0.3080279 0.384875 -0.17784
v 0.17784 0.384875 0.3080279
v 0.09205676 0.384875 0.3435605
v 2.887646E-15 0.384875 0.35568
v -0.3080279 0.384875 0.17784
v -0.2515037 0.384875 0.2515037
v 0.17784 0.384875 -0.3080279
v -0.3435605 0.384875 0.09205676
v -0.09205676 0.384875 0.3435605
v 0.3080279 0.384875 0.17784
v 0.2515037 0.384875 0.2515037
v -0.09205676 0.384875 -0.3435605
v 0.3435605 0.384875 -0.09205676
v -0.17784 0.384875 0.3080279
v 0.2277398 0.620375 -1.443823E-14
v 0.2199798 0.620375 0.0589434
v 0.1610364 0.620375 0.1610364
v 0.1138699 0.620375 0.1972285
v -0.0589434 0.620375 0.2199798
v -0.1138699 0.620375 0.1972285
v -0.1972285 0.620375 -0.1138699
v -0.2199798 0.620375 -0.0589434
v -0.1610364 0.620375 -0.1610364
v -0.1138699 0.620375 -0.1972285
v -0.2277398 0.620375 -1.299441E-14
v -0.2199798 0.620375 0.0589434
v -0.1972285 0.620375 0.1138699
v -0.1610364 0.620375 0.1610364
v -0.0589434 0.620375 -0.2199798
v 8.662937E-15 0.620375 -0.2277398
v 0.0589434 0.620375 0.2199798
v 0.1972285 0.620375 0.1138699
v -0.16068 0.726935 -0.2783059
v -0.08317409 0.726935 -0.3104099
v -0.02172518 1.363625 -0.03762912
v -0.01124578 1.363625 -0.04196983
v 0.3104099 0.726935 -0.08317409
v 0.32136 0.726935 -4.331469E-15
v 0.04196983 1.363625 -0.01124578
v 0.04345037 1.363625 -1.732587E-14
v 0.3 0.620375 0
v 0.2897778 0.620375 -0.07764571
v 0.2897778 0.620375 0.07764571
v 0.2598076 0.620375 0.15
v 0.2598076 0.620375 -0.15
v 0.212132 0.620375 0.212132
v 0.212132 0.620375 -0.212132
v 0.2199798 0.620375 -0.0589434
v 0.1972285 0.620375 -0.1138699
v 0.15 0.620375 0.2598076
v 0.07764571 0.620375 0.2897778
v 0.15 0.620375 -0.2598076
v 0.1610364 0.620375 -0.1610364
v 0.1138699 0.620375 -0.1972285
v 0.07764571 0.620375 -0.2897778
v 0.0589434 0.620375 -0.2199798
v 0 0.620375 0.3
v 4.331469E-15 0.620375 0.2277398
v -0.07764571 0.620375 0.2897778
v -0.15 0.620375 0.2598076
v 0 0.620375 -0.3
v -0.07764571 0.620375 -0.2897778
v -0.15 0.620375 -0.2598076
v -0.212132 0.620375 0.212132
v -0.212132 0.620375 -0.212132
v -0.2598076 0.620375 0.15
v -0.2598076 0.620375 -0.15
v -0.2897778 0.620375 0.07764571
v -0.2897778 0.620375 -0.07764571
v -0.3 0.620375 0
v -0.2783059 0.726935 -0.16068
v -0.03762912 1.363625 -0.02172518
v -0.3104099 0.726935 -0.08317409
v -0.04196983 1.363625 -0.01124578
v 0.04196983 1.363625 0.01124578
v 0.03762912 1.363625 -0.02172518
v 0.03762912 1.363625 0.02172518
v 0.03072405 1.363625 -0.03072405
v 0.03072405 1.363625 0.03072405
v 0.02172518 1.363625 -0.03762912
v 0.02172518 1.363625 0.03762912
v 0.01124578 1.363625 -0.04196983
v 0.01124578 1.363625 0.04196983
v 4.331469E-15 1.363625 -0.04345037
v 4.331469E-15 1.363625 0.04345037
v -0.01124578 1.363625 0.04196983
v -0.02172518 1.363625 0.03762912
v -0.03072405 1.363625 -0.03072405
v -0.03072405 1.363625 0.03072405
v -0.03762912 1.363625 0.02172518
v -0.04196983 1.363625 0.01124578
v -0.04345037 1.363625 -1.732587E-14
v 2.887646E-15 0.726935 -0.32136
v 0.08317409 0.726935 -0.3104099
v 2.887646E-15 0.726935 0.32136
v -0.08317409 0.726935 0.3104099
v -0.2783059 0.726935 0.16068
v -0.2272358 0.726935 0.2272358
v -0.16068 0.726935 0.2783059
v 0.2783059 0.726935 0.16068
v 0.2272358 0.726935 0.2272358
v 0.16068 0.726935 0.2783059
v 0.08317409 0.726935 0.3104099
v -0.32136 0.726935 -4.331469E-15
v -0.3104099 0.726935 0.08317409
v 0.2272358 0.726935 -0.2272358
v 0.2783059 0.726935 -0.16068
v 0.16068 0.726935 -0.2783059
v 0.3104099 0.726935 0.08317409
v -0.2272358 0.726935 -0.2272358
v 0.1389347 -8.014827E-32 0.1389347
v 0.1389347 -8.014827E-32 -0.1389347
v -0.1389347 -8.014827E-32 0.1389347
v -0.1389347 -8.014827E-32 -0.1389347
v -0.0763 0.1105263 -0.0763
v 0.0763 0.1105263 -0.0763
v -0.0763 0.1105263 0.0763
v 0.0763 0.1105263 0.0763

vn -0.6734655 -0.3047757 -0.6734655
vn -0.8248236 -0.3047757 -0.4762121
vn 0 -1 0
vn -0.919971 -0.3047757 -0.2465055
vn -0.9524242 -0.3047757 0
vn -0.4762121 -0.3047757 -0.8248236
vn 0 -0.3047757 -0.9524242
vn 0.2465055 -0.3047757 -0.919971
vn 0.9524242 -0.3047757 0
vn 0.919971 -0.3047757 0.2465055
vn 0.6734655 -0.3047757 -0.6734655
vn 0.8248236 -0.3047757 -0.4762121
vn 0.4762121 -0.3047757 0.8248236
vn 0.2465055 -0.3047757 0.919971
vn 0 -0.3047757 0.9524242
vn -0.8248236 -0.3047757 0.4762121
vn -0.6734655 -0.3047757 0.6734655
vn 0.4762121 -0.3047757 -0.8248236
vn -0.919971 -0.3047757 0.2465055
vn -0.2465055 -0.3047757 0.919971
vn 0.8248236 -0.3047757 0.4762121
vn 0.6734655 -0.3047757 0.6734655
vn -0.2465055 -0.3047757 -0.919971
vn 0.919971 -0.3047757 -0.2465055
vn -0.4762121 -0.3047757 0.8248236
vn 0.8787011 0.4773723 0
vn 0.8487601 0.4773724 0.2274246
vn 0.6213355 0.4773724 0.6213355
vn 0.4393506 0.4773724 0.7609775
vn -0.2274246 0.4773724 0.8487601
vn -0.4393506 0.4773724 0.7609775
vn -0.7609775 0.4773724 -0.4393506
vn -0.8487601 0.4773724 -0.2274246
vn -0.6213355 0.4773724 -0.6213355
vn -0.4393506 0.4773724 -0.7609775
vn -0.8787011 0.4773723 0
vn -0.8487601 0.4773724 0.2274246
vn -0.7609775 0.4773724 0.4393506
vn -0.6213355 0.4773724 0.6213355
vn -0.2274246 0.4773724 -0.8487601
vn 0 0.4773723 -0.8787011
vn 0.2274246 0.4773724 0.8487601
vn 0.7609775 0.4773724 0.4393506
vn -0.4582483 0.4000427 -0.7937093
vn -0.2372067 0.4000427 -0.8852676
vn 0.8852676 0.4000427 -0.2372067
vn 0.9164965 0.4000427 0
vn 0.2274246 0.4773724 -0.8487601
vn -0.7937093 0.4000427 -0.4582483
vn -0.8852676 0.4000427 -0.2372067
vn 0.4393506 0.4773724 -0.7609775
vn 0.6213355 0.4773724 -0.6213355
vn 0.8487601 0.4773724 -0.2274246
vn 0.7609775 0.4773724 -0.4393506
vn 0 1 0
vn 0 0.4773723 0.8787011
vn 0 0.4000427 -0.9164965
vn 0.2372067 0.4000427 -0.8852676
vn 0 0.4000427 0.9164965
vn -0.2372067 0.4000427 0.8852676
vn -0.7937093 0.4000427 0.4582483
vn -0.6480609 0.4000427 0.6480609
vn -0.4582483 0.4000427 0.7937093
vn 0.7937093 0.4000427 0.4582483
vn 0.6480609 0.4000427 0.6480609
vn 0.4582483 0.4000427 0.7937093
vn 0.2372067 0.4000427 0.8852676
vn -0.9164965 0.4000427 0
vn -0.8852676 0.4000427 0.2372067
vn 0.6480609 0.4000427 -0.6480609
vn 0.7937093 0.4000427 -0.4582483
vn 0.4582483 0.4000427 -0.7937093
vn 0.8852676 0.4000427 0.2372067
vn -0.6480609 0.4000427 -0.6480609
vn 0.9804956 -0.1965408 0
vn 0.947086 -0.1965408 0.2537709
vn 0.8491341 -0.1965408 0.4902479
vn 0.6933151 -0.1965408 0.6933151
vn 0 -0.1965408 -0.9804956
vn 0.2537709 -0.1965408 -0.947086
vn -0.9804956 -0.1965408 0
vn -0.947086 -0.1965408 0.2537709
vn -0.947086 -0.1965408 -0.2537709
vn 0.6933151 -0.1965408 -0.6933151
vn 0.8491341 -0.1965408 -0.4902479
vn -0.4902479 -0.1965408 -0.8491341
vn -0.2537709 -0.1965408 -0.947086
vn -0.8491341 -0.1965408 -0.4902479
vn -0.8491341 -0.1965408 0.4902479
vn -0.6933151 -0.1965408 -0.6933151
vn 0.2537709 -0.1965408 0.947086
vn 0 -0.1965408 0.9804956
vn 0.4902479 -0.1965408 -0.8491341
vn -0.2537709 -0.1965408 0.947086
vn -0.4902479 -0.1965408 0.8491341
vn 0.947086 -0.1965408 -0.2537709
vn -0.6933151 -0.1965408 0.6933151
vn 0.4902479 -0.1965408 0.8491341
vn 0 0.3695303 -0.9292186
vn 0 0.1775189 -0.9841174
vn -0.9292186 0.3695303 0
vn -0.9841174 0.1775189 0
vn 0 0.3695303 0.9292186
vn 0 0.1775189 0.9841174
vn 0.9292186 0.3695303 0
vn 0.9841174 0.1775189 0
vn -0.8700117 0.4930311 0
vn 0.8700117 0.4930311 0
vn 0 0.4930311 -0.8700117
vn 0 0.4930311 0.8700117

vt -1.827778 18.64153
vt 1.827778 18.64153
vt -1.687179 15.11004
vt 1.687179 15.11004
vt 12.92598 1.136868E-13
vt 12.48554 -3.345491
vt 12.48554 3.345491
vt 11.19423 6.462992
vt 11.19423 -6.462992
vt 9.140051 9.140051
vt 9.140051 -9.140051
vt 6.462992 11.19423
vt 6.462992 -11.19423
vt 3.345491 12.48554
vt 3.345491 -12.48554
vt 1.662785 1.662785
vt -5.684342E-14 12.92598
vt 1.662785 -1.662785
vt -1.662785 1.662785
vt -5.684342E-14 -12.92598
vt -3.345491 12.48554
vt -1.662785 -1.662785
vt -3.345491 -12.48554
vt -6.462992 11.19423
vt -6.462992 -11.19423
vt -9.140051 9.140051
vt -9.140051 -9.140051
vt -11.19423 6.462992
vt -11.19423 -6.462992
vt -12.48554 3.345491
vt -12.48554 -3.345491
vt -12.92598 1.136868E-13
vt 1.170315 17.28791
vt 1.827778 6.756872
vt -1.170315 17.28791
vt -1.827778 6.756872
vt 1.651413 21.2836
vt -1.651413 21.2836
vt 0.2232839 48.59668
vt -0.2232839 48.59668
vt 11.81102 0
vt 11.40857 -3.056918
vt 11.40857 3.056918
vt 10.22865 5.905512
vt 10.22865 -5.905512
vt 8.351655 8.351655
vt 8.966134 -5.684342E-13
vt 8.351655 -8.351655
vt 8.660621 2.320606
vt 8.660621 -2.320606
vt 7.7649 4.483067
vt 7.7649 -4.483067
vt 5.905512 10.22865
vt 6.340014 6.340014
vt 4.483067 7.7649
vt 3.056918 11.40857
vt 2.320606 8.660621
vt 5.905512 -10.22865
vt 6.340014 -6.340014
vt 4.483067 -7.7649
vt 3.056918 -11.40857
vt 2.320606 -8.660621
vt 0 11.81102
vt 1.705303E-13 8.966134
vt -2.320606 8.660621
vt -3.056918 11.40857
vt -4.483067 7.7649
vt -5.905512 10.22865
vt -6.340014 6.340014
vt 0 -11.81102
vt 3.410605E-13 -8.966134
vt -2.320606 -8.660621
vt -3.056918 -11.40857
vt -4.483067 -7.7649
vt -5.905512 -10.22865
vt -6.340014 -6.340014
vt -8.351655 8.351655
vt -7.7649 4.483067
vt -8.660621 2.320606
vt -8.351655 -8.351655
vt -7.7649 -4.483067
vt -8.660621 -2.320606
vt -10.22865 5.905512
vt -10.22865 -5.905512
vt -8.966134 -5.115908E-13
vt -11.40857 3.056918
vt -11.40857 -3.056918
vt -11.81102 0
vt -1.710644 -6.82121E-13
vt -1.652356 0.4427474
vt -1.652356 -0.4427474
vt -1.481462 -0.8553222
vt -1.481462 0.8553222
vt -1.209608 -1.209608
vt -1.209608 1.209608
vt -0.8553222 -1.481462
vt -0.8553222 1.481462
vt -0.4427474 -1.652356
vt -0.4427474 1.652356
vt -1.705303E-13 -1.710644
vt -1.705303E-13 1.710644
vt 0.4427474 -1.652356
vt 0.4427474 1.652356
vt 0.8553222 -1.481462
vt 0.8553222 1.481462
vt 1.209608 -1.209608
vt 1.209608 1.209608
vt 1.481462 -0.8553222
vt 1.481462 0.8553222
vt 1.652356 -0.4427474
vt 1.652356 0.4427474
vt 1.710644 -6.82121E-13
vt 1.651413 30.51559
vt 1.541648 26.23827
vt -1.651413 30.51559
vt -1.541648 26.23827
vt 5.469869 5.469869
vt 5.469869 -5.469869
vt -5.469869 5.469869
vt -5.469869 -5.469869
vt 3.003937 3.749062
vt -3.003937 3.749062
vt 1.662785 11.30404
vt -1.662785 11.30404
vt -5.469869 -2.696815
vt -3.003937 2.30476
vt 5.469869 -2.696815
vt 3.003937 2.30476

usemtl grass

f 3/3/1 2/2/2 1/1/1
f 2/2/2 3/3/1 4/4/2
f 7/7/3 6/6/3 5/5/3
f 6/6/3 7/7/3 8/8/3
f 6/6/3 8/8/3 9/9/3
f 9/9/3 8/8/3 10/10/3
f 9/9/3 10/10/3 11/11/3
f 11/11/3 10/10/3 12/12/3
f 11/11/3 12/12/3 13/13/3
f 13/13/3 12/12/3 14/14/3
f 13/13/3 14/14/3 15/15/3
f 15/15/3 14/14/3 16/16/3
f 16/16/3 14/14/3 17/17/3
f 15/15/3 16/16/3 18/18/3
f 16/16/3 17/17/3 19/19/3
f 18/18/3 20/20/3 15/15/3
f 19/19/3 17/17/3 21/21/3
f 20/20/3 18/18/3 22/22/3
f 19/19/3 21/21/3 22/22/3
f 20/20/3 22/22/3 23/23/3
f 23/23/3 22/22/3 21/21/3
f 23/23/3 21/21/3 24/24/3
f 23/23/3 24/24/3 25/25/3
f 25/25/3 24/24/3 26/26/3
f 25/25/3 26/26/3 3/27/3
f 3/27/3 26/26/3 27/28/3
f 3/27/3 27/28/3 4/29/3
f 4/29/3 27/28/3 28/30/3
f 4/29/3 28/30/3 29/31/3
f 29/31/3 28/30/3 30/32/3
f 29/3/4 32/2/5 31/1/4
f 32/2/5 29/3/4 30/4/5
f 1/2/1 25/3/6 3/4/1
f 25/3/6 1/2/1 33/1/6
f 34/2/7 15/3/8 20/4/7
f 15/3/8 34/2/7 35/1/8
f 37/1/10 5/4/9 36/2/9
f 5/4/9 37/1/10 7/3/10
f 39/1/12 11/4/11 38/2/11
f 11/4/11 39/1/12 9/3/12
f 40/2/13 14/3/14 12/4/13
f 14/3/14 40/2/13 41/1/14
f 4/3/2 31/2/4 2/1/2
f 31/2/4 4/3/2 29/4/4
f 41/2/14 17/3/15 14/4/14
f 17/3/15 41/2/14 42/1/15
f 26/4/17 43/1/16 27/3/16
f 43/1/16 26/4/17 44/2/17
f 45/2/18 11/3/11 13/4/18
f 11/3/11 45/2/18 38/1/11
f 27/4/16 46/1/19 28/3/19
f 46/1/19 27/4/16 43/2/16
f 42/2/15 21/3/20 17/4/15
f 21/3/20 42/2/15 47/1/20
f 48/2/21 10/3/22 8/4/21
f 10/3/22 48/2/21 49/1/22
f 30/3/5 46/2/19 32/1/5
f 46/2/19 30/3/5 28/4/19
f 35/2/8 13/3/18 15/4/8
f 13/3/18 35/2/8 45/1/18
f 50/2/23 20/3/7 23/4/23
f 20/3/7 50/2/23 34/1/7
f 51/1/24 9/4/12 39/2/12
f 9/4/12 51/1/24 6/3/24
f 37/2/10 8/3/21 7/4/10
f 8/3/21 37/2/10 48/1/21
f 49/2/22 12/3/13 10/4/22
f 12/3/13 49/2/22 40/1/13
f 47/2/20 24/3/25 21/4/20
f 24/3/25 47/2/20 52/1/25
f 54/35/27 36/34/26 53/33/26
f 36/34/26 54/35/27 37/36/27
f 55/33/28 40/36/29 49/34/28
f 40/36/29 55/33/28 56/35/29
f 57/33/30 52/36/31 47/34/30
f 52/36/31 57/33/30 58/35/31
f 31/34/33 59/35/32 2/36/32
f 59/35/32 31/34/33 60/33/33
f 61/33/34 33/36/35 1/34/34
f 33/36/35 61/33/34 62/35/35
f 32/36/36 64/33/37 63/35/36
f 64/33/37 32/36/36 46/34/37
f 43/36/38 66/33/39 65/35/38
f 66/33/39 43/36/38 44/34/39
f 46/36/37 65/33/38 64/35/37
f 65/33/38 46/36/37 43/34/38
f 67/33/40 34/36/41 50/34/40
f 34/36/41 67/33/40 68/35/41
f 56/33/29 41/36/42 40/34/29
f 41/36/42 56/33/29 69/35/42
f 58/33/31 44/36/39 52/34/31
f 44/36/39 58/33/31 66/35/39
f 2/34/32 61/35/34 1/36/34
f 61/35/34 2/34/32 59/33/32
f 52/2/25 26/3/17 24/4/25
f 26/3/17 52/2/25 44/1/17
f 36/1/9 6/4/24 51/2/24
f 6/4/24 36/1/9 5/3/9
f 70/35/43 37/34/27 54/33/27
f 37/34/27 70/35/43 48/36/43
f 32/34/36 60/35/33 31/36/33
f 60/35/33 32/34/36 63/33/36
f 33/2/6 23/3/23 25/4/6
f 23/3/23 33/2/6 50/1/23
f 73/39/44 72/38/45 71/37/44
f 72/38/45 73/39/44 74/40/45
f 77/39/46 76/38/47 75/37/46
f 76/38/47 77/39/46 78/40/47
f 81/43/3 80/42/3 79/41/3
f 80/42/3 81/43/3 82/44/3
f 80/42/3 82/44/3 83/45/3
f 83/45/3 82/44/3 84/46/3
f 83/45/3 84/46/3 53/47/3
f 53/47/3 85/48/3 83/45/3
f 53/47/3 84/46/3 54/49/3
f 85/48/3 53/47/3 86/50/3
f 54/49/3 84/46/3 70/51/3
f 85/48/3 86/50/3 87/52/3
f 70/51/3 84/46/3 88/53/3
f 70/51/3 88/53/3 55/54/3
f 55/54/3 88/53/3 56/55/3
f 56/55/3 88/53/3 89/56/3
f 56/55/3 89/56/3 69/57/3
f 85/48/3 87/52/3 90/58/3
f 90/58/3 87/52/3 91/59/3
f 90/58/3 91/59/3 92/60/3
f 90/58/3 92/60/3 93/61/3
f 93/61/3 92/60/3 94/62/3
f 69/57/3 89/56/3 95/63/3
f 69/57/3 95/63/3 96/64/3
f 96/64/3 95/63/3 57/65/3
f 57/65/3 95/63/3 97/66/3
f 57/65/3 97/66/3 58/67/3
f 58/67/3 97/66/3 98/68/3
f 58/67/3 98/68/3 66/69/3
f 93/61/3 94/62/3 99/70/3
f 99/70/3 94/62/3 68/71/3
f 99/70/3 68/71/3 67/72/3
f 99/70/3 67/72/3 100/73/3
f 100/73/3 67/72/3 62/74/3
f 100/73/3 62/74/3 101/75/3
f 101/75/3 62/74/3 61/76/3
f 66/69/3 98/68/3 102/77/3
f 66/69/3 102/77/3 65/78/3
f 65/78/3 102/77/3 64/79/3
f 101/75/3 61/76/3 103/80/3
f 103/80/3 61/76/3 59/81/3
f 103/80/3 59/81/3 60/82/3
f 64/79/3 102/77/3 104/83/3
f 103/80/3 60/82/3 105/84/3
f 64/79/3 104/83/3 63/85/3
f 105/84/3 60/82/3 63/85/3
f 105/84/3 63/85/3 104/83/3
f 105/84/3 104/83/3 106/86/3
f 105/84/3 106/86/3 107/87/3
f 107/87/3 106/86/3 108/88/3
f 68/33/41 35/36/48 34/34/41
f 35/36/48 68/33/41 94/35/48
f 111/37/50 110/40/49 109/38/49
f 110/40/49 111/37/50 112/39/50
f 55/35/28 48/34/43 70/33/43
f 48/34/43 55/35/28 49/36/28
f 92/33/51 38/36/52 45/34/51
f 38/36/52 92/33/51 91/35/52
f 86/33/53 36/36/26 51/34/53
f 36/36/26 86/33/53 53/35/26
f 91/33/52 39/36/54 38/34/52
f 39/36/54 91/33/52 87/35/54
f 94/33/48 45/36/51 35/34/48
f 45/36/51 94/33/48 92/35/51
f 77/91/55 113/90/55 78/89/55
f 113/90/55 77/91/55 114/92/55
f 113/90/55 114/92/55 115/93/55
f 115/93/55 114/92/55 116/94/55
f 115/93/55 116/94/55 117/95/55
f 117/95/55 116/94/55 118/96/55
f 117/95/55 118/96/55 119/97/55
f 119/97/55 118/96/55 120/98/55
f 119/97/55 120/98/55 121/99/55
f 121/99/55 120/98/55 122/100/55
f 121/99/55 122/100/55 123/101/55
f 123/101/55 122/100/55 74/102/55
f 123/101/55 74/102/55 124/103/55
f 124/103/55 74/102/55 73/104/55
f 124/103/55 73/104/55 125/105/55
f 125/105/55 73/104/55 126/106/55
f 125/105/55 126/106/55 127/107/55
f 127/107/55 126/106/55 110/108/55
f 127/107/55 110/108/55 128/109/55
f 128/109/55 110/108/55 112/110/55
f 128/109/55 112/110/55 129/111/55
f 129/111/55 112/110/55 130/112/55
f 69/33/42 42/36/56 41/34/42
f 42/36/56 69/33/42 96/35/56
f 87/33/54 51/36/53 39/34/54
f 51/36/53 87/33/54 86/35/53
f 122/39/57 132/38/58 131/37/57
f 132/38/58 122/39/57 120/40/58
f 96/33/56 47/36/30 42/34/56
f 47/36/30 96/33/56 57/35/30
f 62/33/35 50/36/40 33/34/35
f 50/36/40 62/33/35 67/35/40
f 123/39/59 134/38/60 133/37/59
f 134/38/60 123/39/59 124/40/60
f 135/38/61 127/39/62 128/40/61
f 127/39/62 135/38/61 136/37/62
f 74/39/45 131/38/57 72/37/45
f 131/38/57 74/39/45 122/40/57
f 125/39/63 136/38/62 137/37/63
f 136/38/62 125/39/63 127/40/62
f 117/40/65 138/37/64 115/39/64
f 138/37/64 117/40/65 139/38/65
f 119/39/66 141/38/67 140/37/66
f 141/38/67 119/39/66 121/40/67
f 124/39/60 137/38/63 134/37/60
f 137/38/63 124/39/60 125/40/63
f 142/37/68 112/40/50 111/38/50
f 112/40/50 142/37/68 130/39/68
f 143/38/69 128/39/61 129/40/69
f 128/39/61 143/38/69 135/37/61
f 117/39/65 140/38/66 139/37/65
f 140/38/66 117/39/65 119/40/66
f 116/39/70 145/38/71 144/37/70
f 145/38/71 116/39/70 114/40/71
f 120/39/58 146/38/72 132/37/58
f 146/38/72 120/39/58 118/40/72
f 142/38/68 129/39/69 130/40/68
f 129/39/69 142/38/68 143/37/69
f 115/40/64 147/37/73 113/39/73
f 147/37/73 115/40/64 138/38/64
f 121/39/67 133/38/59 141/37/67
f 133/38/59 121/39/67 123/40/59
f 109/37/49 126/40/74 148/38/74
f 126/40/74 109/37/49 110/39/49
f 114/39/71 75/38/46 145/37/71
f 75/38/46 114/39/71 77/40/46
f 113/40/73 76/37/47 78/39/47
f 76/37/47 113/40/73 147/38/73
f 118/39/72 144/38/70 146/37/72
f 144/38/70 118/39/72 116/40/70
f 126/39/74 71/38/44 148/37/74
f 71/38/44 126/39/74 73/40/44
f 147/115/76 79/114/75 76/113/75
f 79/114/75 147/115/76 81/116/76
f 138/113/77 84/116/78 82/114/77
f 84/116/78 138/113/77 139/115/78
f 131/113/79 93/116/80 99/114/79
f 93/116/80 131/113/79 132/115/80
f 108/116/81 143/113/82 142/115/81
f 143/113/82 108/116/81 106/114/82
f 107/116/83 142/113/81 111/115/83
f 142/113/81 107/116/83 108/114/81
f 145/115/85 85/114/84 144/113/84
f 85/114/84 145/115/85 83/116/85
f 71/113/86 100/116/87 101/114/86
f 100/116/87 71/113/86 72/115/87
f 105/116/88 111/113/83 109/115/88
f 111/113/83 105/116/88 107/114/83
f 104/114/89 143/115/82 106/116/82
f 143/115/82 104/114/89 135/113/89
f 148/113/90 101/116/86 103/114/90
f 101/116/86 148/113/90 71/115/86
f 141/113/91 95/116/92 89/114/91
f 95/116/92 141/113/91 133/115/92
f 132/113/80 90/116/93 93/114/80
f 90/116/93 132/113/80 146/115/93
f 103/116/90 109/113/88 148/115/90
f 109/113/88 103/116/90 105/114/88
f 134/113/94 98/116/95 97/114/94
f 98/116/95 134/113/94 137/115/95
f 75/115/96 83/114/85 145/113/85
f 83/114/85 75/115/96 80/116/96
f 76/115/75 80/114/96 75/113/96
f 80/114/96 76/115/75 79/116/75
f 137/113/95 102/116/97 98/114/95
f 102/116/97 137/113/95 136/115/97
f 146/113/93 85/116/84 90/114/93
f 85/116/84 146/113/93 144/115/84
f 72/113/87 99/116/79 100/114/87
f 99/116/79 72/113/87 131/115/79
f 140/113/98 89/116/91 88/114/98
f 89/116/91 140/113/98 141/115/91
f 139/113/78 88/116/98 84/114/78
f 88/116/98 139/113/78 140/115/98
f 133/113/92 97/116/94 95/114/92
f 97/116/94 133/113/92 134/115/94
f 102/114/97 135/115/89 104/116/89
f 135/115/89 102/114/97 136/113/97
f 147/113/76 82/116/77 81/114/76
f 82/116/77 147/113/76 138/115/77

usemtl dirt

f 151/119/3 150/118/3 149/117/3
f 150/118/3 151/119/3 152/120/3
f 22/123/100 154/122/99 153/121/99
f 154/122/99 22/123/100 18/124/100
f 155/121/101 22/124/102 153/122/101
f 22/124/102 155/121/101 19/123/102
f 16/123/104 155/122/103 156/121/103
f 155/122/103 16/123/104 19/124/104
f 18/123/106 156/122/105 154/121/105
f 156/122/105 18/123/106 16/124/106
f 151/127/107 153/126/101 152/125/107
f 153/126/101 151/127/107 155/128/101
f 154/128/105 149/125/108 150/127/108
f 149/125/108 154/128/105 156/126/105
f 153/128/99 150/125/109 152/127/109
f 150/125/109 153/128/99 154/126/99
f 156/128/103 151/125/110 149/127/110
f 151/125/110 156/128/103 155/126/103

