<svg width="34" height="34" viewBox="0 0 34 34" fill="none" xmlns="http://www.w3.org/2000/svg">
<g id="icon">
<path fill-rule="evenodd" clip-rule="evenodd" d="M17 26C21.9706 26 26 21.9706 26 17C26 12.0294 21.9706 8 17 8C12.0294 8 8 12.0294 8 17C8 21.9706 12.0294 26 17 26ZM17 23C20.3137 23 23 20.3137 23 17C23 13.6863 20.3137 11 17 11C13.6863 11 11 13.6863 11 17C11 20.3137 13.6863 23 17 23Z" fill="#2BDAE1"/>
<path d="M26 6.5C25.1716 6.5 24.5 7.17157 24.5 8C24.5 8.82843 25.1716 9.5 26 9.5C26.8284 9.5 27.5 8.82843 27.5 8C27.5 7.17157 26.8284 6.5 26 6.5Z" fill="#2BDAE1"/>
<path fill-rule="evenodd" clip-rule="evenodd" d="M1.48094 5.41409C0.5 7.33929 0.5 9.85953 0.5 14.9V19.1C0.5 24.1405 0.5 26.6607 1.48094 28.5859C2.3438 30.2794 3.72063 31.6562 5.41409 32.5191C7.33929 33.5 9.85953 33.5 14.9 33.5H19.1C24.1405 33.5 26.6607 33.5 28.5859 32.5191C30.2794 31.6562 31.6562 30.2794 32.5191 28.5859C33.5 26.6607 33.5 24.1405 33.5 19.1V14.9C33.5 9.85953 33.5 7.33929 32.5191 5.41409C31.6562 3.72063 30.2794 2.3438 28.5859 1.48094C26.6607 0.5 24.1405 0.5 19.1 0.5H14.9C9.85953 0.5 7.33929 0.5 5.41409 1.48094C3.72063 2.3438 2.3438 3.72063 1.48094 5.41409ZM19.1 3.5H14.9C12.3303 3.5 10.5834 3.50233 9.23311 3.61265C7.91787 3.72011 7.24526 3.91489 6.77606 4.15396C5.64708 4.7292 4.7292 5.64708 4.15396 6.77606C3.91489 7.24526 3.72011 7.91787 3.61265 9.23311C3.50233 10.5834 3.5 12.3303 3.5 14.9V19.1C3.5 21.6697 3.50233 23.4166 3.61265 24.7669C3.72011 26.0821 3.91489 26.7547 4.15396 27.2239C4.7292 28.3529 5.64708 29.2708 6.77606 29.846C7.24526 30.0851 7.91787 30.2799 9.23311 30.3873C10.5834 30.4977 12.3303 30.5 14.9 30.5H19.1C21.6697 30.5 23.4166 30.4977 24.7669 30.3873C26.0821 30.2799 26.7547 30.0851 27.2239 29.846C28.3529 29.2708 29.2708 28.3529 29.846 27.2239C30.0851 26.7547 30.2799 26.0821 30.3873 24.7669C30.4977 23.4166 30.5 21.6697 30.5 19.1V14.9C30.5 12.3303 30.4977 10.5834 30.3873 9.23311C30.2799 7.91787 30.0851 7.24526 29.846 6.77606C29.2708 5.64708 28.3529 4.7292 27.2239 4.15396C26.7547 3.91489 26.0821 3.72011 24.7669 3.61265C23.4166 3.50233 21.6697 3.5 19.1 3.5Z" fill="#2BDAE1"/>
</g>
</svg>
