<svg width="36" height="36" viewBox="0 0 36 36" fill="none" xmlns="http://www.w3.org/2000/svg">
<g id="twitter">
<path id="icon" fill-rule="evenodd" clip-rule="evenodd" d="M29.6741 5.87749C30.1969 5.7536 30.5615 5.63179 30.8601 5.50384C31.2786 5.32453 31.6256 5.10974 32.1737 4.74798C32.6344 4.44395 33.2248 4.41748 33.7108 4.67905C34.1969 4.94062 34.5 5.44797 34.5 5.99991C34.5 7.62131 34.298 8.95021 33.8302 10.1197C33.4367 11.1034 32.8838 11.9024 32.2225 12.6296C31.9431 17.6744 30.4829 21.636 28.2504 24.6374C25.9366 27.7482 22.8579 29.7404 19.6126 30.856C16.3768 31.9682 12.9579 32.2168 9.89505 31.8402C6.85223 31.4661 4.03956 30.4587 2.07907 28.9339C1.54219 28.5163 1.35346 27.7897 1.61926 27.1637C1.88506 26.5376 2.53884 26.1687 3.21216 26.2649C5.14111 26.5405 6.99795 26.102 8.52479 25.4749C8.22422 25.3114 7.94082 25.1344 7.67742 24.952C6.28612 23.9888 5.16359 22.6813 4.65834 21.6708C4.44926 21.2527 4.44711 20.7609 4.65251 20.341C4.75847 20.1243 4.91342 19.9395 5.10155 19.7988C3.07015 18.1223 2.24998 15.8034 2.24998 14.2499C2.24998 13.788 2.46279 13.3519 2.82688 13.0676C2.97996 12.9481 3.15261 12.861 3.33462 12.8086C3.18261 12.3635 3.06464 11.9137 2.97473 11.4784C2.57608 9.54807 2.61146 7.36938 3.04476 5.63612C3.19304 5.04299 3.68646 4.59921 4.29192 4.51441C4.89739 4.42961 5.49374 4.72076 5.79926 5.25033C7.41552 8.05185 10.3967 9.76427 13.1713 10.7786C14.4757 11.2555 15.6839 11.5595 16.5894 11.7463C16.7848 9.91541 17.2961 8.40552 18.0807 7.20628C19.1158 5.6241 20.5595 4.68799 22.1101 4.27059C24.784 3.55074 27.7512 4.37086 29.6741 5.87749ZM16.1226 14.7128C15.095 14.5064 13.6826 14.1598 12.1412 13.5962C10.1053 12.8519 7.74131 11.6914 5.76107 9.89368C5.79651 10.2245 5.84683 10.5525 5.91273 10.8716C6.24461 12.4786 6.86129 13.3786 7.4208 13.6584C8.10512 14.0005 8.42226 14.8029 8.1568 15.5204C7.7974 16.492 6.85213 16.5717 5.99325 16.357C6.68404 17.3927 7.92565 18.4253 9.99658 18.7704C10.7109 18.8895 11.2381 19.5018 11.2498 20.2258C11.2615 20.9499 10.7542 21.5789 10.0442 21.7209L8.73846 21.982C8.9382 22.1556 9.15449 22.3258 9.38505 22.4855C10.4304 23.2092 11.48 23.5213 12.3862 23.2948C13.0649 23.1251 13.7707 23.4471 14.0874 24.0709C14.4042 24.6946 14.2477 25.4545 13.7103 25.9023C12.7444 26.7063 11.6164 27.3513 10.4858 27.8868C9.95512 28.1382 9.362 28.3863 8.71784 28.6047C9.21327 28.7104 9.72878 28.7972 10.2612 28.8626C12.917 29.1892 15.8731 28.9691 18.6374 28.0189C21.392 27.072 23.9384 25.4079 25.8433 22.8469C27.7456 20.2894 29.073 16.7502 29.251 11.9445C29.265 11.5661 29.4216 11.2071 29.6893 10.9393C30.3638 10.2649 30.9212 9.49178 31.1954 8.57158C30.7155 8.72116 30.1752 8.85064 29.5316 8.97368C29.0435 9.06701 28.5408 8.91246 28.1893 8.56102C27.0425 7.41424 24.7746 6.66009 22.8899 7.16745C22.0029 7.40623 21.1967 7.92317 20.5912 8.84871C19.9729 9.79368 19.5 11.2658 19.5 13.5C19.5 13.9244 19.3202 14.329 19.0051 14.6134C18.2581 15.2877 17.0009 14.8892 16.1226 14.7128Z" fill="#2BDAE1"/>
</g>
</svg>
