<svg width="36" height="36" viewBox="0 0 36 36" fill="none" xmlns="http://www.w3.org/2000/svg">
<g id="youtube">
<g id="icon">
<path fill-rule="evenodd" clip-rule="evenodd" d="M14.2442 10.6976C13.78 10.4323 13.2096 10.4343 12.7471 10.7026C12.2846 10.971 12 11.4653 12 12V24C12 24.5347 12.2846 25.029 12.7471 25.2974C13.2096 25.5657 13.78 25.5677 14.2442 25.3024L24.7442 19.3024C25.2116 19.0353 25.5 18.5383 25.5 18C25.5 17.4617 25.2116 16.9647 24.7442 16.6976L14.2442 10.6976ZM20.9767 18L15 21.4152V14.5848L20.9767 18Z" fill="#2BDAE1"/>
<path fill-rule="evenodd" clip-rule="evenodd" d="M0 18C0 12.3754 0 9.5631 1.43237 7.59161C1.89497 6.9549 2.4549 6.39497 3.09161 5.93237C5.0631 4.5 7.8754 4.5 13.5 4.5H22.5C28.1246 4.5 30.9369 4.5 32.9084 5.93237C33.5451 6.39497 34.105 6.9549 34.5676 7.59161C36 9.5631 36 12.3754 36 18C36 23.6246 36 26.4369 34.5676 28.4084C34.105 29.0451 33.5451 29.605 32.9084 30.0676C30.9369 31.5 28.1246 31.5 22.5 31.5H13.5C7.8754 31.5 5.0631 31.5 3.09161 30.0676C2.4549 29.605 1.89497 29.0451 1.43237 28.4084C0 26.4369 0 23.6246 0 18ZM13.5 7.5H22.5C25.3791 7.5 27.2975 7.50412 28.751 7.66159C30.1483 7.81298 30.7559 8.07672 31.145 8.35942C31.5271 8.63698 31.863 8.97294 32.1406 9.35497C32.4233 9.74407 32.687 10.3517 32.8384 11.749C32.9959 13.2025 33 15.1209 33 18C33 20.8791 32.9959 22.7975 32.8384 24.251C32.687 25.6483 32.4233 26.2559 32.1406 26.645C31.863 27.0271 31.5271 27.363 31.145 27.6406C30.7559 27.9233 30.1483 28.187 28.751 28.3384C27.2975 28.4959 25.3791 28.5 22.5 28.5H13.5C10.6209 28.5 8.70251 28.4959 7.24903 28.3384C5.85169 28.187 5.24407 27.9233 4.85497 27.6406C4.47294 27.363 4.13698 27.0271 3.85942 26.645C3.57672 26.2559 3.31298 25.6483 3.16159 24.251C3.00412 22.7975 3 20.8791 3 18C3 15.1209 3.00412 13.2025 3.16159 11.749C3.31298 10.3517 3.57672 9.74407 3.85942 9.35497C4.13698 8.97294 4.47294 8.63698 4.85497 8.35942C5.24407 8.07672 5.85169 7.81298 7.24903 7.66159C8.70251 7.50412 10.6209 7.5 13.5 7.5Z" fill="#2BDAE1"/>
</g>
</g>
</svg>
